<svg width="83" height="54" viewBox="0 0 83 54" fill="none" xmlns="http://www.w3.org/2000/svg">
<g clip-path="url(#clip0_587_8)">
<path d="M61.7613 20.9219C62.1711 20.9219 62.6146 20.8536 63.0315 20.7234C63.7962 20.5037 64.1173 20.3671 64.4774 20.3671C64.5856 20.3671 64.6921 20.382 64.818 20.4055C65.0398 20.4503 65.2669 20.4738 65.4993 20.4738C66.0936 20.4738 66.5673 20.382 66.9398 20.1473C67.8676 19.5627 67.7169 18.8564 67.3443 18.2931C67.174 18.0349 67.0604 17.9132 66.9469 17.9132C66.8209 17.9132 66.695 18.0882 66.4856 18.4446C66.3029 18.7625 66.0687 19.0378 65.7459 19.0378C65.6962 19.0378 65.6447 19.0292 65.5951 19.0143C65.4691 18.9759 65.7157 18.9225 66.0368 17.8983C66.1503 17.5334 66.2018 17.1301 66.2018 16.6757C66.2018 16.4623 66.1645 16.1358 66.0936 15.8179C65.9233 15.0348 65.5702 14.9451 64.653 14.8534C63.7305 14.7616 63.9842 14.8086 64.2876 16.2745C64.4579 17.0576 64.3071 17.4822 64.0161 17.4822C63.7642 17.4822 63.4094 17.1856 63.0493 16.5412C62.3237 15.2503 62.6448 14.9387 63.6879 13.731C64.08 13.2744 64.3443 12.7367 64.3443 12.1051C64.3443 11.1705 63.7766 10.2359 62.3237 10.2359C60.1327 10.2359 59.6147 11.9301 59.6147 13.1293C59.6147 13.3875 59.6271 13.6457 59.6643 13.9039C59.7459 14.5717 59.4745 14.7019 58.7099 16.0312C58.426 16.5242 58.2557 17.0725 58.2557 17.6572C58.2557 19.1679 59.6005 20.924 61.7613 20.924V20.9219ZM61.9014 12.9074C61.9014 12.3526 62.1161 11.5098 62.6146 11.5098C62.7282 11.5098 62.9109 11.6015 62.9109 11.8661C62.9109 12.0859 62.7973 12.3227 62.6199 12.5489C62.2669 13.0055 62.0576 13.125 61.9635 13.125C61.9263 13.125 61.8997 13.1016 61.8997 13.0653V12.9052L61.9014 12.9074ZM60.4733 16.8357C60.6064 16.8357 60.853 17.2155 61.4331 18.0199C62.3556 19.3194 62.6199 19.4112 62.2598 19.4858C62.1143 19.5157 61.976 19.5392 61.8305 19.5392C60.7696 19.5392 60.2587 18.6814 60.2587 17.6252C60.2587 17.4886 60.3083 16.8357 60.4733 16.8357ZM21.8678 25.4562C25.2545 25.4562 27.0942 22.9703 27.7577 20.8365C28.0522 19.9275 28.1781 19.0185 28.1781 18.0882C28.1781 15.3079 26.6986 10.8419 21.9103 10.8419C20.264 10.8419 18.9778 11.3988 18.0109 12.2267C15.8927 14.0447 15.8767 15.421 15.6834 16.6436C15.6071 17.128 15.5734 17.6038 15.5734 18.0882C15.5734 22.6972 18.5574 25.4562 21.8678 25.4562ZM21.9086 12.7217C24.0517 12.7217 25.1764 15.5213 25.1764 18.0882C25.1764 18.4531 25.1587 18.8265 25.109 19.1893C25.0079 20.1089 25.1001 21.0798 23.7891 22.6054C23.2675 23.2114 22.604 23.5849 21.8642 23.5849C19.73 23.5849 18.5538 20.6445 18.5538 18.0861C18.5538 15.5277 19.7052 12.7196 21.9068 12.7196L21.9086 12.7217ZM35.647 25.4562C39.0337 25.4562 40.8734 22.9703 41.5369 20.8365C41.8314 19.9275 41.9573 19.0185 41.9573 18.0882C41.9573 15.3079 40.4778 10.8419 35.6896 10.8419C34.0432 10.8419 32.757 11.3988 31.7901 12.2267C29.6719 14.0447 29.6559 15.421 29.4626 16.6436C29.3863 17.128 29.3526 17.6038 29.3526 18.0882C29.3526 22.6972 32.3348 25.4562 35.647 25.4562ZM35.6896 12.7217C37.8326 12.7217 38.9574 15.5213 38.9574 18.0882C38.9574 18.4531 38.9414 18.8265 38.89 19.1893C38.7889 20.1089 38.8811 21.0798 37.5701 22.6054C37.0485 23.2114 36.385 23.5849 35.6452 23.5849C33.511 23.5849 32.3348 20.6445 32.3348 18.0861C32.3348 15.5277 33.4862 12.7196 35.6878 12.7196L35.6896 12.7217ZM44.1838 15.3506V20.9795C44.1838 21.8693 44.1004 22.7185 43.8485 23.4547C43.201 25.3538 42.9916 25.1831 45.5463 25.1831H48.5799C51.6633 25.1831 55.3445 22.6759 55.3445 18.0882C55.3445 13.5006 51.6225 11.0232 48.5799 11.0232H45.4789C42.8657 11.0232 42.9757 10.9528 43.7563 12.933C44.0419 13.6606 44.1678 14.48 44.1856 15.3484L44.1838 15.3506ZM48.7804 13.2274C49.2346 13.2274 49.8058 13.5006 50.4942 14.0767C51.461 14.8854 52.1405 16.1273 52.1405 17.8962C52.1405 19.6651 51.477 20.988 50.5101 21.8992C49.7952 22.5862 49.208 22.8999 48.7449 22.8999C47.645 22.8999 47.182 21.1523 47.182 18.0989C47.182 15.0454 47.6273 13.2274 48.7786 13.2274H48.7804ZM1.11115 6.36732C-0.114735 3.38642 0.25782 3.52725 7.07202 3.52725C13.8862 3.52725 15.176 4.0543 15.176 6.8645C15.176 8.21518 15.2026 8.74223 14.9702 8.74223C14.7378 8.74223 14.1967 8.1533 13.0223 7.36167C12.1707 6.78768 11.1648 6.5551 9.87328 6.43134H8.11873C6.6356 6.43134 6.34998 6.8965 6.34998 9.36529C6.34998 11.8341 6.64625 12.2993 8.17017 12.2993H9.96376C11.1896 12.2374 11.8869 11.9429 12.3641 11.4777C12.7774 11.0745 13.0223 10.8099 13.1766 10.8099C13.4214 10.8099 13.37 11.5866 13.37 13.7438C13.37 15.9011 13.4214 16.6927 13.1766 16.6927C13.0223 16.6927 12.7774 16.4281 12.3641 16.0248C11.8869 15.5597 11.1896 15.2652 9.96376 15.2033H8.17017C6.64802 15.2033 6.34998 15.4359 6.34998 16.6927C6.34998 17.9495 5.89759 19.0057 6.80237 22.1403C7.73198 25.4775 8.17017 25.2748 4.05433 25.2748C-0.0615129 25.2748 0.234757 25.5074 1.24065 22.5116C2.20752 19.6395 1.74449 18.1181 1.74449 14.4864V10.1719C1.74449 8.71235 1.55112 7.45556 1.11292 6.36946L1.11115 6.36732ZM26.6861 48.6526C26.9806 47.7436 27.1066 46.8346 27.1066 45.9043C27.1066 43.1239 25.627 38.6579 20.8388 38.6579C19.1925 38.6579 17.9063 39.2148 16.9394 40.0428C14.8229 41.8607 14.8052 43.237 14.6118 44.4597C14.5355 44.9441 14.5036 45.4199 14.5036 45.9043C14.5036 50.5132 17.4858 53.2722 20.7962 53.2722C24.1066 53.2722 26.0226 50.7864 26.6861 48.6526ZM17.484 45.9043C17.484 43.2669 18.6354 40.5378 20.837 40.5378C23.0387 40.5378 24.1049 43.3373 24.1049 45.9043C24.1049 46.2691 24.0889 46.6426 24.0375 47.0053C23.9363 47.925 24.0286 48.8958 22.7176 50.4215C22.196 51.0275 21.5325 51.4009 20.7927 51.4009C18.6585 51.4009 17.4823 48.4605 17.4823 45.9021L17.484 45.9043ZM32.6435 50.9571C32.4075 50.1078 32.3578 49.169 32.333 48.3795V48.0253C32.333 47.7415 32.4004 47.6817 32.702 47.671C32.9965 47.6604 33.197 47.9036 34.0131 49.1455C34.8274 50.398 35.3401 50.7224 35.5334 51.9642C35.6683 52.8327 35.7854 52.9948 38.0633 52.9948C40.3412 52.9948 40.4334 53.0759 39.5162 52.0453C39.1383 51.6015 38.7764 51.0958 38.4819 50.6413L37.3394 48.883C36.3726 47.4171 36.9367 47.5686 38.3897 45.5373C38.8847 44.8608 39.1295 44.0415 39.1295 43.1218C39.1295 40.828 37.1212 38.8372 34.1639 38.8372H30.8446C28.0469 38.8372 28.1639 38.7369 28.9037 40.717C29.1734 41.4553 29.2994 42.3344 29.349 43.4547V48.3773C29.3242 49.1647 29.2727 50.1057 29.0386 50.9549C28.4336 53.1271 28.1639 52.997 30.8375 52.997C33.511 52.997 33.2413 53.1186 32.6435 50.9549V50.9571ZM32.8439 40.7298H33.3389C34.893 40.7298 35.9681 41.8607 35.9681 43.2264C35.9681 44.9441 34.7582 45.7741 32.5991 45.7741H32.4732C32.3561 45.7741 32.3312 45.3708 32.3312 43.2477C32.3312 41.1246 32.4146 40.732 32.8439 40.732V40.7298ZM42.5747 48.7934V43.1645C42.5747 42.2747 42.4488 41.4575 42.1631 40.7298C41.3648 38.7689 41.6079 38.8393 46.0537 38.8393C50.4995 38.8393 51.3386 39.1828 51.3386 41.0115C51.3386 41.8906 51.3635 42.2235 51.2215 42.2235C51.0707 42.2235 50.7266 41.8202 49.9619 41.2739C49.4244 40.8899 48.7609 40.7277 47.8863 40.7277H46.7349C45.761 40.7277 45.5747 41.0307 45.5747 42.6374C45.5747 44.2442 45.768 44.5472 46.7598 44.5472H47.9271C48.7254 44.5066 49.1867 44.3146 49.4989 44.0116C49.7686 43.7491 49.9282 43.5763 50.0276 43.5763C50.1961 43.5763 50.1624 44.082 50.1624 45.486C50.1624 46.8901 50.1961 47.4065 50.0276 47.4065C49.9265 47.4065 49.7668 47.2358 49.4989 46.9712C49.1885 46.6682 48.7254 46.4761 47.9271 46.4356H46.7598C45.768 46.4356 45.5747 46.809 45.5747 48.7593C45.5747 50.7096 45.7592 51.0936 46.7349 51.0936H47.8863C48.5924 51.0936 49.2718 50.8909 49.8945 50.4876C50.7514 49.9329 51.1967 49.5488 51.4149 49.5488C51.6331 49.5488 51.6509 49.9115 51.6509 50.812C51.6509 52.6406 50.7851 52.9948 46.2737 52.9948C41.7622 52.9948 41.5937 53.1463 42.2412 51.1769C42.4931 50.4087 42.5765 49.5594 42.5765 48.7913L42.5747 48.7934ZM62.1445 48.9663C62.1445 51.3604 60.0617 53.2722 57.044 53.2722C55.9601 53.2722 54.7839 53.0503 53.8507 52.4337C51.6154 50.9571 52.3463 49.0793 53.6325 48.2706C53.9696 48.0573 54.17 47.957 54.3049 47.957C54.6739 47.957 54.5071 48.755 55.2877 50.2209C55.6567 50.9187 56.2954 51.322 57.0192 51.322C58.2717 51.322 59.0949 50.6861 59.0949 49.6448C59.0949 48.8766 58.5999 48.3411 57.9949 47.9378C56.5917 47.0288 55.6585 47.3723 53.8951 45.6738C53.2227 45.0273 52.7437 44.1674 52.7437 42.966C52.7437 39.7718 55.215 38.6601 57.2214 38.6601C59.6324 38.6601 61.3391 39.8123 61.6247 41.8437L61.6495 42.025C61.6744 42.1872 61.4402 42.3387 60.17 42.9447C59.7158 43.1666 59.4727 43.2882 59.3468 43.2882C59.1197 43.2882 59.2457 42.885 59.1534 41.8437C59.0026 40.2071 58.0198 40.5506 57.8672 40.5399H57.7164C56.6573 40.5399 56.1038 41.3486 56.1038 42.36C56.1038 43.5422 56.9855 43.9967 57.6827 44.3509C59.4213 45.1596 62.1445 45.8765 62.1445 48.9705V48.9663ZM72.7659 41.0115C72.7659 41.8906 72.7818 42.2341 72.631 42.2341C72.4714 42.2341 72.1183 41.8501 71.3537 41.3358C70.9669 41.0734 70.6476 40.9517 70.3868 40.9517C69.5885 40.9517 69.3206 42.1445 69.3206 44.5493V48.3795C69.3454 49.1668 69.3969 50.1078 69.6311 50.9571C70.2272 53.1207 70.5039 52.9991 67.8322 52.9991C65.1604 52.9991 65.4372 53.1314 66.0421 50.9571C66.2692 50.1078 66.3278 49.169 66.3437 48.3795V44.5493C66.3437 42.1445 66.0829 40.9411 65.2846 40.9411C65.0149 40.9411 64.6956 41.0734 64.3018 41.3358C63.5371 41.8415 63.193 42.2256 63.0333 42.2256C62.8896 42.2256 62.9073 41.8927 62.9073 41.0136C62.9073 39.185 63.6968 38.8414 67.8393 38.8414C71.9817 38.8414 72.7623 39.185 72.7623 41.0136L72.7659 41.0115ZM82.5587 15.9736C81.606 15.5127 80.4831 15.8776 79.6528 16.5306C78.7995 17.2027 78.1235 18.1458 77.2312 18.7561C77.1389 18.8201 77.0431 18.8756 76.9491 18.9311C76.7504 18.9716 76.5499 19.01 76.3512 19.042C76.2519 19.0591 76.1384 19.089 76.0355 19.1402C76.4364 18.1864 76.7948 17.2048 77.0946 16.1998C77.5452 16.1123 77.9905 15.8648 78.4038 15.6536C78.8172 15.4423 79.2199 15.2033 79.6084 14.9345C80.4139 14.3818 81.1625 13.7033 81.8296 12.9266C81.9768 12.7537 82.1294 12.5809 82.2589 12.3889C82.4682 12.0773 82.5161 11.6506 82.2713 11.3412C81.9325 10.9123 81.2424 11.0104 80.8184 11.147C79.8923 11.4415 79.0744 12.263 78.3985 13.0461C78.1324 13.3555 77.8769 13.6798 77.6357 14.0148C77.6587 13.9017 77.6836 13.7886 77.7031 13.6734C77.8468 12.8818 77.9426 12.0816 77.994 11.2772C78.0331 11.2622 78.0721 11.243 78.1129 11.2153C78.2105 11.147 78.3045 11.0702 78.3985 10.9934C78.5795 10.8461 78.7516 10.6861 78.9219 10.5218C79.2643 10.1911 79.5978 9.84966 79.9047 9.46985C80.5097 8.72089 81.0171 7.85884 81.3967 6.91997C81.5227 6.60631 81.2566 6.21156 80.978 6.4164C80.2152 6.97972 79.5091 7.65613 78.9112 8.45843C78.5919 8.88733 78.285 9.36529 78.0384 9.8774C78.0419 9.52533 78.0419 9.17539 78.0313 8.82545C78.0118 8.2792 78.0135 7.72441 77.9444 7.18243C77.9142 6.93704 77.9231 6.68312 77.9284 6.4356C78.1768 5.84241 78.3755 5.21294 78.5884 4.60268C78.8154 3.94974 79.0319 3.2904 79.227 2.62253C79.4701 1.79462 79.8125 0.441796 78.9024 0.0129049C78.803 -0.0340384 78.6771 0.0449117 78.6274 0.147334C77.9373 1.55563 77.6516 3.1133 77.5079 4.7051C77.5026 4.69017 77.4973 4.67523 77.492 4.66029C77.4689 4.59628 77.4441 4.53227 77.4175 4.46825C77.3944 4.41277 77.3731 4.35303 77.3429 4.30182C77.3128 4.25061 77.2826 4.20153 77.2472 4.15672C77.2117 4.11191 77.1673 4.0735 77.1283 4.03936C77.0875 4.00309 77.0396 3.98175 76.9935 3.96041C76.9846 3.95614 76.9775 3.95188 76.9686 3.94974C76.9633 3.94974 76.958 3.94761 76.9527 3.94548C76.919 3.93907 76.8817 3.93054 76.8462 3.9284C76.7238 3.922 76.5837 3.99242 76.5038 4.10551C76.4506 4.18019 76.4062 4.25914 76.3885 4.35943C76.3779 4.42131 76.369 4.48746 76.3708 4.5536C76.3708 4.58775 76.3743 4.61975 76.3779 4.65389C76.385 4.72217 76.3921 4.79259 76.4045 4.85874C76.4169 4.92488 76.4346 4.99103 76.4541 5.05504C76.5056 5.21721 76.5659 5.37298 76.6404 5.52234C76.7132 5.66531 76.7823 5.8104 76.8622 5.9491C76.903 6.02165 76.9438 6.09206 76.9846 6.16461C77.0041 6.19875 77.0236 6.2329 77.0431 6.26704C77.0768 6.32465 77.1141 6.38013 77.1496 6.4356C77.1354 6.41213 77.1212 6.3908 77.1052 6.36732C77.1105 6.38013 77.1159 6.3908 77.123 6.4036C77.1514 6.46334 77.1851 6.50175 77.233 6.53803C77.2152 6.52096 77.1957 6.50389 77.178 6.48682C77.1939 6.50389 77.2099 6.51882 77.2241 6.53589C77.2401 6.55723 77.2613 6.5743 77.2844 6.58924C77.3057 6.64472 77.3394 6.69166 77.3838 6.72793C77.3838 6.76848 77.3802 6.80902 77.3784 6.84956C77.3678 7.12695 77.3146 7.39581 77.2968 7.6732C77.2631 8.19811 77.2312 8.72516 77.2117 9.2522C77.1993 9.58294 77.1833 9.91368 77.1655 10.2444C77.0928 9.93501 77.0094 9.62988 76.9154 9.32689C76.7752 8.88092 76.6227 8.44136 76.4577 8.00821C76.3193 7.64546 76.1756 7.29552 75.9432 7.00319C75.7321 6.7386 75.3862 6.47401 75.0686 6.52096C74.6535 6.5807 74.5665 7.15896 74.5736 7.57291C74.5843 8.10209 74.7493 8.6078 74.9373 9.07937C75.1147 9.52106 75.3063 9.95849 75.5121 10.381C75.7303 10.8312 75.9663 11.2665 76.2182 11.689C76.3441 11.9024 76.4719 12.1136 76.6067 12.3206C76.6191 12.3398 76.6333 12.3611 76.6457 12.3803C76.6493 12.3867 76.6511 12.3931 76.6528 12.3995C76.6883 12.4721 76.7433 12.5425 76.8072 12.6001C76.8427 12.6385 76.8817 12.6727 76.9243 12.6983C76.6865 14.2879 76.2661 15.8285 75.7285 17.3073C75.7197 17.2774 75.709 17.2475 75.6984 17.2155C75.6239 16.8357 75.4961 16.4665 75.3986 16.1017C75.2531 15.5618 75.1307 15.0156 75.0207 14.4629C74.7989 13.3576 74.6215 12.2395 74.4051 11.1342C74.288 10.5431 74.1887 9.7003 73.5411 9.68323C72.9326 9.66616 72.6647 10.4642 72.686 11.0766C72.7055 11.6954 72.89 12.2694 73.0799 12.8348C73.2679 13.3982 73.4506 13.9721 73.6813 14.512C73.9066 15.039 74.1106 15.5768 74.3235 16.1123C74.3536 16.2297 74.3838 16.3492 74.4157 16.4665C74.5719 17.0341 74.7404 17.6935 75.1271 18.0946C75.1608 18.1288 75.1981 18.1565 75.2371 18.1757C75.2708 18.2205 75.3099 18.2568 75.3524 18.2845C75.3276 18.3443 75.3045 18.4062 75.2815 18.4659C75.0083 19.1295 74.712 19.7803 74.4033 20.4226C74.3838 20.397 74.3661 20.3692 74.3483 20.3415C74.1887 20.1004 74.0875 19.8123 73.9616 19.5456C73.6848 18.9588 73.5535 18.3123 73.3832 17.6743C73.0071 16.2702 72.2141 15.0604 71.5098 13.8761C71.3288 13.571 71.1479 13.268 70.9669 12.9629C70.8268 12.726 70.6529 12.4081 70.378 12.6108C69.9983 12.8924 69.8972 13.5411 69.9309 14.0319C69.9735 14.6443 70.1775 15.2311 70.4081 15.7752C70.6689 16.3897 70.9865 16.968 71.304 17.542C71.6659 18.1928 72.0349 18.85 72.5104 19.3898C72.9433 19.8827 73.4223 20.3159 73.8995 20.7448C73.9101 20.7597 73.9225 20.7747 73.9332 20.7875C73.9917 20.8621 74.0503 20.939 74.1124 21.0094C74.0556 21.1246 73.9988 21.2377 73.9403 21.3529C73.5322 22.1488 73.1313 22.9575 72.7002 23.7364C72.6683 23.3501 72.3507 22.9554 72.168 22.6844C71.9161 22.3153 71.7209 21.9098 71.5701 21.4681C71.2597 20.5506 71.084 19.5541 70.5873 18.7433C70.3407 18.3421 69.9735 17.8236 69.5122 17.8684C68.9711 17.9218 68.9303 18.7646 69.0137 19.2533C69.1095 19.8209 69.3845 20.3415 69.6275 20.8301C69.8564 21.2889 70.0994 21.7349 70.3691 22.1595C70.6724 22.6375 71.0024 23.0919 71.3927 23.4718C71.7085 23.779 72.042 24.065 72.4217 24.225C72.3206 24.3978 72.2177 24.5707 72.1112 24.7414C72.113 24.6688 72.1041 24.5963 72.0935 24.5259C72.0935 24.5195 72.0935 24.5173 72.0917 24.5109C72.0917 24.5067 72.0917 24.5045 72.0917 24.4981C72.0793 24.3189 72.0207 24.161 71.8859 24.0671C71.7458 23.9689 71.6074 23.9924 71.4672 24.0671C71.1248 24.2485 70.8552 24.6112 70.731 25.0337C70.6849 25.038 70.6387 25.0465 70.5908 25.0572C70.346 25.1105 70.103 25.1852 69.8599 25.2492C69.5938 25.3196 69.3277 25.3879 69.0634 25.4583C68.9339 25.4925 68.8061 25.5351 68.6837 25.597C68.6607 25.565 68.6358 25.5351 68.6057 25.5138C68.5453 25.4476 68.4762 25.4028 68.3963 25.3815C68.3413 25.373 68.2863 25.3644 68.2313 25.3559C68.1196 25.3559 68.0167 25.39 67.9191 25.4583C67.8854 25.4754 67.8552 25.4967 67.8251 25.5223C67.7559 25.5821 67.6814 25.644 67.6246 25.7229C67.5696 25.7976 67.5146 25.8787 67.472 25.9683C67.4507 26.0131 67.4365 26.0622 67.4188 26.1091C67.3762 26.2307 67.3532 26.2905 67.3549 26.4399C67.362 26.5039 67.3691 26.5679 67.3762 26.634C67.3957 26.7279 67.4312 26.8111 67.4844 26.8816C67.5111 26.937 67.5483 26.9797 67.5927 27.0117C67.6193 27.0416 67.6477 27.0629 67.6778 27.0843C67.7009 27.1205 67.7239 27.1568 67.7488 27.191C67.7577 27.2038 67.7665 27.2166 67.7754 27.2272C67.7754 27.2272 67.7789 27.2294 67.7807 27.2315C67.1101 27.6817 66.4555 28.1853 65.7938 28.6291C65.5596 28.787 65.3201 28.9385 65.077 29.0772C65.0132 29.1135 64.9475 29.1498 64.8819 29.186C64.8712 29.1924 64.8375 29.2095 64.8074 29.2245C64.7861 29.1519 64.7648 29.0794 64.7453 29.0068C64.7116 28.8724 64.6832 28.7358 64.6619 28.5971C64.6583 28.5758 64.6495 28.4904 64.6459 28.4734C64.6388 28.3901 64.6335 28.3069 64.63 28.2237C64.6246 28.0829 64.6264 27.942 64.6335 27.8034C64.6371 27.7415 64.6424 27.6775 64.6477 27.6156C64.6477 27.6113 64.6477 27.6092 64.6477 27.6049C64.6548 27.558 64.6619 27.5132 64.669 27.4683C64.685 27.447 64.6992 27.4235 64.7169 27.4022C64.7772 27.3275 64.8162 27.2336 64.8287 27.1269C64.8393 27.0395 64.8287 26.9541 64.8003 26.8752C64.8198 26.7919 64.8411 26.7066 64.8588 26.6234C64.9954 25.9982 65.0646 25.2663 64.7329 24.7072C64.4242 24.1866 63.9416 23.9327 63.4147 24.018C62.973 24.0884 62.5561 24.3552 62.2492 24.7456C61.8713 25.2257 61.7152 25.8296 61.7098 26.4825C61.7081 26.7429 61.7294 27.001 61.7631 27.2571C61.7542 27.2848 61.7436 27.3126 61.7329 27.3403C61.6318 27.6519 61.7258 27.9869 61.9103 28.2258C61.9281 28.3389 61.944 28.452 61.9564 28.5672C61.9564 28.5651 61.9671 28.6889 61.9689 28.7081C61.9724 28.77 61.976 28.8297 61.9795 28.8916C61.9848 29.0345 61.9831 29.1775 61.976 29.3205C61.9724 29.3824 61.9689 29.4421 61.9635 29.504C61.9635 29.5189 61.9635 29.5274 61.9618 29.536C61.9618 29.5424 61.96 29.5509 61.9564 29.5659C61.9352 29.7067 61.9121 29.8454 61.8819 29.9841C61.8553 30.1036 61.8252 30.2209 61.7915 30.3362C61.7737 30.3938 61.756 30.4514 61.7382 30.509C61.7382 30.5111 61.7329 30.5239 61.7294 30.5367C61.7205 30.5581 61.7081 30.5943 61.7045 30.6007C61.6105 30.844 61.4987 31.0766 61.371 31.2985C61.3444 31.3454 61.316 31.3924 61.2876 31.4393C61.2663 31.4692 61.2468 31.5012 61.2255 31.5311C61.1528 31.6335 61.0765 31.7338 60.9967 31.8298C60.9222 31.9173 60.8459 32.0026 60.766 32.0837C60.7501 32.1008 60.6809 32.1669 60.6738 32.1733C60.633 32.2096 60.5904 32.2459 60.5496 32.28C60.1096 32.6406 59.7229 32.8113 59.212 32.9756C58.6762 33.1464 58.128 33.2573 57.5834 33.3747C57.0015 33.5006 56.4586 33.6115 55.9069 33.6734C55.3196 33.7395 54.7289 33.7502 54.1417 33.6862C53.6094 33.6286 53.0985 33.5176 52.5361 33.3917C51.9684 33.2637 51.4025 33.1357 50.833 33.0354C48.5569 32.6364 46.2577 32.5574 43.962 32.5404C42.5002 32.5297 41.0366 32.5382 39.573 32.4913C39.4985 32.4166 39.4187 32.3462 39.3299 32.2886C39.1987 32.2032 39.0638 32.1285 38.9326 32.041C38.6735 31.8661 38.4252 31.6698 38.1857 31.4585C38.175 31.45 38.1697 31.4436 38.1626 31.4372C38.1484 31.4223 38.1378 31.4095 38.136 31.4073C38.0828 31.354 38.0296 31.3006 37.9781 31.2473C37.8202 31.0808 37.6712 30.8888 37.4902 30.7565C37.2738 30.5965 37.0219 30.5111 36.7682 30.5261C36.5287 30.5389 36.3548 30.6221 36.1384 30.7224C36 30.7864 35.8563 30.8312 35.7091 30.8632C35.6754 30.8696 35.5476 30.8867 35.6594 30.876C35.5636 30.8888 35.4696 30.8995 35.3738 30.908C35.0261 30.9422 34.6783 30.9763 34.3324 31.0083C33.6192 31.0766 32.906 31.1833 32.1946 31.2708C32.1396 31.2772 32.0846 31.2836 32.0296 31.2921C31.5719 31.1363 31.116 30.972 30.6565 30.8099C29.4927 30.4002 28.3236 30.1911 27.1101 30.2039C25.9162 30.2167 24.7205 30.334 23.5283 30.413C21.1085 30.5751 18.6886 30.7266 16.2706 30.9165C14.6171 31.0467 12.9566 31.147 11.3085 31.3625C10.1926 31.2174 8.6474 31.1235 6.50964 31.1235C-0.30456 31.1235 -0.677115 30.9848 0.546993 33.9636C0.985189 35.0497 1.17856 36.3065 1.17856 37.766V42.0805C1.17856 45.7122 1.64337 47.2336 0.674726 50.1057C-0.331171 53.1015 -0.615023 52.8689 3.4884 52.8689C7.59183 52.8689 7.16605 53.0717 6.23644 49.7344C5.33344 46.5999 5.78582 45.5437 5.78582 44.2869C5.78582 43.0301 6.08209 42.7975 7.60602 42.7975H9.3996C10.6255 42.8594 11.3227 43.1538 11.7999 43.619C12.2133 44.0223 12.4581 44.2869 12.6124 44.2869C12.8573 44.2869 12.8058 43.5102 12.8058 41.338C12.8058 39.1658 12.8573 38.404 12.6124 38.404C12.4581 38.404 12.2133 38.6686 11.7999 39.0719C11.3227 39.537 10.6255 39.8315 9.3996 39.8934H7.60602C6.08387 39.8934 5.78582 39.4282 5.78582 36.9594C5.78582 36.1273 5.81776 35.5255 5.9171 35.0902C6.16725 35.214 6.42449 35.3442 6.6835 35.4252C7.89342 35.8008 9.13527 35.9907 10.3807 35.8136C11.5995 35.6408 12.7632 35.2353 13.9341 34.8043C14.4983 34.5973 15.0624 34.3946 15.6372 34.2346C15.7916 34.1919 15.9477 34.1514 16.1038 34.1151C16.5136 34.1066 16.9252 34.1151 17.335 34.1258C18.2274 34.1514 19.1197 34.1642 20.0139 34.1556C20.154 34.1556 20.2942 34.1492 20.4343 34.1471C20.6933 34.177 20.9524 34.2026 21.2131 34.2239C22.5135 34.3242 23.7909 34.1471 25.0735 33.9166C25.1942 33.906 25.3148 33.8996 25.4354 33.8889C25.6075 33.874 25.776 33.8526 25.9464 33.8292C26.1894 33.8718 26.436 33.8953 26.6737 33.9209C27.3 33.9849 27.9298 34.002 28.556 34.0425C28.8736 34.0639 29.1911 34.0767 29.5069 34.1044C29.6382 34.1151 29.7677 34.13 29.899 34.1492C29.8617 34.1428 29.9185 34.1492 29.9593 34.1556C29.9895 34.1599 30.0196 34.1663 30.0498 34.1684C30.0232 34.1642 30.0019 34.162 29.9841 34.1599C30.0675 34.177 30.1527 34.194 30.2361 34.2132C30.5394 34.2837 30.8375 34.3818 31.1249 34.5141C31.132 34.5184 31.1408 34.5205 31.1479 34.5248C31.2047 34.5589 31.2632 34.5909 31.32 34.6229C31.5152 34.7339 31.7156 34.8427 31.9197 34.9323C32.3916 35.1393 32.9362 35.1564 33.3886 34.8683C33.6458 34.704 33.7931 34.4757 33.9634 34.2132C33.9705 34.2068 33.9776 34.1983 33.9847 34.1919C33.9971 34.1727 33.9971 34.1684 33.9882 34.1748C34.0148 34.1386 34.029 34.1343 34.0184 34.1578C34.1 34.0767 34.1745 33.9956 34.2348 33.8526C34.2526 33.8121 34.2668 33.7694 34.2809 33.7267C35.1431 33.8377 36.0036 33.9679 36.864 34.1066C36.8693 34.1066 36.8711 34.1066 36.8746 34.1066C36.9172 34.113 36.9598 34.1215 37.0024 34.1279C37.0716 34.1386 37.139 34.1492 37.2082 34.162C37.3802 34.1898 37.5506 34.2175 37.7226 34.2474C38.0562 34.3029 38.3915 34.3583 38.725 34.4138C39.3832 34.5226 40.0431 34.6315 40.7013 34.7403C43.3482 35.1777 45.9934 35.6173 48.6403 36.0526C51.2978 36.4921 53.9714 36.9914 56.6608 36.9765C59.0345 36.9616 61.41 36.5071 63.5815 35.3186C64.5821 34.7702 65.5135 34.0468 66.3313 33.1634C67.0622 32.3739 67.6548 31.4287 68.2668 30.5111C68.4034 30.3063 68.54 30.1057 68.6819 29.9051C68.8239 29.8368 68.964 29.7622 69.1006 29.6725C69.42 29.4613 69.7269 29.2245 70.0178 28.962C70.4844 28.5438 70.9173 28.0807 71.304 27.5622C71.3111 27.5601 71.3182 27.558 71.3253 27.5558C71.7795 27.4129 72.2354 27.2998 72.6612 27.0523C72.8954 26.9157 73.0816 26.7045 73.2236 26.442C73.2839 26.331 73.33 26.1987 73.3619 26.0707C73.3832 25.9832 73.3921 25.8893 73.401 25.7997C73.4045 25.7699 73.4081 25.74 73.4081 25.7101L73.3992 25.6312C73.385 25.5309 73.3868 25.5245 73.4063 25.6141C73.4329 25.3004 73.165 25.0316 72.922 25.0316C72.9042 25.0316 72.8865 25.0358 72.8687 25.038C72.9787 24.8715 73.087 24.7051 73.1934 24.5387C73.3069 24.5664 73.424 24.5749 73.5411 24.5856C73.7185 24.6027 73.8977 24.6133 74.0769 24.6176C74.4335 24.6283 74.7918 24.6133 75.1484 24.5749C75.8776 24.496 76.5819 24.3146 77.2826 24.0671C77.9657 23.8281 78.654 23.5977 79.3175 23.2861C79.8373 23.0429 80.4458 22.71 80.5913 21.9994C80.6232 21.8415 80.5239 21.626 80.3695 21.6474C80.052 21.6901 79.706 21.6367 79.3867 21.626C79.078 21.6154 78.7675 21.6026 78.4588 21.626C77.845 21.673 77.2862 21.9162 76.7238 22.1958C75.874 22.6204 75.0154 23.0215 74.1745 23.4696C74.1425 23.4696 74.1106 23.4696 74.0804 23.4696C74.0077 23.4696 73.9332 23.4611 73.8605 23.459C74.5346 22.3217 75.152 21.1417 75.7055 19.9062C75.7215 19.8721 75.7356 19.8358 75.7516 19.8016C75.8368 19.9788 76.0408 20.0876 76.2004 20.1004C76.4949 20.126 76.8232 20.0214 77.1159 19.966C77.625 19.8678 78.1306 19.7504 78.6345 19.6139C79.1561 19.4709 79.6705 19.2682 80.1832 19.0804C80.4511 18.9823 80.7385 18.8905 80.9762 18.707C81.2211 18.5192 81.379 18.2589 81.5546 17.9901C81.8633 17.5185 82.2323 17.1856 82.6598 16.8869C82.9916 16.6543 82.8745 16.1358 82.5623 15.9843L82.5587 15.9736ZM71.7192 25.0102C71.7192 25.0102 71.7209 25.0102 71.7227 25.0102C71.7174 25.0124 71.7138 25.0166 71.7085 25.0188C71.7121 25.0188 71.7156 25.0145 71.7174 25.0124L71.7192 25.0102ZM64.6779 27.4513C64.6779 27.4513 64.6796 27.4491 64.6814 27.447C64.6814 27.447 64.6796 27.4513 64.6779 27.4513ZM61.2894 31.4308C61.2894 31.4308 61.2858 31.4351 61.2841 31.4372C61.2504 31.4905 61.2752 31.45 61.2894 31.4308ZM38.2176 31.4799C38.2176 31.4799 38.2034 31.4692 38.1945 31.4607C38.2034 31.4692 38.2123 31.4756 38.2176 31.4799ZM78.0721 4.25701C78.0561 4.29968 78.0419 4.34236 78.026 4.38504C78.0313 4.34023 78.0348 4.29328 78.0402 4.24847C78.0508 4.25274 78.0615 4.25487 78.0721 4.25701ZM29.9717 34.145C29.9717 34.145 29.9806 34.145 29.9859 34.1471C29.9416 34.1407 29.915 34.1386 29.9008 34.1343C29.9203 34.1364 29.9416 34.1386 29.9611 34.1407C29.9646 34.1407 29.9682 34.1407 29.9717 34.1428V34.145ZM33.9882 34.1791C34.0006 34.1684 34.0113 34.1578 34.0219 34.145C34.0131 34.1663 33.9829 34.2111 33.9173 34.2773C33.9368 34.2559 33.9598 34.2239 33.9758 34.1983C33.9811 34.1898 33.9829 34.1855 33.9864 34.1791H33.9882Z" fill="white"/>
</g>
<defs>
<clipPath id="clip0_587_8">
<rect width="82.8544" height="53.27" fill="white"/>
</clipPath>
</defs>
</svg>
