<svg width="119" height="78" viewBox="0 0 119 78" fill="none" xmlns="http://www.w3.org/2000/svg">
<g clip-path="url(#clip0_11_466)">
<path d="M83.7992 19.0233C84.8902 17.4461 85.278 17.2934 85.1594 16.4998C85.1052 16.1923 85.0871 15.8869 85.0871 15.5795C85.0871 14.155 85.8265 12.1458 88.9549 12.1458C91.0284 12.1458 91.8401 13.2548 91.8401 14.3639C91.8401 15.1114 91.4624 15.7523 90.9018 16.2928C89.415 17.7254 88.9549 18.0951 89.9916 19.6281C90.506 20.3936 91.0103 20.7453 91.37 20.7453C91.7839 20.7453 92.0009 20.2409 91.7577 19.3127C91.3258 17.5727 90.9641 17.5184 92.2801 17.6269C93.5882 17.7354 94.0925 17.8439 94.3356 18.7722C94.434 19.1519 94.4883 19.5377 94.4883 19.7909C94.4883 20.3314 94.416 20.8096 94.2532 21.2415C93.7931 22.4591 93.4415 22.5214 93.6223 22.5676C93.6946 22.5857 93.767 22.5938 93.8393 22.5938C94.2994 22.5938 94.633 22.2683 94.8942 21.8905C95.1915 21.4666 95.3724 21.2596 95.5512 21.2596C95.7139 21.2596 95.8747 21.4043 96.1198 21.7097C96.6522 22.3768 96.8672 23.2146 95.5431 23.9098C95.0107 24.1891 94.3356 24.2976 93.4877 24.2976C93.1542 24.2976 92.8307 24.2694 92.5132 24.2172C92.3324 24.1891 92.1797 24.173 92.027 24.173C91.5126 24.173 91.0525 24.3358 89.9635 24.597C89.3688 24.7497 88.7379 24.832 88.1512 24.832C85.069 24.832 83.1482 22.7505 83.1482 20.9562C83.1482 20.263 83.3913 19.6121 83.7972 19.0274L83.7992 19.0233ZM88.2516 23.1865C88.4586 23.1865 88.6575 23.1583 88.8645 23.1242C89.3788 23.0338 88.9991 22.9253 87.683 21.3842C86.8532 20.4278 86.5016 19.9777 86.3127 19.9777C86.0777 19.9777 86.0053 20.7533 86.0053 20.916C86.0053 22.1698 86.7347 23.1885 88.2496 23.1885L88.2516 23.1865ZM88.4405 15.5795C88.5751 15.5795 88.8725 15.4349 89.3788 14.8944C89.632 14.6231 89.7927 14.3438 89.7927 14.0826C89.7927 13.7672 89.5315 13.6587 89.3688 13.6587C88.6575 13.6587 88.3501 14.6593 88.3501 15.3183V15.5072C88.3501 15.5514 88.3863 15.5795 88.4405 15.5795Z" fill="#FAF5EB"/>
<path d="M22.3831 19.7507C22.6584 18.3 22.6825 16.6685 25.7044 14.5106C27.0827 13.5281 28.9191 12.8671 31.2699 12.8671C38.1053 12.8671 40.217 18.1674 40.217 21.4666C40.217 22.5696 40.0382 23.6486 39.6183 24.7296C38.6699 27.2592 36.0439 30.2107 31.2117 30.2107C26.3795 30.2107 22.2284 26.9357 22.2284 21.4686C22.2284 20.8919 22.2766 20.3293 22.3851 19.7527L22.3831 19.7507ZM31.2097 27.9905C32.2645 27.9905 33.2129 27.5465 33.9563 26.8272C35.8269 25.0169 35.6963 23.8656 35.8389 22.7726C35.9113 22.3406 35.9354 21.8965 35.9354 21.4646C35.9354 18.4186 34.328 15.0953 31.2699 15.0953C28.2119 15.0953 26.4839 18.3342 26.4839 21.4646C26.4839 24.5949 28.1637 27.9885 31.2097 27.9885V27.9905Z" fill="#FAF5EB"/>
<path d="M42.0535 19.7507C42.3288 18.3 42.3529 16.6685 45.3748 14.5106C46.7551 13.5281 48.5895 12.8671 50.9403 12.8671C57.7757 12.8671 59.8874 18.1674 59.8874 21.4666C59.8874 22.5696 59.7086 23.6486 59.2887 24.7296C58.3403 27.2592 55.7143 30.2107 50.8821 30.2107C46.0499 30.2107 41.8988 26.9357 41.8988 21.4686C41.8988 20.8919 41.947 20.3293 42.0555 19.7527L42.0535 19.7507ZM50.8801 27.9905C51.9349 27.9905 52.8833 27.5465 53.6267 26.8272C55.4973 25.0169 55.3667 23.8656 55.5093 22.7726C55.5817 22.3406 55.6058 21.8965 55.6058 21.4646C55.6058 18.4186 53.9984 15.0953 50.9403 15.0953C47.8823 15.0953 46.1544 18.3342 46.1544 21.4646C46.1544 24.5949 47.8341 27.9885 50.8801 27.9885V27.9905Z" fill="#FAF5EB"/>
<path d="M64.9124 13.0821H69.3387C73.6806 13.0821 78.993 16.0317 78.993 21.4646C78.993 26.8976 73.7409 29.8833 69.3387 29.8833H65.0088C61.362 29.8833 61.6634 30.0882 62.5857 27.8319C62.9453 26.9558 63.0659 25.9492 63.0659 24.8944V18.2137C63.0418 17.1829 62.8609 16.2105 62.4551 15.3465C61.3399 12.9957 61.1832 13.0801 64.9144 13.0801L64.9124 13.0821ZM69.624 15.6981C67.9805 15.6981 67.3455 17.7737 67.3455 21.4787C67.3455 25.1837 68.0046 27.1748 69.5758 27.1748C70.2348 27.1748 71.0747 26.8031 72.0954 25.9874C73.4737 24.9084 74.422 23.3131 74.422 21.2376C74.422 19.162 73.4516 17.6631 72.0713 16.7047C71.0887 16.0216 70.273 15.6981 69.624 15.6981Z" fill="#FAF5EB"/>
<path d="M10.0925 4.18516C19.8172 4.18516 21.6596 4.81204 21.6596 8.14535C21.6596 9.74671 21.6958 10.3736 21.3643 10.3736C21.0327 10.3736 20.2592 9.67437 18.5835 8.73405C17.3679 8.05292 15.9313 7.77565 14.0888 7.62898H11.5833C9.46561 7.62898 9.05974 8.18151 9.05974 11.111C9.05974 14.0404 9.48369 14.591 11.6557 14.591H14.2154C15.9655 14.5166 16.96 14.167 17.6412 13.6145C18.2299 13.1363 18.5795 12.8228 18.8025 12.8228C19.1521 12.8228 19.0778 13.7431 19.0778 16.3048C19.0778 18.8666 19.1521 19.8049 18.8025 19.8049C18.5815 19.8049 18.2319 19.4915 17.6412 19.0133C16.96 18.4607 15.9655 18.1111 14.2154 18.0368H11.6557C9.48168 18.0368 9.05974 18.3121 9.05974 19.8049C9.05974 21.2978 8.41478 22.5495 9.70471 26.2706C11.0308 30.2308 11.6577 29.9917 5.78269 29.9917C-0.0923023 29.9917 0.331645 30.267 1.76824 26.7126C3.14859 23.305 2.48554 21.5007 2.48554 17.1909V12.0714C2.48554 10.3394 2.21028 8.84858 1.5834 7.55865C-0.164635 4.0204 0.367811 4.18516 10.0925 4.18516Z" fill="#FAF5EB"/>
<path d="M20.8536 52.7583C21.1289 51.3076 21.153 49.6761 24.1769 47.5182C25.5552 46.5357 27.3917 45.8746 29.7425 45.8746C36.5779 45.8746 38.6896 51.175 38.6896 54.4741C38.6896 55.5772 38.5087 56.6562 38.0908 57.7371C37.1425 60.2667 34.5164 63.2183 29.6842 63.2183C24.852 63.2183 20.7009 59.9433 20.7009 54.4761C20.7009 53.8995 20.7492 53.3369 20.8556 52.7603L20.8536 52.7583ZM29.6802 60.9981C30.735 60.9981 31.6834 60.5541 32.4268 59.8348C34.2974 58.0244 34.1648 56.8732 34.3094 55.7801C34.3818 55.3482 34.4059 54.9041 34.4059 54.4721C34.4059 51.4261 32.7985 48.1029 29.7405 48.1029C26.6824 48.1029 24.9545 51.3417 24.9545 54.4721C24.9545 57.6025 26.6342 60.9961 29.6802 60.9961V60.9981Z" fill="#FAF5EB"/>
<path d="M44.0242 46.0897H48.762C52.9834 46.0897 55.8506 48.4526 55.8506 51.1751C55.8506 52.2661 55.503 53.2386 54.7957 54.0423C52.7222 56.4533 51.9165 56.2725 53.2968 58.0125L54.9283 60.1001C55.3483 60.6406 55.8646 61.2393 56.4031 61.7677C57.7111 62.9914 57.5664 62.8949 54.3296 62.8949C51.0927 62.8949 50.9119 62.702 50.719 61.6713C50.4437 60.1965 49.7124 59.8128 48.549 58.3259C47.3857 56.8512 47.0984 56.5638 46.6784 56.5759C46.2464 56.5879 46.15 56.6603 46.15 56.9958V57.4158C46.1862 58.3521 46.2585 59.4672 46.594 60.4738C47.446 63.0396 47.8418 62.8969 44.0162 62.8969C40.1906 62.8969 40.5864 63.0537 41.4504 60.4738C41.786 59.4672 41.8583 58.35 41.8944 57.4158V51.5749C41.8221 50.2428 41.6433 49.2 41.2595 48.324C40.2047 45.9732 40.0359 46.0937 44.0303 46.0937L44.0242 46.0897ZM46.3509 54.3175H46.5318C49.6139 54.3175 51.3398 53.335 51.3398 51.2956C51.3398 49.6762 49.8048 48.334 47.5866 48.334H46.8794C46.2685 48.334 46.148 48.8142 46.148 51.3197C46.148 53.8253 46.1842 54.3175 46.3509 54.3175Z" fill="#FAF5EB"/>
<path d="M65.732 46.0896C72.0651 46.0896 73.2746 46.4974 73.2746 48.6674C73.2746 49.7102 73.3108 50.106 73.1059 50.106C72.8909 50.106 72.3986 49.6258 71.3076 48.9788C70.5401 48.5227 69.5917 48.3319 68.346 48.3319H66.7024C65.312 48.3319 65.0468 48.6915 65.0468 50.5983C65.0468 52.505 65.3221 52.8647 66.7386 52.8647H68.4063C69.5455 52.8165 70.2045 52.5894 70.6486 52.2298C71.0323 51.9183 71.2594 51.7134 71.404 51.7134C71.6431 51.7134 71.5969 52.3121 71.5969 53.9798C71.5969 55.6475 71.6451 56.2583 71.404 56.2583C71.2594 56.2583 71.0323 56.0553 70.6486 55.7419C70.2045 55.3822 69.5455 55.1532 68.4063 55.107H66.7386C65.3241 55.107 65.0468 55.551 65.0468 57.8657C65.0468 60.1803 65.31 60.6364 66.7024 60.6364H68.346C69.3526 60.6364 70.3251 60.3973 71.2132 59.9171C72.4368 59.258 73.0717 58.802 73.3831 58.802C73.6946 58.802 73.7187 59.2339 73.7187 60.3008C73.7187 62.4708 72.483 62.8907 66.0434 62.8907C59.6038 62.8907 59.3627 63.0696 60.287 60.7328C60.6466 59.8206 60.7672 58.814 60.7672 57.9018V51.2211C60.7672 50.1663 60.5863 49.1938 60.1805 48.3298C59.0412 46.0032 59.3888 46.0875 65.734 46.0875L65.732 46.0896Z" fill="#FAF5EB"/>
<path d="M76.5494 57.2812C77.0296 57.03 77.3169 56.9094 77.5098 56.9094C78.0382 56.9094 77.7971 57.8578 78.9123 59.5958C79.4407 60.4236 80.3509 60.9038 81.3836 60.9038C83.1698 60.9038 84.3452 60.1483 84.3452 58.9127C84.3452 58.0005 83.638 57.3655 82.774 56.8853C80.7708 55.8064 79.4407 56.2143 76.9211 54.199C75.9607 53.4315 75.2776 52.4128 75.2776 50.9842C75.2776 47.1948 78.8038 45.8748 81.6689 45.8748C85.1107 45.8748 87.5459 47.241 87.9538 49.6521L87.99 49.8671C88.0261 50.06 87.6906 50.2388 85.8783 50.9581C85.2313 51.2213 84.8837 51.366 84.7029 51.366C84.3794 51.366 84.5582 50.8858 84.4276 49.6501C84.2126 47.7072 82.8082 48.115 82.5932 48.103H82.3762C80.8652 48.103 80.0736 49.0634 80.0736 50.2609C80.0736 51.6633 81.3334 52.2038 82.328 52.6238C84.8114 53.5842 88.6952 54.4341 88.6952 58.1049C88.6952 60.948 85.7215 63.2144 81.4158 63.2144C79.8687 63.2144 78.1889 62.9512 76.8588 62.2198C73.6682 60.4698 74.713 58.2375 76.5474 57.2791L76.5494 57.2812Z" fill="#FAF5EB"/>
<path d="M89.9715 50.1081C89.7666 50.1081 89.7927 49.7123 89.7927 48.6695C89.7927 46.4995 90.9199 46.0917 96.833 46.0917C102.746 46.0917 103.861 46.4995 103.861 48.6695C103.861 49.7123 103.885 50.1202 103.668 50.1202C103.441 50.1202 102.937 49.6641 101.846 49.0533C101.296 48.7419 100.839 48.5972 100.468 48.5972C99.3285 48.5972 98.9448 50.0117 98.9448 52.8668V57.4117C98.9809 58.348 99.0532 59.4631 99.3888 60.4697C100.241 63.0355 100.637 62.8929 96.823 62.8929C93.0095 62.8929 93.4053 63.0496 94.2693 60.4697C94.5928 59.4631 94.6771 58.346 94.7013 57.4117V52.8668C94.7013 50.0117 94.3295 48.5851 93.1903 48.5851C92.8065 48.5851 92.3505 48.7419 91.7879 49.0533C90.6969 49.652 90.2046 50.1081 89.9776 50.1081H89.9715Z" fill="#FAF5EB"/>
<path d="M91.1166 32.9433C91.2492 32.8871 91.3799 32.8248 91.5084 32.7605C91.5366 32.7464 91.5667 32.7303 91.5948 32.7163C91.6129 32.7062 91.629 32.6982 91.6471 32.6881C91.623 32.7002 91.6712 32.6781 91.6732 32.6781C91.7496 32.6459 91.8239 32.6138 91.8982 32.5796H91.639L91.6853 32.6078C91.8621 32.7102 92.0851 32.7122 92.2619 32.6078C92.4166 32.5174 92.511 32.3667 92.5352 32.1898C92.5593 32.013 92.507 31.8402 92.3784 31.7096C92.3081 31.6393 92.2237 31.5891 92.1273 31.563C92.0268 31.5348 91.9244 31.5348 91.8239 31.563C91.7435 31.575 91.6611 31.5911 91.5828 31.6132C91.4582 31.6474 91.3417 31.7137 91.2332 31.782C91.1146 31.8563 91.0061 31.9407 90.8976 32.0271C90.7831 32.1175 90.6947 32.2039 90.6083 32.3285C90.4958 32.4912 90.3993 32.666 90.3973 32.873C90.3973 33.0659 90.4737 33.2688 90.6103 33.4054C90.7932 33.5883 91.0664 33.6425 91.3115 33.5742C91.6471 33.4798 91.8239 33.1503 92.0228 32.8931L91.9103 33.0377C91.9585 32.9755 92.0107 32.9152 92.065 32.8569C92.0911 32.8288 92.1192 32.8007 92.1494 32.7745C92.2157 32.7122 92.2639 32.6459 92.3222 32.5716L92.2197 32.7042C92.2699 32.6399 92.3242 32.5776 92.3804 32.5174L91.4843 32.4008L91.5506 32.4872V32.228C91.5165 32.2883 91.4803 32.3466 91.4441 32.4048C91.418 32.449 91.3778 32.4973 91.3356 32.5475C91.2452 32.654 91.1508 32.7585 91.0544 32.8589C91.0081 32.9071 91.0664 32.9674 91.1207 32.9453L91.1166 32.9433Z" fill="#FAF5EB"/>
<path d="M9.29069 36.9255C19.3368 36.9255 20.2048 38.1311 20.3113 38.7017C20.466 39.5335 18.9892 40.4658 18.2498 40.8114C15.9031 41.9044 13.5482 40.5281 13.2891 40.3694H10.7835C8.66582 40.3694 8.25995 40.9219 8.25995 43.8514C8.25995 46.7808 8.6839 47.3313 10.8559 47.3313H13.4156C15.1657 47.257 16.1602 46.9074 16.8414 46.3549C17.4301 45.8767 17.7797 45.5632 18.0027 45.5632C18.3523 45.5632 18.278 46.4834 18.278 49.0452C18.278 51.607 18.3523 52.5453 18.0027 52.5453C17.7817 52.5453 17.4321 52.2319 16.8414 51.7537C16.1602 51.2011 15.1657 50.8515 13.4156 50.7772H10.8559C8.68189 50.7772 8.25995 51.0524 8.25995 52.5453C8.25995 54.0382 7.61499 55.2899 8.90491 59.011C10.231 62.9712 10.8579 62.7321 4.9829 62.7321C-0.892093 62.7321 -0.468145 63.0074 0.968454 59.453C2.3488 56.0454 1.68575 54.2411 1.68575 49.9313V44.8118C1.68575 43.0798 1.41049 41.589 0.783605 40.299C-0.966435 36.7628 -0.43198 36.9275 9.2927 36.9275L9.29069 36.9255Z" fill="#FAF5EB"/>
<path d="M98.0688 31.3621C98.0266 31.3038 97.9904 31.2416 97.9603 31.1773L98.0306 31.344C97.9804 31.2215 97.9422 31.115 97.8417 31.0185C97.8297 31.0065 97.8176 30.9964 97.8056 30.9844C97.7834 30.9623 97.7634 30.9402 97.7433 30.9181C97.6991 30.8678 97.6589 30.8156 97.6147 30.7654V31.987C97.6729 31.9187 97.7352 31.8544 97.7734 31.772C97.7794 31.7579 97.7875 31.7439 97.7935 31.7298C97.8116 31.6977 97.8297 31.6675 97.8518 31.6394L97.7151 31.8162C97.7533 31.768 97.7975 31.7238 97.8457 31.6856L97.6689 31.8222C97.7151 31.7881 97.7634 31.7599 97.8156 31.7378L97.6046 31.8262L97.6187 31.8202L96.7607 30.3474C96.7326 30.3695 96.7085 30.3937 96.6864 30.4218C96.6201 30.5042 96.5458 30.5845 96.5016 30.681C96.4574 30.7774 96.4071 30.8779 96.383 30.9824C96.3629 31.0748 96.3529 31.1712 96.3428 31.2657C96.3428 31.2837 96.3388 31.3018 96.3388 31.3199C96.3368 31.4304 96.3589 31.5449 96.377 31.6514C96.383 31.6876 96.3931 31.7198 96.4051 31.7539C96.4413 31.8524 96.4795 31.9609 96.5377 32.0513C96.5859 32.1256 96.6442 32.1979 96.7005 32.2663C96.7125 32.2803 96.7266 32.2964 96.7387 32.3085C96.9034 32.4712 97.1405 32.5717 97.3736 32.5717C97.4961 32.5757 97.6127 32.5496 97.7192 32.4953C97.8297 32.4591 97.9261 32.3969 98.0085 32.3105C98.1652 32.1397 98.2817 31.9146 98.2717 31.6755C98.2616 31.4364 98.1853 31.2014 98.0085 31.0406C97.9884 31.0226 97.9703 31.0025 97.9522 30.9804L98.0929 31.1612C98.0688 31.129 98.0507 31.0969 98.0346 31.0607L98.125 31.2737C98.1069 31.2295 98.0949 31.1833 98.0889 31.1371L98.121 31.3742C98.117 31.33 98.117 31.2878 98.121 31.2436L98.0889 31.4786C98.0949 31.4365 98.1049 31.3943 98.123 31.3541L98.0346 31.565C98.0487 31.5329 98.0667 31.5028 98.0868 31.4746L97.9482 31.6534C97.9663 31.6313 97.9844 31.6133 98.0065 31.5952C98.0929 31.5148 98.1531 31.4204 98.1893 31.3119C98.2436 31.2074 98.2697 31.0929 98.2657 30.9723L98.2335 30.7372C98.2054 30.6227 98.1531 30.5223 98.0748 30.4379C98.0346 30.3716 97.9824 30.3193 97.9161 30.2791C97.8317 30.2008 97.7312 30.1485 97.6167 30.1204L97.3816 30.0883C97.2229 30.0883 97.0742 30.1284 96.9376 30.2088C96.8893 30.2289 96.8451 30.255 96.805 30.2852C96.7065 30.3575 96.6 30.4298 96.5196 30.5223C96.4393 30.6147 96.3609 30.7071 96.3026 30.8136C96.2725 30.8658 96.2524 30.9241 96.2283 30.9804C96.168 31.123 96.1339 31.1953 96.1379 31.3742L96.168 31.6032C96.1941 31.7157 96.2464 31.8142 96.3227 31.8966C96.3609 31.9609 96.4132 32.0131 96.4775 32.0513C96.5618 32.1276 96.6583 32.1799 96.7708 32.206C96.9597 32.2361 97.1345 32.2562 97.3233 32.2401C97.46 32.2281 97.5685 32.208 97.693 32.1417C97.7011 32.1377 97.7111 32.1316 97.7192 32.1276C97.7372 32.1176 97.7553 32.1075 97.7734 32.0975C97.8136 32.0734 97.8538 32.0473 97.8919 32.0191C97.9924 31.9468 98.0848 31.8584 98.113 31.7318C98.1411 31.6052 98.1391 31.4646 98.0647 31.3601L98.0688 31.3621Z" fill="#FAF5EB"/>
<path d="M101.497 31.6011C101.436 31.4926 101.39 31.3801 101.36 31.2596C101.33 31.139 101.338 31.0707 101.376 30.9541C101.41 30.8517 101.442 30.7834 101.501 30.6849C101.559 30.5865 101.607 30.48 101.663 30.3775C101.692 30.3273 101.722 30.279 101.754 30.2308C101.766 30.2127 101.808 30.1243 101.78 30.1906C101.754 30.2529 101.784 30.1866 101.8 30.1685C101.82 30.1444 101.84 30.1223 101.86 30.0982C101.949 29.9837 101.969 29.9576 101.921 30.0219C101.893 30.058 101.893 30.06 101.921 30.0259C101.963 29.9797 102.003 29.9335 102.047 29.8893C102.065 29.8712 102.085 29.8531 102.106 29.837C102.12 29.823 102.212 29.7506 102.134 29.8109C102.055 29.8712 102.134 29.8109 102.152 29.7988C102.178 29.7808 102.204 29.7647 102.23 29.7486C102.282 29.7165 102.347 29.6964 102.397 29.6622C102.349 29.6944 102.28 29.7084 102.375 29.6743C102.405 29.6642 102.435 29.6542 102.465 29.6461L101.716 29.0755C101.706 29.2403 101.74 28.9489 101.716 29.1077C101.704 29.186 101.688 29.2644 101.69 29.3448C101.69 29.4613 101.72 29.606 101.742 29.7225C101.776 29.9053 101.909 30.0821 102.001 30.2409C102.138 30.478 102.509 30.488 102.642 30.2409C102.73 30.0781 102.853 29.9033 102.889 29.7225C102.911 29.61 102.927 29.4834 102.933 29.3689C102.937 29.2805 102.923 29.1941 102.907 29.1077C102.883 28.9791 102.915 29.2202 102.903 29.0755C102.885 28.8625 102.801 28.6757 102.61 28.5632C102.419 28.4506 102.212 28.4748 102.011 28.5632C101.418 28.8244 100.97 29.403 100.874 30.042C100.846 30.2288 100.828 30.4016 100.874 30.5865C100.908 30.7191 100.956 30.8497 101.017 30.9722C101.041 31.0245 101.071 31.0727 101.099 31.1209C101.135 31.1832 101.153 31.2535 101.179 31.3218C101.229 31.4464 101.294 31.5629 101.374 31.6714C101.428 31.7458 101.545 31.6815 101.499 31.5991L101.497 31.6011Z" fill="#FAF5EB"/>
<path d="M98.0365 34.4824C99.1838 34.0363 100.247 33.4798 101.201 32.6982C102.155 31.9166 102.959 31.0064 103.723 30.0641C105.36 28.0408 106.819 25.905 108.055 23.6124C109.29 21.3199 110.343 18.8164 110.906 16.2285C111.181 14.9627 111.336 13.6808 111.372 12.3868C111.39 11.7519 111.4 11.111 111.374 10.4761C111.348 9.84115 111.348 9.16806 111.249 8.52711C111.201 8.20363 111.223 7.86809 111.227 7.54259C111.231 7.17892 111.235 6.81324 111.255 6.44957C111.295 5.76241 111.366 5.07526 111.48 4.39614C111.709 3.0379 112.123 1.72386 112.822 0.530376L112.429 0.691115C112.796 0.83377 112.808 1.33206 112.76 1.65956C112.67 2.26434 112.368 2.843 112.131 3.39956C111.842 4.08471 111.561 4.77387 111.261 5.45299C110.962 6.13211 110.59 6.83132 110.303 7.54259C110.116 8.00672 110.871 8.31213 111.105 7.88014C111.52 7.11061 111.828 6.27276 112.165 5.46505C112.503 4.65734 112.798 3.90789 113.078 3.11626C113.423 2.13374 113.913 0.528367 112.613 0.0200318C112.471 -0.0362267 112.292 0.0561979 112.22 0.18077C110.948 2.33868 110.636 4.79196 110.484 7.24924C110.466 7.5446 110.45 7.84197 110.437 8.13732C110.423 8.46483 110.347 8.78631 110.321 9.11582C110.273 9.73868 110.229 10.3656 110.2 10.9904C110.146 12.2221 110.064 13.4598 109.869 14.6774C109.465 17.205 108.583 19.6362 107.45 21.9247C106.869 23.0981 106.222 24.2393 105.535 25.3524C104.848 26.4655 104.241 27.4983 103.534 28.527C102.782 29.62 101.938 30.6427 101.03 31.6092C100.564 32.1054 100.066 32.5696 99.5896 33.0578C99.1134 33.5461 98.579 34.0243 98.0144 34.4402C97.9923 34.4562 98.0044 34.4984 98.0345 34.4864L98.0365 34.4824Z" fill="#FAF5EB"/>
<path d="M110.801 13.2127C111.93 11.0849 113.678 9.2605 115.8 7.99268C114.784 10.0602 113.086 11.8203 111.006 12.9615" fill="#FAF5EB"/>
<path d="M110.824 13.2348C111.217 12.8088 111.565 12.3547 111.937 11.9107C112.308 11.4666 112.74 11.0045 113.17 10.5806C114.03 9.73267 114.981 8.98323 116.019 8.37041L115.423 7.77367C114.896 8.81244 114.213 9.75879 113.389 10.5826C112.985 10.9864 112.558 11.3762 112.081 11.6937C111.836 11.8584 111.585 12.0091 111.332 12.1598C111.205 12.2342 111.073 12.3025 110.946 12.3768C110.749 12.4913 110.653 12.632 110.574 12.843C110.496 13.0539 110.667 13.3513 110.888 13.3955C111.109 13.4397 111.29 13.4256 111.491 13.3091C111.629 13.2287 111.764 13.1363 111.898 13.0459C112.156 12.8711 112.403 12.6802 112.646 12.4853C113.134 12.0915 113.612 11.6877 114.048 11.2376C114.91 10.3495 115.638 9.32681 116.178 8.21168C116.359 7.83998 115.977 7.37183 115.581 7.61494C114.492 8.28201 113.484 9.0857 112.632 10.0381C111.824 10.9422 111.059 12.0111 110.773 13.2026C110.767 13.2307 110.803 13.2569 110.826 13.2328L110.824 13.2348Z" fill="#FAF5EB"/>
<path d="M109.937 15.0269C108.956 13.6345 108.1 12.1638 107.385 10.6348C107.064 9.9476 106.764 9.18811 106.963 8.46278C106.991 8.36231 107.038 8.25382 107.138 8.21162C107.206 8.18349 107.287 8.19354 107.359 8.21162C107.92 8.35428 108.231 8.91083 108.456 9.41716C109.201 11.0969 109.726 12.863 110.017 14.6633" fill="#FAF5EB"/>
<path d="M110.032 15.0272C110.054 14.8022 109.921 14.5953 109.817 14.4004C109.68 14.1412 109.525 13.892 109.383 13.6349C109.13 13.1747 108.891 12.7086 108.651 12.2404C108.398 11.7482 108.153 11.2479 107.922 10.7456C107.709 10.2835 107.484 9.8133 107.39 9.30898C107.368 9.18842 107.357 9.06787 107.359 8.9433C107.359 8.85087 107.408 8.71425 107.398 8.62584L107.408 8.58164C107.4 8.51131 107.341 8.53542 107.235 8.65598C107.241 8.67205 107.307 8.67004 107.321 8.6821C107.398 8.74639 107.472 8.78859 107.538 8.87097C107.785 9.17637 107.9 9.56616 108.035 9.91376C108.424 10.9244 108.734 11.9712 109.001 13.02C109.065 13.2752 109.126 13.5324 109.18 13.7896C109.242 14.0829 109.256 14.4526 109.409 14.7138C109.542 14.9388 109.859 15.1498 110.128 15.0755C110.452 14.9871 110.628 14.6053 110.612 14.2959C110.586 13.7434 110.399 13.1567 110.263 12.6242C110.126 12.0918 109.969 11.5794 109.779 11.0691C109.588 10.5587 109.361 10.0162 109.126 9.50387C108.929 9.0739 108.724 8.65799 108.392 8.31039C108.091 7.99494 107.597 7.68351 107.144 7.73776C106.552 7.80808 106.427 8.49524 106.439 8.98549C106.453 9.61438 106.688 10.2131 106.958 10.7737C107.209 11.2981 107.484 11.8165 107.779 12.3188C108.093 12.8513 108.428 13.3676 108.788 13.8719C108.969 14.1251 109.15 14.3763 109.341 14.6214C109.493 14.8143 109.662 15.0514 109.909 15.1136C109.971 15.1297 110.022 15.0835 110.028 15.0232L110.032 15.0272Z" fill="#FAF5EB"/>
<path d="M109.499 19.1258C110.586 17.4883 111.972 16.0316 113.576 14.8401C114.464 14.1811 115.539 13.5743 116.652 13.7551C116.813 13.7812 116.995 13.8476 117.034 13.9982C117.068 14.1329 116.963 14.2615 116.867 14.3639C114.976 16.343 112.523 17.8298 109.835 18.6255" fill="#FAF5EB"/>
<path d="M109.505 19.152C109.746 19.0616 109.915 18.9672 110.122 18.8105C110.373 18.6196 110.586 18.3865 110.803 18.1595C111.199 17.7436 111.577 17.3176 111.997 16.9218C112.839 16.1281 113.771 15.3285 114.792 14.7739C115.26 14.5187 115.774 14.3299 116.313 14.348C116.357 14.348 116.566 14.4002 116.61 14.3881C116.451 14.4344 116.57 13.8878 116.457 13.8758C116.483 13.8778 116.387 13.9521 116.365 13.9762C116.164 14.1812 115.955 14.3801 115.742 14.575C114.924 15.3164 114.024 15.9614 113.068 16.5179C112.515 16.8394 111.943 17.1307 111.356 17.3839C110.769 17.6371 110.092 17.7857 109.523 18.0871C108.997 18.3664 109.214 19.3108 109.839 19.2525C110.55 19.1862 111.255 18.8547 111.908 18.5754C112.497 18.3242 113.072 18.0409 113.628 17.7235C114.778 17.0664 115.846 16.2628 116.799 15.3405C117.01 15.1376 117.227 14.9306 117.412 14.7016C117.711 14.3319 117.777 13.8256 117.43 13.4579C116.946 12.9475 115.961 13.0661 115.356 13.2268C114.034 13.5784 112.869 14.5509 111.902 15.4812C111.364 15.9995 110.858 16.5521 110.389 17.1368C110.15 17.4361 109.921 17.7436 109.734 18.0791C109.548 18.4146 109.463 18.7502 109.475 19.1279C109.475 19.144 109.491 19.1581 109.507 19.152H109.505Z" fill="#FAF5EB"/>
<path d="M107.839 21.0064L107.819 21.3158C106.796 19.1559 105.774 16.994 104.914 14.7718C104.667 14.1308 104.427 13.4577 104.512 12.7806C104.548 12.4893 104.815 12.1296 105.082 12.2763C105.203 12.3426 105.249 12.4853 105.281 12.6139C106.029 15.4569 106.374 18.4205 107.604 21.1069" fill="#FAF5EB"/>
<path d="M108.127 21.6232L108.149 21.5991C108.278 21.4685 108.338 21.2696 108.284 21.0888C108.091 20.4579 107.807 19.8471 107.538 19.2443C107.287 18.6837 107.04 18.1212 106.797 17.5566C106.554 16.992 106.353 16.4053 106.12 15.8326C105.887 15.26 105.645 14.6773 105.449 14.0866C105.404 13.952 105.362 13.8174 105.328 13.6808C105.302 13.5783 105.262 13.3894 105.256 13.3311C105.242 13.1945 105.238 13.0539 105.248 12.9172V12.871C105.24 12.9353 105.244 12.9293 105.262 12.8509C105.234 12.9132 105.232 12.9213 105.256 12.8751C105.284 12.8288 105.278 12.8349 105.238 12.8931L105.181 12.9333C104.99 13.0338 104.83 13.0177 104.697 12.8871L104.568 12.8007C104.536 12.7284 104.532 12.7324 104.56 12.8148C104.581 12.9494 104.631 13.084 104.663 13.2146C104.737 13.512 104.808 13.8093 104.878 14.1087C105.149 15.2881 105.384 16.4776 105.678 17.653C105.836 18.2899 106.011 18.9248 106.216 19.5497C106.437 20.2248 106.678 21.0064 107.233 21.4826C107.57 21.7739 108.129 21.5891 108.133 21.1109C108.139 20.4237 107.829 19.7607 107.62 19.1157C107.412 18.4708 107.239 17.8258 107.082 17.1728C106.765 15.8608 106.513 14.5347 106.202 13.2206C106.035 12.5174 105.893 11.5188 104.968 11.4987C104.1 11.4786 103.719 12.425 103.747 13.1523C103.775 13.8797 104.038 14.5668 104.309 15.2399C104.581 15.913 104.84 16.5901 105.169 17.2311C105.529 17.9323 105.852 18.6516 106.196 19.3629C106.54 20.0741 106.881 20.8296 107.325 21.4967C107.424 21.6433 107.59 21.7699 107.777 21.7558C107.91 21.7458 108.028 21.7257 108.125 21.6252L108.127 21.6232Z" fill="#FAF5EB"/>
<path d="M107.741 23.3553C108.551 23.1865 109.355 22.9675 110.088 22.6058C111.374 21.9729 112.387 20.9382 113.588 20.1706C114.79 19.4031 116.377 18.9128 117.681 19.5216C117.022 19.8632 116.441 20.3414 115.991 20.912C115.792 21.1652 115.613 21.4405 115.35 21.6313C115.119 21.8001 114.838 21.8945 114.563 21.9809C112.555 22.6139 110.48 23.0519 108.38 23.289" fill="#FAF5EB"/>
<path d="M107.763 23.4356C108.01 23.4015 108.261 23.4155 108.506 23.3713C108.751 23.3271 108.987 23.2749 109.22 23.2005C109.666 23.0579 110.102 22.8791 110.514 22.656C111.299 22.2321 112.004 21.6695 112.742 21.1712C114.01 20.3133 115.832 19.2544 117.383 20.028V19.0173C116.782 19.3047 116.224 19.7567 115.782 20.251C115.583 20.472 115.42 20.7212 115.225 20.9442C115.006 21.1953 114.757 21.3058 114.444 21.4063C113.007 21.8684 111.504 22.1839 110.015 22.437C109.668 22.4953 109.32 22.5516 108.971 22.5978C108.621 22.644 108.141 22.7846 108.064 23.2066C107.996 23.5803 108.44 23.8214 108.756 23.8435C109.175 23.8736 109.644 23.7491 110.062 23.6828C110.789 23.5682 111.51 23.4276 112.227 23.2648C112.945 23.1021 113.706 22.855 114.438 22.6339C114.821 22.5174 115.229 22.4069 115.569 22.1899C115.908 21.9729 116.143 21.6575 116.393 21.34C116.833 20.7814 117.361 20.3856 117.97 20.032C118.444 19.7567 118.275 19.1399 117.829 18.9611C116.469 18.4146 114.868 18.8465 113.682 19.6201C112.497 20.3937 111.5 21.5389 110.224 22.2602C109.836 22.4812 109.429 22.652 109.007 22.7987C108.79 22.8751 108.571 22.9474 108.356 23.0257C108.141 23.1041 107.936 23.2126 107.711 23.2769C107.604 23.307 107.652 23.4497 107.755 23.4356H107.763Z" fill="#FAF5EB"/>
<path d="M105.661 24.7155C104.665 23.8977 103.66 23.072 102.867 22.0734C102.535 21.6554 102.244 21.2114 101.952 20.7694C101.249 19.6985 100.536 18.6094 100.182 17.3919C99.9672 16.6545 99.9351 15.7563 100.524 15.238C100.578 15.1897 100.646 15.1435 100.721 15.1576C100.791 15.1696 100.837 15.2339 100.875 15.2922C101.52 16.2787 102.167 17.2673 102.812 18.2538C103.319 19.0274 103.827 19.807 104.142 20.6669C104.363 21.2737 104.486 21.9106 104.707 22.5174C105.073 23.518 105.718 24.4262 106.556 25.1254" fill="#FAF5EB"/>
<path d="M105.687 24.6914C104.548 23.6687 103.411 22.6179 102.545 21.3461C101.679 20.0742 100.777 18.7763 100.387 17.3015C100.244 16.759 100.174 16.0738 100.536 15.5977C100.588 15.5293 100.65 15.4751 100.712 15.4168C100.64 15.4851 100.65 15.3726 100.652 15.4791C100.652 15.5093 100.712 15.5796 100.729 15.6057C100.837 15.7885 100.946 15.9714 101.056 16.1542C101.265 16.5058 101.474 16.8574 101.685 17.2091C102.487 18.5573 103.455 19.8311 103.867 21.3662C104.088 22.1919 104.297 22.9916 104.739 23.735C104.952 24.0907 105.251 24.376 105.533 24.6794C105.814 24.9828 106.087 25.2781 106.499 25.3485C106.656 25.3766 106.843 25.248 106.778 25.0692C106.646 24.6934 106.368 24.4523 106.123 24.1469C105.894 23.8616 105.752 23.5201 105.571 23.2026C105.177 22.5054 104.99 21.7379 104.747 20.9824C104.211 19.3167 103.079 17.8822 102.073 16.4737C101.814 16.112 101.556 15.7524 101.297 15.3907C101.096 15.1094 100.849 14.7317 100.457 14.9728C99.9148 15.3063 99.7701 16.0779 99.8184 16.6585C99.8786 17.3859 100.17 18.0831 100.497 18.726C100.869 19.4574 101.323 20.1425 101.777 20.8237C102.294 21.5972 102.822 22.3748 103.499 23.0177C104.176 23.6607 104.912 24.1992 105.645 24.7497C105.677 24.7738 105.719 24.7196 105.689 24.6934L105.687 24.6914Z" fill="#FAF5EB"/>
<path d="M103.847 28.7463C101.802 27.81 100.453 25.9052 99.3824 24.0005C99.0167 23.3495 98.6631 22.6021 98.9022 21.9029C98.9303 21.8165 98.9705 21.7321 99.0408 21.6718C99.2719 21.4689 99.6456 21.6517 99.8686 21.8627C101.267 23.1827 101.259 25.3527 102.366 26.9018C102.748 27.4343 103.268 27.9044 103.451 28.5253" fill="#FAF5EB"/>
<path d="M103.937 28.6557C103.503 28.2901 103.027 27.9786 102.599 27.6049C102.171 27.2312 101.804 26.8434 101.448 26.4275C100.721 25.5756 100.114 24.6071 99.5915 23.6186C99.4448 23.3393 99.3122 23.052 99.2398 22.7446C99.2077 22.608 99.1916 22.4693 99.1997 22.3287C99.2037 22.2664 99.2198 21.9931 99.2881 21.957C99.4026 21.8967 99.6738 22.2322 99.7381 22.3066C99.9029 22.4974 100.04 22.7104 100.16 22.9294C100.656 23.8336 100.877 24.8563 101.255 25.8087C101.488 26.3974 101.771 26.9399 102.161 27.4402C102.338 27.6672 102.533 27.8822 102.7 28.1193C102.883 28.3805 103.067 28.6598 103.393 28.7441C103.467 28.7622 103.564 28.7462 103.614 28.6859C104.102 28.1012 103.375 27.3698 103.011 26.9278C102.648 26.4858 102.372 26.0096 102.159 25.4852C101.715 24.3982 101.464 23.2127 100.757 22.2523C100.405 21.7761 99.8828 21.1593 99.2238 21.2135C98.4522 21.2758 98.394 22.2764 98.5105 22.8571C98.6471 23.5302 99.0389 24.149 99.3865 24.7297C99.712 25.2742 100.06 25.8026 100.445 26.3069C100.879 26.8756 101.348 27.412 101.906 27.8641C102.465 28.3162 103.084 28.7502 103.817 28.8747C103.929 28.8948 104.052 28.7502 103.943 28.6598L103.937 28.6557Z" fill="#FAF5EB"/>
<path d="M104.46 28.5712C106.262 27.88 108.063 27.1888 109.865 26.4977C110.345 26.3128 110.827 26.128 111.334 26.0335C111.949 25.917 112.584 25.9371 113.21 25.9572C113.711 25.9733 114.213 25.9893 114.713 26.0034C114.368 26.6443 113.57 26.9096 112.845 27.1185C112.202 27.3034 111.561 27.4902 110.918 27.6751C110.146 27.8981 109.375 28.1211 108.585 28.2738C107.149 28.5531 105.662 28.5953 104.207 28.4004" fill="#FAF5EB"/>
<path d="M104.476 28.6316C106.208 28.1655 107.878 27.5125 109.568 26.9177C110.361 26.6384 111.135 26.313 111.985 26.2627C112.393 26.2386 112.801 26.2527 113.208 26.2667C113.442 26.2748 113.677 26.2828 113.91 26.2909C114.143 26.2989 114.394 26.2808 114.625 26.321L114.48 25.7705C113.966 26.2728 113.267 26.4194 112.588 26.5621C111.651 26.757 110.739 27.0544 109.815 27.2935C108.947 27.5185 108.065 27.7114 107.169 27.7897C106.693 27.8319 106.214 27.848 105.734 27.84C105.511 27.8359 105.288 27.8259 105.065 27.8118C104.786 27.7938 104.507 27.7415 104.233 27.8299C103.729 27.9907 103.616 28.6818 104.085 28.9631C104.354 29.1239 104.663 29.1379 104.969 29.162C105.224 29.1821 105.479 29.1942 105.734 29.2002C106.244 29.2123 106.755 29.1942 107.263 29.15C108.304 29.0556 109.309 28.8406 110.309 28.5472C111.31 28.2539 112.266 27.9887 113.213 27.621C113.954 27.3316 114.822 26.9358 115.031 26.0939C115.077 25.9071 114.934 25.6519 114.713 25.676C114.259 25.7283 113.767 25.664 113.311 25.6499C112.855 25.6358 112.427 25.6218 111.987 25.6499C111.111 25.7062 110.313 25.9935 109.509 26.327C107.806 27.0343 106.076 27.6832 104.43 28.5191C104.366 28.5512 104.412 28.6497 104.478 28.6316H104.476Z" fill="#FAF5EB"/>
<path d="M4.60718 39.8591C5.39681 40.2448 6.2005 40.6005 6.9841 40.9983C7.40403 41.2113 7.83199 41.3841 8.27001 41.5569C8.68391 41.7216 9.11388 41.9165 9.54185 42.027C11.2678 42.4731 13.0419 42.6981 14.8201 42.4871C16.5983 42.2762 18.2217 41.802 19.8914 41.2896C20.6951 41.0425 21.5028 40.8034 22.3226 40.6125C22.7385 40.5161 23.1564 40.4317 23.5783 40.3654C23.6225 40.3573 23.8355 40.3272 23.6888 40.3473C23.7913 40.3332 23.8938 40.3212 23.9963 40.3111C24.2253 40.287 24.4544 40.2689 24.6854 40.2569C26.558 40.1625 28.4186 40.4779 30.2831 40.5964C32.1477 40.715 34.0464 40.498 35.921 40.2147C36.8513 40.074 37.6831 39.9394 38.5049 39.847C39.4513 39.7405 40.4016 39.6742 41.352 39.6441C43.2246 39.5858 45.0992 39.6622 46.9658 39.8169C48.8324 39.9716 50.7411 40.2067 52.6218 40.4578C52.7303 40.4719 52.6459 40.4618 52.6238 40.4578C52.6901 40.4658 52.7544 40.4759 52.8207 40.4839C52.9191 40.498 53.0176 40.51 53.114 40.5241C53.3591 40.5583 53.6043 40.5904 53.8494 40.6246C54.3256 40.6909 54.8038 40.7552 55.28 40.8215C56.2203 40.9501 57.1606 41.0807 58.1009 41.2093C61.8783 41.7276 65.6556 42.248 69.431 42.7664C73.2063 43.2848 77.0419 43.8815 80.8796 43.8614C84.2671 43.8454 87.6587 43.3049 90.757 41.8924C92.1835 41.2414 93.5156 40.3855 94.683 39.3347C95.7258 38.3963 96.5717 37.2752 97.4477 36.1882C97.8716 35.6618 98.3016 35.1414 98.7698 34.6511C99.0008 34.408 99.2419 34.1749 99.4951 33.9519C99.5554 33.8997 99.6157 33.8474 99.6779 33.7952C99.7061 33.7731 99.8829 33.6304 99.8065 33.6887C99.7302 33.747 99.917 33.6063 99.9391 33.5903C100.013 33.538 100.088 33.4858 100.162 33.4355C100.427 33.2587 100.705 33.1 100.992 32.9634C101.032 32.9433 101.225 32.8629 101.145 32.8951C101.064 32.9272 101.261 32.8509 101.303 32.8368C101.47 32.7765 101.639 32.7243 101.81 32.6801C102.459 32.5113 103.108 32.3767 103.716 32.0813C104.052 31.9186 104.317 31.6674 104.52 31.356C104.607 31.2234 104.673 31.0667 104.717 30.916C104.747 30.8115 104.761 30.701 104.773 30.5945C104.777 30.5583 104.783 30.5242 104.783 30.488L104.771 30.3936C104.749 30.275 104.753 30.269 104.781 30.3735C104.818 30.0018 104.438 29.6803 104.088 29.6803C103.682 29.6803 103.433 29.9998 103.395 30.3735L103.389 30.4318L103.483 30.0821C103.449 30.1545 103.421 30.2248 103.389 30.2991C103.395 30.2851 103.455 30.1987 103.409 30.2529C103.359 30.3112 103.295 30.3976 103.397 30.2951C103.361 30.3313 103.319 30.3675 103.287 30.4056C103.383 30.2931 103.375 30.3454 103.319 30.3775C103.287 30.3956 103.256 30.4157 103.224 30.4338C103.106 30.5001 102.987 30.5684 102.865 30.6287C102.836 30.6427 102.808 30.6528 102.78 30.6668C102.676 30.7211 102.921 30.6226 102.806 30.6548C102.724 30.6769 102.644 30.7151 102.563 30.7412C101.966 30.9341 101.342 31.0265 100.755 31.2515C99.4348 31.7558 98.3338 32.6339 97.3834 33.6666C96.4612 34.6672 95.6695 35.7783 94.7814 36.809C94.3253 37.3395 93.8411 37.8438 93.3107 38.3019C93.17 38.4245 93.0254 38.541 92.8807 38.6575C92.7622 38.752 92.9209 38.6294 92.7983 38.7198C92.7139 38.7841 92.6275 38.8464 92.5412 38.9087C92.2277 39.1337 91.9042 39.3467 91.5727 39.5456C91.2412 39.7445 90.9217 39.9213 90.5882 40.0901C90.4315 40.1685 90.2747 40.2468 90.116 40.3212C90.0296 40.3614 89.9452 40.3995 89.8588 40.4397C89.8086 40.4618 89.7604 40.4839 89.7101 40.506C89.6961 40.5121 89.5494 40.5743 89.6258 40.5422C89.7142 40.504 89.5595 40.5703 89.5394 40.5764C89.5012 40.5924 89.465 40.6065 89.4268 40.6226C89.3384 40.6587 89.25 40.6929 89.1616 40.727C88.9707 40.7994 88.7799 40.8697 88.587 40.936C88.2253 41.0606 87.8596 41.1751 87.492 41.2796C86.7526 41.4885 86.0011 41.6553 85.2416 41.7839C85.0527 41.8161 84.8619 41.8462 84.671 41.8743C84.6308 41.8803 84.5886 41.8864 84.5484 41.8924C84.4078 41.9125 84.675 41.8763 84.5344 41.8944C84.4259 41.9085 84.3174 41.9225 84.2069 41.9346C83.7889 41.9828 83.371 42.019 82.9531 42.0471C81.0926 42.1697 79.224 42.1094 77.3674 41.9547C76.4271 41.8763 75.4888 41.7739 74.5525 41.6573C73.6162 41.5408 72.8969 41.4423 71.9365 41.3057C68.2114 40.7833 64.4863 40.2689 60.7612 39.7526C57.036 39.2362 53.2145 38.6515 49.4291 38.2276C45.7422 37.8157 42.005 37.6007 38.31 38.0467C37.3657 38.1613 36.4254 38.3099 35.485 38.4526C35.262 38.4868 35.039 38.5209 34.816 38.5531C34.7034 38.5691 34.5929 38.5852 34.4804 38.6013C34.3679 38.6174 34.4603 38.6033 34.4804 38.6013C34.4001 38.6113 34.3217 38.6214 34.2413 38.6314C33.7953 38.6877 33.3472 38.7359 32.8971 38.7701C31.0547 38.9107 29.2383 38.6857 27.4059 38.5289C26.4837 38.4506 25.5574 38.3983 24.6332 38.4506C23.7089 38.5028 22.8751 38.6374 22.0152 38.8303C20.3877 39.196 18.8004 39.7385 17.2071 40.2267C16.4074 40.4719 15.5977 40.6889 14.7719 40.8315C14.6714 40.8496 14.5689 40.8657 14.4685 40.8797C14.4705 40.8797 14.3278 40.8998 14.4022 40.8898C14.4866 40.8777 14.3077 40.9018 14.2917 40.9039C14.0867 40.928 13.8798 40.9481 13.6748 40.9601C13.2288 40.9903 12.7787 40.9923 12.3327 40.9702C11.4747 40.93 10.7233 40.7994 9.87739 40.6206C9.46148 40.5322 9.01945 40.4739 8.59148 40.3774C8.16352 40.281 7.71345 40.1665 7.26941 40.07C6.43759 39.8892 5.62586 39.6079 4.81212 39.3588C4.52681 39.2704 4.3279 39.7144 4.60517 39.849L4.60718 39.8591Z" fill="#FAF5EB"/>
<path d="M10.878 39.1499C11.7059 39.0414 12.5417 38.9891 13.3695 38.8706C14.1973 38.752 14.9829 38.6797 15.7906 38.6074C17.4322 38.4607 19.0797 38.3844 20.7253 38.314C24.145 38.1674 27.5627 37.9885 30.9804 37.8017C32.6822 37.7093 34.384 37.6168 36.0859 37.5244C37.7877 37.432 39.4654 37.3094 41.0266 37.5445C42.5877 37.7796 44.1388 38.3643 45.69 38.7902C47.2411 39.2162 48.8786 39.5156 50.5001 39.7265C53.6706 40.1404 56.8734 40.1886 60.066 40.2067C63.2768 40.2248 66.4935 40.2067 69.6942 40.484C71.2996 40.6226 72.7161 40.8376 74.3195 41.141C75.9229 41.4444 77.6588 41.7337 79.3647 41.6192C81.0705 41.5047 82.706 41.1993 84.3335 40.8416C85.8163 40.5161 87.2308 39.9375 88.2997 38.8244C89.2702 37.8137 89.881 36.5278 90.0558 35.1394C90.1502 34.392 90.0518 33.6586 89.9111 32.9233C89.877 32.7404 89.8388 32.5596 89.8046 32.3768C89.7886 32.2863 89.7725 32.1939 89.7564 32.1035C89.7564 32.1115 89.7343 31.9629 89.7444 32.0292C89.7504 32.0693 89.7323 31.9287 89.7303 31.9106C89.7102 31.7157 89.7001 31.5188 89.7062 31.3239C89.7142 31.0969 89.7142 31.0828 89.7705 30.8839C89.7785 30.8538 89.8448 30.687 89.7986 30.7854C89.7524 30.8839 89.8368 30.7212 89.8508 30.695C89.881 30.6428 89.9192 30.5946 89.9493 30.5423C89.9935 30.466 89.9232 30.5785 89.9171 30.5845C89.9453 30.5564 89.9714 30.5222 89.9995 30.4921C90.0498 30.4399 90.102 30.3916 90.1562 30.3434C90.1783 30.3233 90.2045 30.3032 90.2266 30.2831C90.2165 30.2912 90.112 30.3535 90.1864 30.3173C90.3029 30.261 90.4134 30.1807 90.532 30.1224C90.4094 30.1827 90.4817 30.1445 90.5621 30.1204C90.6184 30.1023 90.6746 30.0923 90.7309 30.0782C90.8675 30.044 90.5722 30.0742 90.7691 30.0782C90.7952 30.0782 90.8253 30.0782 90.8514 30.0782C90.9901 30.0702 90.7952 30.0802 90.7992 30.0661C90.7992 30.0601 90.9439 30.1023 90.9559 30.1043C91.0986 30.1405 90.8293 30.042 90.9599 30.1103C91.0825 30.1746 90.8776 30.0139 90.976 30.1164C90.9961 30.1365 91.0182 30.1586 91.0383 30.1787C91.1066 30.245 90.9861 30.0882 91.0443 30.1867C91.0624 30.2188 91.0805 30.251 91.0986 30.2811C91.0885 30.263 91.0684 30.1666 91.0845 30.251C91.0966 30.3173 91.1187 30.4981 91.1167 30.3474C91.1167 30.4198 91.1227 30.4921 91.1207 30.5664C91.1207 30.6026 91.1126 30.6408 91.1126 30.679C91.1106 30.8015 91.1408 30.5664 91.1126 30.689C91.0343 31.0245 90.9479 31.3541 90.8514 31.6876C90.6405 32.4069 90.548 33.1543 90.6425 33.9018C90.7429 34.6894 90.9881 35.4368 91.402 36.1179C91.5788 36.4093 91.9866 36.6162 92.3282 36.4957C93.6804 36.0155 94.9121 35.2901 96.1317 34.5467C96.7104 34.1951 97.287 33.8415 97.8837 33.518C98.1811 33.3573 98.4845 33.2025 98.7919 33.0619C98.8602 33.0298 98.9285 32.9996 98.9969 32.9695C99.1415 32.9052 99.0411 32.9514 99.0089 32.9635C99.0431 32.9494 99.0772 32.9353 99.1114 32.9213C99.2721 32.857 99.4329 32.7967 99.5976 32.7404C99.9472 32.6219 100.303 32.5254 100.667 32.4571C100.751 32.441 100.837 32.429 100.922 32.4129C100.771 32.439 100.898 32.4149 100.928 32.4129C100.978 32.4069 101.026 32.4029 101.076 32.3968C101.277 32.3788 101.478 32.3707 101.681 32.3707L101.109 30.9864C100.809 31.3681 100.488 31.7318 100.14 32.0734C99.9653 32.2441 99.7865 32.4089 99.6016 32.5696C99.5092 32.65 99.4148 32.7284 99.3203 32.8047C99.3103 32.8128 99.1938 32.9052 99.242 32.867C99.2942 32.8268 99.1255 32.9554 99.1295 32.9514C98.7457 33.2367 98.3439 33.4979 97.9279 33.733C97.713 33.8535 97.494 33.9701 97.279 34.0906C97.1725 34.1509 97.064 34.2112 96.9535 34.2674C96.9053 34.2936 96.857 34.3177 96.8068 34.3418C96.8128 34.3378 96.6079 34.4443 96.6883 34.4121C96.3186 34.5588 96.0574 34.9064 96.1719 35.3203C96.2683 35.6719 96.7083 35.9853 97.0801 35.8367C97.6045 35.6277 98.1369 35.469 98.6352 35.1937C99.0893 34.9425 99.5273 34.6613 99.9452 34.3518C100.807 33.7109 101.589 32.9815 102.252 32.1336C102.459 31.8684 102.559 31.5791 102.419 31.2476C102.294 30.9542 102.003 30.7473 101.677 30.7493C98.7377 30.7633 96.3688 32.5998 93.9135 33.9681C93.578 34.1549 93.2384 34.3337 92.8908 34.5005C92.7984 34.5447 92.706 34.5869 92.6135 34.6291C92.5733 34.6472 92.3222 34.7537 92.4588 34.6974C92.27 34.7738 92.0811 34.8461 91.8902 34.9124L92.8165 35.2901C92.7301 35.1455 92.6517 34.9968 92.5774 34.8461C92.5693 34.832 92.5151 34.7034 92.5593 34.8119C92.5432 34.7738 92.5291 34.7336 92.5131 34.6954C92.4789 34.603 92.4468 34.5106 92.4186 34.4181C92.3704 34.2574 92.3302 34.0946 92.3001 33.9319C92.2941 33.8937 92.2659 33.6928 92.28 33.8214C92.2679 33.7109 92.2579 33.6004 92.2539 33.4899C92.2478 33.3231 92.2479 33.1563 92.2579 32.9916C92.2639 32.9092 92.27 32.8248 92.28 32.7424C92.278 32.7605 92.2639 32.8529 92.28 32.7545C92.2921 32.6862 92.3041 32.6179 92.3182 32.5495C92.3885 32.2241 92.495 31.9086 92.5794 31.5871C92.7743 30.8457 92.8727 29.9757 92.4006 29.3127C91.9605 28.6938 91.2714 28.3945 90.5179 28.4949C89.887 28.5793 89.2903 28.8948 88.8543 29.3569C88.3158 29.9255 88.0908 30.6428 88.0847 31.4184C88.0767 32.2622 88.3279 33.078 88.4404 33.9078C88.4283 33.8254 88.4524 34.0304 88.4544 34.0585C88.4604 34.1308 88.4665 34.2031 88.4685 34.2755C88.4765 34.4443 88.4745 34.615 88.4645 34.7838C88.4605 34.8561 88.4524 34.9285 88.4464 35.0008C88.4323 35.1615 88.4645 34.9144 88.4363 35.0731C88.4062 35.2399 88.3741 35.4067 88.3298 35.5694C88.2937 35.7101 88.2495 35.8487 88.2013 35.9873C88.1772 36.0557 88.151 36.124 88.1249 36.1923C88.1209 36.2003 88.0727 36.3108 88.1088 36.2305C88.145 36.1501 88.0827 36.2867 88.0747 36.3008C87.9401 36.5901 87.7813 36.8654 87.5985 37.1286C87.5563 37.1889 87.5141 37.2491 87.4699 37.3074C87.4136 37.3817 87.4759 37.2994 87.484 37.2893C87.4518 37.3275 87.4217 37.3657 87.3895 37.4039C87.2851 37.5264 87.1766 37.645 87.064 37.7575C86.9596 37.862 86.8491 37.9624 86.7365 38.0589C86.7064 38.085 86.5276 38.2236 86.6401 38.1412C86.5698 38.1935 86.4994 38.2437 86.4271 38.2939C85.7982 38.7219 85.2477 38.9248 84.5183 39.1197C83.789 39.3146 82.9712 39.4533 82.1937 39.5939C81.3618 39.7446 80.5883 39.8752 79.8007 39.9495C78.9608 40.0279 78.121 40.04 77.2811 39.9656C76.5216 39.8973 75.7923 39.7647 74.9886 39.616C74.1849 39.4673 73.3711 39.3106 72.5574 39.1921C69.3085 38.7179 66.0274 38.6255 62.7503 38.6054C59.5295 38.5853 56.3047 38.6235 53.09 38.3864C52.2863 38.3261 51.4846 38.2497 50.6849 38.1493C50.3494 38.1071 50.0098 38.0589 49.612 37.9966C49.2142 37.9343 48.8183 37.864 48.4245 37.7876C46.8372 37.4802 45.3082 37.004 43.7591 36.5499C42.0995 36.0637 40.4298 35.8145 38.6979 35.8326C36.9659 35.8507 35.2882 35.9873 33.5864 36.0818C30.1325 36.2747 26.6786 36.4535 23.2268 36.6785C19.8573 36.8995 16.4617 37.0402 13.1284 37.6249C12.3227 37.7655 11.5371 38.0227 10.7655 38.2879C10.5606 38.3582 10.4179 38.5471 10.4501 38.7701C10.4782 38.963 10.6631 39.18 10.8821 39.1519L10.878 39.1499Z" fill="#FAF5EB"/>
<path d="M14.5529 39.3045C14.573 39.3467 14.5951 39.3889 14.6172 39.4311L14.5388 39.1378L14.5067 39.399L14.563 39.8209C14.6112 40.0278 14.7076 40.2067 14.8463 40.3614C15.0371 40.6085 15.3486 40.8818 15.67 40.93C16.6224 41.0726 17.5487 41.1168 18.5071 41.0244C19.0576 40.9722 19.6001 40.8938 20.1426 40.7813C20.5866 40.6889 21.0327 40.6025 21.4807 40.5402L20.9865 40.6065C22.2342 40.4438 23.492 40.4558 24.7457 40.4839C25.9995 40.5121 27.2934 40.5302 28.5673 40.5181C31.1492 40.496 33.729 40.3895 36.3048 40.2006C36.7368 40.1685 37.1648 40.1203 37.5948 40.056C37.8138 40.0238 37.9966 39.9917 38.2036 39.9053C38.8586 39.628 39.4071 38.977 39.3749 38.2276C39.3307 37.1888 38.523 36.4655 37.5003 36.4092C37.1708 36.3911 36.8333 36.4173 36.5038 36.4414C35.2078 36.5358 33.9118 36.6081 32.6139 36.6604C30.0561 36.7628 27.4984 36.7669 24.9386 36.7327C23.4116 36.7106 21.9087 36.7407 20.3958 36.9718C19.7508 37.0703 19.0797 37.1888 18.4589 37.3857C17.838 37.5826 17.2232 37.7554 16.5863 37.8498L17.0223 37.7916C16.7068 37.8338 16.4074 37.8438 16.09 37.8117C15.6017 37.7634 14.9146 38.1372 14.7197 38.5973L14.6152 38.8444L14.9608 38.5772C14.9186 38.5892 14.8764 38.6013 14.8322 38.6113C14.5188 38.6877 14.4223 39.0393 14.5509 39.3025L14.5529 39.3045Z" fill="#FAF5EB"/>
<path d="M38.5332 37.9664C38.5653 38.0548 38.5914 38.1472 38.6397 38.2296C38.7321 38.3843 38.9551 38.5691 39.1038 38.6616C39.2525 38.754 39.4574 38.8243 39.6262 38.8745C39.809 38.9308 40.0341 38.9288 40.227 38.9529L39.9477 38.9147C40.1385 38.9408 40.3294 38.973 40.5203 39.0092C40.6107 39.0272 40.7031 39.0453 40.7936 39.0654C40.8398 39.0755 40.884 39.0875 40.9302 39.0976C41.1813 39.1518 41.32 39.1317 41.5711 39.0976L41.8263 38.9891L42.0433 38.8223C42.2101 38.6555 42.3065 38.4405 42.3366 38.2095C42.3949 37.7815 42.194 37.3736 41.8263 37.1466C41.5108 36.9497 41.0487 36.9376 40.6911 36.8934C40.4681 36.8673 40.245 36.8472 40.02 36.8352C39.6925 36.8171 39.2766 36.9196 39.0094 37.1165C38.931 37.1747 38.8205 37.243 38.7602 37.3073C38.6638 37.4118 38.6035 37.5183 38.5573 37.6529C38.5231 37.7514 38.497 37.8639 38.5332 37.9664Z" fill="#FAF5EB"/>
<path d="M65.3944 41.2234C65.6355 41.3078 65.8746 41.3902 66.1258 41.4444C66.4573 41.5148 66.7788 41.5248 67.1143 41.5288C67.6448 41.5348 68.1752 41.571 68.7016 41.6273C68.8383 41.6413 68.9749 41.6574 69.1095 41.6755C69.1698 41.6835 69.3265 41.6795 69.0774 41.6715C69.1356 41.6735 69.1979 41.6896 69.2582 41.6976C69.5294 41.7358 69.8007 41.7739 70.0719 41.8181C70.6164 41.9066 71.1609 42.003 71.7014 42.1035C73.9116 42.5174 76.1458 43.0197 78.4062 42.9755C80.7229 42.9313 82.9933 42.3265 85.2135 41.7157C86.2442 41.4324 87.289 41.0948 88.2092 40.5423C89.1295 39.9897 89.8628 39.2483 90.4033 38.3462C91.5104 36.4977 91.6691 34.2534 91.7435 32.1517C91.7817 31.0768 90.3772 30.5444 89.6459 31.2817C89.6117 31.3179 89.5735 31.3541 89.5374 31.3882C89.4369 31.4726 89.461 31.4545 89.6057 31.338C89.5956 31.33 89.3666 31.4827 89.3425 31.4967C89.3204 31.5088 89.0772 31.6494 89.0692 31.6354C89.234 31.5691 89.2561 31.559 89.1355 31.6032C89.0129 31.6374 89.0391 31.6394 89.2098 31.6113C89.5735 32.0874 89.9372 32.5656 90.3009 33.0418C90.339 32.9193 90.3792 32.7987 90.4214 32.6782C90.4455 32.6118 90.4716 32.5455 90.4958 32.4792C90.542 32.3567 90.5018 32.427 90.4817 32.5054C90.542 32.2582 90.7208 31.995 90.8434 31.774C90.9659 31.553 91.1066 31.33 91.2552 31.119C91.2874 31.0728 91.3236 31.0266 91.3557 30.9804C91.426 30.8819 91.2552 31.1009 91.3798 30.9502C91.4722 30.8397 91.5647 30.7292 91.6611 30.6207C91.9384 30.3093 92.0368 29.9014 91.8721 29.5076C91.7073 29.1138 91.3517 28.8867 90.9418 28.8807C90.2526 28.8707 89.686 29.2122 89.2962 29.7628C89.0109 30.1686 89.1898 30.7654 89.5534 31.0467C89.9171 31.328 90.554 31.3601 90.8594 30.9683C90.8675 30.9583 90.9518 30.8518 90.9559 30.8558L90.8695 30.9201C90.9519 30.8759 90.9559 30.8698 90.8835 30.902C90.7208 30.9904 91.0282 30.8417 90.8474 30.908C90.7349 30.9482 90.8815 30.9141 90.9418 30.9181L90.2225 29.1801C89.2942 30.1184 88.6011 31.2154 88.1188 32.4411C87.8516 33.1202 88.5327 33.8957 89.2098 33.8716C89.5715 33.8596 89.9352 33.8495 90.2828 33.729C90.7027 33.5823 91.0704 33.3352 91.3838 33.0217L89.2862 32.1517C89.2701 32.5717 89.248 32.9916 89.2179 33.4115C89.2018 33.6245 89.1837 33.8355 89.1596 34.0484C89.1476 34.1569 89.1214 34.2755 89.1214 34.384C89.1214 34.3639 89.1677 34.0685 89.1355 34.2795C89.1255 34.3418 89.1174 34.4021 89.1074 34.4644C89.0431 34.8803 88.9587 35.2922 88.8442 35.696C88.7879 35.8949 88.7256 36.0918 88.6553 36.2867C88.6231 36.3771 88.583 36.4656 88.5508 36.556C88.6874 36.1863 88.5448 36.56 88.4986 36.6524C88.4142 36.8232 88.3218 36.992 88.2213 37.1527C88.1711 37.2331 88.1188 37.3134 88.0626 37.3918C88.0425 37.4199 87.9923 37.4722 87.9782 37.5083C88.0927 37.3617 88.1208 37.3255 88.0626 37.3998C88.0405 37.428 88.0184 37.4561 87.9943 37.4842C87.8697 37.6329 87.7351 37.7756 87.5944 37.9102C87.5221 37.9785 87.4457 38.0428 87.3714 38.1091C87.1645 38.294 87.5422 37.9906 87.3955 38.093C87.3393 38.1332 87.285 38.1734 87.2267 38.2116C87.0339 38.3442 86.8309 38.4627 86.624 38.5692C86.5255 38.6194 86.4251 38.6697 86.3246 38.7159C86.2744 38.74 86.2221 38.7621 86.1719 38.7842C86.0292 38.8485 86.417 38.6878 86.2 38.7722C85.7379 38.949 85.2677 39.1017 84.7916 39.2343C83.7608 39.5236 82.718 39.7928 81.6732 40.0259C81.1408 40.1445 80.6023 40.2489 80.0618 40.3273C80.0337 40.3313 79.877 40.3454 79.8709 40.3554C79.877 40.3434 80.1824 40.3172 79.9192 40.3474C79.7906 40.3615 79.664 40.3775 79.5354 40.3896C79.2501 40.4177 78.9648 40.4358 78.6775 40.4458C77.6407 40.482 76.5979 40.4097 75.5692 40.2931C75.4325 40.2771 75.2959 40.261 75.1593 40.2429C75.1151 40.2369 74.9142 40.2108 75.095 40.2349C75.2758 40.259 75.0749 40.2329 75.0307 40.2248C74.7554 40.1866 74.4822 40.1445 74.2069 40.1023C73.6885 40.0219 73.1702 39.9355 72.6538 39.8531C71.4181 39.6542 70.1784 39.4573 68.9267 39.389C68.352 39.3588 67.7774 39.3508 67.2027 39.3769C66.8351 39.395 66.4714 39.4111 66.1238 39.5357C65.7983 39.6502 65.513 39.8049 65.2337 40.0018C64.7535 40.3414 64.8298 41.0285 65.3944 41.2254V41.2234Z" fill="#FAF5EB"/>
<path d="M90.6245 37.3173C90.7491 37.3153 90.8757 37.3072 91.0003 37.3093C91.1248 37.3113 91.2273 37.3494 91.3499 37.3735C91.597 37.4198 91.8743 37.3856 92.1254 37.3816C92.688 37.3715 93.2787 37.1505 93.8072 36.9637C94.8299 36.604 95.8546 36.2464 96.8773 35.8867L96.1419 34.1427C95.3703 34.5727 94.5827 34.9745 93.8252 35.4286C93.0678 35.8827 92.3163 36.5015 91.6392 37.1164C91.3157 37.4097 91.0043 37.7171 90.7089 38.0386C90.5703 38.1893 90.4316 38.34 90.2789 38.4786C90.2347 38.5188 90.1905 38.557 90.1463 38.5932C90.287 38.4867 90.3051 38.4706 90.2006 38.5469C90.1323 38.5871 90.068 38.6333 89.9997 38.6715C89.8289 38.77 89.5777 38.8282 89.427 38.9488L89.5858 38.8825C89.5355 38.9026 89.4873 38.9227 89.4371 38.9448C89.2603 39.0191 89.0835 39.0914 88.9087 39.1678C88.4566 39.3627 88.0768 39.6018 87.689 39.9092C87.458 40.094 87.2972 40.5361 87.3113 40.8214C87.3254 41.1067 87.4098 41.3719 87.5886 41.603C87.9784 42.1073 88.6937 42.262 89.2542 41.9365C90.8918 40.9861 92.2842 39.5254 93.1682 37.8538C93.4535 37.3133 93.345 36.6623 92.8548 36.2825C92.4007 35.9329 91.6613 35.9229 91.2574 36.377C90.5823 37.1385 89.857 37.8437 89.0734 38.4947C88.8946 38.6434 88.7178 38.8001 88.5289 38.9327C88.772 38.7619 88.4847 38.9649 88.4224 39.0131C88.3059 39.1015 88.1873 39.1879 88.0688 39.2723C87.6529 39.5716 87.2269 39.857 86.7929 40.1262C86.582 40.2568 86.3589 40.3733 86.152 40.512C85.6899 40.8194 85.3684 41.4 85.5492 41.9606C85.7039 42.4408 86.1882 42.7302 86.6764 42.7523C87.0923 42.7703 87.468 42.5051 87.8076 42.2982C88.7439 41.7276 89.632 41.0866 90.4859 40.3995C91.3398 39.7123 92.1998 38.9166 92.9794 38.0989L91.0666 36.6241C90.9601 36.809 90.8496 36.9898 90.731 37.1666C90.6848 37.2349 90.4819 37.6167 90.4055 37.6227C90.518 37.478 90.5341 37.4579 90.4517 37.5604C90.4176 37.6026 90.3854 37.6428 90.3513 37.685C90.283 37.7674 90.2126 37.8477 90.1423 37.9281C90.0077 38.0788 89.8711 38.2235 89.7264 38.3661C89.5817 38.5088 89.4351 38.6454 89.2824 38.778C89.2 38.8483 89.1176 38.9186 89.0332 38.987C88.991 39.0211 88.9488 39.0553 88.9066 39.0874C89.0473 38.9789 89.0794 38.9548 89.0031 39.0111C88.6615 39.2582 88.3119 39.4893 87.9502 39.7043C88.4726 40.3794 88.993 41.0565 89.5154 41.7316C89.212 41.9767 89.4974 41.7517 89.5717 41.7055C89.6601 41.6512 89.7525 41.601 89.847 41.5527C90.0117 41.4684 90.1825 41.394 90.3533 41.3217C90.6949 41.175 91.0404 41.0364 91.3579 40.8395C92.1515 40.3472 92.69 39.5897 93.335 38.9347C93.9297 38.3279 94.5847 37.7955 95.2176 37.2349C95.523 36.9637 95.8345 36.7025 96.1519 36.4473C96.2423 36.375 96.3348 36.3026 96.4252 36.2303C96.2624 36.3589 96.4915 36.1841 96.5076 36.172C96.7025 36.0374 96.9034 35.9128 97.1023 35.7863C97.5061 35.5311 97.681 35.0388 97.4921 34.5948C97.3253 34.201 96.8069 33.8594 96.3649 34.0422C95.3422 34.4662 94.3195 34.8901 93.2968 35.3161C93.0135 35.4346 92.7242 35.5411 92.4549 35.6858C92.2038 35.8204 91.9104 35.941 91.6955 36.1278C91.5006 36.2966 91.2775 36.4654 91.1108 36.6603C91.0324 36.7527 90.9822 36.8612 90.8958 36.9476C90.7993 37.044 90.6848 37.1284 90.5823 37.2168C90.5462 37.249 90.5763 37.3133 90.6225 37.3113L90.6245 37.3173Z" fill="#FAF5EB"/>
<path d="M96.3626 34.8038C96.5274 34.8098 96.6379 34.838 96.8087 34.8139C96.9795 34.7898 97.1201 34.7435 97.2808 34.6712C97.5983 34.5286 97.8937 34.3437 98.1368 34.0905C98.3799 33.8374 98.5929 33.5239 98.7777 33.2326C98.9947 32.889 99.1213 32.4992 99.1334 32.0914C99.1334 32.0351 99.1334 31.9768 99.1313 31.9226C99.1193 31.7438 99.1052 31.9748 99.0691 32.0431C99.0269 32.1195 98.9646 32.1999 98.8882 32.2461C98.6813 32.3686 98.7978 32.2802 98.8922 32.2521C99.1675 32.1737 99.4528 32.1175 99.7321 32.0532C100.048 31.9788 100.361 31.9045 100.676 31.8302C100.833 31.794 100.992 31.7558 101.149 31.7197L101.289 31.6855L101.139 31.7096L100.994 31.6875C101.165 31.7377 101.082 31.6835 100.745 31.5207C101.153 31.8503 101.771 31.9507 102.165 31.5207C102.507 31.149 102.597 30.4599 102.165 30.1002C101.733 29.7406 101.287 29.6421 100.751 29.7406C100.401 29.8049 100.056 29.8913 99.708 29.9676C99.3282 30.05 98.9505 30.1324 98.5708 30.2147C98.191 30.2971 97.7952 30.4277 97.5099 30.7211C97.1482 31.0928 97.0578 31.5931 97.104 32.0914V32.1757C97.1241 32.0472 97.1221 32.0391 97.094 32.1557L97.1342 32.0733C97.1101 32.1255 97.0839 32.1757 97.0558 32.226C96.9754 32.3686 96.883 32.5053 96.7906 32.6399C96.5676 32.9694 96.3787 33.319 96.2843 33.7068C96.238 33.8977 96.1979 34.0765 96.1939 34.2734C96.1898 34.4241 96.236 34.5466 96.2501 34.6893C96.2561 34.7516 96.2963 34.7978 96.3626 34.8018V34.8038Z" fill="#FAF5EB"/>
<path d="M42.9653 37.7976H42.9492C42.2761 37.8679 41.9607 38.5772 42.4087 39.1016C42.8106 39.5717 43.564 39.6762 44.1487 39.6421C44.6329 39.6139 45.1151 39.5858 45.5994 39.5577C46.5839 39.4994 47.5664 39.4391 48.5509 39.3809C49.5355 39.3226 50.6044 39.2663 51.603 39.0875C51.8119 39.0493 52.0189 38.9991 52.2178 38.9268C52.3263 38.8866 52.4288 38.8384 52.5372 38.7962C52.5754 38.7821 52.6216 38.7741 52.6578 38.756C52.7562 38.7299 52.71 38.7319 52.5192 38.764L52.3403 38.7339C52.2539 38.7078 52.1977 38.6595 52.1233 38.6173C51.9686 38.5289 52.1093 38.6093 52.1535 38.6495C52.2258 38.7158 52.2961 38.7821 52.3705 38.8464C52.5593 39.0132 52.7563 39.1679 52.9552 39.3206C53.357 39.63 53.7689 39.9193 54.2109 40.1685C54.4078 40.279 54.6088 40.3875 54.8137 40.4819C55.0026 40.5683 55.1935 40.6567 55.4004 40.6929C55.4426 40.7009 55.4848 40.707 55.527 40.713C55.7962 40.7532 55.971 40.7391 56.2322 40.7029C56.9294 40.6085 57.3333 39.5557 56.9234 39.0051C56.7084 38.7178 56.4593 38.4747 56.1398 38.2999C55.9529 38.1994 55.7601 38.111 55.5732 38.0065C55.2035 37.7996 54.8499 37.5665 54.5083 37.3154C54.3194 37.1767 54.5505 37.3576 54.5666 37.3596C54.5425 37.3556 54.446 37.2611 54.436 37.2531C54.3596 37.1908 54.2853 37.1265 54.2109 37.0622C53.9839 36.8633 53.7709 36.6383 53.5137 36.4795C53.2043 36.2907 52.8467 36.1882 52.483 36.2063C52.1414 36.2223 51.8923 36.3208 51.5849 36.4373C51.386 36.5137 51.181 36.5659 50.9741 36.6041C50.9258 36.6141 50.7269 36.6342 50.9178 36.6182C51.1087 36.6021 50.9419 36.6162 50.9058 36.6182C50.7691 36.6322 50.6325 36.6463 50.4939 36.6583C49.9976 36.7005 49.5013 36.7387 49.007 36.7789C47.9883 36.8613 46.9717 36.9859 45.955 37.0903C45.4045 37.1466 44.8539 37.2029 44.3034 37.2631C43.558 37.3435 42.7141 37.4681 42.2942 38.1713L43.339 37.898C43.2385 37.8378 43.0838 37.7815 42.9693 37.7916L42.9653 37.7976Z" fill="#FAF5EB"/>
<path d="M35.1276 38.7419C35.1637 39.3748 35.8288 39.855 36.4054 40.0097C36.9399 40.1524 37.5246 40.1926 38.0751 40.2408C38.9692 40.3172 39.8673 40.3373 40.7635 40.3835C41.2155 40.4076 41.6696 40.4257 42.1197 40.4578C42.3347 40.4739 42.5517 40.492 42.7667 40.5181C42.8089 40.5241 42.8531 40.5301 42.8952 40.5342C42.5135 40.494 42.6943 40.506 42.7807 40.5201C42.9073 40.5422 43.0339 40.5623 43.1605 40.5864C43.5925 40.6708 44.0184 40.7873 44.4303 40.944C44.4705 40.9601 44.5107 40.9762 44.5488 40.9923C44.7196 41.0586 44.2876 40.8717 44.4524 40.9521C44.5368 40.9943 44.6252 41.0324 44.7096 41.0726C44.9889 41.2052 45.2742 41.3318 45.5655 41.4383C46.2386 41.6834 47.0182 41.7055 47.6632 41.364C48.0449 41.163 48.2539 40.8777 48.511 40.5522C48.5894 40.4538 48.6216 40.502 48.4146 40.6768C48.4427 40.6527 48.4749 40.6125 48.499 40.5824C48.6195 40.4317 48.3684 40.6828 48.3644 40.6869C48.5633 40.508 48.7421 40.4176 48.8727 40.1584C49.2766 39.3507 48.9169 38.5209 48.0831 38.2175C47.4823 37.9985 46.8635 38.3361 46.4496 38.756C46.3752 38.8323 46.2949 38.9107 46.2245 38.9891C46.1301 39.0955 46.5139 38.8143 46.3089 38.9087L46.5139 38.8203C46.4697 38.8343 46.4255 38.8464 46.3793 38.8544L46.753 38.8042C46.6304 38.8203 46.5139 38.8183 46.3913 38.8042L46.765 38.8544C46.6103 38.8283 46.4596 38.7881 46.3109 38.7359C46.2728 38.7218 46.2346 38.7058 46.1964 38.6917C46.0538 38.6415 46.3531 38.76 46.3431 38.754C46.2507 38.7037 46.1482 38.6656 46.0517 38.6214C45.6479 38.4325 45.236 38.2557 44.81 38.1231C44.0264 37.878 43.1986 37.7634 42.3809 37.6971C40.888 37.5746 39.3972 37.7634 37.9023 37.7634C37.394 37.7634 36.8635 37.6911 36.3612 37.7775C35.9051 37.8559 35.0954 38.1492 35.1296 38.7399L35.1276 38.7419Z" fill="#FAF5EB"/>
<path d="M111.512 5.0452C111.553 5.02913 111.593 5.01306 111.633 4.99497L111.561 5.02511C111.675 4.99899 111.737 4.90858 111.8 4.81816C111.814 4.79807 111.828 4.77597 111.844 4.75587C111.876 4.70966 111.898 4.66546 111.918 4.61121C111.954 4.51879 111.991 4.42435 112.023 4.32992C112.091 4.14105 112.153 3.95218 112.214 3.76131C112.334 3.38156 112.467 3.00784 112.609 2.63614C112.692 2.42316 112.776 2.21219 112.865 2.00323L112.814 2.12177C112.889 1.94697 112.961 1.77016 113.035 1.59535L112.985 1.71591C113.017 1.63956 113.049 1.56321 113.084 1.48887C113.13 1.41051 113.152 1.32612 113.152 1.2357C113.154 1.16739 113.14 1.10108 113.108 1.04282C113.051 0.910207 112.933 0.779607 112.782 0.751478C112.617 0.721339 112.443 0.715312 112.298 0.819792L112.2 0.896142C112.151 0.940346 112.117 0.992586 112.097 1.05487C112.057 1.15332 112.039 1.27187 112.073 1.37434C112.139 1.57928 112.324 1.73801 112.547 1.73399C112.577 1.73399 112.607 1.73399 112.638 1.73399L112.505 1.71591H112.517C112.417 1.47279 112.316 1.22566 112.218 0.98053C112.103 1.24173 111.993 1.50494 111.894 1.77217C111.808 2.00323 111.727 2.2363 111.649 2.47138C111.571 2.70646 111.502 2.93149 111.434 3.16255C111.366 3.39362 111.291 3.63673 111.243 3.87784C111.217 4.01045 111.193 4.14507 111.173 4.27969C111.167 4.31384 111.163 4.35001 111.157 4.38618C111.147 4.45851 111.141 4.50874 111.149 4.57705C111.165 4.70564 111.161 4.85835 111.267 4.94876L111.219 4.88647C111.247 4.92264 111.273 4.9568 111.303 4.99095C111.352 5.04319 111.448 5.07333 111.518 5.04721L111.512 5.0452Z" fill="#FAF5EB"/>
<path d="M110.771 7.62507V7.61904C110.775 7.64114 110.781 7.66324 110.787 7.68534C110.787 7.67128 110.775 7.73156 110.783 7.71146C110.783 7.70745 110.785 7.70343 110.787 7.69941L110.765 7.74964C110.797 7.70544 110.795 7.65119 110.799 7.59895L110.789 7.66726C110.797 7.64516 110.799 7.60899 110.801 7.58488L110.791 7.65722V7.6532C110.783 7.6753 110.775 7.6974 110.765 7.7195C110.765 7.71749 110.765 7.71548 110.767 7.71347L110.721 7.77375C110.787 7.7195 110.811 7.62306 110.815 7.54269L110.771 7.70343C110.771 7.70343 110.773 7.69941 110.775 7.69539L110.723 7.7637L110.727 7.75969C110.817 7.67329 110.857 7.52862 110.819 7.41008C110.811 7.38195 110.809 7.3498 110.805 7.32167L110.819 7.42615C110.819 7.34177 110.799 7.27747 110.759 7.20514C110.751 7.19107 110.743 7.17701 110.737 7.16094L110.777 7.25537C110.755 7.18706 110.731 7.11874 110.701 7.05244L110.743 7.15089C110.632 6.88567 110.528 6.61442 110.401 6.35523C110.347 6.24272 110.293 6.13221 110.239 6.01969C110.188 5.91521 110.134 5.81073 110.09 5.70223L110.142 5.8248C110.084 5.68817 110.04 5.54752 110.018 5.40085L110.036 5.53748C110.028 5.47318 110.022 5.40688 110.028 5.34258L110.01 5.47921C110.014 5.45711 110.018 5.43702 110.026 5.41692L109.973 5.53949C109.979 5.52542 109.987 5.51337 109.995 5.4993L109.915 5.60378C109.925 5.59173 109.935 5.58168 109.947 5.57364L109.843 5.65401C109.853 5.64598 109.863 5.63995 109.875 5.63593L109.752 5.68817C109.764 5.68415 109.774 5.68013 109.786 5.67812L109.65 5.69621C109.664 5.69621 109.678 5.69621 109.692 5.69621L109.555 5.67812C109.576 5.68214 109.594 5.68616 109.614 5.6942L109.491 5.64196C109.519 5.65401 109.543 5.67009 109.567 5.68817L109.463 5.6078C109.501 5.63794 109.533 5.6721 109.561 5.70826L109.481 5.60378C109.531 5.67009 109.565 5.74845 109.602 5.8248C109.642 5.91119 109.682 5.99759 109.718 6.086L109.666 5.96142C109.76 6.18646 109.841 6.41551 109.909 6.64858C109.943 6.76512 109.971 6.88366 109.997 7.00221C110.02 7.10267 110.034 7.20112 110.086 7.29354C110.1 7.31766 110.116 7.34177 110.134 7.36588C110.142 7.37793 110.15 7.38999 110.158 7.40003C110.218 7.48442 110.249 7.52059 110.337 7.57886C110.389 7.611 110.446 7.62909 110.506 7.6331C110.566 7.64717 110.626 7.64315 110.687 7.62507L110.795 7.57886C110.863 7.53867 110.918 7.48442 110.958 7.41611C110.996 7.36387 111.018 7.27747 111.034 7.20916C111.046 7.1529 111.06 7.07655 111.06 7.03034C111.06 6.96403 111.046 6.89974 111.032 6.83544C111.014 6.75306 110.996 6.67269 110.976 6.59232C110.934 6.42958 110.886 6.27085 110.831 6.11212C110.763 5.91521 110.685 5.72233 110.6 5.53145C110.566 5.4551 110.532 5.37875 110.494 5.3024C110.462 5.23609 110.429 5.16577 110.387 5.10549C110.345 5.04522 110.301 4.98494 110.251 4.9327C110.2 4.88046 110.138 4.83425 110.08 4.79406C110.022 4.75388 109.953 4.72776 109.887 4.70164C109.875 4.69762 109.863 4.6936 109.851 4.68958C109.843 4.68958 109.837 4.68757 109.829 4.68556C109.78 4.67753 109.726 4.66748 109.678 4.66547C109.503 4.65944 109.304 4.74182 109.19 4.87644C109.113 4.96686 109.051 5.05928 109.025 5.17782C109.009 5.25217 108.997 5.33053 108.999 5.40688C108.999 5.44706 109.005 5.48725 109.009 5.52542C109.019 5.6078 109.029 5.68817 109.047 5.77055C109.065 5.85293 109.089 5.92727 109.119 6.00362C109.194 6.1965 109.28 6.38135 109.387 6.55817C109.493 6.73498 109.59 6.89974 109.702 7.06449C109.76 7.14888 109.819 7.23528 109.877 7.31966C109.905 7.35985 109.933 7.40204 109.961 7.44223C110.01 7.51054 110.062 7.57685 110.114 7.64114L110.052 7.56077C110.06 7.57484 110.068 7.5889 110.076 7.60297C110.116 7.67329 110.164 7.7195 110.233 7.7617L110.154 7.70142C110.176 7.72151 110.2 7.73959 110.22 7.75969C110.303 7.84809 110.454 7.89029 110.57 7.85211H110.576C110.546 7.85211 110.518 7.85814 110.488 7.86216C110.492 7.86216 110.494 7.86216 110.498 7.86216L110.413 7.8501C110.468 7.86818 110.54 7.86818 110.594 7.8501L110.518 7.86015C110.518 7.86015 110.526 7.86015 110.528 7.86015L110.456 7.8501C110.518 7.86216 110.546 7.86216 110.608 7.8501L110.54 7.86015C110.608 7.86617 110.685 7.84608 110.733 7.79384L110.691 7.828C110.707 7.81795 110.723 7.80389 110.739 7.79183C110.753 7.77978 110.751 7.79183 110.727 7.79987C110.753 7.78782 110.779 7.75165 110.785 7.72352C110.793 7.68936 110.789 7.65722 110.773 7.62507H110.771Z" fill="#FAF5EB"/>
<path d="M8.99758 40.5001C9.22261 40.6005 9.42956 40.697 9.63852 40.8296C9.81936 40.9461 10.0042 41.0727 10.2031 41.1531C10.5989 41.3118 11.0349 41.4243 11.4549 41.5007C11.9451 41.5911 12.4715 41.6594 12.9718 41.6674C13.0683 41.6674 13.1587 41.6614 13.2551 41.6493C13.5163 41.6132 13.5806 41.6051 13.448 41.6232C13.6128 41.6232 13.7675 41.581 13.9101 41.4986C14.1834 41.368 14.4325 41.1812 14.5189 40.8718C14.6234 40.49 14.3944 40.1324 14.0669 39.9616C13.7755 39.8089 13.4822 39.7868 13.1627 39.8149C12.6986 39.8571 12.1521 40.0038 11.7462 40.056C11.3062 40.1103 10.8682 40.1605 10.4261 40.2047C10.2071 40.2268 10.0002 40.2891 9.7852 40.3353C9.52802 40.3916 9.29294 40.3976 9.03174 40.3835C8.97146 40.3795 8.94132 40.4759 8.99959 40.5021L8.99758 40.5001Z" fill="#FAF5EB"/>
<path d="M3.38756 74.7717C3.71708 74.846 3.97426 74.9846 4.15911 75.1856C4.34396 75.3865 4.43638 75.6336 4.43638 75.925C4.43638 76.8753 3.79142 77.3495 2.5035 77.3495H0.572632V72.3787H2.47336C3.67689 72.3787 4.27966 72.8167 4.27966 73.6907C4.27966 74.2151 3.9823 74.5768 3.38957 74.7717H3.38756ZM3.3092 73.8173C3.3092 73.6043 3.23486 73.4415 3.08618 73.329C2.9375 73.2145 2.72251 73.1582 2.44122 73.1582H1.52702V74.5105H2.36286C2.67027 74.5105 2.90535 74.4502 3.06609 74.3276C3.22683 74.205 3.3092 74.0363 3.3092 73.8193V73.8173ZM3.4599 75.8848C3.4599 75.4387 3.1123 75.2157 2.41711 75.2157H1.52702V76.5679H2.48944C3.13641 76.5679 3.4599 76.3409 3.4599 75.8828V75.8848Z" fill="#FAF5EB"/>
<path d="M7.76372 72.3787L9.55394 77.3495H8.57545L8.16154 76.1721H6.15633L5.75047 77.3495H4.77197L6.58631 72.3787H7.76372ZM7.91441 75.3684L7.16698 73.2125L6.4115 75.3684H7.91441Z" fill="#FAF5EB"/>
<path d="M11.127 75.5753V77.3495H10.1565V72.3787H11.8985C12.5133 72.3787 12.9875 72.5133 13.323 72.7845C13.6566 73.0558 13.8233 73.4235 13.8233 73.8896C13.8233 74.2392 13.7309 74.5366 13.5441 74.7797C13.3592 75.0228 13.094 75.2036 12.7484 75.3202L14.0524 77.3475H12.9473L11.8422 75.5251L11.127 75.5733V75.5753ZM11.1189 74.8118L11.8422 74.7958C12.1497 74.7797 12.3908 74.7013 12.5656 74.5607C12.7404 74.42 12.8288 74.2171 12.8288 73.9519C12.8288 73.4436 12.4691 73.1884 11.7478 73.1884H11.1189V74.8118Z" fill="#FAF5EB"/>
<path d="M19.2163 76.4512C18.708 77.1303 18.1373 77.4699 17.5064 77.4699C17.0403 77.4699 16.6646 77.3393 16.3813 77.0801C16.098 76.8209 15.9553 76.4894 15.9553 76.0855C15.9553 75.762 16.0658 75.4828 16.2889 75.2457C16.5119 75.0106 16.7871 74.8458 17.1167 74.7554C16.5963 74.4681 16.3371 74.0843 16.3371 73.6021C16.3371 73.2525 16.4797 72.9431 16.763 72.6719C17.0463 72.4006 17.4241 72.266 17.8962 72.266C18.3363 72.266 18.6919 72.3805 18.9611 72.6116C19.2304 72.8426 19.367 73.13 19.367 73.4755C19.367 73.7347 19.2766 73.9658 19.0957 74.1627C18.9149 74.3616 18.6879 74.5123 18.4126 74.6128C18.6557 74.7293 18.943 74.9624 19.2726 75.312L19.8934 74.2933H20.9201L19.7427 75.8123L20.9442 77.283L19.9657 77.4498L19.2183 76.4472L19.2163 76.4512ZM18.8345 75.973C18.3885 75.4747 17.9726 75.1573 17.5848 75.0186C17.0966 75.2617 16.8534 75.5692 16.8534 75.9409C16.8534 76.1699 16.9278 76.3568 17.0765 76.5014C17.2252 76.6481 17.4241 76.7205 17.6732 76.7205C18.0871 76.7205 18.4729 76.4713 18.8345 75.973ZM17.9364 74.3737C18.3242 74.1768 18.5171 73.9116 18.5171 73.578C18.5171 73.3932 18.4568 73.2405 18.3343 73.1239C18.2117 73.0074 18.053 72.9491 17.8561 72.9491C17.6591 72.9491 17.5024 73.0074 17.3819 73.1239C17.2633 73.2405 17.2031 73.3811 17.2031 73.5459C17.2031 73.7367 17.2633 73.8955 17.3859 74.0241C17.5085 74.1506 17.6913 74.2672 17.9344 74.3737H17.9364Z" fill="#FAF5EB"/>
<path d="M24.2274 75.5753V77.3495H23.257V72.3787H24.999C25.6138 72.3787 26.088 72.5133 26.4235 72.7845C26.759 73.0558 26.9238 73.4235 26.9238 73.8896C26.9238 74.2392 26.8314 74.5366 26.6445 74.7797C26.4597 75.0228 26.1945 75.2036 25.8489 75.3202L27.1529 77.3475H26.0478L24.9427 75.5251L24.2274 75.5733V75.5753ZM24.2194 74.8118L24.9427 74.7958C25.2501 74.7797 25.4912 74.7013 25.666 74.5607C25.8408 74.42 25.9292 74.2171 25.9292 73.9519C25.9292 73.4436 25.5696 73.1884 24.8483 73.1884H24.2194V74.8118Z" fill="#FAF5EB"/>
<path d="M31.2676 77.3495H27.88V72.3787H31.2676V73.1984H28.8344V74.4462H30.8316V75.2659H28.8344V76.5297H31.2676V77.3495Z" fill="#FAF5EB"/>
<path d="M33.7009 76.6502C33.9721 76.6502 34.1932 76.59 34.3659 76.4674C34.5387 76.3448 34.6251 76.1861 34.6251 75.9892C34.6251 75.7923 34.5408 75.6516 34.374 75.5472C34.2072 75.4427 33.9219 75.3362 33.5181 75.2257C33.3011 75.1674 33.1162 75.1071 32.9655 75.0428C32.8148 74.9786 32.6561 74.8901 32.4873 74.7756C32.3206 74.6611 32.194 74.5164 32.1056 74.3416C32.0192 74.1668 31.975 73.9619 31.975 73.7288C31.975 73.2828 32.1357 72.9271 32.4572 72.6599C32.7787 72.3927 33.2106 72.2581 33.7572 72.2581C34.382 72.2581 34.9526 72.4047 35.467 72.6961L35.2279 73.5158C34.7497 73.2285 34.2635 73.0859 33.7652 73.0859C33.4839 73.0859 33.2749 73.1381 33.1363 73.2446C32.9977 73.3511 32.9294 73.4937 32.9294 73.6746C32.9294 73.8554 33.0198 74.0041 33.2006 74.1086C33.3814 74.213 33.6667 74.3175 34.0605 74.422C34.2775 74.4803 34.4644 74.5446 34.6211 74.6129C34.7778 74.6812 34.9346 74.7736 35.0953 74.8861C35.254 75.0007 35.3746 75.1433 35.457 75.3161C35.5393 75.4889 35.5795 75.6878 35.5795 75.9169C35.5795 76.379 35.4087 76.7527 35.0672 77.038C34.7256 77.3253 34.2655 77.468 33.6868 77.468C32.9977 77.468 32.4009 77.3133 31.8966 77.0059L32.1196 76.17C32.644 76.4875 33.1725 76.6482 33.7029 76.6482L33.7009 76.6502Z" fill="#FAF5EB"/>
<path d="M40.2469 73.2285H38.5852V77.3494H37.6228V73.2285H35.9612V72.3766H40.2489V73.2285H40.2469Z" fill="#FAF5EB"/>
<path d="M42.9756 72.3787L44.7659 77.3495H43.7874L43.3735 76.1721H41.3682L40.9624 77.3495H39.9839L41.7982 72.3787H42.9756ZM43.1263 75.3684L42.3789 73.2125L41.6234 75.3684H43.1263Z" fill="#FAF5EB"/>
<path d="M49.4895 75.3764C49.4895 76.0495 49.3086 76.5659 48.949 76.9276C48.5893 77.2892 48.077 77.468 47.4139 77.468C46.7509 77.468 46.2606 77.2952 45.895 76.9477C45.5293 76.6001 45.3464 76.1058 45.3464 75.4648V72.3787H46.3169V75.3383C46.3169 76.1922 46.6926 76.6181 47.4461 76.6181C48.1995 76.6181 48.527 76.2042 48.527 75.3764V72.3787H49.4895V75.3764Z" fill="#FAF5EB"/>
<path d="M51.5809 75.5753V77.3495H50.6105V72.3787H52.3525C52.9673 72.3787 53.4415 72.5133 53.777 72.7845C54.1126 73.0558 54.2773 73.4235 54.2773 73.8896C54.2773 74.2392 54.1849 74.5366 53.998 74.7797C53.8132 75.0228 53.548 75.2036 53.2024 75.3202L54.5064 77.3475H53.4013L52.2962 75.5251L51.5809 75.5733V75.5753ZM51.5729 74.8118L52.2962 74.7958C52.6036 74.7797 52.8447 74.7013 53.0195 74.5607C53.1943 74.42 53.2828 74.2171 53.2828 73.9519C53.2828 73.4436 52.9231 73.1884 52.2018 73.1884H51.5729V74.8118Z" fill="#FAF5EB"/>
<path d="M57.6327 72.3787L59.423 77.3495H58.4445L58.0306 76.1721H56.0253L55.6195 77.3495H54.641L56.4553 72.3787H57.6327ZM57.7854 75.3684L57.038 73.2125L56.2825 75.3684H57.7854Z" fill="#FAF5EB"/>
<path d="M63.4396 75.9973V72.3787H64.3618V77.3977H63.327L60.9481 73.7389V77.3495H60.0259V72.3787H61.0847L63.4396 75.9973Z" fill="#FAF5EB"/>
<path d="M69.3907 73.2285H67.729V77.3494H66.7666V73.2285H65.105V72.3766H69.3927V73.2285H69.3907Z" fill="#FAF5EB"/>
<path d="M74.8377 74.7717C75.1672 74.846 75.4244 74.9846 75.6092 75.1856C75.7941 75.3865 75.8865 75.6336 75.8865 75.925C75.8865 76.8753 75.2415 77.3495 73.9536 77.3495H72.0208V72.3787H73.9215C75.125 72.3787 75.7278 72.8167 75.7278 73.6907C75.7278 74.2151 75.4304 74.5768 74.8377 74.7717ZM74.7573 73.8173C74.7573 73.6043 74.683 73.4415 74.5343 73.329C74.3856 73.2145 74.1706 73.1582 73.8893 73.1582H72.9751V74.5105H73.811C74.1184 74.5105 74.3535 74.4502 74.5142 74.3276C74.6749 74.205 74.7573 74.0363 74.7573 73.8193V73.8173ZM74.91 75.8848C74.91 75.4387 74.5624 75.2157 73.8672 75.2157H72.9771V76.5679H73.9396C74.5865 76.5679 74.91 76.3409 74.91 75.8828V75.8848Z" fill="#FAF5EB"/>
<path d="M80.5181 72.3787L78.7922 75.4247V77.3495H77.8298V75.4166L76.0958 72.3787H77.1466L78.3241 74.5265L79.4774 72.3787H80.5201H80.5181Z" fill="#FAF5EB"/>
<path d="M86.5294 77.3495H83.1418V72.3786H86.5294V73.1984H84.0962V74.4461H86.0934V75.2659H84.0962V76.5297H86.5294V77.3495ZM86.2923 70.5081L85.0426 71.9627H84.4217L85.2335 70.5081H86.2923Z" fill="#FAF5EB"/>
<path d="M91.8361 74.8279C91.8361 75.6075 91.597 76.2223 91.1168 76.6724C90.6366 77.1225 89.9615 77.3495 89.0915 77.3495H87.468V72.3787H89.1538C89.9916 72.3787 90.6486 72.5997 91.1228 73.0437C91.597 73.4857 91.8341 74.0825 91.8341 74.8299L91.8361 74.8279ZM90.8656 74.8761C90.8656 74.3196 90.7149 73.8996 90.4115 73.6204C90.1082 73.3391 89.6721 73.1984 89.0995 73.1984H88.4405V76.5317H89.1477C89.6822 76.5317 90.1041 76.3911 90.4075 76.1098C90.7129 75.8285 90.8656 75.4186 90.8656 74.8761Z" fill="#FAF5EB"/>
<path d="M96.1235 77.3495H92.736V72.3787H96.1235V73.1984H93.6903V74.4462H95.6875V75.2659H93.6903V76.5297H96.1235V77.3495Z" fill="#FAF5EB"/>
<path d="M100.474 75.9973V72.3787H101.396V77.3977H100.361L97.9824 73.7389V77.3495H97.0602V72.3787H98.119L100.474 75.9973Z" fill="#FAF5EB"/>
</g>
<defs>
<clipPath id="clip0_11_466">
<rect width="118.261" height="77.4679" fill="white"/>
</clipPath>
</defs>
</svg>
