<svg width="60" height="54" viewBox="0 0 60 54" fill="none" xmlns="http://www.w3.org/2000/svg">
<path d="M0.270921 27.9067L0 30.0947H0.108674C0.339799 29.4458 0.592352 28.9667 0.867864 28.6555C1.14185 28.3443 1.46787 28.1897 1.84287 28.1897H2.92656V37.1733C2.92656 37.3902 2.85462 37.5656 2.70921 37.6995C2.5638 37.8334 2.38777 37.9013 2.17808 37.9013V38.0371H4.97453V37.9013C4.76484 37.9013 4.58881 37.8334 4.4434 37.6995C4.298 37.5656 4.22759 37.3883 4.22759 37.1733V28.1897H5.31127C5.68627 28.1897 6.0123 28.3443 6.28628 28.6555C6.56026 28.9667 6.81434 29.4458 7.04547 30.0947H7.15414L6.88322 27.9067H0.270921Z" fill="white"/>
<path d="M13.6529 37.23V33.3936C13.6529 32.4486 13.4662 31.7244 13.0942 31.2245C12.7223 30.7247 12.2141 30.4739 11.5712 30.4739C11.1166 30.4739 10.7156 30.6021 10.3682 30.8586C10.0207 31.1151 9.73603 31.4641 9.51255 31.9054V27.0279L9.31816 26.8921C9.06561 27.0732 8.78551 27.2373 8.47785 27.3863C8.1702 27.5353 7.86254 27.6541 7.55182 27.7446V27.8804C7.7906 27.8804 7.97428 27.9351 8.10438 28.0426C8.23448 28.1501 8.29877 28.3048 8.29877 28.5028V37.2168C8.29877 37.4242 8.22683 37.5902 8.08142 37.7166C7.93601 37.843 7.75999 37.9052 7.55029 37.9052V38.041H10.2595V37.9052C10.0498 37.9052 9.87225 37.8373 9.72837 37.7034C9.58296 37.5676 9.51102 37.3846 9.51102 37.1489V33.933C9.51102 33.5011 9.56 33.0937 9.65796 32.7108C9.75592 32.3279 9.88756 31.9903 10.0529 31.698C10.2182 31.4056 10.411 31.1755 10.6268 31.0095C10.8427 30.8435 11.0707 30.7587 11.3095 30.7587C11.6707 30.7587 11.9493 30.9152 12.1437 31.2245C12.3381 31.5339 12.436 31.979 12.436 32.5543V37.147C12.436 37.3809 12.3641 37.5657 12.2187 37.7015C12.0733 37.8373 11.8973 37.9033 11.6876 37.9033V38.0391H14.3968V37.9033C14.1871 37.9033 14.0111 37.843 13.8657 37.7204C13.7202 37.5997 13.6483 37.4356 13.6483 37.2281L13.6529 37.23Z" fill="white"/>
<path d="M19.9701 36.2306L19.8721 36.1627C19.7773 36.4324 19.6548 36.6738 19.5033 36.8851C19.3517 37.0963 19.1895 37.2774 19.015 37.4264C18.842 37.5754 18.6599 37.6905 18.4686 37.7716C18.2772 37.8527 18.0874 37.8923 17.8992 37.8923C17.6543 37.8923 17.4201 37.8074 17.1997 37.6358C16.9793 37.4641 16.7803 37.2208 16.6043 36.9058C16.4267 36.5908 16.2767 36.2117 16.1543 35.7704C16.0318 35.329 15.9415 34.8386 15.8833 34.2973L20.0114 34.2841C20.0114 33.6994 19.9502 33.1713 19.8278 32.7035C19.7053 32.2358 19.5293 31.834 19.3028 31.5021C19.0747 31.1682 18.7992 30.9155 18.4732 30.7382C18.1487 30.5628 17.7828 30.4741 17.3788 30.4741C16.9747 30.4741 16.6288 30.5665 16.2997 30.7514C15.9706 30.9362 15.6874 31.1946 15.4486 31.5285C15.2099 31.8623 15.0247 32.2603 14.89 32.7243C14.7568 33.1883 14.6895 33.6937 14.6895 34.2445C14.6895 34.7952 14.7537 35.2932 14.8838 35.7704C15.0139 36.2476 15.2022 36.6644 15.4471 37.0209C15.692 37.3774 15.992 37.6584 16.3471 37.8659C16.7007 38.0733 17.0987 38.1771 17.5395 38.1771C18.089 38.1771 18.5757 38.013 19.0028 37.6829C19.4283 37.3547 19.7497 36.87 19.967 36.2306H19.9701ZM15.8742 32.7243C15.917 32.3225 15.9935 31.9793 16.1022 31.6907C16.2109 31.4021 16.3456 31.1758 16.5078 31.0079C16.6701 30.8419 16.8522 30.757 17.0558 30.757C17.2594 30.757 17.4507 30.8363 17.6359 30.9928C17.8196 31.1512 17.988 31.3738 18.1395 31.6605C18.291 31.9491 18.4211 32.2905 18.5298 32.6866C18.6385 33.0826 18.7181 33.524 18.7686 34.0106H15.8543C15.8252 33.5504 15.8328 33.1204 15.8757 32.7205L15.8742 32.7243Z" fill="white"/>
<path d="M25.3285 29.1994C25.5413 28.8354 25.8015 28.5525 26.1092 28.3544C26.4168 28.1564 26.7612 28.0564 27.1439 28.0564C27.7791 28.0564 28.35 28.2997 28.8566 28.7864C29.3633 29.273 29.752 30.0067 30.0276 30.9894H30.1362L29.8225 28.5034H29.6281C29.325 28.2696 28.9775 28.0885 28.5888 27.964C28.1985 27.8376 27.8082 27.7754 27.4178 27.7754C26.8178 27.7754 26.2699 27.9018 25.7709 28.1545C25.2719 28.4072 24.8449 28.76 24.4867 29.2145C24.1285 29.6691 23.853 30.216 23.6571 30.8554C23.4627 31.4948 23.3647 32.2021 23.3647 32.9773C23.3647 33.7525 23.4658 34.4862 23.6678 35.1256C23.8699 35.765 24.1576 36.312 24.5296 36.7666C24.9015 37.2211 25.35 37.5701 25.8734 37.8134C26.3969 38.0567 26.977 38.1774 27.6122 38.1774C28.0668 38.1774 28.5015 38.0605 28.9133 37.8266C29.325 37.5927 29.7291 37.2362 30.127 36.759V33.7469C30.127 33.5583 30.2036 33.4055 30.3551 33.2867C30.5066 33.1697 30.701 33.1113 30.9398 33.1113V32.9755H28.0133V33.1113C28.252 33.1113 28.4464 33.1697 28.598 33.2867C28.7495 33.4036 28.826 33.562 28.826 33.7601V37.5833C28.7036 37.6832 28.5643 37.7587 28.4082 37.8134C28.252 37.8681 28.0883 37.8945 27.9153 37.8945C27.4668 37.8945 27.0459 37.7455 26.6525 37.4494C26.2592 37.1514 25.9132 36.7496 25.6178 36.2403C25.3224 35.7311 25.0882 35.1351 24.9183 34.4504C24.7484 33.7657 24.6642 33.0358 24.6642 32.2625C24.6642 31.6231 24.7224 31.0441 24.8372 30.5273C24.952 30.0086 25.1173 29.5672 25.3301 29.2032L25.3285 29.1994Z" fill="white"/>
<path d="M32.8925 37.8847C33.2568 38.079 33.6532 38.1752 34.0787 38.1752C34.5042 38.1752 34.9007 38.079 35.265 37.8847C35.6292 37.6905 35.9446 37.4226 36.2078 37.0812C36.4711 36.7398 36.6777 36.3324 36.8247 35.859C36.9731 35.3856 37.0466 34.8745 37.0466 34.3256C37.0466 33.7767 36.9716 33.2543 36.8247 32.7846C36.6762 32.3169 36.4711 31.9114 36.2078 31.5681C35.9446 31.2267 35.6292 30.957 35.265 30.7646C34.9007 30.5703 34.5042 30.4741 34.0787 30.4741C33.6532 30.4741 33.2568 30.5703 32.8925 30.7646C32.5282 30.9589 32.2129 31.2267 31.9496 31.5681C31.6864 31.9095 31.4797 32.315 31.3328 32.7846C31.1843 33.2524 31.1108 33.7673 31.1108 34.3256C31.1108 34.8839 31.1843 35.3856 31.3328 35.859C31.4813 36.3324 31.6864 36.7398 31.9496 37.0812C32.2129 37.4245 32.5282 37.6923 32.8925 37.8847ZM32.5129 32.3395C32.5818 32.0151 32.6751 31.7341 32.7945 31.4945C32.9139 31.2569 33.0578 31.072 33.2277 30.94C33.3976 30.8099 33.5797 30.7438 33.7741 30.7438C34.042 30.7438 34.2945 30.8683 34.5333 31.1154C34.7721 31.3625 34.9818 31.7001 35.1624 32.1283C35.343 32.5564 35.4854 33.0506 35.591 33.6145C35.6966 34.1766 35.7486 34.7745 35.7486 35.4045C35.7486 35.7553 35.715 36.0835 35.6461 36.3909C35.5772 36.6965 35.4823 36.9624 35.3583 37.1887C35.2359 37.4132 35.0905 37.5905 34.9252 37.715C34.7583 37.8413 34.5823 37.9036 34.394 37.9036C34.1338 37.9036 33.8843 37.7791 33.6456 37.532C33.4068 37.2849 33.1956 36.9511 33.0119 36.5324C32.8282 36.1137 32.6813 35.6346 32.5726 35.0933C32.4639 34.5538 32.4103 33.9899 32.4103 33.4052C32.4103 33.0185 32.444 32.662 32.5129 32.3376V32.3395Z" fill="white"/>
<path d="M40.0608 37.9058C39.8511 37.9058 39.6751 37.8454 39.5297 37.7228C39.3843 37.6002 39.3124 37.438 39.3124 37.2305V27.0303L39.118 26.8945C38.8654 27.0756 38.5853 27.2397 38.2777 27.3887C37.97 27.5377 37.6623 27.6565 37.3516 27.7471V27.8829C37.5828 27.8829 37.7649 27.9376 37.8981 28.0451C38.0312 28.1526 38.0986 28.3072 38.0986 28.5053V37.2324C38.0986 37.4399 38.0266 37.604 37.8812 37.7247C37.7373 37.8454 37.5598 37.9077 37.3501 37.9077V38.0435H40.0593V37.9077L40.0608 37.9058Z" fill="white"/>
<path d="M46.0527 36.8929V27.0303L45.8476 26.8945C45.595 27.0756 45.3165 27.2397 45.0134 27.3887C44.7103 27.5377 44.4027 27.6565 44.092 27.7471V27.8829C44.3231 27.8829 44.5052 27.9376 44.6384 28.0451C44.7716 28.1526 44.8389 28.3072 44.8389 28.5053V31.8287C44.6369 31.4062 44.3813 31.0742 44.0751 30.8347C43.7675 30.597 43.4093 30.4763 42.9976 30.4763C42.6226 30.4763 42.2767 30.5687 41.9629 30.7536C41.6491 30.9384 41.3797 31.1968 41.1562 31.5306C40.9328 31.8645 40.7583 32.2606 40.6358 32.7189C40.5134 33.1772 40.4521 33.6827 40.4521 34.2316C40.4521 34.8087 40.5164 35.3369 40.6465 35.8197C40.7766 36.3026 40.9573 36.7175 41.1884 37.0702C41.4195 37.421 41.6965 37.6945 42.018 37.8869C42.3394 38.0812 42.6915 38.1774 43.0741 38.1774C43.4568 38.1774 43.7935 38.0736 44.0813 37.8662C44.3705 37.6587 44.6231 37.3626 44.8404 36.974V38.0416L45.0348 38.1774C45.2445 38.0246 45.4879 37.9058 45.7665 37.819C46.0451 37.7341 46.3894 37.6775 46.8012 37.6493V37.5153C46.5624 37.5153 46.3787 37.4606 46.2486 37.3531C46.1185 37.2456 46.0542 37.0928 46.0542 36.8929H46.0527ZM44.7517 35.9744C44.6935 36.3346 44.6063 36.6515 44.4915 36.9269C44.3767 37.2022 44.2389 37.4191 44.0797 37.5814C43.9205 37.7436 43.7369 37.8247 43.5272 37.8247C43.2823 37.8247 43.0527 37.7096 42.8384 37.4795C42.6256 37.2494 42.4374 36.9363 42.2751 36.5402C42.1129 36.1441 41.9843 35.6801 41.8909 35.1482C41.796 34.6164 41.7501 34.0449 41.7501 33.4319C41.7501 33.0358 41.7807 32.6736 41.842 32.3436C41.9032 32.0154 41.9874 31.7343 42.096 31.4986C42.2047 31.2647 42.3363 31.0817 42.4925 30.9516C42.6471 30.8215 42.8185 30.7554 43.0068 30.7554C43.267 30.7554 43.5088 30.8497 43.7323 31.0384C43.9557 31.227 44.1501 31.4986 44.3124 31.8494C44.4746 32.2002 44.6032 32.6284 44.6966 33.132C44.7899 33.6374 44.8374 34.2033 44.8374 34.8351C44.8374 35.2312 44.8083 35.6103 44.7501 35.9706L44.7517 35.9744Z" fill="white"/>
<path d="M52.3273 32.7035C52.2048 32.2358 52.0288 31.834 51.8023 31.5021C51.5742 31.1682 51.2987 30.9155 50.9727 30.7382C50.6482 30.5628 50.2824 30.4741 49.8783 30.4741C49.4742 30.4741 49.1283 30.5665 48.7992 30.7514C48.4701 30.9362 48.1869 31.1946 47.9482 31.5285C47.7094 31.8623 47.5242 32.2603 47.3895 32.7243C47.2563 33.1883 47.189 33.6937 47.189 34.2445C47.189 34.7952 47.2533 35.2932 47.3834 35.7704C47.5135 36.2476 47.7017 36.6644 47.9466 37.0209C48.1915 37.3774 48.4915 37.6584 48.8466 37.8659C49.2002 38.0733 49.5982 38.1771 50.039 38.1771C50.5885 38.1771 51.0752 38.013 51.5023 37.6829C51.9278 37.3547 52.2492 36.87 52.4666 36.2306L52.3686 36.1627C52.2737 36.4324 52.1513 36.6738 51.9997 36.8851C51.8482 37.0963 51.6859 37.2774 51.5115 37.4264C51.3385 37.5754 51.1563 37.6905 50.965 37.7716C50.7737 37.8527 50.5839 37.8923 50.3956 37.8923C50.1507 37.8923 49.9165 37.8074 49.6961 37.6358C49.4757 37.4641 49.2767 37.2208 49.1007 36.9058C48.9232 36.5908 48.7732 36.2117 48.6507 35.7704C48.5283 35.329 48.438 34.8386 48.3798 34.2973L52.5079 34.2841C52.5079 33.6994 52.4467 33.1713 52.3242 32.7035H52.3273ZM48.3507 34.0144C48.3216 33.5542 48.3293 33.1241 48.3721 32.7243C48.415 32.3225 48.4915 31.9793 48.6002 31.6907C48.7089 31.4021 48.8436 31.1758 49.0058 31.0079C49.1681 30.8419 49.3502 30.757 49.5538 30.757C49.7574 30.757 49.9487 30.8363 50.1339 30.9928C50.3176 31.1512 50.4859 31.3738 50.6375 31.6605C50.789 31.9491 50.9191 32.2905 51.0278 32.6866C51.1364 33.0826 51.216 33.524 51.2666 34.0106H48.3522L48.3507 34.0144Z" fill="white"/>
<path d="M59.3375 37.7225C59.1921 37.6017 59.1202 37.4377 59.1202 37.2302V33.3938C59.1202 32.4488 58.9334 31.7246 58.5615 31.2247C58.1896 30.7249 57.6814 30.4741 57.0385 30.4741C56.5839 30.4741 56.1829 30.6023 55.8355 30.8588C55.488 31.1153 55.2033 31.4643 54.9798 31.9056V30.608L54.7854 30.4722C54.5329 30.6532 54.2528 30.8173 53.9451 30.9663C53.6375 31.1153 53.3298 31.2342 53.0191 31.3247V31.4605C53.2579 31.4605 53.4416 31.5152 53.5717 31.6227C53.7018 31.7302 53.7661 31.8849 53.7661 32.0829V37.217C53.7661 37.4244 53.6941 37.5904 53.5487 37.7168C53.4033 37.8432 53.2273 37.9054 53.0176 37.9054V38.0412H55.7268V37.9054C55.5171 37.9054 55.3395 37.8375 55.1957 37.7036C55.0502 37.5678 54.9783 37.3848 54.9783 37.1491V33.9332C54.9783 33.5013 55.0273 33.0939 55.1252 32.711C55.2232 32.3281 55.3548 31.9905 55.5202 31.6982C55.687 31.4058 55.8783 31.1757 56.0941 31.0097C56.31 30.8437 56.538 30.7589 56.7768 30.7589C57.138 30.7589 57.4166 30.9154 57.611 31.2247C57.8054 31.5359 57.9033 31.9792 57.9033 32.5545V37.1472C57.9033 37.3811 57.8314 37.5659 57.686 37.7017C57.5406 37.8375 57.3646 37.9035 57.1549 37.9035V38.0393H59.8641V37.9035C59.6544 37.9035 59.4783 37.8432 59.3329 37.7206L59.3375 37.7225Z" fill="white"/>
<path d="M24.4459 52.3683C24.1719 52.6871 23.8566 52.8474 23.503 52.8474H21.1306V43.8638C21.1306 43.6299 21.1948 43.4488 21.325 43.3225C21.4551 43.1961 21.6387 43.1338 21.8775 43.1338V42.998H19.0826V43.1338C19.3137 43.1338 19.4959 43.1923 19.629 43.3093C19.7622 43.4262 19.8295 43.5922 19.8295 43.8091V52.3193C19.8295 52.5268 19.7668 52.6909 19.6397 52.8135C19.5127 52.9342 19.3275 52.9964 19.0811 52.9964V53.1322H25.0306L25.3122 50.9443H25.2036C24.9724 51.5743 24.7199 52.0496 24.4444 52.3702L24.4459 52.3683Z" fill="white"/>
<path d="M30.7852 47.7948C30.6628 47.3271 30.4867 46.9253 30.2602 46.5934C30.0321 46.2595 29.7566 46.0049 29.4306 45.8295C29.1061 45.6541 28.7403 45.5654 28.3362 45.5654C27.9321 45.5654 27.5862 45.6579 27.2587 45.8427C26.9296 46.0275 26.6464 46.2859 26.4076 46.6198C26.1688 46.9536 25.9836 47.3516 25.8489 47.8156C25.7158 48.2796 25.6484 48.7869 25.6484 49.3358C25.6484 49.8847 25.7127 50.3845 25.8428 50.8617C25.9729 51.3389 26.1612 51.7557 26.4061 52.1122C26.6525 52.4687 26.951 52.7497 27.3061 52.9572C27.6597 53.1647 28.0576 53.2684 28.4985 53.2684C29.048 53.2684 29.5347 53.1043 29.9617 52.7761C30.3888 52.4479 30.7102 51.9632 30.926 51.3238L30.8281 51.2559C30.7332 51.5256 30.6107 51.767 30.4592 51.9783C30.3077 52.1895 30.1454 52.3706 29.9709 52.5196C29.798 52.6686 29.6143 52.7837 29.4245 52.8648C29.2332 52.9459 29.0434 52.9855 28.8551 52.9855C28.6102 52.9855 28.376 52.9006 28.1556 52.729C27.9352 52.5573 27.7362 52.314 27.5602 51.999C27.3826 51.684 27.2326 51.3049 27.1102 50.8636C26.9877 50.4222 26.8974 49.9318 26.8393 49.3905L30.9674 49.3773C30.9674 48.7926 30.9061 48.2645 30.7837 47.7967L30.7852 47.7948ZM26.8086 49.1057C26.7796 48.6455 26.7872 48.2173 26.8301 47.8156C26.8729 47.4157 26.9495 47.0706 27.0581 46.782C27.1668 46.4934 27.3015 46.2671 27.4638 46.0992C27.626 45.9332 27.8097 45.8483 28.0117 45.8483C28.2138 45.8483 28.4066 45.9276 28.5918 46.0841C28.7755 46.2426 28.9439 46.4651 29.0954 46.7537C29.2469 47.0423 29.377 47.3837 29.4857 47.7797C29.5944 48.1758 29.674 48.6172 29.7245 49.1038H26.8102L26.8086 49.1057Z" fill="white"/>
<path d="M36.8415 52.8482C36.7405 52.8482 36.6578 52.7916 36.592 52.6785C36.5262 52.5653 36.4941 52.3786 36.4941 52.1183V48.0782C36.4941 47.701 36.4405 47.3558 36.3318 47.0446C36.2231 46.7334 36.0685 46.4693 35.8665 46.2467C35.6645 46.0261 35.4226 45.8582 35.141 45.7394C34.8594 45.6206 34.5456 45.564 34.1981 45.564C33.8736 45.564 33.566 45.6149 33.2767 45.7186C32.9874 45.8224 32.7348 45.9619 32.519 46.1374C32.3017 46.3128 32.1318 46.5202 32.0093 46.7598C31.8869 46.9974 31.8257 47.2521 31.8257 47.5237C31.8257 47.7575 31.8731 47.9386 31.9665 48.065C32.0598 48.1913 32.1899 48.2536 32.3568 48.2536C32.5741 48.2536 32.7348 48.1517 32.8389 47.9499C32.943 47.7462 32.9706 47.5105 32.9201 47.2407C32.8833 47.0427 32.8879 46.8597 32.9308 46.6938C32.9736 46.5278 33.0502 46.3807 33.1588 46.2543C33.2675 46.1279 33.4007 46.0298 33.5599 45.9563C33.719 45.8846 33.8966 45.8488 34.091 45.8488C34.5088 45.8488 34.8165 46.0336 35.0124 46.4033C35.2068 46.773 35.2971 47.3539 35.2833 48.1461C35.1456 48.3894 34.9588 48.578 34.7201 48.7138C34.4813 48.8496 34.2257 48.9665 33.9502 49.0646C33.6762 49.1646 33.3991 49.2608 33.1206 49.3551C32.842 49.4494 32.591 49.5777 32.3675 49.7399C32.144 49.9021 31.9588 50.1133 31.8149 50.3755C31.6711 50.6377 31.5991 50.9828 31.5991 51.4147C31.5991 51.7127 31.6466 51.9749 31.7399 52.205C31.8333 52.4351 31.9634 52.6275 32.1302 52.786C32.2971 52.9444 32.493 53.0632 32.7211 53.1443C32.9491 53.2254 33.1956 53.265 33.4634 53.265C33.8537 53.265 34.2119 53.182 34.5364 53.0142C34.8609 52.8482 35.118 52.6105 35.3063 52.305C35.3645 52.5936 35.4838 52.8256 35.6645 53.001C35.8451 53.1764 36.0609 53.265 36.315 53.265C36.4818 53.265 36.6364 53.2292 36.7803 53.1575C36.9242 53.0859 37.0803 52.9633 37.2456 52.7935V52.6577C37.1737 52.7124 37.1033 52.7577 37.0344 52.7935C36.9655 52.8293 36.9027 52.8482 36.8446 52.8482H36.8415ZM35.2818 51.079C35.2665 51.3582 35.2221 51.6147 35.1471 51.8486C35.0706 52.0824 34.9741 52.2824 34.8548 52.4502C34.7354 52.6162 34.5961 52.7482 34.4369 52.8425C34.2777 52.9369 34.1048 52.984 33.9165 52.984C33.592 52.984 33.341 52.8425 33.1634 52.5577C32.9859 52.2748 32.8971 51.8844 32.8971 51.3883C32.8971 51.0375 32.9415 50.7452 33.0318 50.5094C33.1221 50.2755 33.2369 50.0794 33.3792 49.9209C33.5201 49.7644 33.6792 49.6305 33.8568 49.523C34.0343 49.4154 34.2104 49.3098 34.3879 49.2061C34.5655 49.1023 34.7338 48.993 34.8915 48.876C35.0507 48.7591 35.1808 48.6138 35.2818 48.4441V51.079Z" fill="white"/>
<path d="M42.4328 42.9432C41.8588 42.9432 41.4364 42.417 40.6022 42.417C39.6057 42.417 38.7379 43.1601 38.7379 44.2541V45.9837H37.6113V46.1327H38.7379V51.8741C38.7379 52.5493 38.4241 52.9812 37.9573 52.9812H37.9358V53.1302H40.5685V52.9812H40.5471C40.0695 52.9812 39.7664 52.5493 39.7664 51.8741V46.1327H41.2726V45.9837H39.7664V44.2541C39.7664 43.228 40.146 42.566 40.6986 42.566C41.5006 42.566 41.4027 43.9712 42.194 43.9712C42.693 43.9712 43.0175 43.4034 43.0175 42.566H42.8981C42.8981 42.7961 42.7466 42.9432 42.4328 42.9432Z" fill="white"/>
<path d="M22.1864 14.8114C22.4726 15.6979 22.8798 16.5108 23.3941 17.2238C23.8946 17.9179 24.4915 18.5007 25.1558 18.9364C25.2354 18.9892 25.3181 19.0344 25.3992 19.0797C25.439 19.1023 25.4788 19.1231 25.5186 19.1438C25.5216 19.1438 25.5247 19.1476 25.5277 19.1495C25.5507 19.2231 25.5905 19.2872 25.6548 19.3211C26.466 19.7512 27.3094 20.0699 28.1788 20.2567C29.0482 20.4434 29.9329 20.5151 30.813 20.4585C31.6931 20.4019 32.5702 20.2246 33.4166 19.9228C33.8544 19.7663 34.2814 19.5739 34.6993 19.3551C35.1217 19.1325 35.5197 18.8609 35.8702 18.4912C36.21 18.1329 36.4916 17.6972 36.7488 17.2483C36.9983 16.8145 37.2187 16.3543 37.41 15.8789C37.8018 14.9 38.0773 13.8532 38.209 12.7725C38.3544 11.5691 38.3437 10.3545 38.3023 9.14169C38.2626 7.99115 38.235 6.82364 38.0207 5.69762C37.8263 4.67533 37.4483 3.73227 36.8942 2.93255C36.3523 2.14792 35.6605 1.56133 34.8891 1.17279C34.4635 0.959654 34.0197 0.808764 33.5742 0.680507C33.1089 0.546592 32.6421 0.425879 32.1707 0.322142C31.2033 0.109009 30.2191 -0.0343366 29.2365 0.00715826C28.3701 0.0448809 27.4977 0.220291 26.6818 0.589973C25.8599 0.963427 25.1068 1.52172 24.4793 2.27806C23.8701 3.01176 23.3849 3.89259 22.9701 4.80736C22.5231 5.79192 22.1145 6.83307 21.8895 7.93079C21.6491 9.09831 21.6354 10.3186 21.6859 11.5163C21.7333 12.6348 21.8527 13.7684 22.1895 14.8152L22.1864 14.8114ZM22.2905 9.69621C22.2966 9.55853 22.3058 9.41895 22.3165 9.28126C22.3226 9.21148 22.3272 9.14358 22.3349 9.07568C22.3379 9.04927 22.3395 9.02475 22.3425 8.99834C22.3425 9.00589 22.3517 8.91347 22.3532 8.90215C22.3869 8.61923 22.4328 8.34008 22.4925 8.06282C22.5492 7.79499 22.618 7.53093 22.6961 7.26876C22.7328 7.14428 22.7726 7.01979 22.814 6.89531C22.8216 6.87267 22.8293 6.85193 22.8354 6.82929C22.84 6.81798 22.8537 6.77648 22.8553 6.77082C22.8798 6.69915 22.9058 6.62748 22.9318 6.55769C23.2747 5.62406 23.6788 4.70928 24.167 3.8775C24.1961 3.82846 24.2252 3.77942 24.2543 3.73227C24.2696 3.70775 24.2834 3.68323 24.2987 3.66059C24.3017 3.65682 24.3017 3.65494 24.3048 3.65116C24.3063 3.64739 24.3078 3.6455 24.3109 3.64173C24.3767 3.53988 24.4425 3.43803 24.5114 3.33807C24.643 3.14757 24.7823 2.96461 24.9277 2.7892C25.0732 2.61568 25.2247 2.44215 25.3885 2.29503C25.3961 2.28938 25.4022 2.28183 25.4053 2.27995C25.4252 2.26108 25.4451 2.24411 25.465 2.22525C25.5048 2.18941 25.5446 2.15358 25.5859 2.11962C25.6732 2.04418 25.7635 1.97439 25.8538 1.90649C26.0283 1.77635 26.2104 1.65564 26.3956 1.54813C26.44 1.52172 26.4844 1.4972 26.5303 1.47268C26.5533 1.46137 26.5747 1.44816 26.5977 1.43685C26.6007 1.43496 26.6022 1.43496 26.6053 1.43307C26.6084 1.43307 26.6099 1.43119 26.616 1.42741C26.7155 1.37838 26.815 1.32934 26.9145 1.28595C27.3033 1.1162 27.7043 0.987946 28.1099 0.899298C28.2079 0.878551 28.3058 0.859689 28.4038 0.842714C28.4069 0.842714 28.4069 0.842714 28.4099 0.842714C28.413 0.842714 28.416 0.842714 28.4206 0.842714C28.4451 0.838942 28.4696 0.83517 28.4941 0.831397C28.5523 0.823853 28.6089 0.816308 28.6671 0.808764C28.8844 0.782358 29.1018 0.767269 29.3206 0.759724C29.7844 0.744635 30.2482 0.771041 30.7089 0.823853C30.8222 0.837056 30.9354 0.852145 31.0472 0.86912C31.1038 0.876665 31.1604 0.886095 31.2171 0.895526C31.2247 0.895526 31.2278 0.895526 31.2324 0.897412C31.237 0.897412 31.24 0.897412 31.2477 0.899298C31.286 0.906843 31.3227 0.912501 31.361 0.918159C31.5951 0.959654 31.8293 1.00869 32.0635 1.05962C32.5227 1.16336 32.9819 1.2803 33.4365 1.41421C33.8758 1.54247 34.3059 1.69525 34.7253 1.89895C34.7329 1.90272 34.736 1.90461 34.7406 1.90649C34.7436 1.90838 34.7467 1.91026 34.7513 1.91215C34.7758 1.92535 34.8003 1.93856 34.8248 1.95176C34.8737 1.97817 34.9227 2.00646 34.9717 2.03663C35.062 2.09133 35.1508 2.14792 35.238 2.21016C35.4003 2.32521 35.5579 2.45158 35.7095 2.58927C35.7278 2.60625 35.7462 2.62322 35.763 2.63831C35.763 2.63831 35.763 2.63831 35.7646 2.6402C35.7661 2.64208 35.7676 2.64397 35.7707 2.64774C35.8059 2.68358 35.8411 2.71753 35.8748 2.75336C35.9498 2.8307 36.0217 2.90991 36.0937 2.9929C36.2299 3.15134 36.3585 3.3192 36.4794 3.4965C36.5085 3.538 36.5375 3.58138 36.5651 3.62476C36.5666 3.62664 36.5697 3.6323 36.5727 3.63607C36.5865 3.65682 36.6003 3.68134 36.6141 3.70209C36.6676 3.79074 36.7197 3.88127 36.7687 3.97369C36.8712 4.16608 36.9661 4.36601 37.0503 4.57348C37.0901 4.67345 37.1284 4.77341 37.1651 4.87526C37.1651 4.87715 37.1651 4.87715 37.1651 4.87903C37.1651 4.88092 37.1651 4.88281 37.1682 4.88658C37.1773 4.91487 37.1865 4.94128 37.1942 4.96957C37.2171 5.04124 37.2386 5.11291 37.2585 5.18647C37.3319 5.44487 37.3916 5.70893 37.4391 5.97676C37.462 6.10502 37.4835 6.23328 37.5018 6.36342C37.511 6.42755 37.5202 6.49356 37.5278 6.55769C37.5324 6.58976 37.5355 6.62371 37.5401 6.65577C37.5401 6.66331 37.5462 6.70669 37.5493 6.73121C37.5784 7.00093 37.5998 7.27065 37.6166 7.54225C37.6518 8.10243 37.6702 8.6645 37.6886 9.22657C37.7085 9.81127 37.7207 10.396 37.7115 10.9788C37.7069 11.2711 37.6962 11.5616 37.6779 11.8521C37.6687 11.9916 37.658 12.1312 37.6457 12.2689C37.6396 12.3311 37.6335 12.3934 37.6273 12.4556C37.6258 12.4726 37.6212 12.5103 37.6212 12.516C37.6151 12.5631 37.6105 12.6084 37.6044 12.6537C37.5401 13.1591 37.4437 13.659 37.3166 14.1475C37.2523 14.3965 37.1804 14.6416 37.1008 14.8831C37.0916 14.9114 37.0809 14.9415 37.0717 14.9698C37.0702 14.9755 37.0687 14.9793 37.0671 14.983C37.0671 14.9868 37.0656 14.9887 37.0625 14.9944C37.0426 15.0509 37.0227 15.1094 37.0013 15.166C36.9554 15.2905 36.9095 15.4112 36.8605 15.5338C36.6722 15.9997 36.4534 16.4486 36.21 16.8748C36.1809 16.9258 36.1503 16.9767 36.1212 17.0276C36.1059 17.0521 36.0906 17.0785 36.0753 17.103C36.0722 17.1068 36.063 17.1219 36.0554 17.1351C35.9896 17.2388 35.9238 17.3388 35.8533 17.4369C35.7156 17.6312 35.5671 17.816 35.4064 17.982C35.3865 18.0027 35.3666 18.0216 35.3482 18.0405C35.3436 18.0442 35.3421 18.0461 35.3391 18.0499C35.336 18.0518 35.3345 18.0537 35.3299 18.0574C35.2885 18.0952 35.2457 18.1329 35.2028 18.1687C35.1095 18.246 35.013 18.3177 34.9151 18.3856C34.8232 18.4479 34.7314 18.5063 34.6365 18.561C34.589 18.5893 34.5416 18.6157 34.4942 18.6421C34.4697 18.6553 34.4467 18.6685 34.4222 18.6817C34.4115 18.6874 34.4008 18.6931 34.3901 18.6987C34.3855 18.7006 34.3855 18.7006 34.3763 18.7063C33.6003 19.0967 32.7921 19.3834 31.964 19.5494C31.8645 19.5701 31.765 19.589 31.6656 19.6041C31.6564 19.6041 31.6472 19.6059 31.6441 19.6078C31.6196 19.6116 31.5936 19.6154 31.5691 19.6191C31.511 19.6286 31.4513 19.6361 31.3931 19.6437C31.1834 19.6701 30.9722 19.6908 30.761 19.704C30.3385 19.7285 29.9145 19.7248 29.4921 19.6927C29.2808 19.6757 29.0696 19.6531 28.8599 19.621C28.8155 19.6135 28.7696 19.6078 28.7252 19.6003C28.7114 19.5984 28.6961 19.5946 28.6915 19.5946C28.6671 19.5909 28.641 19.5852 28.6166 19.5814C28.5079 19.5607 28.3992 19.5399 28.2905 19.5154C27.8742 19.423 27.4625 19.3023 27.0584 19.1533C26.864 19.0816 26.6711 19.0024 26.4798 18.9175C26.4079 18.8854 26.3375 18.8515 26.2655 18.8175C26.2272 18.7949 26.189 18.7742 26.1507 18.7515C26.1124 18.7289 26.0742 18.7044 26.0359 18.6799C26.0175 18.6685 25.9762 18.6252 26.0206 18.6799C25.9854 18.6327 25.9487 18.6176 25.9043 18.5931C25.742 18.5007 25.5844 18.3932 25.4298 18.2838C25.2737 18.1744 25.1237 18.0537 24.9737 17.9292C24.9017 17.8707 24.8313 17.8085 24.7624 17.7462C24.7272 17.7142 24.6936 17.6821 24.6584 17.65C24.6584 17.65 24.6553 17.6463 24.6538 17.6444C24.6308 17.6217 24.6094 17.601 24.5864 17.5784C24.3063 17.2992 24.0461 16.9918 23.8089 16.6598C23.7522 16.5806 23.6956 16.4995 23.642 16.4165C23.616 16.3769 23.5884 16.3373 23.564 16.2958C23.5609 16.292 23.5578 16.2864 23.5578 16.2845C23.541 16.2562 23.5226 16.2279 23.5058 16.1996C23.4002 16.0204 23.2992 15.8375 23.2058 15.6488C23.1124 15.4602 23.0252 15.266 22.9456 15.0679C22.9073 14.9736 22.8706 14.8774 22.8354 14.7793C22.8262 14.7548 22.8185 14.7303 22.8094 14.7058C22.8094 14.7058 22.8094 14.702 22.8078 14.6982C22.7895 14.6398 22.7696 14.5832 22.7527 14.5247C22.6058 14.0513 22.5017 13.559 22.4298 13.0592C22.4114 12.929 22.3946 12.7989 22.3793 12.6688C22.3777 12.6499 22.3747 12.6254 22.3747 12.6197C22.3716 12.5858 22.3685 12.5518 22.3639 12.5179C22.3563 12.4386 22.3502 12.3594 22.3425 12.2802C22.3196 11.9973 22.3043 11.7125 22.2935 11.4277C22.2706 10.8505 22.2645 10.2734 22.2905 9.69621Z" fill="white"/>
<path d="M24.5902 7.14448C24.5902 7.14448 24.5902 7.14448 24.5917 7.14637C24.5121 7.04829 24.5642 7.11996 24.5902 7.14448Z" fill="white"/>
<path d="M29.1813 11.6559C29.1859 11.671 29.192 11.6861 29.1966 11.7012C29.1966 11.7012 29.1966 11.7031 29.1966 11.7049C29.1966 11.7012 29.1537 11.5786 29.1798 11.6559H29.1813Z" fill="white"/>
<path d="M23.565 7.5325C23.5971 7.6419 23.6201 7.75507 23.6354 7.87012C23.6798 8.39069 23.6354 8.92824 23.7701 9.43184C23.9216 9.99768 24.2599 10.3975 24.6884 10.6503C24.8905 10.7691 25.1002 10.8653 25.3053 10.969C25.4492 11.0445 25.5915 11.1275 25.7216 11.235C25.7323 11.2444 25.7446 11.2538 25.7553 11.2633C25.789 11.2991 25.8226 11.3349 25.8548 11.3727C25.9252 11.4594 25.9895 11.5556 26.0522 11.6537C26.1747 11.8423 26.291 12.0404 26.4425 12.1969C26.6446 12.4063 26.8665 12.5421 27.1175 12.6458C27.315 12.7269 27.5186 12.7873 27.7145 12.8778C27.7451 12.8948 27.7772 12.9117 27.8079 12.9325C27.8492 12.9608 27.8874 12.9985 27.9272 13.0268C27.9318 13.0325 27.938 13.0381 27.9426 13.0419C27.9594 13.0608 27.9762 13.0796 27.9915 13.0985C28.0283 13.1437 28.0619 13.1928 28.0956 13.2399C28.0956 13.2418 28.0987 13.2437 28.0987 13.2456C28.114 13.272 28.1293 13.3003 28.1431 13.3267C28.1721 13.3833 28.1997 13.4399 28.2257 13.4983C28.2716 13.6002 28.3099 13.7077 28.3482 13.8133C28.4354 14.0793 28.5104 14.3509 28.5839 14.6244C28.5824 14.6451 28.5793 14.6677 28.5778 14.6885C28.5778 14.696 28.5686 14.7526 28.5778 14.7036C28.5854 14.6451 28.5732 14.7413 28.5716 14.7526C28.5502 14.9356 28.5242 15.1185 28.4936 15.2996C28.4859 15.3449 28.4783 15.3901 28.4706 15.4354C28.4645 15.4731 28.4599 15.5071 28.4568 15.5448C28.4568 15.5448 28.4568 15.5542 28.4538 15.5674C28.4538 15.5674 28.4538 15.5674 28.4538 15.5693C28.4538 15.5693 28.4538 15.5712 28.4538 15.5731C28.4477 15.6183 28.4415 15.6655 28.4354 15.7108C28.4125 15.8862 28.4216 15.8183 28.4278 15.7806C28.4247 15.8032 28.4216 15.8258 28.4186 15.8485C28.4109 15.905 28.4033 15.9635 28.3956 16.0201C28.3956 16.0201 28.3956 16.0239 28.3941 16.0314C28.388 16.0654 28.3788 16.0993 28.3727 16.1333C28.3589 16.2144 28.3528 16.2992 28.3451 16.3822C28.3436 16.4011 28.339 16.4181 28.3375 16.4369C28.3283 16.5256 28.316 16.6293 28.3221 16.7198C28.3191 16.801 28.316 16.8839 28.3099 16.965C28.3053 17.0367 28.3405 17.1178 28.3895 17.1744C28.4033 17.1989 28.4155 17.2234 28.4293 17.2461C28.4676 17.3121 28.538 17.3291 28.5885 17.2706C28.6068 17.2498 28.6252 17.2291 28.6436 17.2084C28.6987 17.1706 28.7461 17.1065 28.7568 17.0386C28.7676 16.9669 28.7859 16.8971 28.8028 16.8274C28.8104 16.7934 28.8196 16.7576 28.8288 16.7236C28.8334 16.7048 28.8426 16.684 28.8441 16.6633C28.8441 16.6576 28.8441 16.6538 28.8441 16.6519C28.8472 16.6463 28.8487 16.6387 28.8517 16.6293C28.8655 16.5878 28.8762 16.5426 28.89 16.5011C28.8961 16.4822 28.9023 16.4614 28.9084 16.4426C28.9084 16.4369 28.9252 16.3879 28.913 16.4275C28.8961 16.4822 28.9451 16.3219 28.9528 16.2955C28.9619 16.2559 28.9727 16.2163 28.9834 16.1766C29.0232 16.0276 29.066 15.8805 29.1135 15.7353C29.1181 15.7202 29.1227 15.707 29.1273 15.6919C29.1288 15.6862 29.1334 15.6712 29.138 15.6617C29.138 15.6598 29.1395 15.6561 29.1395 15.6561C29.1456 15.6372 29.1533 15.6183 29.1594 15.5995C29.1854 15.5278 29.2114 15.4561 29.239 15.3864C29.2773 15.2883 29.3171 15.1921 29.3584 15.0959C29.3936 15.0506 29.4196 14.9997 29.4395 14.9431C29.7915 14.8941 30.1436 14.845 30.4956 14.7979C30.8783 14.7451 31.2625 14.7036 31.6421 14.6244C31.9926 14.5508 32.3385 14.415 32.6431 14.183C32.9278 13.9642 33.1742 13.6794 33.4222 13.4059C33.488 13.3342 33.5538 13.2626 33.6212 13.1947C33.6334 13.1834 33.6457 13.1701 33.6564 13.1588C33.6916 13.1268 33.7268 13.0966 33.762 13.0664C33.9013 12.9514 34.0497 12.8571 34.2043 12.7741C34.5931 12.5836 35.0033 12.4647 35.4135 12.361C35.8727 12.2441 36.3365 12.1535 36.7987 12.063C36.8646 12.0498 36.9442 11.9819 36.9901 11.9253C37.0574 11.8423 37.0972 11.7348 37.1095 11.6179C37.1324 11.4123 37.0544 11.1897 36.9028 11.086C36.2202 10.622 35.5161 10.1505 34.7508 9.92977C34.5395 9.86942 34.3222 9.82792 34.1064 9.80718C33.8829 9.78643 33.664 9.81095 33.4421 9.84867C33.0625 9.91469 32.6951 10.0561 32.34 10.2297C31.6436 10.5692 30.9824 10.9992 30.4298 11.6311C30.1344 11.9687 29.8864 12.3667 29.6584 12.7759C29.5711 12.9325 29.4885 13.0909 29.4058 13.2513C29.415 12.9702 29.4104 12.6892 29.3722 12.4082C29.3492 12.2384 29.3109 12.0705 29.2635 11.9102C29.2528 11.8763 29.2421 11.8404 29.2313 11.8065C29.2206 11.7725 29.2084 11.7367 29.1961 11.7027C29.1579 11.5915 29.1165 11.4915 29.066 11.3878C28.9237 11.0935 28.7722 10.8049 28.6176 10.5201C28.3926 10.1071 28.1568 9.67515 27.8461 9.35262C27.5783 9.07347 27.292 8.87354 26.9691 8.70756C26.7487 8.59439 26.5237 8.50009 26.3033 8.39069C25.9696 8.2134 25.6451 8.00781 25.3344 7.77393C25.1369 7.62492 24.9441 7.46649 24.7573 7.29862C24.7022 7.24958 24.6471 7.19866 24.592 7.14773C24.592 7.14773 24.592 7.14773 24.5935 7.14962C24.5691 7.11944 24.5354 7.09492 24.5078 7.06663C24.3976 6.95912 24.289 6.84595 24.1818 6.73278C24.0165 6.55549 23.7884 6.51965 23.6094 6.69129C23.4456 6.84784 23.3782 7.15716 23.4976 7.3835C23.5221 7.43065 23.542 7.48158 23.5619 7.5325H23.565Z" fill="white"/>
<path d="M28.4562 15.5483C28.4562 15.5483 28.4562 15.554 28.4531 15.5731C28.4531 15.5655 28.4547 15.5579 28.4562 15.5502V15.5483Z" fill="white"/>
<path d="M28.2657 7.26712C28.3943 7.7594 28.5305 8.04421 28.8045 8.42898C28.8183 8.44784 28.8305 8.46481 28.8458 8.48179C28.9423 8.59307 29.103 8.73453 29.2101 8.83072C29.3662 8.9703 29.5637 9.06083 29.7412 9.12496C30.2402 9.30603 30.756 9.23813 31.2566 9.13628C31.4999 9.08535 31.7311 8.95143 31.9515 8.82318C31.9897 8.80054 32.028 8.77602 32.0632 8.74585C32.2224 8.61193 32.3862 8.47424 32.5193 8.30072C32.8056 7.92915 32.9525 7.59908 33.0887 7.12377C33.1668 6.85028 33.205 6.54473 33.1806 6.25615C33.1362 5.72992 33.0857 5.39985 32.8729 4.92454C32.8484 4.86796 32.8178 4.81704 32.7872 4.76422C32.6709 4.56807 32.5499 4.36436 32.4168 4.1833C32.2484 3.95507 32.0311 3.7608 31.8259 3.59294C31.7754 3.55144 31.7234 3.51938 31.6698 3.4892C31.529 3.40998 31.2902 3.26286 31.102 3.21194C30.906 3.15913 30.7055 3.12895 30.505 3.11197C30.3076 3.09688 30.0321 3.16667 29.8805 3.19685C29.6815 3.23646 29.4734 3.34774 29.3065 3.46468C29.2866 3.47977 29.2667 3.49297 29.2468 3.50806C28.9729 3.70799 28.754 3.97771 28.5917 4.31532C28.5382 4.45113 28.4938 4.59259 28.4494 4.73405C28.2489 5.14145 28.1877 5.57526 28.1586 6.04868C28.1509 6.16939 28.1509 6.29199 28.1586 6.4127C28.1769 6.69185 28.1922 6.99552 28.2627 7.26712H28.2657Z" fill="white"/>
</svg>
