<svg width="87" height="80" viewBox="0 0 87 80" fill="none" xmlns="http://www.w3.org/2000/svg">
<g clip-path="url(#clip0_11_542)">
<path d="M61.4994 72.0437C61.8183 72.1278 62.0647 72.2699 62.2357 72.467C62.4097 72.667 62.4938 72.9048 62.4938 73.1802C62.4938 73.615 62.343 73.9542 62.0444 74.2006C61.7429 74.447 61.2878 74.5688 60.6761 74.5688H59.0062V69.6694H60.6297C61.1979 69.6694 61.627 69.7854 61.9111 70.0173C62.1952 70.2492 62.3372 70.5681 62.3372 70.9711C62.3372 71.4784 62.0589 71.835 61.4994 72.0437ZM61.6704 71.0262C61.6704 70.7914 61.5864 70.6087 61.4153 70.4783C61.2443 70.3478 61.0008 70.2811 60.6819 70.2811H59.6701V71.8176H60.5804C60.9254 71.8176 61.1921 71.748 61.3834 71.606C61.5748 71.4639 61.6704 71.2726 61.6704 71.0262ZM61.827 73.1889C61.827 72.6757 61.4298 72.4206 60.6355 72.4206H59.6701V73.9571H60.7369C61.4646 73.9571 61.827 73.702 61.827 73.1889Z" fill="#FAF5EB"/>
<path d="M66.9003 69.6694L65.1985 72.6264V74.5717H64.5317V72.6206L62.8242 69.6723H63.578L64.8796 71.9626L66.1639 69.6723H66.9003V69.6694Z" fill="#FAF5EB"/>
<path d="M72.4899 74.5689H69.385V69.6696H72.4899V70.29H70.0518V71.8032H72.0811V72.4236H70.0518V73.9514H72.4899V74.5718V74.5689ZM72.1536 67.7649L71.0085 69.1854H70.5388L71.3709 67.7649H72.1565H72.1536Z" fill="#FAF5EB"/>
<path d="M77.5573 72.0843C77.5573 72.8526 77.3283 73.4585 76.8674 73.902C76.4064 74.3456 75.7628 74.5688 74.9308 74.5688H73.49V69.6694H74.9627C75.7686 69.6694 76.4006 69.8869 76.8645 70.3246C77.3283 70.7624 77.5573 71.348 77.5573 72.0843ZM76.8906 72.1307C76.8906 71.5335 76.7195 71.0784 76.3803 70.7624C76.0411 70.4464 75.557 70.2869 74.9308 70.2869H74.1539V73.9484H74.9627C75.557 73.9484 76.0295 73.7919 76.3745 73.4817C76.7195 73.1715 76.8935 72.7192 76.8935 72.1278L76.8906 72.1307Z" fill="#FAF5EB"/>
<path d="M81.6415 74.5688H78.5366V69.6694H81.6415V70.2898H79.2034V71.8031H81.2327V72.4235H79.2034V73.9513H81.6415V74.5717V74.5688Z" fill="#FAF5EB"/>
<path d="M85.9845 73.6208V69.6694H86.6339V74.6152H85.912L83.2855 70.6174V74.5688H82.6361V69.6694H83.3725L85.9845 73.6208Z" fill="#FAF5EB"/>
<path d="M4.34516 2.48157C3.45806 2.48157 2.69271 2.78017 2.04333 3.37447C1.39685 3.96878 0.799645 4.88777 0.254627 6.12856H-0.000488281L0.640198 1.93945H16.2341L16.8719 6.12856H16.6168C16.0718 4.88777 15.4746 3.96878 14.8281 3.37447C14.1787 2.78017 13.4133 2.48157 12.5262 2.48157H9.96929V19.6815C9.96929 20.0961 10.1403 20.4324 10.4795 20.6904C10.8216 20.9484 11.2391 21.0789 11.7319 21.0789V21.3369H5.1366V21.0789C5.62944 21.0789 6.0469 20.9484 6.38898 20.6904C6.72817 20.4324 6.89921 20.0961 6.89921 19.6815V2.48157H4.34227H4.34516Z" fill="#FAF5EB"/>
<path d="M22.4439 9.59583C22.9716 8.75221 23.6441 8.08254 24.4617 7.5926C25.2792 7.10266 26.2243 6.85625 27.2998 6.85625C28.816 6.85625 30.0133 7.33459 30.8917 8.29127C31.7701 9.24795 32.2079 10.6308 32.2079 12.4427V19.7888C32.2079 20.186 32.3789 20.4991 32.7181 20.7339C33.0602 20.9658 33.4777 21.0847 33.9705 21.0847V21.3427H27.581V21.0847C28.0739 21.0847 28.4913 20.9542 28.8334 20.6962C29.1755 20.4382 29.3436 20.0845 29.3436 19.6352V10.8424C29.3436 9.73789 29.1146 8.88847 28.6537 8.29417C28.1927 7.69986 27.5375 7.40126 26.6852 7.40126C26.1228 7.40126 25.5865 7.56071 25.0734 7.8796C24.5631 8.1985 24.1109 8.63915 23.7195 9.19866C23.3281 9.75818 23.015 10.4047 22.786 11.1381C22.557 11.8716 22.441 12.6514 22.441 13.4776V19.6323C22.441 20.0816 22.6121 20.4353 22.9513 20.6933C23.2934 20.9513 23.7108 21.0818 24.2036 21.0818V21.3398H17.8142V21.0818C18.3099 21.0818 18.7245 20.96 19.0666 20.7194C19.4086 20.4788 19.5768 20.1599 19.5768 19.7627V3.0788C19.5768 2.69903 19.4231 2.40623 19.1158 2.2004C18.8085 1.99457 18.3737 1.8902 17.8113 1.8902V1.63219C18.5447 1.46114 19.2724 1.23212 19.9972 0.948015C20.7219 0.663909 21.3829 0.347915 21.9772 0.00292969L22.4381 0.260944V9.59873L22.4439 9.59583Z" fill="#FAF5EB"/>
<path d="M37.4729 14.1733C37.6091 15.2083 37.8236 16.1476 38.1135 16.9912C38.4035 17.8377 38.7571 18.5596 39.1746 19.1626C39.5921 19.7656 40.0617 20.2323 40.5806 20.5599C41.0996 20.8875 41.6504 21.0498 42.2302 21.0498C42.6737 21.0498 43.1202 20.9716 43.5724 20.8179C44.0247 20.6643 44.4537 20.4439 44.8625 20.1598C45.2713 19.8757 45.6539 19.5307 46.0134 19.1249C46.3729 18.719 46.6599 18.2581 46.8831 17.742L47.1121 17.8725C46.6019 19.0959 45.8424 20.0236 44.8364 20.6527C43.8304 21.2818 42.6795 21.5978 41.3866 21.5978C40.3458 21.5978 39.4094 21.4006 38.5745 21.0035C37.7396 20.6063 37.0322 20.0671 36.4524 19.3858C35.8726 18.7045 35.429 17.9073 35.1246 16.9941C34.8173 16.0809 34.6637 15.1068 34.6637 14.0719C34.6637 13.0369 34.8202 12.0512 35.1362 11.1612C35.4522 10.2741 35.89 9.51169 36.4524 8.871C37.0148 8.23321 37.6845 7.73748 38.4585 7.38379C39.2355 7.03011 40.082 6.85327 41.001 6.85327C41.92 6.85327 42.8158 7.02142 43.584 7.3577C44.3494 7.69399 45.0017 8.18103 45.5409 8.81882C46.0772 9.4566 46.4918 10.2248 46.7817 11.1206C47.0716 12.0165 47.2165 13.0253 47.2165 14.1472L37.4758 14.1733H37.4729ZM44.274 13.6283C44.1551 12.6977 43.9667 11.8541 43.7116 11.0946C43.4565 10.335 43.1492 9.67983 42.7897 9.12901C42.4331 8.5782 42.0359 8.15204 41.6011 7.84764C41.1662 7.54614 40.7111 7.39539 40.2327 7.39539C39.7544 7.39539 39.3253 7.55484 38.9427 7.87373C38.56 8.19263 38.2411 8.62748 37.9831 9.1783C37.728 9.72911 37.5482 10.3901 37.4468 11.1583C37.3453 11.9266 37.3279 12.7499 37.3946 13.6283H44.2711H44.274Z" fill="#FAF5EB"/>
<path d="M0.0517578 40.5285C0.0517578 39.0471 0.280781 37.6932 0.741728 36.4669C1.20267 35.2436 1.85206 34.1941 2.69568 33.3244C3.5393 32.4547 4.54816 31.7763 5.72517 31.2951C6.90218 30.8138 8.19515 30.5703 9.60987 30.5703C10.5289 30.5703 11.4508 30.6921 12.3698 30.9327C13.2887 31.1733 14.1063 31.5183 14.8223 31.9676H15.2833L16.0254 36.7279H15.7703C15.1238 34.8493 14.2019 33.4433 13.0104 32.5127C11.816 31.5821 10.4709 31.1153 8.97209 31.1153C8.06759 31.1153 7.25586 31.3067 6.5311 31.6835C5.80634 32.0633 5.19175 32.6025 4.69021 33.3012C4.18868 33.9999 3.80021 34.8435 3.5277 35.835C3.25519 36.8264 3.11894 37.9339 3.11894 39.1573C3.11894 40.6416 3.31897 42.036 3.71904 43.3464C4.1191 44.6567 4.66992 45.7989 5.36859 46.773C6.06725 47.7471 6.87898 48.5182 7.80957 49.0864C8.73726 49.6547 9.73163 49.9388 10.7869 49.9388C11.1956 49.9388 11.5841 49.8866 11.9494 49.7822C12.3147 49.6778 12.6423 49.5329 12.9322 49.3416V42.0215C12.9322 41.6417 12.7524 41.3402 12.3958 41.117C12.0393 40.8938 11.5783 40.7807 11.0159 40.7807V40.5227H17.9185V40.7807C17.3561 40.7807 16.8951 40.8938 16.5386 41.117C16.182 41.3402 16.0022 41.633 16.0022 41.9954V47.7616C15.0659 48.6748 14.1092 49.3561 13.138 49.8054C12.1668 50.2548 11.1435 50.478 10.0708 50.478C8.57202 50.478 7.20368 50.2461 5.96869 49.7793C4.7337 49.3126 3.67555 48.6458 2.80004 47.7761C1.92163 46.9064 1.24326 45.8569 0.767819 44.6335C0.289479 43.4101 0.0517578 42.0389 0.0517578 40.5227V40.5285Z" fill="#FAF5EB"/>
<path d="M18.3276 43.1146C18.3276 42.0448 18.5016 41.062 18.8524 40.1662C19.2002 39.2704 19.6873 38.4935 20.3106 37.8383C20.931 37.1831 21.6731 36.67 22.5341 36.2989C23.3951 35.9278 24.3286 35.7423 25.3317 35.7423C26.3348 35.7423 27.2712 35.9278 28.1293 36.2989C28.9903 36.67 29.7324 37.1831 30.3528 37.8383C30.9732 38.4935 31.4603 39.2704 31.811 40.1662C32.1618 41.062 32.3358 42.0448 32.3358 43.1146C32.3358 44.1843 32.1618 45.1439 31.811 46.0484C31.4603 46.9529 30.9761 47.7327 30.3528 48.3879C29.7295 49.0431 28.9903 49.5562 28.1293 49.9273C27.2683 50.2984 26.3348 50.4839 25.3317 50.4839C24.3286 50.4839 23.3923 50.2984 22.5341 49.9273C21.6731 49.5562 20.931 49.0431 20.3106 48.3879C19.6873 47.7327 19.2031 46.9529 18.8524 46.0484C18.5016 45.1439 18.3276 44.164 18.3276 43.1146ZM21.3948 41.3548C21.3948 42.4768 21.5224 43.5523 21.7775 44.5873C22.0326 45.6222 22.3776 46.5412 22.8124 47.3413C23.2473 48.1444 23.7459 48.7822 24.3083 49.2547C24.8708 49.7301 25.4593 49.965 26.071 49.965C26.5145 49.965 26.932 49.8432 27.3233 49.6026C27.7147 49.362 28.0568 49.0257 28.3467 48.5937C28.6366 48.1618 28.8627 47.6544 29.0251 47.0688C29.1874 46.4832 29.2686 45.8541 29.2686 45.1816C29.2686 43.9756 29.1439 42.8333 28.8975 41.7549C28.6511 40.6765 28.3119 39.7285 27.8887 38.911C27.4625 38.0934 26.9697 37.4469 26.4072 36.9715C25.8448 36.499 25.2476 36.2612 24.6185 36.2612C24.1576 36.2612 23.7285 36.3859 23.3285 36.6352C22.9284 36.8845 22.5863 37.2382 22.3051 37.6963C22.0239 38.1543 21.8036 38.6906 21.6412 39.3139C21.4789 39.9343 21.3977 40.6156 21.3977 41.3577L21.3948 41.3548Z" fill="#FAF5EB"/>
<path d="M34.814 31.9676C34.814 31.5878 34.6575 31.295 34.3415 31.0892C34.0255 30.8834 33.5964 30.779 33.0514 30.779V30.521C33.7848 30.3499 34.5125 30.1209 35.2373 29.8368C35.962 29.5527 36.623 29.2367 37.2173 28.8917L37.6782 29.1497V48.6776C37.6782 49.0748 37.8493 49.3879 38.1885 49.6227C38.5277 49.8575 38.948 49.9706 39.4409 49.9706V50.2286H33.0514V49.9706C33.5442 49.9706 33.9617 49.8546 34.3038 49.6227C34.6459 49.3908 34.814 49.0748 34.814 48.6776V31.9705V31.9676Z" fill="#FAF5EB"/>
<path d="M55.3424 49.4748C54.3713 49.527 53.5566 49.6343 52.9014 49.7995C52.2463 49.9648 51.6694 50.1909 51.1765 50.4837L50.7156 50.2257V48.1819C50.2053 48.924 49.6081 49.4922 48.9269 49.8894C48.2456 50.2866 47.4513 50.4837 46.5497 50.4837C45.6481 50.4837 44.816 50.2982 44.0565 49.9271C43.297 49.556 42.6447 49.0342 42.0996 48.3616C41.5546 47.689 41.1285 46.8918 40.8212 45.9699C40.5139 45.048 40.3602 44.0333 40.3602 42.9317C40.3602 41.8301 40.5052 40.914 40.7951 40.0356C41.085 39.1572 41.4938 38.3976 42.0214 37.7598C42.549 37.122 43.1839 36.6263 43.926 36.2726C44.6682 35.919 45.4799 35.7421 46.367 35.7421C47.3382 35.7421 48.1876 35.9711 48.9095 36.4263C49.6342 36.8843 50.2343 37.5163 50.7127 38.328V31.9647C50.7127 31.5849 50.5561 31.2921 50.2401 31.0863C49.9241 30.8804 49.4951 30.7761 48.9501 30.7761V30.518C49.6835 30.347 50.4083 30.118 51.1214 29.8339C51.8375 29.5498 52.4927 29.2338 53.0899 28.8888L53.574 29.1468V48.0253C53.574 48.4051 53.7277 48.6979 54.035 48.9037C54.3423 49.1096 54.7771 49.2139 55.3395 49.2139V49.4719L55.3424 49.4748ZM43.4303 41.4068C43.4303 42.578 43.5405 43.6739 43.7637 44.6914C43.984 45.709 44.2884 46.5961 44.6711 47.3556C45.0538 48.1152 45.4973 48.7124 46.0017 49.153C46.5033 49.5937 47.0454 49.8111 47.6252 49.8111C48.118 49.8111 48.5529 49.6546 48.9298 49.3444C49.3037 49.0342 49.6284 48.6167 49.901 48.0891C50.1735 47.5644 50.3793 46.9556 50.5155 46.2656C50.6518 45.5756 50.7214 44.8509 50.7214 44.0942C50.7214 42.8882 50.6112 41.8011 50.388 40.8357C50.1677 39.8703 49.8633 39.0499 49.4806 38.3802C49.0979 37.7077 48.6399 37.1916 48.1122 36.8292C47.5846 36.4669 47.0135 36.2871 46.3989 36.2871C45.9554 36.2871 45.5495 36.4118 45.1842 36.6611C44.8189 36.9104 44.5058 37.2612 44.2507 37.7077C43.9956 38.157 43.7956 38.6962 43.6506 39.3253C43.5057 39.9544 43.4332 40.6502 43.4332 41.4068H43.4303Z" fill="#FAF5EB"/>
<path d="M59.0735 43.0624C59.2098 44.0973 59.4214 45.0366 59.7113 45.8802C60.0012 46.7267 60.3549 47.4486 60.7723 48.0516C61.1898 48.6546 61.6565 49.1214 62.1784 49.4489C62.6973 49.7765 63.2481 49.9418 63.8279 49.9418C64.2715 49.9418 64.7179 49.8635 65.1702 49.7099C65.6224 49.5533 66.0515 49.3359 66.4602 49.0489C66.869 48.7648 67.2517 48.4198 67.6112 48.0139C67.9677 47.6081 68.2576 47.1471 68.4809 46.6311L68.7099 46.7615C68.1997 47.9849 67.4401 48.9126 66.4342 49.5417C65.4282 50.1708 64.2773 50.4868 62.9843 50.4868C61.9435 50.4868 61.0072 50.2897 60.1722 49.8925C59.3373 49.4953 58.63 48.9561 58.0502 48.2748C57.4703 47.5936 57.0268 46.7963 56.7195 45.8831C56.4122 44.9699 56.2585 43.9959 56.2585 42.9609C56.2585 41.926 56.4151 40.9403 56.7311 40.0503C57.0471 39.1632 57.4848 38.4007 58.0472 37.76C58.6097 37.1222 59.2793 36.6265 60.0534 36.2728C60.8274 35.9192 61.6768 35.7423 62.5958 35.7423C63.5148 35.7423 64.4106 35.9105 65.176 36.2467C65.9442 36.583 66.5936 37.0701 67.1328 37.7079C67.672 38.3456 68.0837 39.1139 68.3736 40.0097C68.6635 40.9055 68.8085 41.9144 68.8085 43.0363L59.0706 43.0624H59.0735ZM65.8717 42.5203C65.7529 41.5897 65.5644 40.746 65.3093 39.9865C65.0542 39.2269 64.7469 38.5718 64.3903 38.0209C64.0338 37.4701 63.6366 37.0411 63.2017 36.7396C62.7669 36.4381 62.3117 36.2873 61.8334 36.2873C61.355 36.2873 60.926 36.4468 60.5433 36.7657C60.1606 37.0846 59.8389 37.5194 59.5837 38.0731C59.3286 38.624 59.1489 39.2849 59.0474 40.0503C58.9459 40.8185 58.9286 41.6418 58.9952 42.5203H65.8717Z" fill="#FAF5EB"/>
<path d="M71.777 38.821C71.777 38.4412 71.6233 38.1484 71.316 37.9426C71.0087 37.7368 70.5739 37.6324 70.0115 37.6324V37.3744C70.7449 37.2033 71.4726 36.9743 72.1973 36.6902C72.9221 36.4061 73.5831 36.0901 74.1774 35.7451L74.6383 36.0031V38.4847C75.166 37.6411 75.8385 36.9714 76.6561 36.4815C77.4736 35.9915 78.4216 35.7451 79.4942 35.7451C81.0104 35.7451 82.2077 36.2235 83.0861 37.1801C83.9645 38.1368 84.4023 39.5197 84.4023 41.3316V48.6777C84.4023 49.0749 84.5733 49.388 84.9125 49.6228C85.2517 49.8576 85.6721 49.9707 86.1649 49.9707V50.2287H79.7754V49.9707C80.2712 49.9707 80.6857 49.8402 81.0278 49.5822C81.3699 49.3242 81.538 48.9705 81.538 48.5212V39.7284C81.538 38.6239 81.309 37.7744 80.8481 37.1801C80.3871 36.5858 79.7319 36.2872 78.8796 36.2872C78.3172 36.2872 77.7809 36.4467 77.2707 36.7656C76.7604 37.0845 76.3082 37.5251 75.9168 38.0846C75.5254 38.6441 75.2152 39.2906 74.9833 40.0241C74.7543 40.7575 74.6383 41.5374 74.6383 42.3636V48.5183C74.6383 48.9676 74.8094 49.3213 75.1486 49.5793C75.4906 49.8373 75.9081 49.9678 76.4009 49.9678V50.2258H70.0115V49.9678C70.5043 49.9678 70.9218 49.846 71.2639 49.6054C71.6059 49.3648 71.7741 49.0459 71.7741 48.6487V38.821H71.777Z" fill="#FAF5EB"/>
<path d="M0.51001 59.7173H7.10531V59.9753C6.5429 59.9753 6.10804 60.0971 5.80075 60.3377C5.49345 60.5783 5.3398 60.9233 5.3398 61.3726V78.5726H10.9378C11.7728 78.5726 12.5149 78.2682 13.1614 77.6536C13.8079 77.0419 14.4051 76.1316 14.9501 74.9256H15.2052L14.5413 79.1147H0.51001V78.8567C1.08982 78.8567 1.52757 78.7407 1.82617 78.5088C2.12477 78.2769 2.27262 77.9609 2.27262 77.5637V61.2712C2.27262 60.8566 2.11607 60.5377 1.80008 60.3145C1.48409 60.0913 1.05503 59.9782 0.51001 59.9782V59.7202V59.7173Z" fill="#FAF5EB"/>
<path d="M18.8147 71.951C18.9509 72.986 19.1654 73.9253 19.4553 74.7689C19.7452 75.6154 20.0989 76.3373 20.5164 76.9403C20.9339 77.5433 21.4035 78.01 21.9224 78.3376C22.4413 78.6652 22.9922 78.8305 23.572 78.8305C24.0155 78.8305 24.462 78.7522 24.9142 78.5985C25.3665 78.4449 25.7955 78.2245 26.2043 77.9375C26.6131 77.6534 26.9957 77.3085 27.3552 76.9026C27.7118 76.4967 28.0017 76.0358 28.2249 75.5198L28.4539 75.6502C27.9437 76.8736 27.1842 77.8013 26.1782 78.4304C25.1722 79.0595 24.0213 79.3755 22.7284 79.3755C21.6876 79.3755 20.7512 79.1783 19.9163 78.7812C19.0814 78.384 18.374 77.8448 17.7942 77.1635C17.2144 76.4822 16.7708 75.685 16.4664 74.7718C16.1591 73.8586 16.0055 72.8845 16.0055 71.8496C16.0055 70.8146 16.162 69.8289 16.478 68.9389C16.794 68.0518 17.2318 67.2894 17.7942 66.6487C18.3566 66.0109 19.0263 65.5152 19.8003 65.1615C20.5744 64.8078 21.4238 64.631 22.3428 64.631C23.2618 64.631 24.1576 64.7991 24.9258 65.1354C25.6912 65.4717 26.3434 65.9587 26.8827 66.5965C27.4219 67.2343 27.8336 68.0026 28.1235 68.8984C28.4134 69.7942 28.5583 70.803 28.5583 71.925L18.8176 71.951H18.8147ZM25.6129 71.4089C25.494 70.4783 25.3056 69.6347 25.0505 68.8752C24.7954 68.1156 24.4881 67.4604 24.1286 66.9096C23.772 66.3588 23.3748 65.9297 22.94 65.6282C22.5051 65.3268 22.05 65.176 21.5716 65.176C21.0933 65.176 20.6642 65.3354 20.2816 65.6543C19.8989 65.9732 19.58 66.4081 19.322 66.9618C19.0669 67.5126 18.8871 68.1736 18.7857 68.9389C18.6842 69.7072 18.6668 70.5305 18.7335 71.4089H25.61H25.6129Z" fill="#FAF5EB"/>
<path d="M41.589 77.175C41.589 77.6766 41.6644 78.0332 41.8181 78.2477C41.9717 78.4651 42.1659 78.5724 42.4066 78.5724C42.5428 78.5724 42.6907 78.5376 42.853 78.468C43.0154 78.3984 43.1806 78.3115 43.3516 78.21V78.468C42.9603 78.7956 42.5921 79.0275 42.2529 79.1667C41.9108 79.3058 41.5455 79.3725 41.1542 79.3725C40.557 79.3725 40.0467 79.2044 39.6206 78.8681C39.1944 78.5318 38.9132 78.0882 38.777 77.5374C38.3334 78.123 37.7275 78.5753 36.9622 78.8942C36.1968 79.2131 35.3532 79.3725 34.4313 79.3725C33.7993 79.3725 33.2166 79.2942 32.6803 79.1406C32.144 78.984 31.6801 78.7579 31.2888 78.4564C30.8974 78.1549 30.5901 77.7838 30.3698 77.3432C30.1465 76.9025 30.0364 76.3981 30.0364 75.8299C30.0364 75.0037 30.2074 74.3398 30.5466 73.8383C30.8887 73.3396 31.3206 72.9338 31.8512 72.6236C32.3817 72.3134 32.9731 72.0669 33.6283 71.8872C34.2835 71.7075 34.9357 71.5219 35.5822 71.3306C36.2287 71.1422 36.8346 70.916 37.397 70.658C37.9594 70.4 38.403 70.0376 38.7248 69.5709C38.7596 68.0547 38.545 66.9415 38.087 66.2341C37.626 65.5267 36.9013 65.173 35.9127 65.173C35.4518 65.173 35.0343 65.2426 34.6603 65.3789C34.2864 65.518 33.9704 65.7065 33.7153 65.9471C33.4601 66.1877 33.2804 66.4689 33.1789 66.7878C33.0775 67.1067 33.0688 67.4575 33.1528 67.8344C33.2717 68.3504 33.2079 68.8026 32.9615 69.1911C32.7151 69.5796 32.3353 69.7738 31.8251 69.7738C31.4337 69.7738 31.1264 69.652 30.9061 69.4114C30.6829 69.1708 30.5727 68.8258 30.5727 68.3765C30.5727 67.8604 30.7176 67.3734 31.0076 66.9154C31.2975 66.4573 31.6975 66.063 32.2078 65.7268C32.718 65.3905 33.3152 65.1238 33.9965 64.9237C34.6777 64.7266 35.4025 64.6251 36.1707 64.6251C36.9883 64.6251 37.7304 64.7382 38.3943 64.9614C39.0582 65.1846 39.6293 65.5093 40.1076 65.9326C40.5831 66.3558 40.9512 66.8632 41.2064 67.4575C41.4615 68.0518 41.589 68.7128 41.589 69.4375V77.1692V77.175ZM33.1036 75.7777C33.1036 76.7257 33.3123 77.4707 33.7297 78.0158C34.1472 78.5579 34.7386 78.8304 35.5069 78.8304C35.9504 78.8304 36.3592 78.7405 36.7331 78.5579C37.1071 78.3781 37.4347 78.1259 37.7159 77.807C37.9971 77.4881 38.2261 77.1055 38.4059 76.6561C38.5856 76.2068 38.69 75.7168 38.7248 75.1834V70.1391C38.4871 70.4667 38.1798 70.7421 37.8058 70.9653C37.4318 71.1885 37.0346 71.4002 36.6172 71.6002C36.1997 71.7973 35.7823 72.0003 35.3648 72.209C34.9473 72.4148 34.5734 72.6699 34.24 72.9714C33.9066 73.2729 33.6341 73.6469 33.4224 74.0963C33.2079 74.5456 33.1036 75.1051 33.1036 75.7777Z" fill="#FAF5EB"/>
<path d="M49.3095 62.1233V65.434H52.8637V65.7181H49.3095V76.7113C49.3095 78.0042 50.0256 78.8334 51.1504 78.8334H51.2026V79.1175H44.99V78.8334H45.0421C46.1409 78.8334 46.883 78.0042 46.883 76.7113V65.7181H44.2246V65.434H46.883V62.1233C46.883 60.0273 48.9268 58.6068 51.2809 58.6068C53.2493 58.6068 54.2466 59.6157 55.6004 59.6157C56.3426 59.6157 56.6992 59.3316 56.6992 58.8909H56.9804C56.9804 60.4941 56.2121 61.5812 55.038 61.5812C53.171 61.5812 53.4029 58.8909 51.5099 58.8909C50.2053 58.8909 49.3124 60.1578 49.3124 62.1233H49.3095Z" fill="#FAF5EB"/>
<path d="M61.0181 23.5257C62.0849 20.9687 64.12 18.9394 66.2711 17.1942C66.8915 16.6897 67.5293 16.1998 68.2222 15.7997C70.037 14.7474 72.1736 14.3386 74.2725 14.3444C75.061 14.3444 75.8524 14.4053 76.6149 14.5995C79.0269 15.2141 80.8852 17.0869 82.613 18.8785C81.1953 18.6785 79.7777 18.4784 78.3514 18.3828C77.2063 18.3074 76.0351 18.3016 74.9363 18.635C73.7332 19.0003 72.6606 19.7627 71.4256 19.9888C70.3993 20.1773 69.347 19.9801 68.3236 19.783C67.0597 19.5395 65.7986 19.2989 64.5346 19.0554" fill="#FAF5EB"/>
<path d="M61.1082 23.6155C61.1893 23.5256 61.2734 23.4387 61.3604 23.3546L61.2473 23.4213C61.3691 23.3807 61.4184 23.3111 61.4763 23.2067C61.5111 23.1459 61.5459 23.085 61.5807 23.027C61.6503 22.9081 61.7228 22.7893 61.7981 22.6704C61.8735 22.5516 61.9489 22.4356 62.0272 22.3225C62.0445 22.2993 62.0619 22.2733 62.0793 22.2501C62.0909 22.2327 62.1025 22.2182 62.1141 22.2008C62.117 22.195 62.146 22.1544 62.1199 22.1892C62.0822 22.2472 62.1721 22.1196 62.1663 22.1283C62.1779 22.1109 62.1866 22.0935 62.1982 22.079C62.2185 22.0442 62.2417 22.0123 62.2649 21.9804C62.4156 21.7514 62.5751 21.5282 62.7403 21.3108C62.7606 21.2818 62.7838 21.2557 62.8041 21.2267C62.8476 21.1716 62.7635 21.276 62.8244 21.2006C62.8679 21.1455 62.9114 21.0904 62.9548 21.0383C63.0418 20.931 63.1317 20.8208 63.2216 20.7165C63.9463 19.8642 64.7609 19.0843 65.6104 18.3567C66.0452 17.9856 66.4859 17.6174 66.9352 17.2637C66.9671 17.2405 66.9961 17.2144 67.028 17.1912C67.0425 17.1796 67.0541 17.171 67.0686 17.1594C67.1208 17.1188 67.0048 17.2086 67.057 17.1681C67.1208 17.1217 67.1816 17.0724 67.2454 17.026C67.373 16.9303 67.5005 16.8376 67.6281 16.7477C67.8861 16.5651 68.1499 16.394 68.4224 16.2346C68.6746 16.0867 68.9327 15.9534 69.1994 15.8287C69.266 15.7968 69.3327 15.7678 69.4023 15.7359C69.4313 15.7243 69.4603 15.7098 69.4893 15.6982C69.5646 15.6664 69.4777 15.704 69.4661 15.7069C69.4864 15.7011 69.5038 15.6895 69.5241 15.6837C69.6603 15.6287 69.7995 15.5736 69.9386 15.5243C70.4923 15.3243 71.0605 15.1706 71.6375 15.0576C71.7824 15.0286 71.9303 15.0025 72.0752 14.9793C72.1477 14.9677 72.2231 14.9561 72.2955 14.9445C72.3129 14.9445 72.4173 14.9271 72.3448 14.9387C72.2723 14.9503 72.3448 14.9387 72.3622 14.9387C72.3825 14.9387 72.4057 14.9329 72.426 14.93C72.7217 14.8923 73.0174 14.872 73.316 14.8604C73.9277 14.8343 74.5452 14.8401 75.1569 14.8952C75.3192 14.9097 75.4787 14.9271 75.641 14.9474L75.5019 14.93C76.1947 15.0228 76.8644 15.2083 77.508 15.4779L77.3775 15.4228C78.1342 15.7446 78.8271 16.1795 79.4793 16.6752C79.5634 16.739 79.3953 16.6085 79.4503 16.652C79.4706 16.6665 79.488 16.681 79.5083 16.6984C79.546 16.7303 79.5866 16.7593 79.6243 16.7912C79.7084 16.8579 79.7924 16.9274 79.8765 16.997C80.036 17.1304 80.1925 17.2666 80.3491 17.4087C80.6592 17.6899 80.9636 17.9798 81.2593 18.2726C81.5898 18.6002 81.9145 18.9365 82.2392 19.2728L82.7668 18.3654C81.3376 18.1624 79.9084 17.9595 78.4676 17.858C77.1166 17.7624 75.7193 17.7682 74.435 18.2465C73.7508 18.5016 73.1044 18.8437 72.4347 19.1278L72.5622 19.0727C72.0868 19.2728 71.5969 19.438 71.0866 19.5076L71.2287 19.4873C70.6721 19.5598 70.1097 19.5279 69.553 19.4554L69.698 19.4757C69.0457 19.3887 68.4021 19.2496 67.7556 19.1249C67.1092 19.0002 66.4569 18.8727 65.8075 18.748C65.4364 18.6756 65.0653 18.6031 64.6914 18.5335C64.5435 18.5045 64.4015 18.5103 64.271 18.5886C64.1579 18.6553 64.0478 18.7857 64.0188 18.9162C63.9579 19.1858 64.1 19.5308 64.4015 19.5887C65.7524 19.8468 67.1005 20.1077 68.4514 20.3599C69.1472 20.4903 69.8574 20.6121 70.5677 20.6092C71.2374 20.6092 71.8926 20.4788 72.5188 20.2439C73.1826 19.9946 73.8117 19.667 74.4611 19.3887L74.3307 19.4438C74.9076 19.2003 75.499 19.0292 76.1194 18.9452L75.9744 18.9655C76.647 18.8785 77.3254 18.8785 78.0008 18.9133C78.6763 18.9481 79.404 19.0176 80.1026 19.0959C80.5056 19.1423 80.9086 19.1945 81.3086 19.2467L81.1637 19.2264C81.6014 19.2843 82.0363 19.3481 82.474 19.409C82.5987 19.4264 82.706 19.4322 82.8277 19.3829C82.9321 19.3394 83.0336 19.2641 83.0886 19.1597C83.2046 18.9423 83.1756 18.6813 83.0046 18.5016C81.8102 17.2608 80.581 16.0142 79.1083 15.101C78.3661 14.6401 77.5515 14.269 76.6992 14.0748C75.7222 13.8516 74.7075 13.8226 73.7103 13.8719C71.8404 13.9675 69.9676 14.3502 68.3036 15.2344C67.431 15.6982 66.6482 16.307 65.8858 16.9332C65.2248 17.4754 64.587 18.0436 63.984 18.6495C63.381 19.2554 62.7838 19.9395 62.2591 20.6498C62.0098 20.989 61.7749 21.3398 61.5546 21.7021C61.4415 21.8877 61.3517 22.0906 61.2589 22.2877C61.1661 22.4849 61.0734 22.6994 60.9893 22.9081C60.9806 22.9313 60.9719 22.9545 60.9603 22.9777C60.9574 22.9864 60.9342 23.0444 60.9487 23.0067L60.9197 23.0734C60.9052 23.1227 60.9052 23.172 60.9197 23.2241C60.9197 23.2096 60.9197 23.1806 60.9139 23.2299C60.9023 23.3285 60.8994 23.4329 60.8965 23.5314C60.8907 23.6387 61.0386 23.6996 61.1111 23.6213L61.1082 23.6155Z" fill="#FAF5EB"/>
<path d="M61.0536 23.0588C62.2914 21.0962 63.5409 19.1162 64.3353 16.9361C64.5382 16.3795 64.7121 15.8055 64.744 15.2141C64.7846 14.4487 64.6455 13.8631 64.4599 13.2108C63.8569 11.0713 63.5554 9.9987 62.9669 9.12029C62.2567 8.06215 61.5551 7.65338 60.6361 6.91703C59.4301 5.95165 57.8182 4.39197 56.2441 1.86401C56.7079 3.43239 55.3801 5.10513 55.8092 6.68511C56.2441 8.29697 58.2299 8.94345 59.0996 10.3669C59.5374 11.08 59.6736 11.9584 60.1751 12.6281C60.8361 13.5094 62.0131 13.866 62.7176 14.7125C63.3177 15.4315 63.4974 16.4085 63.5757 17.3449C63.6337 18.0377 63.6482 18.7306 63.6192 19.4264" fill="#FAF5EB"/>
<path d="M61.1259 23.1315C61.1867 23.0851 61.2447 23.0358 61.3056 22.9894C61.3781 22.9314 61.4476 22.8937 61.5027 22.8184C61.61 22.6763 61.7317 22.543 61.8332 22.3951C62.0188 22.1226 62.2072 21.853 62.3898 21.5805C62.5725 21.308 62.758 21.0355 62.9261 20.7542C63.0943 20.473 63.2624 20.1802 63.4277 19.8903C63.7553 19.3192 64.0655 18.7365 64.3351 18.1364C64.6163 17.5015 64.883 16.8521 65.0656 16.1796C65.2744 15.4055 65.2889 14.6141 65.1642 13.8227L65.1845 13.9647C65.1468 13.6429 65.0569 13.3269 64.9729 13.0138C64.8888 12.7007 64.8105 12.4166 64.7265 12.118C64.5902 11.6368 64.4481 11.1584 64.2887 10.683C64.0278 9.90896 63.706 9.16391 63.2074 8.51163C62.874 8.07677 62.5 7.6912 62.0738 7.34332C61.8506 7.16068 61.6216 6.98673 61.3926 6.81279C61.3462 6.7751 61.2969 6.74032 61.2505 6.70263C61.2041 6.66494 61.3114 6.74901 61.3056 6.74611C61.2911 6.73452 61.2766 6.72292 61.2592 6.71133C61.2273 6.68813 61.1983 6.66494 61.1693 6.63885C61.0824 6.57217 60.9983 6.5026 60.9113 6.43302C60.2416 5.888 59.6155 5.2908 59.0327 4.65591C58.6675 4.25874 58.3225 3.84708 57.9891 3.42092C57.9137 3.32525 58.0471 3.4963 57.9891 3.42092C57.9717 3.39773 57.9514 3.37164 57.934 3.34845C57.8876 3.28467 57.8383 3.22379 57.792 3.16001C57.7021 3.03825 57.6151 2.91939 57.5282 2.79473C57.3426 2.53382 57.1629 2.27001 56.986 2.0004C56.8962 1.86124 56.8063 1.72209 56.7193 1.58294C56.5744 1.35101 56.2903 1.25245 56.038 1.35971C55.7858 1.46697 55.6467 1.73948 55.7221 2.00329C55.7539 2.11636 55.78 2.23232 55.7974 2.35118L55.7771 2.20623C55.8148 2.49323 55.8061 2.78314 55.7684 3.07304L55.7887 2.92809C55.6003 4.28773 54.8378 5.66767 55.3597 7.04761C55.5858 7.64481 55.9743 8.14055 56.441 8.57251C56.8672 8.96677 57.3368 9.30596 57.7746 9.68863C58.0152 9.89736 58.2442 10.1206 58.4471 10.367C58.4587 10.3815 58.4732 10.3989 58.4848 10.4134C58.5457 10.4888 58.4587 10.3699 58.45 10.3699C58.4674 10.3728 58.508 10.4482 58.5196 10.4656C58.5689 10.5352 58.6153 10.6076 58.6588 10.6801C58.7631 10.8569 58.8501 11.0425 58.9284 11.228L58.8733 11.0976C59.0501 11.5179 59.1922 11.9528 59.3922 12.3644C59.5807 12.7558 59.8387 13.1124 60.1576 13.4052C60.4765 13.698 60.8128 13.9212 61.1606 14.1502C61.323 14.2575 61.4882 14.3648 61.6477 14.4778C61.723 14.53 61.7955 14.5822 61.868 14.6373C61.9231 14.6808 61.7549 14.5474 61.8332 14.6112C61.8506 14.6257 61.868 14.6402 61.8854 14.6547C61.926 14.6895 61.9695 14.7243 62.0101 14.759C62.0883 14.8286 62.1608 14.8982 62.2333 14.9736C62.271 15.0142 62.3058 15.0547 62.3405 15.0953C62.3666 15.1243 62.4188 15.2113 62.3289 15.0779C62.3463 15.1011 62.3637 15.1243 62.3811 15.1475C62.5174 15.3389 62.6276 15.5447 62.7203 15.7621L62.6652 15.6317C62.845 16.0636 62.9435 16.5217 63.0073 16.9826L62.987 16.8377C63.0421 17.2493 63.0711 17.6639 63.0856 18.0755C63.0943 18.2959 63.0972 18.5191 63.0972 18.7394C63.0972 18.9597 63.1059 19.1946 63.0972 19.4207C63.0856 19.6961 63.3494 19.9599 63.6248 19.9483C63.9205 19.9338 64.1408 19.7164 64.1524 19.4207C64.1611 19.2409 64.1814 19.0612 64.1814 18.8815C64.1814 18.7017 64.1814 18.522 64.1785 18.3423C64.1698 17.9886 64.1524 17.632 64.1206 17.2783C64.0655 16.6492 63.9785 16.0085 63.7466 15.42C63.6248 15.1127 63.4828 14.8141 63.2856 14.5474C63.1001 14.2981 62.8972 14.0749 62.6565 13.8806C62.2043 13.5096 61.6999 13.2197 61.2273 12.8776C61.1983 12.8573 61.1693 12.8341 61.1403 12.8138C61.0708 12.7616 61.1229 12.7993 61.1403 12.8138C61.2186 12.8747 61.1432 12.8138 61.1316 12.8051C61.0766 12.7616 61.0215 12.7152 60.9664 12.6659C60.8533 12.5645 60.7461 12.4572 60.6475 12.3412C60.6359 12.3268 60.6243 12.3123 60.6127 12.3007C60.5634 12.2427 60.6417 12.3441 60.6475 12.347C60.6243 12.3384 60.5837 12.2572 60.5692 12.2369C60.5228 12.1673 60.4794 12.0948 60.4388 12.0224C60.3576 11.8745 60.2851 11.7209 60.2185 11.5672L60.2735 11.6977C60.0648 11.2048 59.9054 10.6859 59.6473 10.2163C59.4386 9.83649 59.1516 9.4944 58.8414 9.1929C58.2761 8.64498 57.6151 8.20723 57.0556 7.65641C56.9773 7.58104 56.9049 7.50276 56.8324 7.42159C56.7976 7.381 56.7628 7.34042 56.728 7.29983C56.7135 7.28244 56.699 7.26504 56.6845 7.24765C56.8063 7.3955 56.728 7.30273 56.7019 7.26794C56.5773 7.0969 56.47 6.91136 56.3859 6.71712L56.441 6.84758C56.3569 6.64465 56.3019 6.43592 56.27 6.21849L56.2903 6.36344C56.2555 6.08224 56.2671 5.80103 56.3019 5.52272L56.2816 5.66767C56.4207 4.64721 56.8701 3.68473 56.8875 2.64398C56.8933 2.33378 56.8556 2.01779 56.7686 1.71919L55.7713 2.13955C56.6671 3.57747 57.7137 4.93712 58.9226 6.12572C59.3429 6.54028 59.7865 6.93455 60.2474 7.30273C60.433 7.45058 60.6214 7.59553 60.8099 7.74048C60.8823 7.79557 60.9519 7.85065 61.0244 7.90573C61.0389 7.91732 61.0534 7.92602 61.065 7.93762C61.1461 8.0014 60.9577 7.85355 61.0389 7.91732C61.0795 7.94921 61.1201 7.9811 61.1606 8.01299C61.4389 8.23332 61.7086 8.46524 61.9521 8.72326C62.0274 8.80443 62.1028 8.8856 62.1724 8.96967C62.2101 9.01316 62.2449 9.05954 62.2826 9.10303C62.3376 9.16971 62.2565 9.06824 62.2507 9.06244C62.2739 9.08853 62.2942 9.11752 62.3145 9.14651C62.4217 9.29147 62.5232 9.44222 62.616 9.59587C62.7609 9.83938 62.8856 10.0945 62.9957 10.3554L62.9406 10.225C63.1291 10.6772 63.2827 11.1439 63.4248 11.6136C63.619 12.2572 63.8075 12.9066 63.9901 13.553C64.0887 13.9067 64.1785 14.2662 64.2307 14.6286L64.2133 14.4923C64.2539 14.7909 64.2626 15.0924 64.2394 15.3939C64.2365 15.4345 64.2336 15.4722 64.2278 15.5128C64.2278 15.5302 64.2249 15.5476 64.222 15.5621C64.2162 15.6172 64.2278 15.5186 64.2278 15.5186C64.2307 15.5969 64.1988 15.6954 64.1843 15.7708C64.1553 15.9216 64.1177 16.0723 64.0771 16.2202C63.9901 16.5188 63.8886 16.8116 63.7785 17.1044C63.7263 17.2435 63.6712 17.3827 63.6161 17.5218C63.5871 17.5943 63.561 17.6668 63.5263 17.7364C63.5263 17.7364 63.5581 17.6581 63.5378 17.7045C63.532 17.719 63.5263 17.7364 63.5176 17.7508C63.5002 17.7914 63.4828 17.832 63.4654 17.8726C63.4364 17.9393 63.4074 18.0031 63.3784 18.0697C63.361 18.1103 63.3436 18.1509 63.3262 18.1915C63.3639 18.0987 63.3407 18.1567 63.332 18.177C63.3146 18.2176 63.2972 18.2582 63.2769 18.2988C63.2161 18.435 63.1552 18.5713 63.0914 18.7075C62.9609 18.9829 62.8276 19.2583 62.6884 19.5309C62.5493 19.8034 62.4014 20.0701 62.2507 20.3368C62.0999 20.6035 61.9608 20.876 61.8129 21.1427C61.6506 21.4413 61.4853 21.737 61.3172 22.0327C61.2331 22.1835 61.1635 22.3429 61.0853 22.4966C61.007 22.6502 60.9838 22.8416 60.9432 23.0213C60.92 23.1257 61.036 23.1807 61.1114 23.1199L61.1259 23.1315Z" fill="#FAF5EB"/>
<path d="M71.4609 2.51059C71.2232 2.37724 70.913 2.26417 70.6376 2.26417C70.2955 2.26417 69.9273 2.42072 69.6258 2.56567C69.0199 2.85848 68.6459 3.3948 68.4111 4.00649C68.1589 4.66168 68.3212 5.39223 68.5995 6.00683C68.8373 6.53445 69.2721 6.9809 69.7591 7.2853C70.8927 7.99556 72.3161 7.73465 73.2757 6.86494C74.2353 5.99523 74.4005 4.65588 74.0468 3.48757C73.8874 2.95994 73.6381 2.42942 73.3452 1.95978C72.9162 1.2727 72.3306 0.62622 71.4928 0.469672C70.7941 0.342115 70.1737 0.397196 69.5388 0.739282C69.0373 1.00889 68.6865 1.40896 68.356 1.85831C68.1328 2.16561 68.0052 2.53089 67.8806 2.88747C67.811 3.0875 67.7472 3.29043 67.7066 3.49916C67.5704 4.18333 67.5008 4.93418 67.7501 5.60386C67.9299 6.088 68.156 6.54605 68.556 6.89393C69.0025 7.2853 69.42 7.49693 69.9824 7.69407C70.5912 7.90569 71.2608 8.04485 71.9073 8.04775C72.1132 8.04775 72.3103 8.01296 72.5132 7.98687C72.7017 7.96078 72.8901 7.94338 73.0727 7.8854C73.4032 7.77814 73.7598 7.63898 74.0497 7.43315C74.5194 7.09396 74.8817 6.77507 75.1832 6.27064C75.4847 5.76621 75.5833 5.29946 75.6239 4.73995C75.6819 3.93112 75.3514 3.07011 74.96 2.37724C74.0642 0.794364 72.1914 -0.281178 70.3592 0.226153C69.878 0.359509 69.4721 0.65521 69.1706 1.04658C69.0286 1.18863 68.93 1.35678 68.8778 1.55101C68.7358 1.82352 68.6691 2.11632 68.6807 2.43232C68.6488 2.75991 68.8083 3.31362 68.9938 3.58613L69.3504 4.04998C69.5562 4.2732 69.8026 4.42975 70.0867 4.52252C70.2636 4.62689 70.4578 4.67907 70.6636 4.67907C70.968 4.74575 71.2724 4.73415 71.5739 4.63848C71.6116 4.63269 71.6493 4.62689 71.6899 4.62109L71.0811 4.70226C71.2579 4.68487 71.429 4.67327 71.6087 4.69356L71.0028 4.61239C71.1623 4.63558 71.3101 4.67327 71.4609 4.73125L70.9217 4.50513C71.0898 4.5747 71.2406 4.66747 71.3855 4.77474L70.9333 4.42685C71.1101 4.56601 71.2608 4.72255 71.4 4.8994L71.055 4.45294C71.229 4.68487 71.3739 4.93418 71.4928 5.198L71.2753 4.67907C71.3362 4.82402 71.3826 4.96897 71.4087 5.12552L71.3333 4.55441C71.342 4.63558 71.342 4.71096 71.3333 4.79503L71.4087 4.22392C71.3913 4.31089 71.3681 4.39496 71.3362 4.47614L71.5536 3.96301C71.516 4.04418 71.4725 4.11666 71.4203 4.19203L71.7566 3.75718C71.6783 3.85864 71.5913 3.94561 71.4928 4.02389L71.9276 3.6876C71.8088 3.77747 71.6841 3.84705 71.5478 3.90503L72.061 3.6876C71.9305 3.73688 71.8001 3.77167 71.658 3.79197L72.232 3.71369C72.0175 3.73978 71.8059 3.73398 71.5913 3.70789L72.1653 3.78617C71.7595 3.72819 71.3507 3.61512 70.9738 3.45568L71.4899 3.6731C71.4 3.63252 71.3159 3.58613 71.2348 3.52815L71.6725 3.86734C71.6116 3.82096 71.5594 3.77167 71.5102 3.71369L71.8493 4.15145C71.7972 4.08187 71.7537 4.01229 71.7189 3.93112L71.9363 4.44715C71.8986 4.34858 71.8725 4.25291 71.858 4.14855L71.9363 4.72545C71.9189 4.56021 71.9247 4.40076 71.9479 4.23552L71.8696 4.81243C71.9189 4.48483 72.0204 4.16304 72.1451 3.85574L71.9247 4.37467C72.032 4.12535 72.1451 3.87604 72.2465 3.62382L72.0291 4.13985C72.0813 4.02389 72.1393 3.91662 72.2146 3.81226L71.8812 4.24421C71.945 4.16304 72.0117 4.09346 72.0929 4.02969L71.6667 4.35728C71.7769 4.279 71.887 4.19493 72.0088 4.13695L71.5276 4.33988C71.5826 4.31959 71.6348 4.30509 71.6899 4.2935L71.1681 4.36307C71.2435 4.35438 71.313 4.35438 71.3884 4.36307L70.884 4.2964C70.9767 4.31089 71.0608 4.33698 71.1478 4.37467L70.7129 4.19203C70.7854 4.22682 70.8463 4.26451 70.913 4.30799L70.5564 4.03258C70.8434 4.27031 71.1101 4.54861 71.3391 4.84142L71.0898 4.51962C71.2203 4.69067 71.3304 4.86751 71.4174 5.06174L71.2666 4.70516C71.2985 4.78633 71.3246 4.86171 71.3362 4.94868L71.284 4.56021C71.2956 4.67907 71.2956 4.79213 71.284 4.91099L71.3362 4.52252C71.3188 4.64718 71.2869 4.76314 71.2406 4.8791L71.3884 4.53122C71.3304 4.66168 71.2608 4.78343 71.1768 4.8965L71.4058 4.6008C71.3159 4.71386 71.2174 4.81242 71.1043 4.90229L71.3971 4.67617C71.2811 4.76314 71.1623 4.83272 71.0318 4.8907L71.3768 4.74575C71.2608 4.79213 71.1449 4.82402 71.0202 4.84431L71.4058 4.79213C71.2811 4.80663 71.1594 4.80663 71.0347 4.79213L71.4174 4.84431C71.2927 4.82402 71.1768 4.79213 71.0608 4.74285L71.4058 4.8878C71.2927 4.83562 71.1884 4.77474 71.0869 4.69936L71.3768 4.92549C71.2637 4.83562 71.1652 4.73705 71.0724 4.62689L71.2956 4.91679C71.2087 4.80373 71.1362 4.68197 71.0782 4.55151L71.2232 4.8936C71.1681 4.76024 71.1304 4.62689 71.1101 4.48773L71.1623 4.86751C71.1449 4.69646 71.1507 4.51672 71.171 4.34568L71.1217 4.71676C71.142 4.5979 71.1739 4.48483 71.2203 4.37177L71.084 4.69356C71.1594 4.52542 71.2261 4.35728 71.2956 4.18623L71.1623 4.49933C71.2174 4.37467 71.2811 4.26161 71.3623 4.15145L71.1739 4.39496C71.2174 4.33988 71.2637 4.2935 71.3072 4.23842C71.3884 4.16304 71.3507 4.18623 71.1942 4.31089C71.3217 4.24132 71.4261 4.14565 71.5044 4.02679C71.6029 3.91952 71.6667 3.79486 71.7015 3.64991C71.6754 3.77747 71.6145 3.88473 71.5247 3.9746C71.5884 3.90213 71.6464 3.82385 71.6986 3.74558C71.5942 3.87604 71.571 3.90503 71.6319 3.83255C71.8117 3.61802 71.9044 3.4006 71.8667 3.11939C71.832 2.86427 71.6928 2.62655 71.4609 2.499V2.51059Z" fill="#FAF5EB"/>
</g>
<defs>
<clipPath id="clip0_11_542">
<rect width="86.6347" height="79.3727" fill="white"/>
</clipPath>
</defs>
</svg>
