<svg width="121" height="78" viewBox="0 0 121 78" fill="none" xmlns="http://www.w3.org/2000/svg">
<g clip-path="url(#clip0_582_8)">
<path d="M89.8178 30.4269C90.4138 30.4269 91.0588 30.3276 91.6651 30.1383C92.7771 29.8187 93.2441 29.6201 93.7678 29.6201C93.9252 29.6201 94.08 29.6418 94.2632 29.676C94.5857 29.7411 94.9159 29.7753 95.2539 29.7753C96.1182 29.7753 96.8071 29.6418 97.3489 29.3005C98.6982 28.4502 98.4789 27.4231 97.9371 26.6039C97.6894 26.2284 97.5243 26.0515 97.3592 26.0515C97.176 26.0515 96.9928 26.306 96.6884 26.8242C96.4227 27.2865 96.0821 27.6868 95.6125 27.6868C95.5403 27.6868 95.4655 27.6744 95.3932 27.6527C95.2101 27.5969 95.5687 27.5193 96.0357 26.0298C96.2008 25.4991 96.2756 24.9126 96.2756 24.2517C96.2756 23.9414 96.2214 23.4666 96.1182 23.0042C95.8705 21.8653 95.3571 21.735 94.0232 21.6016C92.6816 21.4681 93.0506 21.5364 93.4918 23.6683C93.7394 24.8071 93.5201 25.4247 93.097 25.4247C92.7307 25.4247 92.2147 24.9933 91.6909 24.0562C90.6357 22.1788 91.1027 21.7257 92.6197 19.9693C93.1899 19.3053 93.5743 18.5233 93.5743 17.6047C93.5743 16.2456 92.7487 14.8864 90.6357 14.8864C87.4494 14.8864 86.696 17.3503 86.696 19.0942C86.696 19.4697 86.7141 19.8452 86.7682 20.2207C86.8869 21.192 86.4922 21.3813 85.3802 23.3145C84.9674 24.0313 84.7197 24.8289 84.7197 25.6791C84.7197 27.8761 86.6754 30.43 89.8178 30.43V30.4269ZM90.0217 18.7715C90.0217 17.9647 90.3338 16.739 91.0588 16.739C91.2239 16.739 91.4897 16.8724 91.4897 17.2572C91.4897 17.5768 91.3246 17.9213 91.0666 18.2502C90.5531 18.9143 90.2487 19.088 90.1119 19.088C90.0578 19.088 90.0191 19.0539 90.0191 19.0011V18.7684L90.0217 18.7715ZM87.9447 24.4844C88.1382 24.4844 88.4969 25.0368 89.3405 26.2066C90.6821 28.0965 91.0666 28.2299 90.5428 28.3385C90.3313 28.382 90.13 28.4161 89.9184 28.4161C88.3756 28.4161 87.6326 27.1686 87.6326 25.6326C87.6326 25.434 87.7048 24.4844 87.9447 24.4844ZM31.8011 37.0211C36.7263 37.0211 39.4018 33.4059 40.3667 30.3028C40.795 28.9809 40.9782 27.6589 40.9782 26.3059C40.9782 22.2626 38.8265 15.7677 31.863 15.7677C29.4688 15.7677 27.5983 16.5776 26.1921 17.7816C23.1116 20.4255 23.0884 22.427 22.8072 24.2051C22.6962 24.9095 22.6472 25.6015 22.6472 26.3059C22.6472 33.0087 26.9868 37.0211 31.8011 37.0211ZM31.8604 18.5015C34.9771 18.5015 36.6128 22.5729 36.6128 26.3059C36.6128 26.8366 36.587 27.3796 36.5148 27.9072C36.3677 29.2446 36.5019 30.6566 34.5952 32.8753C33.8367 33.7566 32.8718 34.2996 31.7959 34.2996C28.6922 34.2996 26.9816 30.0235 26.9816 26.3028C26.9816 22.5822 28.6561 18.4984 31.8579 18.4984L31.8604 18.5015ZM51.84 37.0211C56.7653 37.0211 59.4408 33.4059 60.4057 30.3028C60.834 28.9809 61.0172 27.6589 61.0172 26.3059C61.0172 22.2626 58.8654 15.7677 51.902 15.7677C49.5077 15.7677 47.6372 16.5776 46.2311 17.7816C43.1506 20.4255 43.1273 22.427 42.8461 24.2051C42.7352 24.9095 42.6862 25.6015 42.6862 26.3059C42.6862 33.0087 47.0232 37.0211 51.84 37.0211ZM51.902 18.5015C55.0186 18.5015 56.6544 22.5729 56.6544 26.3059C56.6544 26.8366 56.6311 27.3796 56.5563 27.9072C56.4093 29.2446 56.5434 30.6566 54.6368 32.8753C53.8783 33.7566 52.9133 34.2996 51.8375 34.2996C48.7337 34.2996 47.0232 30.0235 47.0232 26.3028C47.0232 22.5822 48.6976 18.4984 51.8994 18.4984L51.902 18.5015ZM64.2551 22.3246V30.5107C64.2551 31.8047 64.1338 33.0398 63.7674 34.1104C62.8257 36.8722 62.5213 36.6239 66.2365 36.6239H70.6483C75.1324 36.6239 80.4859 32.9777 80.4859 26.3059C80.4859 19.6342 75.0731 16.0314 70.6483 16.0314H66.1385C62.3381 16.0314 62.4981 15.929 63.6333 18.8088C64.0487 19.8669 64.2318 21.0585 64.2576 22.3215L64.2551 22.3246ZM70.9399 19.237C71.6004 19.237 72.4311 19.6342 73.4322 20.472C74.8383 21.6481 75.8264 23.4542 75.8264 26.0267C75.8264 28.5992 74.8615 30.5231 73.4554 31.8482C72.4156 32.8474 71.5617 33.3035 70.8883 33.3035C69.2887 33.3035 68.6153 30.7621 68.6153 26.3215C68.6153 21.8809 69.2629 19.237 70.9373 19.237H70.9399ZM1.61495 9.26038C-0.167834 4.92528 0.373969 5.13009 10.2838 5.13009C20.1936 5.13009 22.0693 5.89657 22.0693 9.98341C22.0693 11.9477 22.108 12.7142 21.77 12.7142C21.432 12.7142 20.6451 11.8577 18.9372 10.7064C17.6987 9.87169 16.2359 9.53345 14.3576 9.35347H11.806C9.64911 9.35347 9.23373 10.03 9.23373 13.6203C9.23373 17.2106 9.66459 17.8871 11.8808 17.8871H14.4892C16.272 17.7971 17.2859 17.3689 17.98 16.6924C18.5811 16.1059 18.9372 15.7211 19.1616 15.7211C19.5177 15.7211 19.4428 16.8507 19.4428 19.9879C19.4428 23.1252 19.5177 24.2765 19.1616 24.2765C18.9372 24.2765 18.5811 23.8917 17.98 23.3052C17.2859 22.6287 16.272 22.2005 14.4892 22.1105H11.8808C9.66717 22.1105 9.23373 22.4487 9.23373 24.2765C9.23373 26.1042 8.57583 27.6403 9.89163 32.1988C11.2436 37.0521 11.8808 36.7573 5.89519 36.7573C-0.0904341 36.7573 0.340428 37.0956 1.80329 32.7388C3.2094 28.5619 2.53602 26.3494 2.53602 21.0678V14.7933C2.53602 12.6707 2.2548 10.843 1.61753 9.26348L1.61495 9.26038ZM38.8084 70.7554C39.2367 69.4334 39.4199 68.1115 39.4199 66.7585C39.4199 62.7151 37.2681 56.2203 30.3047 56.2203C27.9104 56.2203 26.0399 57.0302 24.6338 58.2342C21.5559 60.8781 21.5301 62.8796 21.2488 64.6577C21.1379 65.3621 21.0915 66.0541 21.0915 66.7585C21.0915 73.4613 25.4285 77.4737 30.2428 77.4737C35.0571 77.4737 37.8435 73.8585 38.8084 70.7554ZM25.4259 66.7585C25.4259 62.9231 27.1003 58.9541 30.3021 58.9541C33.5039 58.9541 35.0545 63.0255 35.0545 66.7585C35.0545 67.2892 35.0313 67.8322 34.9565 68.3598C34.8094 69.6972 34.9436 71.1091 33.0369 73.3279C32.2784 74.2092 31.3135 74.7522 30.2376 74.7522C27.1339 74.7522 25.4233 70.4761 25.4233 66.7554L25.4259 66.7585ZM47.4721 74.1068C47.1289 72.8717 47.0567 71.5063 47.0206 70.3582V69.8431C47.0206 69.4303 47.1186 69.3435 47.5572 69.3279C47.9855 69.3124 48.2771 69.6662 49.4639 71.4722C50.6481 73.2938 51.3937 73.7654 51.6749 75.5715C51.871 76.8344 52.0413 77.0703 55.354 77.0703C58.6668 77.0703 58.8009 77.1882 57.4671 75.6894C56.9175 75.0439 56.3912 74.3085 55.9629 73.6475L54.3014 71.0905C52.8953 68.9587 53.7157 69.179 55.8287 66.2248C56.5486 65.2411 56.9046 64.0495 56.9046 62.712C56.9046 59.3762 53.984 56.4809 49.6832 56.4809H44.856C40.7873 56.4809 40.9576 56.3351 42.0334 59.2148C42.4256 60.2885 42.6088 61.567 42.681 63.1961V70.3551C42.6449 71.5001 42.5701 72.8686 42.2295 74.1037C41.3497 77.2627 40.9576 77.0734 44.8456 77.0734C48.7337 77.0734 48.3416 77.2503 47.4721 74.1037V74.1068ZM47.7636 59.2334H48.4835C50.7435 59.2334 52.307 60.8781 52.307 62.8641C52.307 65.3621 50.5475 66.5692 47.4076 66.5692H47.2244C47.0541 66.5692 47.018 65.9827 47.018 62.8951C47.018 59.8075 47.1393 59.2365 47.7636 59.2365V59.2334ZM61.915 70.9602V62.7741C61.915 61.4801 61.7318 60.2916 61.3164 59.2334C60.1554 56.3816 60.5089 56.484 66.9744 56.484C73.4399 56.484 74.6603 56.9836 74.6603 59.643C74.6603 60.9215 74.6964 61.4056 74.49 61.4056C74.2707 61.4056 73.7701 60.8191 72.6582 60.0247C71.8764 59.4661 70.9115 59.2303 69.6396 59.2303H67.9651C66.5487 59.2303 66.2778 59.671 66.2778 62.0076C66.2778 64.3443 66.559 64.7849 68.0012 64.7849H69.6989C70.8599 64.726 71.5307 64.4467 71.9848 64.0061C72.3769 63.6244 72.6091 63.373 72.7536 63.373C72.9987 63.373 72.9497 64.1085 72.9497 66.1503C72.9497 68.1922 72.9987 68.9432 72.7536 68.9432C72.6066 68.9432 72.3744 68.6949 71.9848 68.3101C71.5333 67.8695 70.8599 67.5902 69.6989 67.5312H68.0012C66.559 67.5312 66.2778 68.0743 66.2778 70.9105C66.2778 73.7468 66.5461 74.3054 67.9651 74.3054H69.6396C70.6664 74.3054 71.6545 74.0106 72.5601 73.4241C73.8063 72.6173 74.4539 72.0587 74.7712 72.0587C75.0885 72.0587 75.1143 72.5862 75.1143 73.8958C75.1143 76.5552 73.8553 77.0703 67.2943 77.0703C60.7333 77.0703 60.4883 77.2906 61.43 74.4264C61.7963 73.3093 61.9176 72.0742 61.9176 70.9571L61.915 70.9602ZM90.3751 71.2115C90.3751 74.6933 87.3462 77.4737 82.9576 77.4737C81.3812 77.4737 79.6706 77.151 78.3136 76.2542C75.0627 74.1068 76.1257 71.376 77.9962 70.1999C78.4864 69.8896 78.778 69.7438 78.974 69.7438C79.5107 69.7438 79.2682 70.9043 80.4034 73.0362C80.94 74.0509 81.8688 74.6374 82.9215 74.6374C84.7429 74.6374 85.9401 73.7127 85.9401 72.1983C85.9401 71.0812 85.2202 70.3023 84.3405 69.7158C82.2997 68.3939 80.9426 68.8935 78.3781 66.4234C77.4002 65.4831 76.7036 64.2326 76.7036 62.4855C76.7036 57.8401 80.2976 56.2234 83.2156 56.2234C86.7218 56.2234 89.2038 57.8991 89.6192 60.8533L89.6553 61.117C89.6914 61.3529 89.3508 61.5732 87.5036 62.4545C86.8431 62.7772 86.4896 62.9541 86.3064 62.9541C85.9762 62.9541 86.1594 62.3676 86.0252 60.8533C85.8059 58.4731 84.3766 58.9728 84.1547 58.9572H83.9354C82.3951 58.9572 81.5902 60.1333 81.5902 61.6042C81.5902 63.3234 82.8724 63.9843 83.8864 64.4995C86.4148 65.6755 90.3751 66.7182 90.3751 71.2178V71.2115ZM105.822 59.643C105.822 60.9215 105.845 61.4211 105.626 61.4211C105.393 61.4211 104.88 60.8626 103.768 60.1147C103.206 59.733 102.741 59.5561 102.362 59.5561C101.201 59.5561 100.811 61.2908 100.811 64.788V70.3582C100.847 71.5032 100.922 72.8717 101.263 74.1068C102.13 77.2534 102.532 77.0765 98.6466 77.0765C94.7611 77.0765 95.1636 77.2689 96.0434 74.1068C96.3736 72.8717 96.4588 71.5063 96.482 70.3582V64.788C96.482 61.2908 96.1027 59.5406 94.9417 59.5406C94.5496 59.5406 94.0852 59.733 93.5124 60.1147C92.4004 60.8502 91.8999 61.4087 91.6677 61.4087C91.4587 61.4087 91.4845 60.9246 91.4845 59.6461C91.4845 56.9867 92.6326 56.4871 98.657 56.4871C104.681 56.4871 105.816 56.9867 105.816 59.6461L105.822 59.643ZM120.063 23.2307C118.678 22.5605 117.045 23.0911 115.837 24.0407C114.596 25.0181 113.613 26.3897 112.316 27.2772C112.181 27.3703 112.042 27.451 111.905 27.5317C111.616 27.5907 111.325 27.6465 111.036 27.6931C110.891 27.7179 110.726 27.7613 110.577 27.8358C111.16 26.4487 111.681 25.0212 112.117 23.5597C112.772 23.4324 113.42 23.0725 114.021 22.7653C114.622 22.458 115.208 22.1105 115.773 21.7195C116.944 20.9158 118.033 19.929 119.003 18.7994C119.217 18.5481 119.439 18.2967 119.627 18.0174C119.932 17.5644 120.001 16.9438 119.645 16.4938C119.153 15.8701 118.149 16.0128 117.532 16.2114C116.186 16.6397 114.996 17.8344 114.013 18.9732C113.626 19.4232 113.255 19.8949 112.904 20.382C112.937 20.2176 112.973 20.0531 113.002 19.8855C113.211 18.7343 113.35 17.5706 113.425 16.4007C113.482 16.379 113.538 16.3511 113.598 16.3107C113.74 16.2114 113.876 16.0997 114.013 15.988C114.276 15.7739 114.527 15.5411 114.774 15.3022C115.272 14.8212 115.757 14.3247 116.204 13.7723C117.083 12.6831 117.821 11.4295 118.373 10.0641C118.557 9.60793 118.17 9.03385 117.765 9.33175C116.655 10.151 115.628 11.1347 114.759 12.3015C114.294 12.9252 113.848 13.6203 113.489 14.365C113.495 13.853 113.495 13.3441 113.479 12.8352C113.451 12.0408 113.453 11.234 113.353 10.4458C113.309 10.0889 113.322 9.71964 113.329 9.35968C113.691 8.497 113.98 7.58157 114.289 6.69408C114.619 5.74451 114.934 4.78564 115.218 3.81436C115.572 2.61034 116.069 0.642943 114.746 0.0192111C114.601 -0.0490581 114.418 0.0657583 114.346 0.214709C113.342 2.26278 112.927 4.52808 112.718 6.84303C112.71 6.8213 112.703 6.79958 112.695 6.77786C112.661 6.68477 112.625 6.59167 112.586 6.49858C112.553 6.4179 112.522 6.33101 112.478 6.25653C112.434 6.18206 112.39 6.11068 112.339 6.04552C112.287 5.98035 112.223 5.9245 112.166 5.87485C112.107 5.82209 112.037 5.79106 111.97 5.76003C111.957 5.75382 111.947 5.74762 111.934 5.74451C111.926 5.74451 111.918 5.74141 111.91 5.73831C111.861 5.729 111.807 5.71658 111.756 5.71348C111.578 5.70417 111.374 5.80658 111.258 5.97104C111.18 6.07965 111.116 6.19447 111.09 6.34032C111.075 6.43031 111.062 6.52651 111.064 6.6227C111.064 6.67235 111.069 6.7189 111.075 6.76855C111.085 6.86785 111.095 6.97025 111.113 7.06645C111.131 7.16265 111.157 7.25885 111.185 7.35194C111.26 7.58778 111.348 7.81431 111.456 8.03153C111.562 8.23944 111.663 8.45045 111.779 8.65216C111.838 8.75767 111.898 8.86007 111.957 8.96558C111.985 9.01523 112.014 9.06488 112.042 9.11453C112.091 9.19831 112.145 9.27899 112.197 9.35968C112.176 9.32554 112.156 9.29451 112.132 9.26038C112.14 9.27899 112.148 9.29451 112.158 9.31313C112.199 9.40002 112.248 9.45587 112.318 9.50863C112.292 9.4838 112.264 9.45898 112.238 9.43415C112.261 9.45898 112.285 9.4807 112.305 9.50552C112.328 9.53656 112.359 9.56138 112.393 9.5831C112.424 9.66378 112.473 9.73205 112.537 9.78481C112.537 9.84377 112.532 9.90273 112.53 9.96169C112.514 10.3651 112.437 10.7561 112.411 11.1595C112.362 11.9229 112.316 12.6894 112.287 13.4558C112.269 13.9368 112.246 14.4178 112.22 14.8988C112.114 14.4488 111.993 14.0051 111.856 13.5644C111.652 12.9159 111.431 12.2766 111.191 11.6467C110.989 11.1192 110.78 10.6102 110.442 10.1851C110.135 9.80032 109.632 9.41553 109.171 9.4838C108.567 9.57069 108.44 10.4116 108.451 11.0137C108.466 11.7832 108.706 12.5187 108.98 13.2045C109.238 13.8468 109.516 14.483 109.816 15.0974C110.133 15.7522 110.476 16.3852 110.842 16.9996C111.026 17.3099 111.211 17.6171 111.407 17.9181C111.425 17.9461 111.446 17.9771 111.464 18.005C111.469 18.0143 111.472 18.0237 111.474 18.033C111.526 18.1385 111.606 18.2409 111.699 18.3247C111.751 18.3805 111.807 18.4302 111.869 18.4674C111.523 20.7792 110.912 23.0197 110.13 25.1702C110.117 25.1268 110.102 25.0833 110.086 25.0368C109.978 24.4844 109.792 23.9476 109.65 23.4169C109.439 22.6318 109.261 21.8374 109.101 21.0337C108.778 19.4263 108.52 17.8002 108.206 16.1928C108.035 15.3332 107.891 14.1075 106.949 14.0827C106.064 14.0578 105.675 15.2184 105.706 16.109C105.734 17.0089 106.002 17.8437 106.278 18.666C106.552 19.4852 106.818 20.32 107.153 21.1051C107.481 21.8716 107.777 22.6535 108.087 23.4324C108.131 23.6031 108.175 23.7769 108.221 23.9476C108.448 24.773 108.693 25.7319 109.256 26.3153C109.305 26.3649 109.359 26.4052 109.416 26.4332C109.465 26.4983 109.521 26.5511 109.583 26.5914C109.547 26.6783 109.514 26.7683 109.48 26.8552C109.083 27.8203 108.652 28.7667 108.203 29.7008C108.175 29.6636 108.149 29.6232 108.123 29.5829C107.891 29.2322 107.744 28.8133 107.561 28.4254C107.158 27.572 106.967 26.6318 106.719 25.7039C106.173 23.6621 105.019 21.9026 103.995 20.1803C103.732 19.7366 103.469 19.2959 103.206 18.8522C103.002 18.5077 102.749 18.0454 102.349 18.3402C101.797 18.7498 101.65 19.6931 101.699 20.4069C101.761 21.2975 102.057 22.1508 102.393 22.9421C102.772 23.8358 103.234 24.6768 103.696 25.5115C104.222 26.458 104.759 27.4138 105.45 28.1989C106.08 28.9157 106.776 29.5456 107.47 30.1694C107.486 30.1911 107.504 30.2128 107.519 30.2314C107.604 30.34 107.69 30.4517 107.78 30.5542C107.697 30.7217 107.615 30.8862 107.53 31.0538C106.936 32.2112 106.353 33.3873 105.726 34.52C105.68 33.9583 105.218 33.3842 104.952 32.9901C104.586 32.4533 104.302 31.8637 104.083 31.2213C103.631 29.887 103.376 28.4378 102.653 27.2586C102.295 26.6752 101.761 25.9212 101.09 25.9863C100.303 26.0639 100.244 27.2896 100.365 28.0003C100.504 28.8257 100.904 29.5829 101.258 30.2935C101.59 30.9607 101.944 31.6092 102.336 32.2267C102.777 32.9219 103.257 33.5828 103.825 34.1352C104.284 34.582 104.769 34.9979 105.321 35.2306C105.174 35.4819 105.024 35.7333 104.87 35.9816C104.872 35.876 104.859 35.7705 104.844 35.6681C104.844 35.6588 104.844 35.6557 104.841 35.6464C104.841 35.6402 104.841 35.6371 104.841 35.6278C104.823 35.3671 104.738 35.1375 104.542 35.001C104.338 34.8582 104.137 34.8923 103.933 35.001C103.435 35.2647 103.043 35.7923 102.862 36.4067C102.795 36.4129 102.728 36.4253 102.659 36.4408C102.303 36.5184 101.949 36.627 101.596 36.7201C101.209 36.8225 100.822 36.9218 100.437 37.0242C100.249 37.0739 100.063 37.1359 99.885 37.2259C99.8515 37.1794 99.8154 37.1359 99.7715 37.1049C99.6838 37.0087 99.5832 36.9435 99.4671 36.9125C99.3871 36.9001 99.3071 36.8877 99.2271 36.8753C99.0646 36.8753 98.9149 36.9249 98.773 37.0242C98.724 37.049 98.6802 37.0801 98.6363 37.1173C98.5357 37.2042 98.4273 37.2942 98.3448 37.409C98.2648 37.5176 98.1848 37.6355 98.1229 37.7659C98.0919 37.831 98.0713 37.9024 98.0455 37.9707C97.9836 38.1475 97.95 38.2344 97.9526 38.4517C97.9629 38.5448 97.9732 38.6378 97.9836 38.734C98.0119 38.8706 98.0635 38.9916 98.141 39.094C98.1796 39.1747 98.2338 39.2368 98.2983 39.2833C98.337 39.3267 98.3783 39.3578 98.4222 39.3888C98.4557 39.4416 98.4893 39.4943 98.5254 39.544C98.5383 39.5626 98.5512 39.5812 98.5641 39.5967C98.5641 39.5967 98.5692 39.5998 98.5718 39.6029C97.5966 40.2577 96.6445 40.99 95.6822 41.6355C95.3416 41.8651 94.9933 42.0854 94.6399 42.2871C94.547 42.3399 94.4515 42.3926 94.3561 42.4454C94.3406 42.4547 94.2916 42.4795 94.2477 42.5013C94.2167 42.3958 94.1858 42.2902 94.1574 42.1847C94.1084 41.9892 94.0671 41.7906 94.0361 41.5889C94.031 41.5579 94.0181 41.4338 94.0129 41.409C94.0026 41.2879 93.9949 41.1669 93.9897 41.0459C93.982 40.8411 93.9846 40.6363 93.9949 40.4346C94 40.3446 94.0078 40.2515 94.0155 40.1615C94.0155 40.1553 94.0155 40.1522 94.0155 40.146C94.0258 40.0777 94.0361 40.0125 94.0465 39.9474C94.0697 39.9163 94.0903 39.8822 94.1161 39.8512C94.2038 39.7426 94.2606 39.606 94.2787 39.4509C94.2942 39.3236 94.2787 39.1995 94.2374 39.0847C94.2658 38.9637 94.2967 38.8396 94.3225 38.7185C94.5212 37.8093 94.6218 36.7449 94.1394 35.9319C93.6904 35.1747 92.9887 34.8055 92.2224 34.9296C91.58 35.032 90.9737 35.4199 90.5273 35.9878C89.9778 36.686 89.7507 37.5642 89.743 38.5137C89.7404 38.8923 89.7714 39.2678 89.8204 39.6402C89.8075 39.6805 89.792 39.7208 89.7766 39.7612C89.6295 40.2142 89.7662 40.7014 90.0345 41.049C90.0603 41.2135 90.0836 41.3779 90.1016 41.5455C90.1016 41.5424 90.1171 41.7224 90.1197 41.7503C90.1248 41.8403 90.13 41.9272 90.1352 42.0172C90.1429 42.2251 90.1403 42.433 90.13 42.6409C90.1248 42.7309 90.1197 42.8178 90.1119 42.9078C90.1119 42.9295 90.112 42.9419 90.1094 42.9543C90.1094 42.9636 90.1068 42.976 90.1016 42.9978C90.0707 43.2026 90.0371 43.4043 89.9933 43.606C89.9546 43.7798 89.9107 43.9504 89.8617 44.118C89.8359 44.2018 89.8101 44.2856 89.7843 44.3694C89.7843 44.3725 89.7766 44.3911 89.7714 44.4097C89.7585 44.4407 89.7404 44.4935 89.7353 44.5028C89.5985 44.8565 89.436 45.1948 89.2502 45.5175C89.2115 45.5858 89.1702 45.6541 89.129 45.7223C89.098 45.7658 89.0696 45.8123 89.0387 45.8558C88.9329 46.0047 88.8219 46.1506 88.7058 46.2902C88.5975 46.4174 88.4865 46.5416 88.3704 46.6595C88.3472 46.6843 88.2466 46.7805 88.2363 46.7898C88.1769 46.8426 88.115 46.8953 88.0557 46.945C87.4158 47.4694 86.8534 47.7176 86.1104 47.9566C85.3312 48.2048 84.534 48.3662 83.7419 48.5369C82.8957 48.72 82.1062 48.8813 81.3038 48.9713C80.4498 49.0675 79.5907 49.083 78.7367 48.9899C77.9627 48.9061 77.2196 48.7448 76.4018 48.5617C75.5762 48.3755 74.7531 48.1893 73.9249 48.0435C70.6148 47.4632 67.2711 47.3484 63.9326 47.3235C61.8066 47.308 59.6781 47.3204 57.5496 47.2522C57.4413 47.1436 57.3252 47.0412 57.1962 46.9574C57.0052 46.8332 56.8092 46.7246 56.6182 46.5974C56.2415 46.343 55.8803 46.0575 55.532 45.7502C55.5166 45.7378 55.5088 45.7285 55.4985 45.7192C55.4779 45.6975 55.4624 45.6789 55.4598 45.6758C55.3824 45.5982 55.305 45.5206 55.2302 45.443C55.0006 45.201 54.7838 44.9217 54.5207 44.7293C54.2059 44.4966 53.8396 44.3725 53.4706 44.3942C53.1223 44.4128 52.8695 44.5338 52.5547 44.6797C52.3535 44.7728 52.1445 44.8379 51.9303 44.8845C51.8813 44.8938 51.6956 44.9186 51.8581 44.9031C51.7188 44.9217 51.582 44.9372 51.4427 44.9496C50.937 44.9993 50.4314 45.0489 49.9283 45.0955C48.8911 45.1948 47.8539 45.3499 46.8193 45.4772C46.7394 45.4865 46.6594 45.4958 46.5794 45.5082C45.9138 45.2817 45.2507 45.0427 44.5825 44.8069C42.89 44.2111 41.1898 43.907 39.425 43.9256C37.6887 43.9442 35.9498 44.1149 34.216 44.2297C30.6968 44.4655 27.1777 44.6859 23.6612 44.9621C21.2566 45.1513 18.8417 45.2972 16.4449 45.6106C14.822 45.3996 12.5748 45.2631 9.46593 45.2631C-0.443895 45.2631 -0.985698 45.0614 0.79451 49.3933C1.43177 50.9728 1.71299 52.8006 1.71299 54.9231V61.1977C1.71299 66.4793 2.38896 68.6918 0.980271 72.8686C-0.482596 77.2254 -0.895398 76.8872 5.07217 76.8872C11.0397 76.8872 10.4205 77.182 9.06861 72.3287C7.75538 67.7702 8.41329 66.2341 8.41329 64.4064C8.41329 62.5786 8.84415 62.2404 11.0604 62.2404H13.6688C15.4516 62.3304 16.4655 62.7586 17.1595 63.4351C17.7607 64.0216 18.1167 64.4064 18.3412 64.4064C18.6972 64.4064 18.6224 63.2768 18.6224 60.1178C18.6224 56.9588 18.6972 55.851 18.3412 55.851C18.1167 55.851 17.7607 56.2358 17.1595 56.8223C16.4655 57.4988 15.4516 57.927 13.6688 58.017H11.0604C8.84673 58.017 8.41329 57.3405 8.41329 53.7502C8.41329 52.5399 8.45973 51.6648 8.60421 51.0318C8.96799 51.2118 9.34209 51.4011 9.71877 51.519C11.4783 52.0652 13.2843 52.3413 15.0955 52.0838C16.868 51.8324 18.5605 51.2428 20.2633 50.616C21.0837 50.315 21.9042 50.0202 22.7401 49.7874C22.9646 49.7254 23.1916 49.6664 23.4186 49.6137C24.0146 49.6013 24.6132 49.6137 25.2092 49.6292C26.5069 49.6664 27.8047 49.685 29.105 49.6726C29.3088 49.6726 29.5126 49.6633 29.7164 49.6602C30.0931 49.7037 30.4698 49.7409 30.8491 49.7719C32.7402 49.9178 34.5978 49.6602 36.4632 49.3251C36.6386 49.3096 36.8141 49.3003 36.9895 49.2847C37.2398 49.263 37.4849 49.232 37.7325 49.1978C38.086 49.2599 38.4446 49.294 38.7903 49.3313C39.7011 49.4244 40.617 49.4492 41.5277 49.5082C41.9896 49.5392 42.4514 49.5578 42.9106 49.5981C43.1016 49.6137 43.2899 49.6354 43.4808 49.6633C43.4266 49.654 43.5092 49.6633 43.5685 49.6726C43.6124 49.6788 43.6562 49.6881 43.7001 49.6912C43.6614 49.685 43.6304 49.6819 43.6046 49.6788C43.7259 49.7037 43.8498 49.7285 43.971 49.7564C44.4122 49.8588 44.8456 50.0016 45.2636 50.194C45.2739 50.2002 45.2868 50.2033 45.2971 50.2095C45.3797 50.2591 45.4648 50.3057 45.5474 50.3522C45.8312 50.5136 46.1227 50.6718 46.4194 50.8022C47.1057 51.1032 47.8978 51.128 48.5557 50.7091C48.9298 50.4701 49.1439 50.1381 49.3916 49.7564C49.4019 49.7471 49.4123 49.7347 49.4226 49.7254C49.4406 49.6975 49.4406 49.6912 49.4277 49.7006C49.4664 49.6478 49.4871 49.6416 49.4716 49.6757C49.5903 49.5578 49.6986 49.4399 49.7864 49.232C49.8122 49.173 49.8328 49.111 49.8534 49.0489C51.1073 49.2103 52.3586 49.3995 53.6099 49.6012C53.6177 49.6012 53.6203 49.6012 53.6254 49.6012C53.6873 49.6106 53.7493 49.623 53.8112 49.6323C53.9118 49.6478 54.0098 49.6633 54.1105 49.6819C54.3607 49.7223 54.6084 49.7626 54.8587 49.8061C55.3437 49.8867 55.8313 49.9674 56.3164 50.0481C57.2736 50.2064 58.2333 50.3646 59.1905 50.5229C63.0399 51.159 66.8867 51.7983 70.7361 52.4313C74.6009 53.0706 78.489 53.7967 82.4003 53.775C85.8523 53.7533 89.307 53.0923 92.4649 51.3638C93.9201 50.5663 95.2746 49.5144 96.4639 48.2297C97.5269 47.0815 98.3886 45.7068 99.2787 44.3725C99.4774 44.0746 99.6761 43.7829 99.8825 43.4912C100.089 43.3919 100.293 43.2832 100.491 43.1529C100.956 42.8457 101.402 42.5013 101.825 42.1196C102.504 41.5114 103.133 40.838 103.696 40.0839C103.706 40.0808 103.716 40.0777 103.727 40.0746C104.387 39.8667 105.05 39.7022 105.669 39.3423C106.01 39.1437 106.281 38.8364 106.487 38.4548C106.575 38.2934 106.642 38.101 106.689 37.9148C106.719 37.7876 106.732 37.651 106.745 37.5207C106.75 37.4773 106.756 37.4338 106.756 37.3904L106.743 37.2756C106.722 37.1297 106.725 37.1204 106.753 37.2507C106.792 36.7946 106.402 36.4036 106.049 36.4036C106.023 36.4036 105.997 36.4098 105.971 36.4129C106.131 36.1708 106.289 35.9288 106.443 35.6868C106.609 35.7271 106.779 35.7395 106.949 35.755C107.207 35.7799 107.468 35.7954 107.728 35.8016C108.247 35.8171 108.768 35.7954 109.287 35.7395C110.347 35.6247 111.371 35.3609 112.39 35.001C113.384 34.6534 114.385 34.3183 115.35 33.8652C116.106 33.5114 116.991 33.0274 117.202 31.994C117.249 31.7644 117.104 31.451 116.88 31.482C116.418 31.5441 115.915 31.4665 115.45 31.451C115.001 31.4354 114.55 31.4168 114.101 31.451C113.208 31.5192 112.396 31.873 111.578 32.2795C110.342 32.897 109.093 33.4804 107.87 34.1321C107.824 34.1321 107.777 34.1321 107.733 34.1321C107.628 34.1321 107.519 34.1197 107.414 34.1166C108.394 32.4626 109.292 30.7465 110.097 28.9498C110.12 28.9002 110.141 28.8474 110.164 28.7978C110.288 29.0553 110.584 29.2136 110.817 29.2322C111.245 29.2695 111.722 29.1174 112.148 29.0367C112.888 28.894 113.624 28.7233 114.356 28.5247C115.115 28.3168 115.863 28.022 116.609 27.7489C116.998 27.6062 117.416 27.4727 117.762 27.2059C118.118 26.9328 118.348 26.5542 118.603 26.1632C119.052 25.4774 119.589 24.9933 120.21 24.5589C120.693 24.2206 120.523 23.4666 120.068 23.2463L120.063 23.2307ZM104.299 36.3726C104.299 36.3726 104.302 36.3726 104.305 36.3726C104.297 36.3757 104.292 36.3819 104.284 36.385C104.289 36.385 104.294 36.3788 104.297 36.3757L104.299 36.3726ZM94.0594 39.9225C94.0594 39.9225 94.0619 39.9194 94.0645 39.9163C94.0645 39.9163 94.062 39.9225 94.0594 39.9225ZM89.1315 45.7099C89.1315 45.7099 89.1264 45.7161 89.1238 45.7192C89.0748 45.7968 89.1109 45.7378 89.1315 45.7099ZM55.5785 45.7813C55.5785 45.7813 55.5578 45.7658 55.5449 45.7534C55.5578 45.7658 55.5707 45.7751 55.5785 45.7813ZM113.538 6.19137C113.515 6.25343 113.495 6.31549 113.471 6.37755C113.479 6.31239 113.484 6.24412 113.492 6.17895C113.507 6.18516 113.523 6.18826 113.538 6.19137ZM43.5866 49.6571C43.5866 49.6571 43.5995 49.6571 43.6072 49.6602C43.5427 49.6509 43.504 49.6478 43.4834 49.6416C43.5118 49.6447 43.5427 49.6478 43.5711 49.6509C43.5763 49.6509 43.5814 49.6509 43.5866 49.654V49.6571ZM49.4277 49.7068C49.4458 49.6912 49.4613 49.6757 49.4768 49.6571C49.4639 49.6881 49.42 49.7533 49.3245 49.8495C49.3529 49.8185 49.3865 49.7719 49.4097 49.7347C49.4174 49.7223 49.42 49.7161 49.4252 49.7068H49.4277Z" fill="white"/>
</g>
<defs>
<clipPath id="clip0_582_8">
<rect width="120.494" height="77.47" fill="white"/>
</clipPath>
</defs>
</svg>
