<svg width="100" height="73" viewBox="0 0 100 73" fill="none" xmlns="http://www.w3.org/2000/svg">
<path d="M0.452523 37.8281L0 40.7938H0.181521C0.567572 39.9143 0.989416 39.265 1.44961 38.8431C1.90725 38.4213 2.45181 38.2116 3.07818 38.2116H4.88828V50.3888C4.88828 50.6829 4.76811 50.9206 4.52523 51.1021C4.28235 51.2837 3.98834 51.3757 3.63808 51.3757V51.5598H8.30904V51.3757C7.95879 51.3757 7.66477 51.2837 7.42189 51.1021C7.17901 50.9206 7.06141 50.6803 7.06141 50.3888V38.2116H8.8715C9.49788 38.2116 10.0424 38.4213 10.5001 38.8431C10.9577 39.265 11.3821 39.9143 11.7682 40.7938H11.9497L11.4972 37.8281H0.452523Z" fill="white"/>
<path d="M22.8056 50.465V45.2648C22.8056 43.984 22.4937 43.0022 21.8724 42.3247C21.2512 41.6472 20.4024 41.3072 19.3286 41.3072C18.5692 41.3072 17.8994 41.481 17.3191 41.8287C16.7387 42.1764 16.2632 42.6494 15.8899 43.2477V36.6362L15.5652 36.4521C15.1434 36.6976 14.6755 36.92 14.1616 37.122C13.6477 37.324 13.1339 37.485 12.6149 37.6077V37.7918C13.0137 37.7918 13.3205 37.866 13.5378 38.0117C13.7551 38.1574 13.8625 38.3671 13.8625 38.6355V50.4471C13.8625 50.7284 13.7423 50.9533 13.4995 51.1246C13.2566 51.2959 12.9626 51.3803 12.6123 51.3803V51.5644H17.1375V51.3803C16.7873 51.3803 16.4907 51.2883 16.2504 51.1067C16.0075 50.9227 15.8873 50.6747 15.8873 50.3551V45.996C15.8873 45.4106 15.9692 44.8583 16.1328 44.3393C16.2964 43.8204 16.5163 43.3627 16.7924 42.9664C17.0685 42.5702 17.3906 42.2582 17.7511 42.0333C18.1116 41.8083 18.4926 41.6932 18.8914 41.6932C19.4948 41.6932 19.9601 41.9054 20.2847 42.3247C20.6094 42.744 20.7731 43.3474 20.7731 44.1271V50.3525C20.7731 50.6696 20.6529 50.9201 20.41 51.1042C20.1671 51.2883 19.8731 51.3777 19.5229 51.3777V51.5618H24.0481V51.3777C23.6978 51.3777 23.4038 51.2959 23.161 51.1298C22.9181 50.9661 22.7979 50.7437 22.7979 50.4625L22.8056 50.465Z" fill="white"/>
<path d="M33.3565 49.1105L33.1929 49.0184C33.0344 49.384 32.8298 49.7113 32.5767 49.9976C32.3236 50.2839 32.0526 50.5294 31.7612 50.7314C31.4723 50.9333 31.168 51.0893 30.8485 51.1992C30.5289 51.3092 30.2119 51.3628 29.8974 51.3628C29.4883 51.3628 29.0972 51.2478 28.729 51.0151C28.3609 50.7825 28.0285 50.4527 27.7345 50.0257C27.4379 49.5988 27.1874 49.0849 26.9828 48.4866C26.7783 47.8884 26.6275 47.2237 26.5303 46.4899L33.4255 46.472C33.4255 45.6795 33.3233 44.9636 33.1187 44.3296C32.9142 43.6955 32.6202 43.1509 32.2418 42.701C31.8609 42.2485 31.4007 41.9059 30.8561 41.6655C30.3141 41.4278 29.7031 41.3076 29.0281 41.3076C28.3532 41.3076 27.7754 41.4329 27.2257 41.6834C26.676 41.934 26.2031 42.2842 25.8042 42.7368C25.4054 43.1893 25.096 43.7287 24.8711 44.3577C24.6486 44.9866 24.5361 45.6718 24.5361 46.4183C24.5361 47.1649 24.6435 47.8398 24.8608 48.4866C25.0781 49.1335 25.3926 49.6985 25.8017 50.1817C26.2107 50.6649 26.7118 51.0458 27.305 51.327C27.8955 51.6083 28.5603 51.7489 29.2966 51.7489C30.2144 51.7489 31.0274 51.5265 31.7407 51.0791C32.4515 50.6342 32.9883 49.9771 33.3514 49.1105H33.3565ZM26.515 44.3577C26.5865 43.8131 26.7144 43.3478 26.8959 42.9566C27.0774 42.5655 27.3024 42.2587 27.5734 42.0311C27.8444 41.8062 28.1486 41.6911 28.4887 41.6911C28.8287 41.6911 29.1483 41.7985 29.4576 42.0107C29.7644 42.2254 30.0457 42.5271 30.2988 42.9157C30.5519 43.3069 30.7692 43.7697 30.9507 44.3065C31.1322 44.8434 31.2652 45.4417 31.3496 46.1013H26.4817C26.4332 45.4775 26.4459 44.8946 26.5175 44.3526L26.515 44.3577Z" fill="white"/>
<path d="M42.3075 39.5787C42.6629 39.0853 43.0975 38.7018 43.6114 38.4333C44.1253 38.1649 44.7005 38.0294 45.3397 38.0294C46.4007 38.0294 47.3543 38.3592 48.2005 39.0188C49.0468 39.6784 49.6962 40.6729 50.1564 42.0049H50.3379L49.8138 38.6353H49.4891C48.9829 38.3183 48.4025 38.0728 47.7531 37.9041C47.1012 37.7328 46.4492 37.6484 45.7973 37.6484C44.7951 37.6484 43.8798 37.8197 43.0464 38.1623C42.2129 38.5049 41.4996 38.983 40.9014 39.5991C40.3031 40.2153 39.8429 40.9567 39.5157 41.8234C39.191 42.6901 39.0273 43.6488 39.0273 44.6996C39.0273 45.7504 39.1961 46.7449 39.5336 47.6116C39.871 48.4783 40.3517 49.2197 40.9729 49.8359C41.5942 50.452 42.3433 50.925 43.2177 51.2548C44.092 51.5846 45.061 51.7482 46.122 51.7482C46.8813 51.7482 47.6074 51.5897 48.2951 51.2727C48.9829 50.9557 49.6578 50.4725 50.3225 49.8257V45.7427C50.3225 45.4871 50.4504 45.28 50.7035 45.1189C50.9566 44.9604 51.2813 44.8811 51.6801 44.8811V44.6971H46.7918V44.8811C47.1907 44.8811 47.5154 44.9604 47.7685 45.1189C48.0216 45.2774 48.1494 45.4922 48.1494 45.7606V50.9429C47.9449 51.0784 47.7122 51.1807 47.4514 51.2548C47.1907 51.329 46.9171 51.3648 46.6282 51.3648C45.8791 51.3648 45.176 51.1628 44.519 50.7614C43.8619 50.3574 43.2841 49.8129 42.7907 49.1226C42.2973 48.4323 41.9061 47.6244 41.6223 46.6963C41.3385 45.7683 41.1979 44.7789 41.1979 43.7307C41.1979 42.864 41.2951 42.0791 41.4868 41.3786C41.6786 40.6755 41.9547 40.0772 42.3101 39.5838L42.3075 39.5787Z" fill="white"/>
<path d="M54.9417 51.3526C55.5502 51.6159 56.2124 51.7463 56.9231 51.7463C57.6339 51.7463 58.296 51.6159 58.9045 51.3526C59.513 51.0893 60.0397 50.7262 60.4794 50.2635C60.9191 49.8007 61.2643 49.2485 61.5097 48.6068C61.7577 47.9651 61.8804 47.2722 61.8804 46.5283C61.8804 45.7843 61.7552 45.0761 61.5097 44.4395C61.2617 43.8054 60.9191 43.2558 60.4794 42.7905C60.0397 42.3277 59.513 41.9621 58.9045 41.7013C58.296 41.438 57.6339 41.3076 56.9231 41.3076C56.2124 41.3076 55.5502 41.438 54.9417 41.7013C54.3333 41.9647 53.8066 42.3277 53.3669 42.7905C52.9271 43.2532 52.582 43.8029 52.3365 44.4395C52.0885 45.0735 51.9658 45.7715 51.9658 46.5283C51.9658 47.285 52.0885 47.9651 52.3365 48.6068C52.5845 49.2485 52.9271 49.8007 53.3669 50.2635C53.8066 50.7288 54.3333 51.0918 54.9417 51.3526ZM54.3077 43.8361C54.4227 43.3964 54.5787 43.0154 54.7781 42.6908C54.9775 42.3686 55.2179 42.1181 55.5016 41.9391C55.7854 41.7627 56.0897 41.6732 56.4144 41.6732C56.8618 41.6732 57.2836 41.842 57.6824 42.1769C58.0813 42.5118 58.4315 42.9694 58.7332 43.5498C59.0349 44.1301 59.2727 44.8 59.4491 45.5644C59.6255 46.3263 59.7124 47.1367 59.7124 47.9906C59.7124 48.4662 59.6562 48.911 59.5411 49.3278C59.4261 49.7419 59.2676 50.1024 59.0605 50.4092C58.8559 50.7135 58.6131 50.9538 58.3369 51.1225C58.0583 51.2938 57.7643 51.3782 57.4498 51.3782C57.0152 51.3782 56.5984 51.2094 56.1996 50.8745C55.8008 50.5396 55.4479 50.0871 55.1412 49.5195C54.8344 48.9519 54.5889 48.3026 54.4074 47.5688C54.2259 46.8376 54.1364 46.0732 54.1364 45.2806C54.1364 44.7565 54.1926 44.2733 54.3077 43.8336V43.8361Z" fill="white"/>
<path d="M66.9145 51.3807C66.5643 51.3807 66.2702 51.2989 66.0274 51.1327C65.7845 50.9665 65.6643 50.7466 65.6643 50.4654V36.6392L65.3396 36.4551C64.9178 36.7005 64.4499 36.9229 63.936 37.1249C63.4222 37.3269 62.9083 37.488 62.3893 37.6107V37.7948C62.7753 37.7948 63.0796 37.8689 63.302 38.0146C63.5244 38.1604 63.6369 38.37 63.6369 38.6384V50.468C63.6369 50.7492 63.5167 50.9716 63.2739 51.1352C63.0335 51.2989 62.737 51.3832 62.3867 51.3832V51.5673H66.912V51.3832L66.9145 51.3807Z" fill="white"/>
<path d="M76.924 50.0078V36.6392L76.5815 36.4551C76.1596 36.7005 75.6943 36.9229 75.1881 37.1249C74.6819 37.3269 74.168 37.488 73.649 37.6107V37.7948C74.0351 37.7948 74.3393 37.8689 74.5617 38.0146C74.7841 38.1604 74.8966 38.37 74.8966 38.6384V43.1432C74.5592 42.5705 74.1322 42.1206 73.6209 41.7959C73.107 41.4737 72.5087 41.3101 71.821 41.3101C71.1946 41.3101 70.6168 41.4354 70.0927 41.6859C69.5686 41.9365 69.1187 42.2867 68.7454 42.7393C68.3721 43.1918 68.0807 43.7287 67.8761 44.35C67.6716 44.9712 67.5693 45.6564 67.5693 46.4004C67.5693 47.1827 67.6767 47.8985 67.894 48.553C68.1113 49.2075 68.413 49.77 68.7991 50.2481C69.1851 50.7236 69.6479 51.0943 70.1848 51.3551C70.7217 51.6184 71.3097 51.7488 71.9488 51.7488C72.588 51.7488 73.1505 51.6082 73.6311 51.327C74.1143 51.0458 74.5361 50.6444 74.8992 50.1177V51.5648L75.2239 51.7488C75.5741 51.5417 75.9806 51.3807 76.446 51.2631C76.9113 51.148 77.4865 51.0713 78.1742 51.033V50.8515C77.7754 50.8515 77.4686 50.7773 77.2513 50.6316C77.034 50.4859 76.9266 50.2788 76.9266 50.0078H76.924ZM74.7509 48.7627C74.6538 49.251 74.508 49.6805 74.3163 50.0538C74.1245 50.4271 73.8944 50.7211 73.6285 50.9409C73.3627 51.1608 73.0559 51.2707 72.7056 51.2707C72.2965 51.2707 71.913 51.1148 71.5551 50.8029C71.1997 50.491 70.8853 50.0666 70.6143 49.5297C70.3433 48.9928 70.1285 48.3639 69.9726 47.6429C69.8141 46.9219 69.7374 46.1473 69.7374 45.3164C69.7374 44.7795 69.7885 44.2886 69.8908 43.8412C69.993 43.3963 70.1336 43.0154 70.3152 42.6958C70.4967 42.3788 70.7165 42.1308 70.9773 41.9544C71.2355 41.778 71.5219 41.6885 71.8364 41.6885C72.271 41.6885 72.6749 41.8163 73.0482 42.072C73.4215 42.3277 73.7462 42.6958 74.0172 43.1713C74.2882 43.6469 74.5029 44.2272 74.6589 44.9098C74.8148 45.595 74.8941 46.362 74.8941 47.2185C74.8941 47.7554 74.8455 48.2693 74.7483 48.7576L74.7509 48.7627Z" fill="white"/>
<path d="M87.4039 44.3296C87.1994 43.6955 86.9054 43.1509 86.527 42.701C86.146 42.2485 85.6858 41.9059 85.1413 41.6655C84.5993 41.4278 83.9882 41.3076 83.3133 41.3076C82.6383 41.3076 82.0605 41.4329 81.5109 41.6834C80.9612 41.934 80.4882 42.2842 80.0894 42.7368C79.6905 43.1893 79.3812 43.7287 79.1562 44.3577C78.9338 44.9866 78.8213 45.6718 78.8213 46.4183C78.8213 47.1649 78.9287 47.8398 79.146 48.4866C79.3633 49.1335 79.6778 49.6985 80.0868 50.1817C80.4959 50.6649 80.997 51.0458 81.5901 51.327C82.1807 51.6083 82.8454 51.7489 83.5817 51.7489C84.4996 51.7489 85.3126 51.5265 86.0259 51.0791C86.7366 50.6342 87.2735 49.9771 87.6365 49.1105L87.4729 49.0184C87.3144 49.384 87.1099 49.7113 86.8568 49.9976C86.6037 50.2839 86.3327 50.5294 86.0412 50.7314C85.7523 50.9333 85.4481 51.0893 85.1285 51.1992C84.8089 51.3092 84.4919 51.3628 84.1774 51.3628C83.7684 51.3628 83.3772 51.2478 83.009 51.0151C82.6409 50.7825 82.3085 50.4527 82.0145 50.0257C81.718 49.5988 81.4674 49.0849 81.2629 48.4866C81.0583 47.8884 80.9075 47.2237 80.8103 46.4899L87.7056 46.472C87.7056 45.6795 87.6033 44.9636 87.3988 44.3296H87.4039ZM80.7618 46.1064C80.7132 45.4826 80.726 44.8997 80.7976 44.3577C80.8692 43.8131 80.997 43.3478 81.1785 42.9566C81.36 42.5655 81.585 42.2587 81.856 42.0311C82.127 41.8062 82.4313 41.6911 82.7713 41.6911C83.1113 41.6911 83.4309 41.7985 83.7402 42.0107C84.047 42.2254 84.3283 42.5271 84.5814 42.9157C84.8345 43.3069 85.0518 43.7697 85.2333 44.3065C85.4148 44.8434 85.5478 45.4417 85.6322 46.1013H80.7643L80.7618 46.1064Z" fill="white"/>
<path d="M99.113 51.1324C98.8701 50.9687 98.7499 50.7463 98.7499 50.4651V45.2649C98.7499 43.984 98.438 43.0023 97.8168 42.3248C97.1955 41.6473 96.3467 41.3072 95.2729 41.3072C94.5136 41.3072 93.8438 41.4811 93.2634 41.8288C92.683 42.1765 92.2075 42.6495 91.8342 43.2477V41.4888L91.5095 41.3047C91.0877 41.5501 90.6198 41.7725 90.106 41.9745C89.5921 42.1765 89.0782 42.3376 88.5592 42.4603V42.6444C88.958 42.6444 89.2648 42.7185 89.4821 42.8642C89.6995 43.01 89.8068 43.2196 89.8068 43.488V50.4472C89.8068 50.7284 89.6867 50.9534 89.4438 51.1247C89.2009 51.296 88.9069 51.3804 88.5566 51.3804V51.5644H93.0819V51.3804C92.7316 51.3804 92.435 51.2883 92.1947 51.1068C91.9518 50.9227 91.8317 50.6747 91.8317 50.3552V45.9961C91.8317 45.4106 91.9135 44.8584 92.0771 44.3394C92.2407 43.8204 92.4606 43.3628 92.7367 42.9665C93.0154 42.5702 93.335 42.2583 93.6955 42.0333C94.056 41.8083 94.4369 41.6933 94.8357 41.6933C95.4391 41.6933 95.9044 41.9055 96.2291 42.3248C96.5538 42.7466 96.7174 43.3474 96.7174 44.1272V50.3526C96.7174 50.6696 96.5972 50.9202 96.3544 51.1042C96.1115 51.2883 95.8175 51.3778 95.4672 51.3778V51.5619H99.9924V51.3778C99.6422 51.3778 99.3482 51.296 99.1053 51.1298L99.113 51.1324Z" fill="white"/>
<path d="M40.8321 70.9845C40.3744 71.4166 39.8478 71.6339 39.2572 71.6339H35.2944V59.4567C35.2944 59.1397 35.4018 58.8942 35.6191 58.7229C35.8364 58.5516 36.1432 58.4673 36.5421 58.4673V58.2832H31.8736V58.4673C32.2597 58.4673 32.5639 58.5465 32.7864 58.705C33.0088 58.8636 33.1213 59.0885 33.1213 59.3826V70.9181C33.1213 71.1993 33.0165 71.4217 32.8043 71.5879C32.5921 71.7515 32.2827 71.8359 31.8711 71.8359V72.02H41.8087L42.2791 69.0543H42.0976C41.7116 69.9082 41.2897 70.5525 40.8295 70.9871L40.8321 70.9845Z" fill="white"/>
<path d="M51.4218 64.7846C51.2173 64.1506 50.9233 63.606 50.5449 63.1561C50.164 62.7035 49.7038 62.3584 49.1592 62.1206C48.6172 61.8829 48.0062 61.7627 47.3312 61.7627C46.6563 61.7627 46.0785 61.888 45.5314 62.1385C44.9817 62.3891 44.5087 62.7393 44.1099 63.1919C43.711 63.6444 43.4017 64.1838 43.1767 64.8128C42.9543 65.4417 42.8418 66.1294 42.8418 66.8734C42.8418 67.6174 42.9492 68.2949 43.1665 68.9417C43.3838 69.5885 43.6983 70.1536 44.1073 70.6368C44.5189 71.12 45.0175 71.5009 45.6106 71.7821C46.2012 72.0634 46.8659 72.204 47.6022 72.204C48.5201 72.204 49.3331 71.9815 50.0464 71.5367C50.7597 71.0918 51.2966 70.4348 51.6571 69.5681L51.4934 69.476C51.3349 69.8416 51.1304 70.1689 50.8773 70.4552C50.6242 70.7416 50.3532 70.987 50.0617 71.189C49.7728 71.391 49.466 71.5469 49.149 71.6568C48.8294 71.7668 48.5124 71.8205 48.1979 71.8205C47.7889 71.8205 47.3977 71.7054 47.0296 71.4728C46.6614 71.2401 46.329 70.9103 46.035 70.4834C45.7385 70.0564 45.4879 69.5425 45.2834 68.9443C45.0788 68.346 44.928 67.6813 44.8309 66.9475L51.7261 66.9296C51.7261 66.1371 51.6238 65.4212 51.4193 64.7872L51.4218 64.7846ZM44.7797 66.5615C44.7311 65.9377 44.7439 65.3573 44.8155 64.8128C44.8871 64.2707 45.0149 63.8029 45.1965 63.4117C45.378 63.0206 45.603 62.7138 45.874 62.4862C46.145 62.2612 46.4518 62.1462 46.7892 62.1462C47.1267 62.1462 47.4488 62.2536 47.7582 62.4658C48.065 62.6805 48.3462 62.9822 48.5993 63.3734C48.8524 63.7645 49.0697 64.2273 49.2513 64.7642C49.4328 65.3011 49.5657 65.8993 49.6501 66.5589H44.7823L44.7797 66.5615Z" fill="white"/>
<path d="M61.5377 71.6344C61.369 71.6344 61.2309 71.5577 61.121 71.4043C61.011 71.2509 60.9573 70.9978 60.9573 70.645V65.1687C60.9573 64.6574 60.8679 64.1895 60.6863 63.7677C60.5048 63.3459 60.2466 62.9879 59.9091 62.6862C59.5717 62.3871 59.1677 62.1596 58.6973 61.9985C58.2269 61.8374 57.7028 61.7607 57.1224 61.7607C56.5804 61.7607 56.0665 61.8298 55.5833 61.9704C55.1001 62.111 54.6783 62.3002 54.3178 62.538C53.9547 62.7757 53.671 63.057 53.4664 63.3816C53.2619 63.7038 53.1596 64.0489 53.1596 64.4171C53.1596 64.7341 53.2389 64.9795 53.3948 65.1508C53.5508 65.3221 53.7681 65.4065 54.0468 65.4065C54.4098 65.4065 54.6783 65.2684 54.8521 64.9949C55.026 64.7188 55.072 64.3992 54.9876 64.0336C54.9263 63.7651 54.9339 63.5171 55.0055 63.2922C55.0771 63.0672 55.2049 62.8678 55.3865 62.6965C55.568 62.5252 55.7904 62.3922 56.0563 62.2925C56.3222 62.1954 56.6188 62.1468 56.9434 62.1468C57.6414 62.1468 58.1553 62.3973 58.4825 62.8984C58.8072 63.3995 58.9581 64.187 58.9351 65.2608C58.705 65.5906 58.3931 65.8462 57.9942 66.0303C57.5954 66.2144 57.1684 66.3729 56.7082 66.5058C56.2506 66.6413 55.7878 66.7717 55.3225 66.8996C54.8572 67.0274 54.4379 67.2013 54.0647 67.4211C53.6914 67.641 53.3821 67.9273 53.1417 68.2827C52.9014 68.6381 52.7812 69.1059 52.7812 69.6914C52.7812 70.0954 52.8605 70.4507 53.0165 70.7626C53.1724 71.0745 53.3897 71.3353 53.6684 71.5501C53.9471 71.7648 54.2743 71.9259 54.6553 72.0358C55.0362 72.1458 55.4478 72.1995 55.8952 72.1995C56.5472 72.1995 57.1454 72.087 57.6874 71.8594C58.2294 71.6344 58.6589 71.3123 58.9734 70.8981C59.0706 71.2893 59.27 71.6038 59.5717 71.8415C59.8733 72.0793 60.2338 72.1995 60.6582 72.1995C60.9369 72.1995 61.1951 72.1509 61.4354 72.0537C61.6758 71.9566 61.9365 71.7904 62.2127 71.5603V71.3762C62.0925 71.4504 61.9749 71.5117 61.8598 71.5603C61.7448 71.6089 61.64 71.6344 61.5428 71.6344H61.5377ZM58.9325 69.2363C58.9069 69.6147 58.8328 69.9624 58.7075 70.2794C58.5797 70.5965 58.4186 70.8675 58.2192 71.095C58.0198 71.32 57.7871 71.4989 57.5212 71.6268C57.2554 71.7546 56.9665 71.8185 56.652 71.8185C56.11 71.8185 55.6907 71.6268 55.3941 71.2407C55.0976 70.8572 54.9493 70.328 54.9493 69.6556C54.9493 69.1801 55.0234 68.7838 55.1743 68.4642C55.3251 68.1472 55.5168 67.8813 55.7546 67.6666C55.9898 67.4544 56.2557 67.2728 56.5523 67.1271C56.8488 66.9814 57.1429 66.8382 57.4394 66.6976C57.736 66.557 58.0172 66.4087 58.2806 66.2502C58.5465 66.0917 58.7638 65.8948 58.9325 65.6647V69.2363Z" fill="white"/>
<path d="M70.8776 58.2094C69.9189 58.2094 69.2132 57.4961 67.8199 57.4961C66.1555 57.4961 64.7059 58.5034 64.7059 59.9862V62.3307H62.8242V62.5327H64.7059V70.315C64.7059 71.2303 64.1818 71.8158 63.402 71.8158H63.3662V72.0177H67.7636V71.8158H67.7278C66.9302 71.8158 66.424 71.2303 66.424 70.315V62.5327H68.9397V62.3307H66.424V59.9862C66.424 58.5954 67.058 57.6981 67.9809 57.6981C69.3206 57.6981 69.157 59.6028 70.4788 59.6028C71.3122 59.6028 71.8542 58.8332 71.8542 57.6981H71.6548C71.6548 58.01 71.4017 58.2094 70.8776 58.2094Z" fill="white"/>
<path d="M37.0583 20.0767C37.5364 21.2783 38.2165 22.3802 39.0755 23.3466C39.9115 24.2875 40.9086 25.0775 42.0182 25.668C42.1511 25.7396 42.2892 25.801 42.4247 25.8623C42.4912 25.893 42.5576 25.9211 42.6241 25.9493C42.6292 25.9493 42.6343 25.9544 42.6395 25.9569C42.6778 26.0566 42.7443 26.1436 42.8517 26.1896C44.2067 26.7725 45.6154 27.2046 47.0675 27.4577C48.5197 27.7108 49.9974 27.8079 51.4675 27.7312C52.9376 27.6545 54.4025 27.4142 55.8163 27.0051C56.5475 26.7929 57.2608 26.5322 57.9588 26.2356C58.6644 25.9339 59.3291 25.5658 59.9146 25.0647C60.4822 24.5789 60.9526 23.9883 61.3821 23.3799C61.7988 22.7918 62.167 22.168 62.4866 21.5237C63.1411 20.1968 63.6013 18.7779 63.8211 17.313C64.064 15.6818 64.0461 14.0354 63.9771 12.3915C63.9106 10.8319 63.8646 9.24936 63.5067 7.72305C63.182 6.33736 62.5505 5.05905 61.625 3.97503C60.7199 2.91148 59.5643 2.11637 58.2758 1.5897C57.5651 1.3008 56.8236 1.09627 56.0797 0.92242C55.3024 0.740899 54.5227 0.577275 53.7352 0.43666C52.1194 0.147761 50.4755 -0.0465429 48.8342 0.00970294C47.3871 0.0608355 45.9298 0.298602 44.5672 0.799701C43.1943 1.30591 41.9364 2.06268 40.8882 3.08788C39.8706 4.08241 39.0602 5.27636 38.3673 6.51632C37.6208 7.85088 36.9382 9.26214 36.5624 10.7501C36.161 12.3327 36.138 13.9868 36.2223 15.6103C36.3016 17.1263 36.501 18.6629 37.0635 20.0818L37.0583 20.0767ZM37.2322 13.1431C37.2424 12.9565 37.2578 12.7673 37.2757 12.5806C37.2859 12.4861 37.2935 12.394 37.3063 12.302C37.3114 12.2662 37.314 12.2329 37.3191 12.1972C37.3191 12.2074 37.3345 12.0821 37.337 12.0668C37.3933 11.6833 37.47 11.3049 37.5697 10.9291C37.6643 10.566 37.7793 10.2081 37.9097 9.85273C37.9711 9.68399 38.0375 9.51525 38.1066 9.34651C38.1193 9.31583 38.1321 9.28771 38.1423 9.25703C38.15 9.24169 38.173 9.18544 38.1756 9.17777C38.2165 9.08062 38.26 8.98347 38.3034 8.88888C38.8761 7.62334 39.5511 6.38338 40.3666 5.25591C40.4152 5.18943 40.4638 5.12296 40.5123 5.05905C40.5379 5.02581 40.5609 4.99257 40.5865 4.96189C40.5916 4.95678 40.5916 4.95422 40.5967 4.94911C40.5993 4.944 40.6018 4.94144 40.6069 4.93633C40.7169 4.79827 40.8268 4.66021 40.9419 4.52471C41.1617 4.26649 41.3944 4.0185 41.6373 3.78073C41.8801 3.54552 42.1332 3.31031 42.4068 3.11089C42.4196 3.10322 42.4298 3.093 42.4349 3.09044C42.4682 3.06487 42.5014 3.04187 42.5346 3.0163C42.6011 2.96772 42.6676 2.91915 42.7366 2.87313C42.8823 2.77086 43.0332 2.67627 43.184 2.58423C43.4755 2.40782 43.7797 2.2442 44.0891 2.09847C44.1632 2.06268 44.2374 2.02944 44.3141 1.9962C44.3524 1.98086 44.3882 1.96297 44.4265 1.94763C44.4317 1.94507 44.4342 1.94507 44.4393 1.94251C44.4444 1.94251 44.447 1.93996 44.4572 1.93484C44.6234 1.86837 44.7896 1.8019 44.9558 1.7431C45.6051 1.513 46.275 1.33915 46.9525 1.21899C47.1161 1.19087 47.2797 1.1653 47.4434 1.14229C47.4485 1.14229 47.4485 1.14229 47.4536 1.14229C47.4587 1.14229 47.4638 1.14229 47.4715 1.14229C47.5124 1.13718 47.5533 1.13206 47.5942 1.12695C47.6914 1.11672 47.786 1.1065 47.8831 1.09627C48.2461 1.06048 48.6092 1.04002 48.9748 1.0298C49.7494 1.00934 50.5241 1.04514 51.2937 1.11672C51.4828 1.13462 51.672 1.15507 51.8587 1.17808C51.9533 1.18831 52.0479 1.20109 52.1424 1.21388C52.1552 1.21388 52.1603 1.21388 52.168 1.21643C52.1757 1.21643 52.1808 1.21643 52.1936 1.21899C52.2575 1.22922 52.3189 1.23688 52.3828 1.24455C52.7739 1.3008 53.1651 1.36727 53.5563 1.4363C54.3233 1.57692 55.0902 1.73543 55.8496 1.91695C56.5833 2.0908 57.3017 2.29789 58.0022 2.574C58.015 2.57912 58.0201 2.58167 58.0278 2.58423C58.0329 2.58679 58.038 2.58934 58.0457 2.5919C58.0866 2.60979 58.1275 2.62769 58.1684 2.64559C58.2502 2.68138 58.332 2.71973 58.4139 2.76064C58.5647 2.83478 58.713 2.91148 58.8587 2.99585C59.1297 3.1518 59.3931 3.32309 59.6462 3.50973C59.6768 3.53274 59.7075 3.55575 59.7356 3.5762C59.7356 3.5762 59.7356 3.5762 59.7382 3.57876C59.7408 3.58131 59.7433 3.58387 59.7484 3.58898C59.8072 3.63756 59.866 3.68358 59.9223 3.73216C60.0475 3.83698 60.1677 3.94436 60.2879 4.05685C60.5154 4.2716 60.7302 4.49914 60.9321 4.73947C60.9807 4.79571 61.0293 4.85452 61.0753 4.91332C61.0779 4.91587 61.083 4.92354 61.0881 4.92866C61.1111 4.95678 61.1341 4.99002 61.1571 5.01814C61.2466 5.1383 61.3335 5.26102 61.4153 5.38629C61.5866 5.64707 61.7451 5.91807 61.8858 6.1993C61.9522 6.3348 62.0162 6.47031 62.0775 6.60836C62.0775 6.61092 62.0775 6.61092 62.0775 6.61348C62.0775 6.61603 62.0775 6.61859 62.0826 6.6237C62.098 6.66205 62.1133 6.69785 62.1261 6.73619C62.1644 6.83335 62.2002 6.9305 62.2335 7.03021C62.3562 7.38047 62.4559 7.73839 62.5352 8.10143C62.5735 8.27528 62.6093 8.44913 62.64 8.62554C62.6553 8.71247 62.6706 8.80195 62.6834 8.88888C62.6911 8.93234 62.6962 8.97836 62.7039 9.02182C62.7039 9.03205 62.7141 9.09085 62.7192 9.12409C62.7678 9.48968 62.8036 9.85528 62.8317 10.2234C62.8905 10.9828 62.9212 11.7446 62.9519 12.5065C62.9851 13.2991 63.0056 14.0916 62.9902 14.8816C62.9826 15.2779 62.9647 15.6716 62.934 16.0653C62.9186 16.2545 62.9007 16.4437 62.8803 16.6303C62.8701 16.7147 62.8598 16.7991 62.8496 16.8835C62.8471 16.9065 62.8394 16.9576 62.8394 16.9653C62.8292 17.0292 62.8215 17.0905 62.8113 17.1519C62.7039 17.8371 62.5428 18.5146 62.3306 19.1768C62.2232 19.5142 62.1031 19.8466 61.9701 20.1738C61.9548 20.2122 61.9369 20.2531 61.9216 20.2914C61.919 20.2991 61.9164 20.3042 61.9139 20.3093C61.9139 20.3145 61.9113 20.317 61.9062 20.3247C61.873 20.4014 61.8397 20.4806 61.804 20.5573C61.7273 20.7261 61.6506 20.8897 61.5687 21.0559C61.2543 21.6874 60.8887 22.2958 60.4822 22.8736C60.4336 22.9427 60.3825 23.0117 60.3339 23.0807C60.3083 23.114 60.2828 23.1498 60.2572 23.183C60.2521 23.1881 60.2367 23.2086 60.224 23.2265C60.114 23.3671 60.0041 23.5026 59.8865 23.6355C59.6564 23.8988 59.4084 24.1494 59.1399 24.3744C59.1067 24.4025 59.0735 24.4281 59.0428 24.4536C59.0351 24.4587 59.0326 24.4613 59.0275 24.4664C59.0223 24.469 59.0198 24.4715 59.0121 24.4766C58.9431 24.5278 58.8715 24.5789 58.7999 24.6275C58.644 24.7323 58.4829 24.8295 58.3193 24.9215C58.1659 25.0059 58.0125 25.0851 57.854 25.1593C57.7747 25.1976 57.6954 25.2334 57.6162 25.2692C57.5753 25.2871 57.5369 25.305 57.496 25.3229C57.4781 25.3306 57.4602 25.3382 57.4423 25.3459C57.4347 25.3485 57.4347 25.3485 57.4193 25.3561C56.1231 25.8853 54.7732 26.274 53.3901 26.4989C53.2239 26.5271 53.0577 26.5526 52.8915 26.5731C52.8762 26.5731 52.8609 26.5756 52.8558 26.5782C52.8148 26.5833 52.7714 26.5884 52.7305 26.5935C52.6333 26.6063 52.5336 26.6165 52.4365 26.6268C52.0862 26.6626 51.7334 26.6907 51.3806 26.7086C50.6749 26.7418 49.9668 26.7367 49.2611 26.6932C48.9083 26.6702 48.5555 26.6396 48.2052 26.5961C48.1311 26.5859 48.0544 26.5782 47.9803 26.568C47.9572 26.5654 47.9317 26.5603 47.924 26.5603C47.8831 26.5552 47.8396 26.5475 47.7987 26.5424C47.6172 26.5143 47.4357 26.4862 47.2542 26.4529C46.5588 26.3276 45.871 26.164 45.1961 25.962C44.8714 25.8649 44.5493 25.7575 44.2297 25.6425C44.1095 25.599 43.9919 25.553 43.8718 25.507C43.8078 25.4763 43.7439 25.4482 43.68 25.4175C43.6161 25.3868 43.5522 25.3536 43.4883 25.3203C43.4576 25.305 43.3886 25.2462 43.4627 25.3203C43.4039 25.2564 43.3425 25.236 43.2684 25.2027C42.9974 25.0775 42.7341 24.9317 42.4758 24.7834C42.2151 24.6352 41.9645 24.4715 41.714 24.3028C41.5938 24.2235 41.4762 24.1392 41.3611 24.0548C41.3023 24.0113 41.2461 23.9679 41.1873 23.9244C41.1873 23.9244 41.1822 23.9193 41.1796 23.9167C41.1413 23.8861 41.1055 23.8579 41.0671 23.8273C40.5993 23.4489 40.1646 23.0321 39.7684 22.5822C39.6738 22.4748 39.5792 22.3649 39.4897 22.2524C39.4462 22.1987 39.4002 22.145 39.3593 22.0888C39.3542 22.0836 39.3491 22.076 39.3491 22.0734C39.321 22.0351 39.2903 21.9967 39.2622 21.9584C39.0857 21.7155 38.917 21.4675 38.7611 21.2118C38.6051 20.9562 38.4594 20.6928 38.3264 20.4244C38.2625 20.2966 38.2012 20.1662 38.1423 20.0332C38.127 20 38.1142 19.9667 38.0989 19.9335C38.0989 19.9335 38.0989 19.9284 38.0963 19.9233C38.0656 19.844 38.0324 19.7673 38.0043 19.6881C37.7589 19.0464 37.585 18.3791 37.4648 17.7016C37.4342 17.5252 37.406 17.3488 37.3805 17.1724C37.3779 17.1468 37.3728 17.1136 37.3728 17.1059C37.3677 17.0599 37.3626 17.0138 37.3549 16.9678C37.3421 16.8604 37.3319 16.7531 37.3191 16.6457C37.2808 16.2622 37.2552 15.8761 37.2373 15.4901C37.199 14.7078 37.1887 13.9254 37.2322 13.1431Z" fill="white"/>
<path d="M41.0751 9.6846C41.0751 9.6846 41.0751 9.6846 41.0777 9.68715C40.9447 9.55421 41.0317 9.65136 41.0751 9.6846Z" fill="white"/>
<path d="M48.7421 15.7993C48.7498 15.8197 48.76 15.8402 48.7677 15.8606C48.7677 15.8606 48.7677 15.8632 48.7677 15.8657C48.7677 15.8606 48.6961 15.6944 48.7396 15.7993H48.7421Z" fill="white"/>
<path d="M39.3622 10.2106C39.4158 10.3589 39.4542 10.5123 39.4798 10.6682C39.5539 11.3739 39.4798 12.1025 39.7047 12.7851C39.9579 13.5521 40.5229 14.0941 41.2387 14.4367C41.5762 14.5978 41.9265 14.7282 42.269 14.8688C42.5094 14.9711 42.7471 15.0835 42.9644 15.2293C42.9823 15.2421 43.0028 15.2548 43.0207 15.2676C43.0769 15.3162 43.1332 15.3648 43.1869 15.4159C43.3045 15.5335 43.4119 15.6639 43.5167 15.7968C43.7212 16.0525 43.9155 16.321 44.1686 16.5332C44.5061 16.8169 44.8768 17.001 45.2961 17.1416C45.6259 17.2516 45.9659 17.3334 46.2932 17.4561C46.3443 17.4791 46.398 17.5021 46.4491 17.5302C46.5182 17.5686 46.5821 17.6197 46.6486 17.6581C46.6562 17.6657 46.6664 17.6734 46.6741 17.6785C46.7022 17.7041 46.7304 17.7297 46.7559 17.7552C46.8173 17.8166 46.8735 17.8831 46.9298 17.947C46.9298 17.9495 46.9349 17.9521 46.9349 17.9546C46.9605 17.9904 46.986 18.0288 47.009 18.0646C47.0576 18.1413 47.1036 18.218 47.1471 18.2972C47.2238 18.4353 47.2877 18.581 47.3516 18.7242C47.4974 19.0847 47.6226 19.4528 47.7453 19.8235C47.7428 19.8517 47.7377 19.8823 47.7351 19.9105C47.7351 19.9207 47.7198 19.9974 47.7351 19.9309C47.7479 19.8517 47.7274 19.982 47.7249 19.9974C47.6891 20.2454 47.6456 20.4934 47.5945 20.7388C47.5817 20.8002 47.5689 20.8615 47.5562 20.9229C47.5459 20.974 47.5383 21.02 47.5331 21.0712C47.5331 21.0712 47.5331 21.084 47.528 21.1018C47.528 21.1018 47.528 21.1018 47.528 21.1044C47.528 21.1044 47.528 21.107 47.528 21.1095C47.5178 21.1709 47.5076 21.2348 47.4974 21.2962C47.459 21.5339 47.4743 21.4419 47.4846 21.3907C47.4795 21.4214 47.4743 21.4521 47.4692 21.4828C47.4564 21.5595 47.4437 21.6387 47.4309 21.7154C47.4309 21.7154 47.4309 21.7206 47.4283 21.7308C47.4181 21.7768 47.4028 21.8228 47.3925 21.8688C47.3695 21.9788 47.3593 22.0938 47.3465 22.2063C47.344 22.2319 47.3363 22.2549 47.3337 22.2805C47.3184 22.4006 47.2979 22.5412 47.3082 22.6639C47.303 22.7739 47.2979 22.8864 47.2877 22.9963C47.28 23.0935 47.3388 23.2034 47.4207 23.2801C47.4437 23.3133 47.4641 23.3466 47.4871 23.3772C47.551 23.4667 47.6686 23.4897 47.753 23.4105C47.7837 23.3824 47.8144 23.3542 47.8451 23.3261C47.9371 23.275 48.0163 23.1881 48.0342 23.096C48.0521 22.9989 48.0828 22.9043 48.1109 22.8097C48.1237 22.7637 48.1391 22.7151 48.1544 22.6691C48.1621 22.6435 48.1774 22.6154 48.18 22.5873C48.18 22.5796 48.18 22.5745 48.18 22.5719C48.1851 22.5642 48.1876 22.554 48.1928 22.5412C48.2158 22.485 48.2337 22.4236 48.2567 22.3674C48.2669 22.3418 48.2771 22.3137 48.2873 22.2881C48.2873 22.2805 48.3155 22.214 48.295 22.2677C48.2669 22.3418 48.3487 22.1245 48.3615 22.0887C48.3768 22.035 48.3947 21.9813 48.4126 21.9276C48.4791 21.7257 48.5507 21.5262 48.6299 21.3294C48.6376 21.3089 48.6453 21.291 48.6529 21.2706C48.6555 21.2629 48.6632 21.2425 48.6708 21.2297C48.6708 21.2271 48.6734 21.222 48.6734 21.222C48.6836 21.1964 48.6964 21.1709 48.7066 21.1453C48.7501 21.0482 48.7936 20.951 48.8396 20.8564C48.9035 20.7235 48.97 20.5931 49.039 20.4627C49.0978 20.4013 49.1413 20.3323 49.1745 20.2556C49.7625 20.1891 50.3506 20.1227 50.9386 20.0587C51.5777 19.9872 52.2194 19.9309 52.8535 19.8235C53.439 19.7238 54.0168 19.5397 54.5255 19.2253C55.0011 18.9287 55.4127 18.5427 55.8269 18.172C55.9368 18.0748 56.0467 17.9776 56.1592 17.8856C56.1797 17.8703 56.2001 17.8524 56.218 17.837C56.2768 17.7936 56.3356 17.7527 56.3944 17.7118C56.6271 17.5558 56.8751 17.428 57.1333 17.3155C57.7827 17.0573 58.4678 16.8962 59.153 16.7556C59.92 16.5971 60.6947 16.4743 61.4668 16.3516C61.5767 16.3337 61.7097 16.2417 61.7864 16.165C61.8988 16.0525 61.9653 15.9068 61.9858 15.7483C62.0241 15.4696 61.8937 15.1679 61.6406 15.0273C60.5004 14.3984 59.3243 13.7592 58.046 13.4601C57.6932 13.3783 57.3301 13.322 56.9697 13.2939C56.5964 13.2658 56.2308 13.299 55.8601 13.3501C55.226 13.4396 54.6124 13.6314 54.0193 13.8666C52.856 14.3268 51.7516 14.9097 50.8286 15.7662C50.3352 16.2238 49.921 16.7632 49.5401 17.318C49.3944 17.5302 49.2563 17.745 49.1183 17.9623C49.1336 17.5814 49.1259 17.2004 49.062 16.8195C49.0237 16.5894 48.9597 16.3619 48.8805 16.1445C48.8626 16.0985 48.8447 16.0499 48.8268 16.0039C48.8089 15.9579 48.7884 15.9093 48.768 15.8633C48.7041 15.7125 48.6351 15.577 48.5507 15.4364C48.3129 15.0375 48.0598 14.6464 47.8016 14.2603C47.4258 13.7004 47.032 13.1149 46.513 12.6778C46.0656 12.2994 45.5875 12.0284 45.0481 11.8034C44.6799 11.65 44.3041 11.5222 43.936 11.3739C43.3786 11.1336 42.8366 10.8549 42.3176 10.5379C41.9878 10.3359 41.6657 10.1211 41.3538 9.89359C41.2617 9.82711 41.1697 9.75808 41.0777 9.68906C41.0777 9.68906 41.0777 9.68906 41.0802 9.69161C41.0393 9.65071 40.9831 9.61747 40.937 9.57912C40.753 9.43339 40.5714 9.28 40.3925 9.1266C40.1164 8.88627 39.7354 8.8377 39.4363 9.07035C39.1627 9.28255 39.0503 9.70184 39.2497 10.0086C39.2906 10.0725 39.3238 10.1416 39.357 10.2106H39.3622Z" fill="white"/>
<path d="M47.5305 21.0762C47.5305 21.0762 47.5305 21.0838 47.5254 21.1094C47.5254 21.0992 47.5279 21.089 47.5305 21.0787V21.0762Z" fill="white"/>
<path d="M47.213 9.84996C47.4277 10.5172 47.6553 10.9033 48.1129 11.4248C48.1359 11.4504 48.1564 11.4734 48.1819 11.4964C48.343 11.6473 48.6114 11.839 48.7904 11.9694C49.0512 12.1586 49.381 12.2813 49.6776 12.3682C50.511 12.6137 51.3726 12.5216 52.2086 12.3836C52.6151 12.3145 53.0012 12.133 53.3693 11.9592C53.4332 11.9285 53.4972 11.8953 53.556 11.8544C53.8219 11.6728 54.0954 11.4862 54.3178 11.251C54.7959 10.7473 55.0414 10.2999 55.2689 9.65565C55.3993 9.28494 55.4632 8.87077 55.4223 8.4796C55.3482 7.7663 55.2638 7.31889 54.9084 6.67462C54.8675 6.59792 54.8164 6.5289 54.7652 6.45731C54.5709 6.19142 54.369 5.9153 54.1465 5.66987C53.8653 5.36052 53.5023 5.09718 53.1597 4.86964C53.0753 4.8134 52.9884 4.76993 52.8989 4.72903C52.6637 4.62165 52.2649 4.42223 51.9504 4.3532C51.6231 4.28162 51.2882 4.24071 50.9533 4.2177C50.6235 4.19725 50.1633 4.29184 49.9102 4.33275C49.5778 4.38644 49.2301 4.53728 48.9515 4.69579C48.9182 4.71625 48.885 4.73414 48.8518 4.75459C48.3941 5.0256 48.0285 5.3912 47.7575 5.84883C47.668 6.03291 47.5939 6.22466 47.5198 6.4164C47.1848 6.96864 47.0826 7.55666 47.034 8.19837C47.0212 8.362 47.0212 8.52818 47.034 8.6918C47.0647 9.07019 47.0902 9.4818 47.2079 9.84996H47.213Z" fill="white"/>
</svg>
