<svg width="216" height="82" viewBox="0 0 216 82" fill="none" xmlns="http://www.w3.org/2000/svg">
<g clip-path="url(#clip0_590_63)">
<path d="M104.463 29.5594C97.316 29.5594 92.3809 24.7351 92.3809 17.6989C92.3809 10.6628 97.87 5.43359 104.608 5.43359C111.789 5.43359 116.724 10.2579 116.724 17.3324C116.724 24.4069 111.201 29.5594 104.459 29.5594H104.463ZM111.942 17.7756C111.942 11.1827 108.554 7.50054 104.429 7.50054C100.303 7.50054 97.1711 10.8503 97.1711 17.26C97.1711 23.6696 100.559 27.535 104.646 27.535C108.733 27.535 111.938 24.1853 111.938 17.7756H111.942Z" fill="white"/>
<path d="M124.353 29.0093V19.3948L116.469 5.9873H121.476L127.592 16.6673H127.958L134.146 5.9873H136.652L128.845 19.3564V29.005H124.353V29.0093Z" fill="white"/>
<path d="M139.162 24.8075C141.408 26.721 143.437 27.4967 145.793 27.4967C149.22 27.4967 150.801 25.6172 150.801 23.7037C150.801 21.6027 149.437 20.4605 145.056 19.0243C140.454 17.5498 138.169 15.6362 138.169 12.1373C138.169 8.63843 140.858 5.43359 146.531 5.43359C149.292 5.43359 152.02 6.06007 153.861 6.83145L152.868 9.92548C150.733 8.15685 148.67 7.49628 146.275 7.49628C143.548 7.49628 141.894 9.00494 141.894 10.7736C141.894 12.9087 143.552 14.0168 147.306 15.193C152.646 16.8892 154.709 18.8752 154.709 22.4508C154.709 26.2096 151.432 29.5594 145.389 29.5594C142.849 29.5594 140.27 28.8945 138.131 27.8632L139.162 24.8075Z" fill="white"/>
<path d="M163.432 29.0093V8.12244C159.861 8.23325 157.909 8.4165 156.029 9.08134V5.9873H175.292V9.08134C173.413 8.4165 171.499 8.23325 167.924 8.12244V29.005H163.432V29.0093Z" fill="white"/>
<path d="M178.387 29.0093V5.9873H193.341V9.04298C191.645 8.45486 190.026 8.12244 186.305 8.12244H182.845V16.3348H190.286V18.3975H182.845V26.8699H186.305C190.026 26.8699 191.645 26.5375 193.341 25.9493V29.005H178.387V29.0093Z" fill="white"/>
<path d="M210.764 29.0094L205.13 19.3224L202.402 19.2116V29.0094H197.91V6.02574L205.939 5.87658C211.944 5.76578 214.595 8.27169 214.595 11.8047C214.595 14.7879 212.681 17.2171 209.477 18.2484L215.959 29.0051H210.764V29.0094ZM202.402 8.01172V17.0338C202.99 17.1063 203.949 17.183 204.648 17.183C207.67 17.183 209.805 15.4868 209.805 12.6144C209.805 9.74199 208.036 8.01172 204.576 8.01172H202.402Z" fill="white"/>
<path d="M93.7109 69.6372V46.692L101.224 46.5428C107.779 46.432 110.063 48.7888 110.063 51.9211C110.063 54.7211 107.817 56.8179 104.834 57.5935V57.7768C108.81 58.4416 110.839 60.6109 110.839 63.4108C110.839 67.387 107.562 69.9313 100.858 69.7821L93.7109 69.633V69.6372ZM100.487 56.8946C103.692 56.8946 105.311 54.9811 105.311 52.9184C105.311 50.4125 103.581 48.6822 100.044 48.6822H98.2028V56.8946H100.487ZM100.56 67.6129C104.208 67.6129 106.049 65.8443 106.049 63.1935C106.049 60.7984 103.692 58.8848 100.082 58.8848H98.2028V67.6129H100.56Z" fill="white"/>
<path d="M127.851 69.6757L125.533 62.6779H117.282L114.963 69.6757H112.568L119.715 48.7548V47.391L124.578 45.9932L132.607 69.6757H127.855H127.851ZM121.629 50.5959H121.296L117.981 60.6493H124.834L121.629 50.5959Z" fill="white"/>
<path d="M139.972 69.6753V60.0608L132.088 46.6533H137.095L143.211 57.3333H143.578L149.766 46.6533H152.272L144.464 60.0224V69.671H139.972V69.6753Z" fill="white"/>
<path d="M29.2733 26.1668C25.7147 33.1219 18.1629 36.7018 13.2278 42.4594C10.8711 45.1358 9.20472 48.3918 9.11096 52.0143C9.02147 53.9236 8.97885 56.0203 8.5271 57.9339C8.09667 59.9284 7.33808 61.8802 6.37066 63.6318C4.96854 66.2102 3.32351 68.3922 2.3433 71.0558C1.47817 73.4722 1.26508 76.4427 2.94847 78.5437C4.02243 79.8776 5.79958 80.6916 7.55969 80.6703C9.43486 80.6788 10.9776 79.5665 12.4564 78.4798C14.0035 77.2865 15.8531 76.3148 17.8135 75.9483C19.2198 75.6201 20.737 75.8332 22.1306 75.6457C23.5455 75.4284 24.6578 74.3203 26.1068 74.0689C27.1637 73.8345 28.242 73.8558 29.2477 73.9921C32.5804 74.316 36.6206 76.6089 39.4248 74.3885C41.5557 72.4409 42.847 70.3441 46.2393 70.5785C46.8957 70.5785 47.3005 70.6168 47.7693 70.4165C48.5407 70.0074 48.9115 69.1508 49.4058 68.3496C49.9854 67.3481 50.6673 66.3039 51.7881 65.6434C52.7087 65.0339 54.098 64.9913 55.0399 64.8038C58.0146 64.0836 59.8727 61.616 61.8374 59.2635C63.0093 57.8103 64.0961 56.3442 64.9399 54.8015C65.9073 53.1266 66.2568 51.5583 66.9515 49.6746C67.6589 47.7057 69.1122 45.9115 70.5313 44.4667C73.2674 41.8543 75.2235 38.8796 76.8345 35.4446C77.4737 34.0595 78.6628 31.7752 79.1273 30.3262C80.6232 26.0176 79.5151 24.0444 76.2208 21.0484C74.8527 19.7187 73.2887 18.0524 73.3398 15.9897L73.6552 15.9727C73.766 16.9017 74.2263 17.7157 74.8229 18.4019C76.0844 19.8338 77.7635 20.7842 79.1656 22.1394C82.6986 25.2803 81.7312 29.883 80.1757 33.7697C79.0804 36.5313 78.0235 39.2035 76.4637 41.7989C75.4664 43.4865 74.0601 45.0932 72.7773 46.5209C71.601 47.8719 70.5612 49.1248 69.9901 50.7997C69.4318 52.5427 68.8522 54.729 67.8933 56.3996C66.9131 58.2365 65.7028 59.8644 64.4626 61.3901C62.2593 64.1091 59.4082 67.2501 55.6621 67.9234C54.8523 68.0896 54.2941 68.0555 53.6591 68.209C53.2457 68.3368 53.0411 68.5073 52.6959 68.8951C52.1333 69.5685 51.7242 70.4251 51.1404 71.2092C50.4627 72.2235 49.1672 73.2506 47.8673 73.3742C46.8232 73.5404 45.8728 73.3188 45.0077 73.4253C43.2817 73.8131 42.506 75.3644 40.9462 76.4043C40.0172 77.0904 38.8196 77.5294 37.6817 77.6189C33.6714 77.9343 30.2365 75.1173 26.3924 75.5605C25.4718 75.6798 24.7473 76.1188 23.8566 76.4938C22.4545 77.1373 20.8223 76.8646 19.3562 76.8816C17.9882 76.9157 16.6244 77.2183 15.3843 77.8064C12.7889 79.0253 10.6835 81.642 7.58526 81.6931C4.44008 81.8934 1.26934 79.737 0.408467 76.6515C-0.507809 73.6469 0.225212 70.4038 1.47391 67.6294C2.67572 64.9359 4.14602 62.6474 5.07082 59.9539C5.99136 57.4608 6.20445 54.4904 6.32378 51.8438C6.46442 48.7626 7.61509 45.6472 9.48174 43.1754C12.3883 39.1395 16.5989 36.3481 20.5964 33.5822C23.7075 31.3959 26.7504 29.1159 29.0091 26.0176L29.2776 26.1796L29.2733 26.1668Z" fill="white"/>
<path d="M65.0892 42.1442C66.1376 39.0715 67.2371 35.8624 69.5428 33.4716C71.5756 31.2427 74.5929 29.2482 74.789 26.0135C74.8572 23.9423 73.9068 22.0373 73.2547 20.0343C72.7135 18.4531 72.3214 16.4331 72.722 14.6985C73.3613 11.3957 75.4325 8.29313 70.621 7.52176C69.0313 7.18934 66.99 6.9592 65.4813 5.8682C64.8889 5.44628 64.3519 4.81128 64.0281 4.17202C63.6104 3.40917 63.6232 3.0597 63.2098 2.75286C62.3276 2.35651 61.3091 2.69319 60.4056 3.02561C58.4324 3.80125 56.3612 5.33974 54.0939 5.46759C52.9475 5.63806 51.5752 4.9647 50.6802 4.58967C49.3293 4.21464 48.6176 5.91508 47.9527 6.86971C47.7268 7.23622 47.2368 7.9181 46.9725 8.25904C42.2931 14.2255 33.923 16.4459 30.4582 23.4351C29.005 26.4098 29.4823 29.4953 29.0305 32.8323C28.3657 35.0441 27.2321 37.1324 25.7277 38.9351C22.9959 42.2465 19.041 44.4157 16.8249 47.9146C14.8304 51.1834 14.6557 55.6156 15.4611 59.3233C16.305 63.0737 18.5509 66.5172 22.0754 68.158C24.5387 69.364 27.5048 69.6368 30.0406 68.5373C30.8929 68.1665 31.8348 67.5954 33.0068 67.1223C35.2229 66.1507 37.9461 66.5172 40.1622 66.8581C42.0758 67.1224 43.7847 67.2673 45.3786 66.1762C48.8477 63.6405 49.4358 59.0676 52.3679 55.8884C53.1521 55.0275 54.0854 54.3371 55.0315 53.766C56.8683 52.6239 58.8671 51.8184 60.4908 50.4078C62.9243 48.2726 64.0366 45.136 65.0892 42.1357V42.1442ZM65.3875 42.2465C64.3434 45.3107 63.2822 48.5326 60.917 50.8723C59.3572 52.4023 57.3797 53.4293 55.658 54.6993C52.9475 56.5575 51.9673 59.3915 50.8081 62.4472C49.5807 65.7586 47.2453 69.3342 43.4054 69.8669C41.1041 70.2334 38.8837 69.6538 36.7528 69.6496C34.6433 69.5558 33.3903 70.617 31.4001 71.5546C26.2306 73.9241 19.9232 72.0404 16.2453 67.9236C12.6867 63.8919 11.4764 58.2707 12.1583 53.0586C12.4566 50.7359 13.1427 48.3749 14.4852 46.4017C17.038 42.596 21.1207 40.61 24.121 37.4989C25.5146 36.0499 26.6141 34.2983 27.3642 32.3933L27.3301 32.5297C27.7478 30.5267 27.7733 28.3191 28.2421 26.1073C28.7194 23.8698 29.8616 21.8114 31.3106 20.128C35.6831 14.95 42.7236 12.6316 46.3801 6.84414C47.3902 5.06272 48.5153 2.34373 51.0979 2.9148C52.2784 3.2046 52.8324 3.68618 53.9277 3.50292C55.8711 3.18755 57.5246 1.6448 59.4467 0.796712C61.2963 -0.128088 64.0195 -0.567049 65.5026 1.2655C66.3422 2.31816 66.2229 2.96594 67.1093 3.59668C68.3026 4.35101 69.6706 4.39789 71.2134 4.75162C73.1525 5.09256 75.3856 6.09833 76.1016 8.14823C77.2224 11.1528 75.0702 13.778 74.8401 16.578C74.7464 18.5895 75.5603 20.6139 75.9652 22.6638C77.4824 29.4698 72.5601 30.8676 68.8737 35.0399C67.169 37.1324 66.2697 39.7065 65.3918 42.2465H65.3875Z" fill="white"/>
<path d="M53.2373 25.1996C52.9006 25.2593 52.5128 25.2849 52.1548 25.1186C51.8054 24.9482 51.5795 24.6626 51.3494 24.4368C50.9104 23.9722 50.2839 23.8103 49.6702 23.9509C47.5522 24.3899 46.7808 26.7722 44.6669 27.3603C43.8743 27.5947 43.0944 27.4797 42.4679 27.4583C41.2618 27.3816 40.2049 27.8376 39.3057 28.5621C37.3751 30.1262 36.6037 32.4446 35.9559 34.8269C35.2996 37.4095 34.4515 40.2649 33.0111 42.5876C31.5706 45.0125 29.7466 47.1306 27.7819 49.0356C26.7974 49.986 25.7831 50.9022 24.7475 51.7716C23.729 52.6325 22.8255 53.4934 22.4632 54.6696C21.1804 58.5904 24.82 62.0936 28.7365 61.3009C29.8275 61.1347 31.5578 60.7938 32.6829 60.5892C36.3011 60.4187 40.1282 59.0592 42.2931 56.076C43.4268 54.4523 43.9936 52.3299 45.4383 50.8298C46.8532 49.2316 48.852 48.0724 50.5183 46.9942C52.5384 45.7072 54.5073 44.0493 55.8753 42.1401C56.6297 41.0917 56.8598 40.1754 57.3457 38.9011C58.3514 36.2546 60.2394 34.2473 61.5392 31.9502C62.4683 30.3222 62.8604 28.4428 63.2738 26.6188C63.8704 24.7607 62.5578 23.4012 60.7636 23.1923C58.1426 22.8983 55.7944 24.7521 53.2373 25.1996ZM53.1819 24.8885C56.3995 24.2578 59.5191 21.1296 62.9584 22.8386C65.4771 24.0873 65.0637 26.508 64.8676 28.869C64.7398 30.2754 64.4883 31.7414 63.9343 33.0668C63.3846 34.4263 62.6558 35.6239 61.9995 36.7532C60.8445 38.573 60.3843 39.9623 59.7365 41.9483C58.3301 45.3833 55.3512 47.9105 52.2614 49.7857C50.1092 51.1111 47.9868 52.087 46.6742 54.2307C45.9923 55.3472 45.417 56.7025 44.5135 57.785C41.7263 61.2839 37.0853 62.588 32.798 62.3408C32.099 62.3536 27.8671 62.8991 26.7079 62.5453C24.56 62.1405 22.6081 60.683 21.7515 58.6501C20.9034 56.6343 21.1463 54.1667 22.4931 52.4194C23.7758 50.817 25.293 49.5044 26.5247 47.8849C28.9752 44.825 30.9398 41.5093 32.1587 37.8357C32.994 35.2787 33.5012 32.5 34.9885 30.0793C36.3736 27.8462 38.7644 25.9369 41.509 25.9539C42.4551 25.9369 43.61 26.4142 44.4368 26.3119C45.6599 26.1329 46.6146 25.0547 47.6502 24.3387C48.7582 23.5503 50.5567 23.0133 51.588 24.1981C52.027 24.7308 52.483 25.0547 53.1862 24.8885H53.1819Z" fill="white"/>
<path d="M33.3057 50.5017C34.4777 49.6835 35.7903 48.8738 36.6384 47.7188C37.1413 46.7855 37.1328 45.7414 37.1072 44.6759C36.8728 41.1941 37.7721 37.4949 40.0905 34.7887C41.5906 32.9561 44.024 32.6066 46.2359 32.6748C48.4179 32.6663 50.8983 33.7104 51.4949 36.0331C52.2918 39.6684 48.5926 42.6005 46.5214 45.1021C44.3138 47.5569 42.0892 49.9861 39.6558 52.215C37.8914 53.9921 35.5474 55.569 32.935 55.6073C32.1039 55.6372 30.9021 55.6627 30.4163 54.7678C30.1691 54.2904 30.2629 53.8259 30.412 53.3955C30.8723 52.0189 32.1593 51.2092 33.31 50.5017H33.3057ZM33.489 50.7702C32.4491 51.4479 31.3453 52.2959 31.2601 53.6C31.226 53.8728 31.307 54.1413 31.388 54.1455C33.2333 53.8898 34.7505 52.5943 35.9992 51.2561C38.5605 48.3794 41.4542 45.5368 44.3479 42.9457C45.3196 42.055 46.2828 41.1515 47.2971 40.3034C48.6949 39.0803 50.1567 38.0958 50.1397 36.2718C49.7305 33.0115 44.8082 33.2672 42.9075 34.8696C42.1105 35.5558 41.6886 36.617 41.2752 37.7506C40.653 39.4979 40.1288 41.2537 39.6558 43.0479C39.2296 44.6674 38.8673 46.5511 37.7508 47.9234C37.0987 48.7629 36.0205 49.1977 35.1639 49.7304C34.5928 50.0628 34.0345 50.4122 33.4847 50.7788L33.489 50.7702Z" fill="white"/>
<path d="M45.6473 38.9733C45.8902 38.5642 45.464 38.0869 45.106 37.9888C45.0591 37.9633 45.0634 37.9377 45.0805 37.878C45.2211 37.4348 44.552 37.2899 44.2622 37.5286C44.1599 37.601 44.1173 37.7289 44.1386 37.8311C44.1684 38.0016 44.2963 38.0016 44.373 38.1082C44.4497 38.2957 44.5818 38.3255 44.6884 38.4406C44.8546 38.7517 45.2765 39.5699 45.6473 38.9733ZM45.8092 39.0628C45.626 39.7148 44.9697 40.3839 44.2238 40.2944C42.4382 40.1027 42.093 37.1237 44.0491 36.9447C44.731 36.9021 45.2722 36.2799 46.0053 36.6421C46.5763 36.9063 46.7852 37.584 46.5465 38.0655C46.3632 38.4789 45.9797 38.692 45.8092 39.0585V39.0628Z" fill="white"/>
</g>
<defs>
<clipPath id="clip0_590_63">
<rect width="215.96" height="81.6935" fill="white"/>
</clipPath>
</defs>
</svg>
