<svg width="188" height="81" viewBox="0 0 188 81" fill="none" xmlns="http://www.w3.org/2000/svg">
<path d="M83.2763 24.7203C82.555 24.8072 81.8677 24.8525 81.222 24.8525H65.5273C64.908 24.8525 64.2282 24.8072 63.4918 24.7203C62.7554 24.6334 62.0833 24.5277 61.479 24.4106C60.8748 24.2936 60.4254 24.1765 60.1309 24.0557V30.3358L60.5727 30.2905V29.6258C60.5727 28.6817 60.8748 27.9076 61.479 27.3034C62.0833 26.6991 62.8574 26.3819 63.8015 26.3517H71.3165V52.6127C71.2863 53.3793 70.9993 54.0364 70.4555 54.5802C69.9079 55.124 69.2546 55.3959 68.488 55.3959H67.914V55.8377H78.8353V55.3959H78.2613C77.4947 55.3959 76.8376 55.124 76.2938 54.5802C75.75 54.0364 75.4592 53.3793 75.4328 52.6127V26.3517H82.9478C83.8918 26.3819 84.666 26.6991 85.2702 27.3034C85.8745 27.9076 86.1766 28.6817 86.1766 29.6258V30.2905L86.6184 30.3358V24.0557C86.3541 24.1727 85.9122 24.2936 85.2929 24.4106C84.6736 24.5277 84.0014 24.6334 83.2801 24.7203H83.2763Z" fill="white"/>
<path d="M111.879 55.0037C113.722 54.0294 115.134 52.6737 116.124 50.9366C117.109 49.1995 117.604 47.164 117.604 44.834V27.5495C117.604 26.8999 117.831 26.3712 118.288 25.9596C118.745 25.548 119.296 25.3403 119.945 25.3403H120.652V24.8984H112.121V25.3403H112.827C113.477 25.3403 114.028 25.548 114.485 25.9596C114.942 26.3712 115.168 26.9037 115.168 27.5495V44.9246C115.168 46.9298 114.779 48.6821 113.998 50.1851C113.216 51.6881 112.109 52.8512 110.682 53.6782C109.251 54.5053 107.582 54.9169 105.663 54.9169C103.745 54.9169 102.238 54.4826 100.867 53.614C99.4964 52.7455 98.4352 51.5144 97.6837 49.9245C96.9322 48.3347 96.5583 46.4767 96.5583 44.3544V27.5532C96.5583 26.9037 96.7849 26.375 97.2419 25.9634C97.6988 25.5518 98.2502 25.3441 98.8997 25.3441H99.6059V24.9022H89.3945V25.3441H90.1007C90.7503 25.3441 91.3016 25.5518 91.7585 25.9634C92.2155 26.375 92.4421 26.9075 92.4421 27.5532V44.883C92.4421 47.2131 92.9594 49.2448 93.9904 50.9857C95.0213 52.7266 96.5092 54.0748 98.4541 55.0302C100.399 55.9894 102.714 56.469 105.395 56.469C107.872 56.469 110.029 55.9818 111.872 55.0113L111.879 55.0037Z" fill="white"/>
<path d="M127.952 55.8458H144.266L146.652 48.0664H146.21C145.738 49.3051 145.164 50.3964 144.485 51.3368C143.805 52.2808 142.951 53.0097 141.92 53.5233C140.889 54.0406 139.605 54.2974 138.076 54.2974H131.932V28.1233C131.962 27.3567 132.249 26.7034 132.793 26.1558C133.337 25.612 133.994 25.3364 134.76 25.3364H135.334V24.8945H124.413V25.3364H124.987C125.754 25.3364 126.411 25.6083 126.955 26.1558C127.498 26.7034 127.785 27.3567 127.816 28.1233V52.6169C127.785 53.3836 127.498 54.0406 126.955 54.5844C126.411 55.1282 125.754 55.4001 124.987 55.4001H124.413V55.842H127.952V55.8458Z" fill="white"/>
<path d="M156.908 24.8984H149.525V25.3403H150.099C150.866 25.3403 151.523 25.6122 152.067 26.1597C152.611 26.7073 152.898 27.3606 152.928 28.1272V52.6208C152.898 53.3875 152.611 54.0445 152.067 54.5883C151.523 55.1321 150.866 55.404 150.099 55.404H149.525V55.8459H160.447V55.404H159.873C159.106 55.404 158.449 55.1321 157.905 54.5883C157.361 54.0445 157.071 53.3875 157.044 52.6208V28.1272C157.074 27.3606 157.361 26.7073 157.905 26.1597C158.449 25.6159 159.106 25.3403 159.873 25.3403H160.447V24.8984H156.908Z" fill="white"/>
<path d="M181.466 41.7638C182.63 41.3937 183.668 40.8272 184.582 40.0606C185.496 39.294 186.225 38.3461 186.768 37.2094C187.312 36.0765 187.573 34.8152 187.543 33.4293C187.543 31.6921 187.165 30.1816 186.414 28.8976C185.662 27.6174 184.571 26.628 183.143 25.9369C181.712 25.2459 179.937 24.8984 177.815 24.8984H165.213L165.258 25.3403H165.787C166.554 25.3403 167.214 25.6122 167.777 26.1597C168.336 26.7073 168.615 27.3606 168.615 28.1272V52.6208C168.585 53.3875 168.298 54.0445 167.754 54.5883C167.207 55.1321 166.554 55.404 165.787 55.404H165.213V55.8459H176.134V55.404H175.56C174.794 55.404 174.136 55.1321 173.593 54.5883C173.049 54.0445 172.758 53.3875 172.732 52.6208V26.4052H177.108C178.966 26.4052 180.401 27.0094 181.417 28.2179C182.433 29.4263 182.958 31.02 182.988 32.9912C183.019 33.4331 183.003 33.8976 182.943 34.3847C182.883 34.8719 182.811 35.291 182.724 35.646C182.369 36.8545 181.848 37.8137 181.153 38.5198C180.458 39.226 179.722 39.7283 178.944 40.0228C178.162 40.3174 177.411 40.4949 176.689 40.5515C175.968 40.612 175.149 40.5969 174.235 40.5062V40.9481C175.413 41.6278 176.621 42.0243 177.86 42.1414C179.099 42.2585 180.3 42.1338 181.463 41.7675L181.466 41.7638Z" fill="white"/>
<path d="M22.7678 0H22.6092C10.1434 0 0 10.1434 0 22.613V57.907C0 70.3766 10.1434 80.52 22.613 80.52H22.7716C35.2412 80.52 45.3845 70.3766 45.3845 57.907V22.613C45.3808 10.1434 35.2374 0 22.7678 0ZM22.7678 78.9264H22.6092C16.1138 78.9264 10.302 75.9657 6.44251 71.3245H38.9345C35.075 75.9657 29.2594 78.9264 22.7678 78.9264ZM5.75143 53.0997C7.33373 52.8807 8.91981 52.9373 10.4492 53.247C10.7589 54.7953 10.808 56.3663 10.589 57.9335C9.02177 58.1525 7.44702 58.1034 5.89871 57.79C5.58904 56.2605 5.5324 54.6782 5.75143 53.0997ZM24.7428 53.4962C26.5215 51.2228 28.7987 49.463 31.3553 48.2999C31.2647 50.3694 31.5063 52.4237 32.0766 54.429L23.2096 65.7204C23.0473 63.6849 22.4883 61.7061 21.5669 59.8934C22.1787 57.5634 23.2436 55.4108 24.7428 53.4962ZM23.1983 68.311L33.3228 55.4146C33.5531 55.4222 33.7797 55.4335 34.0101 55.4335C35.8605 55.4335 37.6807 55.1654 39.4519 54.6442C38.9383 57.401 37.7751 60.0369 36.004 62.3027C32.847 66.3397 28.1945 68.7679 23.1152 69.0662C23.1492 68.8132 23.1756 68.5602 23.1983 68.3072V68.311ZM39.6935 52.9033C37.7109 53.5755 35.649 53.8927 33.5569 53.8399C33.0018 51.8157 32.813 49.7387 32.9905 47.6504C34.9429 46.9857 37.0199 46.6572 39.1309 46.7063C39.6898 48.7455 39.871 50.8414 39.6973 52.8995L39.6935 52.9033ZM21.6424 67.8653L12.1335 58.3564C12.3714 56.8043 12.3752 55.2447 12.1411 53.7001C14.1614 54.3799 16.0307 55.5204 17.5791 57.0687C20.4415 59.9312 21.8992 63.8737 21.6424 67.8691V67.8653ZM8.65169 59.6593C9.4334 59.6593 10.2189 59.5951 11.0044 59.478L20.5171 68.9907C16.5254 69.2475 12.5791 67.786 9.71663 64.9273C8.16454 63.3752 7.02407 61.5059 6.3481 59.4818C7.1147 59.5951 7.88131 59.663 8.65547 59.663L8.65169 59.6593ZM43.7909 57.907C43.7909 62.3858 42.3785 66.5361 39.9843 69.9499V69.7346H28.0698C31.6612 68.564 34.8598 66.3548 37.2578 63.2884C41.1286 58.3375 42.3446 51.7855 40.5017 45.7395L40.3242 45.1731L39.7728 45.1429C33.4625 44.7917 27.375 47.5446 23.4853 52.5181C23.4853 52.5181 23.4853 52.5181 23.4853 52.5219V43.3038C29.6521 42.3974 34.4028 37.069 34.4028 30.6529V15.5323H33.606C32.5675 15.5398 31.5668 15.7211 30.6378 16.0496C30.026 13.6327 27.8282 11.8541 25.2527 11.8541C23.2814 11.8541 21.4952 12.8926 20.502 14.5315C17.5979 11.9938 13.7989 10.4606 9.65998 10.4606H8.86317V30.7058C8.86317 33.134 9.55424 35.498 10.8533 37.5372C13.2098 41.2381 17.2316 43.4435 21.6122 43.4435C21.7066 43.4435 21.7973 43.4397 21.8917 43.4359V54.901C21.3214 55.9093 20.8456 56.9629 20.4642 58.0543C19.9431 57.3066 19.354 56.5966 18.6969 55.9395C15.1055 52.3482 9.97342 50.7319 4.96594 51.6118L4.36927 51.7175L4.27109 52.2651C3.36853 57.2915 4.98482 62.4425 8.58749 66.0489C10.2642 67.7256 12.2732 68.968 14.4522 69.7309H5.35113V69.8819C2.98334 66.4794 1.58986 62.3518 1.58986 57.9033V22.613C1.58986 11.0195 11.0195 1.58986 22.613 1.58986H22.7716C34.3613 1.58986 43.7909 11.0195 43.7909 22.6092V57.9033V57.907ZM10.4568 30.7058V12.0731C17.9907 12.4696 24.0933 18.4816 24.52 26.0872V41.4684C23.5948 41.7177 22.6205 41.8536 21.616 41.8536C17.783 41.8536 14.2596 39.9201 12.1977 36.68C11.061 34.8938 10.4606 32.8281 10.4568 30.702V30.7058ZM26.1099 26.0608V24.6522C26.1099 20.7852 29.0517 17.5828 32.813 17.175V30.6567C32.813 35.2336 30.0524 39.1724 26.1099 40.9095V26.0608ZM25.1545 21.3177C24.3879 19.1991 23.1945 17.2883 21.6878 15.6795C22.3448 14.3276 23.7194 13.4477 25.2527 13.4477C27.1899 13.4477 28.8289 14.8563 29.1574 16.7256C27.3523 17.749 25.9249 19.3691 25.1545 21.3177Z" fill="white"/>
</svg>
