<svg width="279" height="65" viewBox="0 0 279 65" fill="none" xmlns="http://www.w3.org/2000/svg">
<path d="M88.1354 42.5998V19.2942H86.4657C83.8071 19.2942 81.8176 19.5725 80.1123 20.0995V17.4883H99.9658V20.0995C98.2606 19.5784 96.2711 19.2942 93.6125 19.2942H91.9842V42.5998H88.1354Z" fill="white"/>
<path d="M104.259 42.5998V17.4883H119.346V20.0995C117.641 19.5784 116.012 19.2942 112.276 19.2942H108.066V28.9397H116.125V30.7457H108.066V40.7879H112.276C116.006 40.7879 117.635 40.4682 119.346 39.9826V42.5939H104.259V42.5998Z" fill="white"/>
<path d="M138.127 42.5998L131.732 31.7938L128.28 31.6754V42.6058H124.432V17.5298L132.176 17.3699C138.453 17.2515 141.111 19.9811 141.111 23.6759C141.111 27.051 138.968 29.6622 135.356 30.8286L142.544 42.5998H138.139H138.127ZM128.28 19.2528V29.6977C128.955 29.8161 129.986 29.899 130.779 29.899C134.391 29.899 137.055 28.0102 137.055 24.5167C137.055 21.0233 134.989 19.2528 131.099 19.2528H128.28Z" fill="white"/>
<path d="M167.988 42.5998L167.194 20.8633H166.756L159.254 41.5932H157.152L149.686 20.8633H149.212L148.46 42.5998H146.316L147.228 17.4883H152.433L158.905 35.7727H159.224L165.738 17.4883H170.942L171.854 42.5998H168.005H167.988Z" fill="white"/>
<path d="M177.8 42.5998V17.4883H181.649V42.5998H177.8Z" fill="white"/>
<path d="M203.052 42.8018L190.346 21.989H190.109V42.6005H188.007V17.6488L192.057 17.3291L204.645 38.059H204.923V17.489H207.026V42.482L203.052 42.8018Z" fill="white"/>
<path d="M227.116 42.5998L224.493 34.3635H215.718L213.095 42.5998H210.993L218.46 19.6199V18.335L222.747 16.6475L231.166 42.5998H227.116ZM220.248 21.0232H219.97L216.275 32.5516H223.901L220.248 21.0232Z" fill="white"/>
<path d="M235.14 42.5998V17.4883H238.911V40.7938H243.157C246.887 40.7938 248.515 40.4741 250.227 40.0715V42.6057H235.14V42.5998Z" fill="white"/>
<path d="M264.247 38.2181C265.638 40.4267 267.024 41.4333 269.487 41.4333C272.744 41.4333 274.929 39.1003 274.929 36.4536C274.929 32.5989 272.507 30.1061 264.206 29.2239L266.906 17.4941H278.458V20.9521H267.977L266.906 25.6949C275.402 27.1041 278.304 30.4792 278.304 35.0562C278.304 39.6332 275.124 43.2096 269.689 43.2096C267.03 43.2096 264.484 42.4872 262.66 40.9181L264.247 38.224V38.2181Z" fill="white"/>
<path d="M29.0967 63.5543C30.3461 63.1161 31.5362 62.524 32.6435 61.7898C31.4119 60.8779 30.2869 59.818 29.298 58.6042C27.0362 55.8331 26.2013 53.0206 25.846 51.8245C24.8454 48.4554 25.0467 46.0573 25.2362 43.7422C25.4197 41.5573 25.5855 39.4967 24.6381 36.7197C24.2236 35.5118 23.2763 33.2914 21.417 31.1953C21.3933 31.1953 21.3697 31.2072 21.346 31.2131C19.1611 31.7282 17.0946 32.2137 14.5012 34.0019C13.5656 34.6473 11.3748 36.1513 9.64583 38.8395C7.45502 42.2382 5.87408 47.8988 7.99384 53.6009C10.457 60.2325 16.615 63.4536 21.1328 64.1937C25.094 64.8451 28.4632 63.7733 29.1026 63.5483L29.0967 63.5543Z" fill="white"/>
<path d="M60.5727 15.7417C57.7542 12.8877 54.391 11.7745 53.7456 11.5791C52.4785 11.1942 51.1699 10.9811 49.8436 10.9219C50.2995 12.3844 50.5897 13.9061 50.6785 15.4634C50.8798 19.0338 49.9028 21.799 49.4883 22.9773C48.316 26.2931 46.7469 28.1109 45.231 29.8754C43.8041 31.5333 42.454 33.1024 41.5896 35.909C41.2165 37.1288 40.6777 39.4854 40.9501 42.2742C40.9738 42.2861 40.9974 42.292 41.0152 42.3038C43.0876 43.1742 45.0416 43.9914 48.1916 44.0743C49.3285 44.1039 51.9871 44.169 54.9595 43.0144C58.7312 41.5519 63.3379 37.8985 64.9721 32.0425C66.8728 25.2273 63.7879 19.0042 60.5668 15.7476L60.5727 15.7417Z" fill="white"/>
<path d="M44.3192 63.5252C51.389 63.2292 56.3509 58.3679 58.4529 54.3001C60.2944 50.7356 60.3181 47.1948 60.3003 46.5198C60.2707 45.1934 60.0753 43.8849 59.7141 42.6059C58.4648 43.4941 57.1088 44.2401 55.6522 44.8026C52.9285 45.8566 50.4831 46.0046 48.991 46.0046C48.6535 46.0046 48.3693 45.9987 48.1383 45.9928C44.6271 45.904 42.4067 44.9744 40.2632 44.0743C38.2441 43.2276 36.3375 42.4283 33.4007 42.4756C32.1276 42.4934 29.7177 42.7125 27.1539 43.8375C27.1539 43.8612 27.1539 43.8849 27.1479 43.9086C26.9644 46.1467 26.7868 48.2606 27.6868 51.2804C28.0124 52.3698 28.7644 54.9159 30.7835 57.391C33.3414 60.5232 38.2382 63.7799 44.3133 63.5252H44.3192Z" fill="white"/>
<path d="M24.5541 1.81526C20.9718 3.61528 18.8698 6.46926 18.4849 7.01992C17.727 8.10941 17.1171 9.28772 16.6553 10.5312C18.1888 10.5489 19.7224 10.7443 21.2323 11.141C24.6902 12.0529 27.0172 13.8351 28.012 14.599C30.8008 16.7365 32.0502 18.7911 33.2522 20.7747C34.389 22.6458 35.4608 24.4162 37.8647 26.1037C38.9069 26.8379 40.9793 28.0754 43.7207 28.6794C43.7385 28.6616 43.7503 28.6439 43.7681 28.6261C45.2306 26.9267 46.6162 25.3162 47.6701 22.3438C48.0491 21.2721 48.9372 18.7674 48.7537 15.576C48.5287 11.5377 46.48 6.02518 41.4115 2.66198C35.52 -1.25189 28.6456 -0.239375 24.5541 1.81526Z" fill="white"/>
<path d="M6.02782 41.9667C6.51335 40.516 7.17651 39.1127 8.02323 37.8041C9.95944 34.7962 12.3753 33.1324 13.4055 32.4277C16.301 30.4382 18.6398 29.8817 20.9017 29.3488C23.0333 28.8455 25.0465 28.3718 27.3912 26.6073C28.4097 25.8434 30.2275 24.2447 31.6426 21.8289C31.6308 21.8112 31.6189 21.7934 31.6071 21.7697C30.4406 19.8513 29.3393 18.0394 26.8406 16.121C25.9406 15.4282 23.8267 13.8117 20.7418 13.0005C16.8339 11.9703 10.9601 12.213 6.19361 15.9907C0.651434 20.3842 -0.509107 27.2349 0.177744 31.7646C0.781698 35.7317 2.84817 38.6094 3.25081 39.1423C4.05016 40.1963 4.9857 41.1436 6.02782 41.9667Z" fill="white"/>
<path d="M51.667 63.549C51.667 63.549 51.6788 63.543 51.6848 63.5371C51.6788 63.5371 51.6729 63.543 51.667 63.549Z" fill="white"/>
</svg>
