<svg width="123" height="44" viewBox="0 0 123 44" fill="none" xmlns="http://www.w3.org/2000/svg">
<g clip-path="url(#clip0_590_86)">
<path d="M58.6808 5.92871C60.0237 5.92871 61.1999 6.18765 62.2094 6.70773C63.2188 7.2278 63.9978 7.96513 64.5464 8.92408C65.095 9.88085 65.3693 11.0088 65.3693 12.3035C65.3693 13.5982 65.095 14.7261 64.5464 15.6829C63.9978 16.6396 63.2188 17.3792 62.2094 17.8992C61.1999 18.4193 60.0237 18.6783 58.6808 18.6783C57.3378 18.6783 56.1462 18.4193 55.1434 17.8992C54.1383 17.3792 53.3637 16.6418 52.8151 15.6829C52.2665 14.7261 51.9922 13.5982 51.9922 12.3035C51.9922 11.0088 52.2665 9.88085 52.8151 8.92408C53.3637 7.96732 54.1405 7.2278 55.1434 6.70773C56.1484 6.18765 57.3268 5.92871 58.6808 5.92871ZM58.6808 18.0133C59.5563 18.0133 60.3178 17.7807 60.9673 17.3133C61.6147 16.8459 62.1172 16.1876 62.4727 15.334C62.8282 14.4825 63.0059 13.4709 63.0059 12.3035C63.0059 11.1361 62.8282 10.1266 62.4727 9.273C62.1172 8.42156 61.6147 7.76105 60.9673 7.29364C60.32 6.82623 59.5585 6.59362 58.6808 6.59362C57.803 6.59362 57.0437 6.82623 56.3942 7.29364C55.7468 7.76105 55.2443 8.42156 54.8888 9.273C54.5333 10.1244 54.3556 11.1361 54.3556 12.3035C54.3556 13.4709 54.5333 14.4803 54.8888 15.334C55.2443 16.1854 55.7468 16.8459 56.3942 17.3133C57.0415 17.7807 57.803 18.0133 58.6808 18.0133Z" fill="#FAF5EB"/>
<path d="M69.5379 7.43464L67.0692 7.38197C66.9046 7.11425 66.6654 6.87506 66.3516 6.6644C66.0356 6.45374 65.6911 6.3484 65.318 6.3484H65.0723V6.17285H70.3784V6.3484H70.1501C69.8934 6.3484 69.6981 6.4691 69.5642 6.70829C69.4304 6.94748 69.4216 7.19106 69.5379 7.43464ZM68.8554 6.1926L72.3928 12.6727L70.4837 13.0414L66.3494 6.1926H68.8532H68.8554ZM70.4486 17.1559V18.4352H69.0463V18.2597H69.2746C69.5774 18.2597 69.8385 18.1522 70.0536 17.9349C70.2686 17.7199 70.3827 17.4587 70.3959 17.1559H70.4486ZM72.5333 12.7956V18.4352H70.3959V12.7956H72.5333ZM75.4562 6.1926H76.718L72.3753 13.1445L71.5699 12.9689L75.4584 6.19041L75.4562 6.1926ZM72.4806 17.1559H72.5333C72.5333 17.4587 72.6452 17.7199 72.8668 17.9349C73.0885 18.15 73.3518 18.2597 73.6546 18.2597H73.8653V18.4352H72.4828V17.1559H72.4806ZM74.7387 7.43464C74.833 7.27225 74.855 7.10548 74.8089 6.93651C74.7628 6.76754 74.6772 6.6271 74.5543 6.51518C74.4314 6.40327 74.2888 6.3484 74.1242 6.3484H73.9136V6.17285H77.9952V6.3484H77.7494C77.3873 6.3484 77.045 6.45374 76.7246 6.6644C76.4042 6.87506 76.1562 7.11425 75.9807 7.38197L74.7365 7.43464H74.7387Z" fill="#FAF5EB"/>
<path d="M82.2525 5.92871C82.4741 5.92871 82.7375 5.93968 83.0403 5.96382C83.3431 5.98796 83.6503 6.01868 83.9598 6.06038C84.2692 6.10207 84.5457 6.14157 84.7914 6.18326C85.0372 6.22496 85.2062 6.26884 85.2984 6.31493L85.1579 8.54006H84.9824C84.9824 7.94538 84.7695 7.47138 84.3438 7.12247C83.9181 6.77137 83.3651 6.59801 82.6892 6.59801C82.0133 6.59801 81.4713 6.77356 81.0697 7.12247C80.6659 7.47358 80.4597 7.89929 80.4487 8.40181C80.4246 8.69367 80.5101 8.97675 80.7033 9.25105C80.8964 9.52535 81.1553 9.77991 81.4823 10.0125L84.8617 12.5163C85.34 12.8323 85.6912 13.2142 85.9128 13.664C86.1344 14.1139 86.2332 14.6186 86.2112 15.1782C86.1761 16.2534 85.7877 17.1049 85.046 17.7347C84.3043 18.3644 83.2971 18.6804 82.0243 18.6804C81.592 18.6804 81.1509 18.6431 80.7011 18.5663C80.2512 18.4895 79.8408 18.3732 79.4656 18.2152C79.0926 18.0572 78.7941 17.8685 78.5725 17.6469C78.5023 17.4143 78.4737 17.1312 78.4847 16.7976C78.4957 16.4641 78.5439 16.1196 78.6251 15.7641C78.7063 15.4086 78.8051 15.1079 78.9236 14.8622H79.0816C79.0355 15.4569 79.1342 15.9989 79.38 16.4816C79.6258 16.9666 79.9835 17.3462 80.4575 17.6205C80.9293 17.8948 81.4867 18.0265 82.1296 18.0155C82.8538 17.9914 83.4353 17.7873 83.872 17.4033C84.3109 17.0171 84.5281 16.5211 84.5281 15.9155C84.5281 15.5644 84.4338 15.2462 84.2472 14.9609C84.0607 14.6756 83.7688 14.4145 83.3717 14.1819L80.2007 11.7834C79.6631 11.4323 79.2813 11.011 79.0531 10.5128C78.8248 10.0169 78.7283 9.50121 78.7634 8.96358C78.7985 8.40401 78.9565 7.89271 79.2352 7.43188C79.5161 6.97106 79.9089 6.60678 80.418 6.33687C80.9249 6.06915 81.5349 5.9331 82.2481 5.9331L82.2525 5.92871ZM85.3181 6.10426L85.3005 6.47293H83.4792V6.10426H85.3181Z" fill="#FAF5EB"/>
<path d="M87.3655 5.84106C87.4818 5.88714 87.6595 5.93542 87.8987 5.9815C88.1379 6.02759 88.4034 6.06928 88.6953 6.10439C88.9871 6.1395 89.2549 6.15706 89.5006 6.15706L87.3633 6.35017V5.84326L87.3655 5.84106ZM98.2081 6.15706V6.82196H87.3677V6.15706H98.2081ZM89.0661 6.7693V6.82196C88.6097 6.83294 88.2432 6.97996 87.9624 7.26085C87.6815 7.54173 87.541 7.9082 87.541 8.36464V8.59286L87.3655 8.61041V6.77149H89.064L89.0661 6.7693ZM91.7806 17.1555V18.4348H90.3784V18.2592H90.6066C90.9095 18.2592 91.1706 18.1517 91.3856 17.9345C91.6007 17.7194 91.7148 17.4583 91.728 17.1555H91.7806ZM93.8631 6.22728V18.4348H91.7258V6.22728H93.8631ZM93.8105 17.1555H93.8631C93.8741 17.4583 93.9882 17.7194 94.2055 17.9345C94.4205 18.1495 94.6817 18.2592 94.9845 18.2592H95.2127V18.4348H93.8105V17.1555ZM98.2081 5.84106V6.34797L96.0707 6.15486C96.3275 6.15486 96.5996 6.13731 96.8848 6.1022C97.1701 6.06709 97.4356 6.02539 97.6814 5.97931C97.9272 5.93323 98.1027 5.88495 98.2059 5.83887L98.2081 5.84106ZM98.2081 6.7693V8.60822L98.0325 8.59066V8.36244C98.0325 7.9082 97.8921 7.53954 97.6112 7.25865C97.3303 6.97777 96.9638 6.83294 96.5074 6.81977V6.7671H98.2059L98.2081 6.7693Z" fill="#FAF5EB"/>
<path d="M100.713 7.45178H100.66C100.649 7.14895 100.535 6.88782 100.318 6.67277C100.101 6.45771 99.8416 6.34799 99.5388 6.34799H99.3105V6.17244H100.711V7.45178H100.713ZM100.713 17.1555V18.4348H99.3127V18.2593H99.541C99.8438 18.2593 100.105 18.1517 100.32 17.9345C100.535 17.7194 100.649 17.4583 100.662 17.1555H100.715H100.713ZM102.797 6.17464V18.4348H100.66V6.17464H102.797ZM107.594 6.17464V6.8571H102.743V6.17464H107.594ZM106.772 12.0579V12.7228H102.743V12.0579H106.772ZM107.439 17.7502L107.737 18.4326H102.745V17.7502H107.439ZM108.663 15.1059L107.788 18.4326H104.513L105.143 17.7502C105.738 17.7502 106.251 17.6426 106.684 17.4254C107.116 17.2103 107.478 16.9009 107.77 16.4972C108.062 16.0934 108.301 15.6304 108.488 15.1037H108.663V15.1059ZM106.772 10.5876V12.093H105.319V12.0579C105.681 12.0469 105.984 11.9174 106.23 11.6716C106.475 11.4259 106.598 11.123 106.598 10.761V10.5854H106.774L106.772 10.5876ZM106.772 12.6898V14.1952H106.596V14.0021C106.596 13.64 106.473 13.3372 106.227 13.0914C105.982 12.8457 105.679 12.7228 105.317 12.7228V12.6877H106.769L106.772 12.6898ZM107.594 5.85864V6.36555L105.457 6.17244C105.714 6.17244 105.986 6.15489 106.271 6.11977C106.556 6.08466 106.822 6.04297 107.068 5.99689C107.314 5.9508 107.489 5.90253 107.592 5.85645L107.594 5.85864ZM107.594 6.80443V8.6258H107.419V8.38002C107.419 7.93675 107.278 7.57248 106.998 7.28501C106.717 6.99973 106.344 6.85051 105.876 6.83735V6.80224H107.592L107.594 6.80443Z" fill="#FAF5EB"/>
<path d="M111.377 7.45219H111.324C111.313 7.14937 111.199 6.88823 110.982 6.67318C110.765 6.45813 110.506 6.3484 110.203 6.3484H109.975V6.17285H111.375V7.45219H111.377ZM111.377 17.1559V18.4352H109.977V18.2597H110.205C110.508 18.2597 110.769 18.1522 110.984 17.9349C111.199 17.7199 111.313 17.4587 111.326 17.1559H111.379H111.377ZM113.462 6.17505V18.4352H111.324V6.17505H113.462ZM115.564 6.17505C116.088 6.17505 116.589 6.23868 117.06 6.36815C117.532 6.49763 117.951 6.69512 118.313 6.96284C118.675 7.23056 118.959 7.57289 119.163 7.98763C119.367 8.40238 119.47 8.89612 119.47 9.46667C119.47 9.98016 119.358 10.4893 119.136 10.9896C118.915 11.4921 118.588 11.909 118.155 12.2426C117.723 12.5762 117.192 12.7649 116.562 12.811C116.878 12.9163 117.179 13.1116 117.464 13.3969C117.749 13.6821 117.986 13.9652 118.173 14.2461C118.184 14.2571 118.259 14.3668 118.392 14.5709C118.526 14.775 118.693 15.0229 118.891 15.3148C119.088 15.6066 119.296 15.8985 119.512 16.1903C119.727 16.4822 119.917 16.728 120.08 16.9255C120.337 17.2283 120.574 17.4763 120.789 17.6694C121.004 17.8625 121.234 18.0073 121.48 18.1083C121.726 18.207 122.004 18.2575 122.32 18.2575V18.433H120.868C120.26 18.433 119.72 18.3694 119.248 18.2399C118.776 18.1105 118.364 17.9195 118.013 17.6628C117.662 17.4061 117.359 17.0857 117.102 16.6995C117.032 16.5941 116.933 16.4339 116.804 16.2167C116.674 16.0016 116.536 15.758 116.382 15.4903C116.231 15.2226 116.082 14.9615 115.935 14.7113C115.788 14.4612 115.667 14.2351 115.566 14.0376C115.467 13.8401 115.399 13.6997 115.364 13.6163C115.178 13.2784 114.973 13.0041 114.752 12.7934C114.53 12.5827 114.291 12.4664 114.034 12.4423V12.2667C114.058 12.2667 114.133 12.2689 114.262 12.2755C114.39 12.2821 114.537 12.2777 114.701 12.2667C115.017 12.2558 115.336 12.1965 115.656 12.0912C115.976 11.9859 116.266 11.7906 116.523 11.5053C116.779 11.22 116.966 10.8206 117.082 10.3049C117.106 10.1996 117.128 10.0657 117.153 9.90116C117.177 9.73877 117.181 9.56761 117.17 9.39425C117.135 8.57793 116.924 7.9591 116.54 7.53778C116.154 7.11645 115.665 6.89481 115.07 6.87287C114.848 6.8619 114.614 6.85751 114.37 6.86409C114.124 6.87068 113.911 6.87287 113.731 6.87287H113.407C113.407 6.8619 113.391 6.79607 113.363 6.67976C113.334 6.56346 113.29 6.39449 113.231 6.17285H115.559L115.564 6.17505ZM113.409 17.1559H113.462C113.462 17.4587 113.573 17.7199 113.795 17.9349C114.017 18.15 114.28 18.2597 114.583 18.2597H114.794V18.4352H113.411V17.1559H113.409Z" fill="#FAF5EB"/>
<path d="M53.2518 26.7884H53.1992C53.1882 26.4855 53.0741 26.2244 52.8568 26.0094C52.6396 25.7943 52.3807 25.6846 52.0778 25.6846H51.8496V25.509H53.2496V26.7884H53.2518ZM53.2518 36.4921V37.7714H51.8518V37.5959H52.08C52.3829 37.5959 52.644 37.4883 52.859 37.2711C53.0741 37.056 53.1882 36.7949 53.2014 36.4921H53.254H53.2518ZM55.3343 25.5112V37.7714H53.197V25.5112H55.3343ZM56.3855 25.5112C57.2259 25.5112 57.9654 25.6188 58.6018 25.836C59.2382 26.0532 59.7341 26.378 60.0896 26.8169C60.4451 27.2558 60.6229 27.8132 60.6229 28.489C60.6229 29.0025 60.5197 29.4458 60.3157 29.8189C60.1116 30.1919 59.8548 30.4838 59.5454 30.6944C59.236 30.9051 58.9003 31.039 58.5382 31.0982C59.146 31.1684 59.6793 31.3484 60.1401 31.6402C60.6009 31.9321 60.963 32.3117 61.2263 32.7791C61.4897 33.2465 61.6213 33.7842 61.6213 34.3898C61.6213 35.103 61.4304 35.7131 61.053 36.22C60.6733 36.7269 60.1335 37.1131 59.4335 37.3764C58.7335 37.6397 57.9106 37.7714 56.9648 37.7714H55.1785C55.1895 37.5256 55.1961 37.2821 55.1961 37.0363H56.4403C56.9889 37.0363 57.4673 36.9331 57.8755 36.7291C58.2836 36.525 58.6018 36.2134 58.83 35.7921C59.0583 35.3707 59.1724 34.8463 59.1724 34.2165C59.1724 33.6569 59.078 33.1873 58.8915 32.8055C58.705 32.4258 58.457 32.1252 58.1476 31.9036C57.8382 31.6819 57.4914 31.5239 57.1052 31.4296C56.719 31.3352 56.3284 31.2891 55.9312 31.2891V31.1311C56.1989 31.1311 56.4732 31.0938 56.7541 31.017C57.035 30.9402 57.2918 30.8129 57.5244 30.6308C57.757 30.4508 57.9479 30.1985 58.0927 29.8781C58.2376 29.5577 58.3122 29.1518 58.3122 28.6602C58.3122 28.1006 58.2178 27.6354 58.0313 27.2668C57.8448 26.8981 57.5748 26.6282 57.2259 26.4526C56.8748 26.2771 56.4557 26.1893 55.9641 26.1893H53.9321C53.9321 26.1783 53.9167 26.1191 53.8882 26.0137C53.8597 25.9084 53.8158 25.7394 53.7566 25.5068H56.3833L56.3855 25.5112Z" fill="#FAF5EB"/>
<path d="M64.7746 36.4922C64.6803 36.7248 64.6627 36.9244 64.7219 37.0868C64.7812 37.2514 64.8799 37.3765 65.0204 37.4643C65.1608 37.5521 65.3013 37.5959 65.4417 37.5959H65.5997V37.7715H61.9219V37.5959H62.0799C62.3476 37.5959 62.6263 37.5104 62.9116 37.3414C63.1968 37.1724 63.4338 36.8893 63.6204 36.4922H64.7768H64.7746ZM68.5402 25.1953L68.628 27.0342L64.2677 37.7166H63.0761L67.5944 27.3305C67.6186 27.2844 67.6668 27.1703 67.7437 26.9881C67.8205 26.8082 67.906 26.5997 68.007 26.3671C68.1057 26.1345 68.1913 25.9085 68.2615 25.6934C68.3318 25.4784 68.3735 25.3116 68.3844 25.1953H68.5424H68.5402ZM70.5898 33.3914V34.0564H65.3188V33.3914H70.5898ZM68.5402 25.1953L74.0745 37.664H71.4829L67.7173 27.9976L68.5402 25.1953ZM71.0265 36.4922H73.5479C73.7344 36.8893 73.9714 37.1724 74.2567 37.3414C74.542 37.5104 74.8206 37.5959 75.0884 37.5959H75.2288V37.7715H70.2014V37.5959H70.3594C70.581 37.5959 70.7807 37.4994 70.9541 37.3063C71.1296 37.1132 71.1516 36.8433 71.0243 36.4922H71.0265Z" fill="#FAF5EB"/>
<path d="M77.0516 26.7716L74.5829 26.7189C74.4183 26.4512 74.1791 26.212 73.8653 26.0013C73.5493 25.7907 73.2048 25.6853 72.8317 25.6853H72.5859V25.5098H77.892V25.6853H77.6638C77.4071 25.6853 77.2118 25.806 77.0779 26.0452C76.944 26.2844 76.9353 26.528 77.0516 26.7716ZM76.3669 25.5295L79.9043 32.0096L77.9952 32.3783L73.8609 25.5295H76.3647H76.3669ZM77.9623 36.4928V37.7721H76.56V37.5966H76.7882C77.0911 37.5966 77.3522 37.4891 77.5673 37.2718C77.7823 37.0568 77.8964 36.7956 77.9096 36.4928H77.9623ZM80.0447 32.1303V37.77H77.9074V32.1303H80.0447ZM82.9699 25.5295H84.2317L79.8889 32.4814L79.0836 32.3059L82.9721 25.5273L82.9699 25.5295ZM79.9943 36.4928H80.0469C80.0469 36.7956 80.1589 37.0568 80.3805 37.2718C80.6021 37.4869 80.8655 37.5966 81.1683 37.5966H81.379V37.7721H79.9965V36.4928H79.9943ZM82.2523 26.7716C82.3467 26.6092 82.3686 26.4424 82.3225 26.2734C82.2765 26.1045 82.1909 25.964 82.068 25.8521C81.9451 25.7402 81.8025 25.6853 81.6379 25.6853H81.4272V25.5098H85.5088V25.6853H85.2631C84.901 25.6853 84.5587 25.7907 84.2383 26.0013C83.9179 26.212 83.6699 26.4512 83.4944 26.7189L82.2501 26.7716H82.2523Z" fill="#FAF5EB"/>
<path d="M15.443 13.8045C13.5668 17.4736 9.58175 19.363 6.97698 22.4C5.73275 23.8132 4.85498 25.5293 4.80451 27.4406C4.75623 28.4478 4.73648 29.5538 4.4951 30.5633C4.26688 31.6144 3.86749 32.6458 3.35839 33.5696C2.61887 34.9301 1.74989 36.08 1.232 37.4866C0.775566 38.7616 0.663651 40.3284 1.55019 41.4388C2.11635 42.1432 3.05337 42.5733 3.9838 42.5601C4.97128 42.5645 5.78761 41.9786 6.56882 41.4037C7.38514 40.7739 8.36165 40.2604 9.39522 40.0695C10.1369 39.8961 10.9379 40.008 11.673 39.9093C12.4191 39.793 13.0072 39.2092 13.7709 39.0776C14.3283 38.9547 14.8966 38.9657 15.4299 39.0381C17.1898 39.2071 19.3184 40.4184 20.7996 39.2466C21.9253 38.2196 22.6034 37.1136 24.394 37.2365C24.7386 37.2365 24.9536 37.2562 25.2016 37.1509C25.6097 36.9358 25.8029 36.4816 26.064 36.0625C26.3712 35.5336 26.7289 34.9828 27.3214 34.6339C27.8064 34.3113 28.5415 34.2916 29.0352 34.1906C30.6064 33.811 31.5851 32.5097 32.6231 31.2677C33.2419 30.5018 33.8147 29.7272 34.2601 28.9131C34.7714 28.0287 34.9557 27.2014 35.3222 26.2074C35.6953 25.1672 36.4611 24.2214 37.2094 23.4578C38.6533 22.0775 39.6847 20.5107 40.5361 18.6981C40.8741 17.9673 41.4995 16.7626 41.7475 15.9967C42.5353 13.7233 41.9537 12.6832 40.2136 11.101C39.4916 10.3988 38.6665 9.51884 38.695 8.43261L38.8596 8.42383C38.9167 8.91318 39.1602 9.34329 39.4762 9.70537C40.1411 10.4602 41.0277 10.9628 41.7672 11.6781C43.6303 13.3349 43.1212 15.7641 42.3004 17.8137C41.7211 19.2708 41.1659 20.6796 40.3408 22.0489C39.8142 22.9399 39.0725 23.7869 38.3944 24.5418C37.7734 25.255 37.2248 25.9177 36.9241 26.7998C36.6279 27.7193 36.3229 28.8736 35.8181 29.7535C35.3003 30.7213 34.6617 31.5815 34.0078 32.3868C32.8447 33.822 31.3416 35.4787 29.3644 35.8342C28.9365 35.922 28.6424 35.9045 28.3067 35.9835C28.0894 36.0493 27.9797 36.1393 27.7998 36.3455C27.5035 36.701 27.2885 37.1531 26.9791 37.5656C26.6214 38.1011 25.9389 38.6431 25.2521 38.7067C24.7013 38.7945 24.2009 38.676 23.7445 38.7331C22.8338 38.9371 22.4256 39.7557 21.6027 40.3043C21.1134 40.6663 20.4792 40.8989 19.8801 40.945C17.7625 41.1118 15.9521 39.6262 13.9245 39.8588C13.4373 39.9224 13.0577 40.1528 12.5881 40.3503C11.8486 40.6905 10.9862 40.5456 10.2137 40.5544C9.49178 40.572 8.77201 40.7322 8.11807 41.0416C6.74656 41.6845 5.63839 43.0648 4.00355 43.0912C2.34457 43.1965 0.672428 42.0576 0.218185 40.4293C-0.264586 38.845 0.12163 37.1333 0.779954 35.6675C1.41414 34.2477 2.19096 33.0386 2.67593 31.6166C3.16309 30.3021 3.27281 28.7353 3.33645 27.3375C3.41106 25.7114 4.01891 24.0678 5.00201 22.7643C6.53371 20.6357 8.75665 19.1633 10.8655 17.704C12.5069 16.5497 14.1132 15.3494 15.3026 13.7146L15.4452 13.8001L15.443 13.8045Z" fill="#FAF5EB"/>
<path d="M34.3416 22.2335C34.8946 20.6118 35.4761 18.9177 36.6918 17.6581C37.7627 16.4819 39.3559 15.4286 39.459 13.7235C39.4963 12.6307 38.9938 11.6257 38.6493 10.5701C38.364 9.73627 38.1555 8.66979 38.3684 7.75472C38.7063 6.01016 39.7991 4.37532 37.2602 3.96935C36.4219 3.79599 35.3445 3.67311 34.5479 3.09598C34.2341 2.87434 33.951 2.5364 33.782 2.20065C33.5604 1.79688 33.5692 1.61255 33.3497 1.45236C32.8845 1.2417 32.3469 1.42164 31.8707 1.59719C30.8306 2.00755 29.7377 2.81948 28.5418 2.88531C27.9361 2.97528 27.212 2.61979 26.7402 2.42229C26.027 2.22479 25.6539 3.12011 25.3006 3.62483C25.1799 3.81794 24.9232 4.17782 24.785 4.35776C22.3162 7.50675 17.8989 8.67856 16.0709 12.3652C15.3051 13.9364 15.5552 15.5624 15.3183 17.3224C14.9671 18.4898 14.3703 19.5914 13.5759 20.5416C12.1364 22.2883 10.0495 23.4338 8.87765 25.2793C7.82652 27.0041 7.73217 29.3412 8.15788 31.2986C8.60335 33.2779 9.78833 35.0927 11.647 35.9595C12.9461 36.5959 14.5107 36.7407 15.8493 36.1592C16.2992 35.9617 16.7973 35.6611 17.4139 35.4131C18.5835 34.8996 20.0187 35.0927 21.1905 35.2727C22.1999 35.4131 23.1018 35.4877 23.9423 34.9128C25.7724 33.5764 26.084 31.1603 27.6311 29.486C28.0458 29.0317 28.5374 28.6675 29.0355 28.3668C30.0055 27.7656 31.0588 27.3399 31.9146 26.5959C33.1983 25.468 33.7864 23.8134 34.3394 22.2313L34.3416 22.2335ZM34.4974 22.2883C33.9466 23.9056 33.3871 25.6041 32.1384 26.8395C31.3155 27.6471 30.2732 28.1891 29.3647 28.8584C27.9361 29.8371 27.4182 31.3337 26.806 32.9466C26.1587 34.6933 24.9254 36.5805 22.9 36.8614C21.6842 37.0545 20.5146 36.7495 19.3911 36.7473C18.2763 36.699 17.618 37.2586 16.5669 37.7523C13.8414 39.0032 10.5103 38.0091 8.57043 35.8366C6.69421 33.708 6.05563 30.7434 6.41332 27.9938C6.57132 26.7693 6.9334 25.5207 7.64219 24.4805C8.98737 22.4726 11.1423 21.4237 12.7245 19.7845C13.4596 19.0186 14.0411 18.0948 14.4339 17.0919L14.4142 17.1644C14.6336 16.1088 14.6468 14.9436 14.8947 13.7762C15.1449 12.5956 15.7484 11.5094 16.5142 10.6228C18.8205 7.89077 22.5357 6.66629 24.4646 3.61386C24.9978 2.67465 25.5903 1.2395 26.9552 1.54233C27.5784 1.69594 27.8703 1.9483 28.4474 1.85174C29.4744 1.68716 30.3456 0.87084 31.3594 0.425374C32.3337 -0.0639801 33.7711 -0.294393 34.5545 0.673343C34.9978 1.22853 34.9341 1.57086 35.4015 1.90221C36.0313 2.2994 36.7533 2.32574 37.5674 2.51226C38.59 2.6922 39.7684 3.22106 40.1458 4.3051C40.7361 5.88946 39.6016 7.27633 39.4809 8.75098C39.4305 9.81308 39.8606 10.8796 40.0734 11.9614C40.8744 15.5515 38.2784 16.2888 36.332 18.492C35.4344 19.5958 34.9583 20.9541 34.4952 22.2927L34.4974 22.2883Z" fill="#FAF5EB"/>
<path d="M28.0871 13.2959C27.9093 13.3266 27.7031 13.342 27.5165 13.252C27.3322 13.1642 27.2137 13.0106 27.0908 12.8921C26.8582 12.6486 26.5291 12.5608 26.2043 12.6354C25.0873 12.868 24.6792 14.1232 23.5644 14.4348C23.1453 14.5577 22.7349 14.4963 22.4058 14.4875C21.7694 14.4458 21.212 14.6872 20.738 15.0712C19.7198 15.8963 19.3138 17.1186 18.9715 18.376C18.627 19.7387 18.1793 21.2441 17.4179 22.4708C16.6564 23.7501 15.6952 24.8692 14.6573 25.8721C14.1372 26.3724 13.604 26.8574 13.0576 27.316C12.5199 27.7703 12.0437 28.2245 11.8528 28.8455C11.1747 30.9149 13.0949 32.7626 15.162 32.3434C15.7391 32.2556 16.652 32.0757 17.2445 31.9682C19.1536 31.8782 21.1725 31.1628 22.3158 29.5872C22.9149 28.7314 23.2133 27.6123 23.9748 26.8201C24.7209 25.9774 25.7764 25.3652 26.6541 24.7946C27.7206 24.1144 28.7586 23.241 29.4805 22.2316C29.8799 21.6786 30.0006 21.1958 30.2552 20.5221C30.7862 19.1243 31.7825 18.0666 32.4671 16.8531C32.9587 15.995 33.1628 15.0032 33.3822 14.0398C33.696 13.0589 33.0048 12.3413 32.059 12.2316C30.6765 12.0758 29.4389 13.0545 28.0871 13.2915V13.2959ZM28.0586 13.1313C29.757 12.7978 31.4029 11.1476 33.2176 12.0517C34.5453 12.71 34.328 13.9893 34.2249 15.2336C34.1568 15.9753 34.023 16.7477 33.7311 17.4499C33.4415 18.1675 33.0574 18.7995 32.7107 19.3942C32.1029 20.3553 31.8593 21.0883 31.5148 22.135C30.7731 23.9476 29.2019 25.2818 27.5714 26.2693C26.4347 26.9671 25.3155 27.4828 24.6221 28.6129C24.2622 29.2032 23.9594 29.9164 23.4832 30.4869C22.013 32.3324 19.564 33.0215 17.3016 32.8898C16.9329 32.8964 14.7012 33.1839 14.0889 32.9974C12.9544 32.7845 11.9252 32.0164 11.4732 30.9412C11.0255 29.8769 11.155 28.5756 11.8638 27.654C12.5419 26.8091 13.3406 26.1157 13.9902 25.262C15.2827 23.6492 16.3206 21.898 16.9636 19.9603C17.4047 18.6108 17.6724 17.1471 18.458 15.87C19.1887 14.6916 20.4505 13.6843 21.8988 13.6931C22.397 13.6843 23.007 13.9367 23.4437 13.8818C24.0889 13.7875 24.5936 13.2191 25.14 12.8417C25.7237 12.4247 26.6739 12.1417 27.2181 12.7671C27.4485 13.0479 27.6899 13.2191 28.0608 13.1313H28.0586Z" fill="#FAF5EB"/>
<path d="M17.5724 26.6446C18.1912 26.2123 18.8846 25.7866 19.3301 25.1765C19.5956 24.685 19.5912 24.132 19.5781 23.5724C19.4552 21.7357 19.9292 19.7848 21.1514 18.3563C21.9414 17.3885 23.2274 17.2042 24.3926 17.2393C25.5447 17.2349 26.8525 17.7857 27.1663 19.0102C27.5855 20.9281 25.6346 22.4752 24.5418 23.7962C23.3788 25.0909 22.2026 26.3725 20.9188 27.5487C19.9884 28.4857 18.7508 29.3196 17.3727 29.3393C16.9338 29.3547 16.2996 29.37 16.045 28.896C15.9156 28.6437 15.9639 28.4001 16.0429 28.1719C16.2842 27.4455 16.9645 27.0176 17.5724 26.6446ZM17.6667 26.785C17.1181 27.1427 16.5366 27.5904 16.4905 28.2794C16.4708 28.4242 16.5147 28.5647 16.5585 28.5669C17.5329 28.433 18.3316 27.7484 18.99 27.0418C20.3417 25.5254 21.8668 24.0244 23.3941 22.6573C23.9076 22.1877 24.4145 21.7115 24.95 21.2617C25.6873 20.6165 26.4597 20.0964 26.4488 19.1331C26.2315 17.4127 23.6355 17.5465 22.6349 18.3914C22.2157 18.7535 21.9919 19.3152 21.7747 19.9121C21.4455 20.8338 21.1712 21.762 20.921 22.7078C20.695 23.5614 20.5063 24.5555 19.916 25.2796C19.5715 25.7229 19.0031 25.9511 18.5511 26.2342C18.2482 26.4098 17.9542 26.5941 17.6645 26.7872L17.6667 26.785Z" fill="#FAF5EB"/>
<path d="M24.0795 20.563C24.2068 20.3458 23.983 20.0956 23.7942 20.0451C23.7701 20.032 23.7701 20.0166 23.7811 19.9859C23.8557 19.7533 23.5024 19.6765 23.3488 19.8016C23.2939 19.8389 23.272 19.9091 23.2851 19.9618C23.3005 20.0517 23.3685 20.0517 23.408 20.1066C23.4497 20.2053 23.5177 20.2207 23.5748 20.2799C23.6626 20.4445 23.8842 20.8768 24.0795 20.5608V20.563ZM24.1673 20.6069C24.0707 20.9514 23.7262 21.3025 23.3312 21.2565C22.3876 21.1555 22.2077 19.5843 23.239 19.49C23.5989 19.468 23.8842 19.1389 24.2704 19.332C24.5711 19.4702 24.6808 19.8279 24.5557 20.0824C24.4591 20.3019 24.2573 20.4138 24.1651 20.6069H24.1673Z" fill="#FAF5EB"/>
</g>
<defs>
<clipPath id="clip0_590_86">
<rect width="122.323" height="43.1005" fill="white"/>
</clipPath>
</defs>
</svg>
