<svg width="216" height="82" viewBox="0 0 216 82" fill="none" xmlns="http://www.w3.org/2000/svg">
<g clip-path="url(#clip0_11_667)">
<path d="M168.748 57.1244C169.332 57.2565 169.788 57.4994 170.116 57.8574C170.445 58.2154 170.611 58.6501 170.611 59.1657C170.611 60.8491 169.469 61.6887 167.189 61.6887H163.766V52.8839H167.133C169.264 52.8839 170.33 53.6595 170.33 55.2066C170.33 56.1356 169.805 56.7749 168.753 57.1244H168.748ZM168.608 55.4324C168.608 55.0574 168.476 54.7676 168.211 54.5673C167.947 54.367 167.568 54.2647 167.069 54.2647H165.45V56.6598H166.929C167.474 56.6598 167.888 56.5533 168.177 56.3359C168.463 56.1186 168.608 55.8203 168.608 55.4324ZM168.876 59.0975C168.876 58.3091 168.263 57.9128 167.031 57.9128H165.454V60.3079H167.159C168.305 60.3079 168.876 59.903 168.876 59.0975Z" fill="#FAF5EB"/>
<path d="M178.81 52.8839L175.755 58.2793V61.6887H174.05V58.2665L170.977 52.8839H172.835L174.919 56.6897L176.961 52.8839H178.806H178.81Z" fill="#FAF5EB"/>
<path d="M189.461 61.6887H183.46V52.8839H189.461V54.3371H185.148V56.549H188.685V58.0023H185.148V60.2439H189.461V61.6972V61.6887ZM189.039 49.5725L186.827 52.1509H185.728L187.164 49.5725H189.039Z" fill="#FAF5EB"/>
<path d="M198.857 57.2224C198.857 58.6032 198.431 59.6942 197.583 60.4911C196.735 61.2881 195.537 61.6887 193.999 61.6887H191.126V52.8839H194.114C195.597 52.8839 196.761 53.276 197.6 54.0602C198.44 54.8443 198.862 55.897 198.862 57.2224H198.857ZM197.14 57.3076C197.14 56.3231 196.871 55.5816 196.339 55.083C195.802 54.5844 195.03 54.3372 194.016 54.3372H192.848V60.2397H194.101C195.052 60.2397 195.793 59.9925 196.334 59.4939C196.876 58.9953 197.144 58.2665 197.144 57.3119L197.14 57.3076Z" fill="#FAF5EB"/>
<path d="M206.452 61.6887H200.452V52.8839H206.452V54.3372H202.139V56.549H205.677V58.0023H202.139V60.244H206.452V61.6972V61.6887Z" fill="#FAF5EB"/>
<path d="M214.158 59.2936V52.8839H215.79V61.7739H213.957L209.747 55.2918V61.6887H208.115V52.8839H209.99L214.162 59.2936H214.158Z" fill="#FAF5EB"/>
<path d="M104.464 29.5595C97.3167 29.5595 92.3816 24.7352 92.3816 17.699C92.3816 10.6629 97.8707 5.43372 104.609 5.43372C111.79 5.43372 116.725 10.258 116.725 17.3325C116.725 24.407 111.201 29.5595 104.459 29.5595H104.464ZM111.943 17.7757C111.943 11.1828 108.555 7.50067 104.43 7.50067C100.304 7.50067 97.1718 10.8504 97.1718 17.2601C97.1718 23.6697 100.56 27.5352 104.647 27.5352C108.734 27.5352 111.939 24.1854 111.939 17.7757H111.943Z" fill="#FAF5EB"/>
<path d="M124.353 29.0099V19.3954L116.469 5.98792H121.476L127.592 16.6679H127.959L134.147 5.98792H136.653L128.845 19.357V29.0056H124.353V29.0099Z" fill="#FAF5EB"/>
<path d="M139.163 24.8078C141.409 26.7213 143.437 27.4969 145.794 27.4969C149.22 27.4969 150.801 25.6175 150.801 23.704C150.801 21.6029 149.438 20.4608 145.057 19.0246C140.454 17.55 138.17 15.6365 138.17 12.1376C138.17 8.63867 140.859 5.43384 146.531 5.43384C149.293 5.43384 152.02 6.06032 153.861 6.83169L152.868 9.92572C150.733 8.1571 148.671 7.49653 146.275 7.49653C143.548 7.49653 141.894 9.00519 141.894 10.7738C141.894 12.9089 143.552 14.017 147.307 15.1932C152.647 16.8894 154.709 18.8754 154.709 22.451C154.709 26.2099 151.432 29.5596 145.389 29.5596C142.849 29.5596 140.271 28.8948 138.131 27.8634L139.163 24.8078Z" fill="#FAF5EB"/>
<path d="M163.434 29.0099V8.12305C159.862 8.23386 157.91 8.41711 156.031 9.08195V5.98792H175.294V9.08195C173.415 8.41711 171.501 8.23386 167.925 8.12305V29.0056H163.434V29.0099Z" fill="#FAF5EB"/>
<path d="M178.388 29.0099V5.98792H193.343V9.04359C191.647 8.45547 190.027 8.12305 186.307 8.12305H182.846V16.3354H190.287V18.3981H182.846V26.8705H186.307C190.027 26.8705 191.647 26.5381 193.343 25.95V29.0056H178.388V29.0099Z" fill="#FAF5EB"/>
<path d="M210.764 29.0099L205.13 19.3229L202.403 19.2121V29.0099H197.911V6.02623L205.94 5.87707C211.945 5.76626 214.596 8.27217 214.596 11.8052C214.596 14.7884 212.682 17.2176 209.477 18.2489L215.959 29.0056H210.764V29.0099ZM202.403 8.01221V17.0343C202.991 17.1068 203.95 17.1835 204.649 17.1835C207.67 17.1835 209.805 15.4873 209.805 12.6149C209.805 9.74248 208.037 8.01221 204.576 8.01221H202.403Z" fill="#FAF5EB"/>
<path d="M93.7109 69.6371V46.6919L101.224 46.5427C107.779 46.4319 110.063 48.7886 110.063 51.921C110.063 54.721 107.817 56.8178 104.834 57.5934V57.7767C108.81 58.4415 110.839 60.6107 110.839 63.4107C110.839 67.3869 107.562 69.9312 100.858 69.782L93.7109 69.6329V69.6371ZM100.487 56.8945C103.692 56.8945 105.311 54.981 105.311 52.9183C105.311 50.4124 103.581 48.6821 100.044 48.6821H98.2028V56.8945H100.487ZM100.56 67.6128C104.208 67.6128 106.049 65.8442 106.049 63.1934C106.049 60.7982 103.692 58.8847 100.082 58.8847H98.2028V67.6128H100.56Z" fill="#FAF5EB"/>
<path d="M127.852 69.6755L125.533 62.6777H117.283L114.964 69.6755H112.569L119.716 48.7545V47.3908L124.579 45.9929L132.608 69.6755H127.856H127.852ZM121.63 50.5956H121.297L117.982 60.6491H124.834L121.63 50.5956Z" fill="#FAF5EB"/>
<path d="M139.973 69.6754V60.0609L132.089 46.6534H137.096L143.212 57.3334H143.578L149.766 46.6534H152.272L144.465 60.0226V69.6712H139.973V69.6754Z" fill="#FAF5EB"/>
<path d="M29.2738 26.1671C25.7152 33.1223 18.1634 36.7022 13.2283 42.4598C10.8716 45.1362 9.20521 48.3922 9.11145 52.0147C9.02196 53.9239 8.97934 56.0207 8.52759 57.9342C8.09716 59.9287 7.33856 61.8806 6.37115 63.6322C4.96903 66.2106 3.32399 68.3926 2.34379 71.0562C1.47866 73.4726 1.26557 76.443 2.94896 78.5441C4.02292 79.878 5.80007 80.692 7.56017 80.6707C9.43535 80.6792 10.9781 79.5669 12.4569 78.4801C14.0039 77.2868 15.8535 76.3152 17.8139 75.9487C19.2203 75.6205 20.7375 75.8336 22.1311 75.6461C23.546 75.4287 24.6583 74.3207 26.1073 74.0692C27.1642 73.8348 28.2425 73.8561 29.2482 73.9925C32.5809 74.3164 36.6211 76.6092 39.4253 74.3889C41.5562 72.4412 42.8475 70.3445 46.2398 70.5788C46.8961 70.5788 47.301 70.6172 47.7698 70.4169C48.5412 70.0078 48.9119 69.1512 49.4063 68.35C49.9859 67.3484 50.6678 66.3043 51.7886 65.6437C52.7092 65.0343 54.0985 64.9917 55.0403 64.8042C58.015 64.0839 59.8732 61.6164 61.8378 59.2639C63.0098 57.8106 64.0966 56.3446 64.9404 54.8018C65.9078 53.127 66.2573 51.5587 66.952 49.675C67.6594 47.706 69.1127 45.9118 70.5318 44.4671C73.2679 41.8546 75.224 38.8799 76.8349 35.445C77.4742 34.0599 78.6632 31.7756 79.1278 30.3266C80.6236 26.018 79.5156 24.0448 76.2213 21.0488C74.8532 19.7191 73.2892 18.0528 73.3403 15.9901L73.6557 15.973C73.7665 16.9021 74.2268 17.7161 74.8234 18.4022C76.0849 19.8342 77.764 20.7845 79.1661 22.1398C82.6991 25.2807 81.7317 29.8834 80.1762 33.7701C79.0809 36.5317 78.024 39.2038 76.4642 41.7992C75.4669 43.4869 74.0605 45.0936 72.7778 46.5213C71.6015 47.8722 70.5616 49.1252 69.9906 50.8001C69.4323 52.5431 68.8527 54.7294 67.8938 56.4C66.9136 58.2368 65.7032 59.8648 64.4631 61.3905C62.2598 64.1095 59.4086 67.2504 55.6626 67.9238C54.8528 68.09 54.2945 68.0559 53.6595 68.2093C53.2462 68.3372 53.0416 68.5076 52.6964 68.8955C52.1338 69.5688 51.7247 70.4254 51.1408 71.2096C50.4632 72.2239 49.1677 73.251 47.8678 73.3746C46.8237 73.5408 45.8733 73.3192 45.0082 73.4257C43.2822 73.8135 42.5065 75.3648 40.9467 76.4047C40.0177 77.0908 38.8201 77.5298 37.6822 77.6193C33.6719 77.9346 30.237 75.1176 26.3929 75.5608C25.4723 75.6802 24.7478 76.1191 23.8571 76.4942C22.455 77.1377 20.8227 76.8649 19.3567 76.882C17.9887 76.9161 16.6249 77.2187 15.3847 77.8068C12.7893 79.0256 10.684 81.6424 7.58574 81.6935C4.44057 81.8938 1.26983 79.7374 0.408956 76.6518C-0.507321 73.6473 0.2257 70.4041 1.47439 67.6297C2.67621 64.9363 4.14651 62.6477 5.07131 59.9543C5.99185 57.4612 6.20494 54.4907 6.32427 51.8442C6.4649 48.7629 7.61558 45.6476 9.48222 43.1758C12.3887 39.1399 16.5993 36.3485 20.5969 33.5826C23.708 31.3963 26.7508 29.1163 29.0096 26.018L29.2781 26.1799L29.2738 26.1671Z" fill="#FAF5EB"/>
<path d="M65.0898 42.1445C66.1382 39.0717 67.2377 35.8626 69.5433 33.4718C71.5762 31.2429 74.5935 29.2484 74.7895 26.0137C74.8577 23.9425 73.9073 22.0375 73.2553 20.0345C72.714 18.4534 72.322 16.4333 72.7226 14.6988C73.3618 11.3959 75.433 8.29338 70.6215 7.522C69.0319 7.18958 66.9905 6.95945 65.4819 5.86844C64.8895 5.44653 64.3525 4.81153 64.0286 4.17226C63.611 3.40941 63.6237 3.05995 63.2103 2.7531C62.3282 2.35676 61.3096 2.69344 60.4061 3.02585C58.4329 3.80149 56.3617 5.33998 54.0945 5.46784C52.948 5.63831 51.5758 4.96495 50.6808 4.58991C49.3298 4.21488 48.6181 5.91532 47.9533 6.86995C47.7274 7.23646 47.2373 7.91834 46.9731 8.25928C42.2937 14.2257 33.9236 16.4461 30.4588 23.4354C29.0055 26.4101 29.4828 29.4956 29.0311 32.8325C28.3663 35.0444 27.2326 37.1327 25.7282 38.9354C22.9965 42.2468 19.0415 44.416 16.8254 47.9149C14.8309 51.1836 14.6562 55.6159 15.4617 59.3236C16.3055 63.0739 18.5514 66.5174 22.0759 68.1582C24.5392 69.3643 27.5054 69.637 30.0411 68.5375C30.8935 68.1667 31.8353 67.5956 33.0073 67.1226C35.2234 66.1509 37.9467 66.5174 40.1628 66.8584C42.0763 67.1226 43.7853 67.2675 45.3792 66.1765C48.8482 63.6407 49.4364 59.0679 52.3684 55.8886C53.1526 55.0277 54.0859 54.3373 55.032 53.7663C56.8689 52.6241 58.8676 51.8186 60.4913 50.408C62.9248 48.2729 64.0371 45.1362 65.0898 42.1359V42.1445ZM65.3881 42.2467C64.344 45.311 63.2828 48.5328 60.9175 50.8725C59.3577 52.4025 57.3803 53.4296 55.6585 54.6996C52.948 56.5577 51.9678 59.3918 50.8086 62.4474C49.5813 65.7588 47.2458 69.3344 43.406 69.8672C41.1046 70.2337 38.8843 69.6541 36.7534 69.6498C34.6438 69.556 33.3909 70.6172 31.4006 71.5548C26.2311 73.9243 19.9237 72.0407 16.2458 67.9238C12.6873 63.8922 11.4769 58.2709 12.1588 53.0588C12.4571 50.7362 13.1433 48.3751 14.4857 46.402C17.0385 42.5962 21.1213 40.6102 24.1216 37.4992C25.5151 36.0502 26.6147 34.2986 27.3647 32.3936L27.3307 32.53C27.7483 30.5269 27.7739 28.3193 28.2427 26.1075C28.72 23.8701 29.8621 21.8117 31.3111 20.1283C35.6837 14.9502 42.7241 12.6318 46.3807 6.84438C47.3907 5.06297 48.5158 2.34397 51.0984 2.91505C52.279 3.20485 52.833 3.68642 53.9282 3.50317C55.8716 3.1878 57.5252 1.64504 59.4472 0.796956C61.2968 -0.127844 64.0201 -0.566805 65.5032 1.26575C66.3427 2.3184 66.2234 2.96619 67.1098 3.59693C68.3031 4.35126 69.6712 4.39814 71.2139 4.75186C73.153 5.0928 75.3862 6.09858 76.1021 8.14848C77.223 11.153 75.0708 13.7783 74.8407 16.5782C74.7469 18.5898 75.5609 20.6141 75.9658 22.664C77.4829 29.47 72.5606 30.8679 68.8742 35.0401C67.1695 37.1327 66.2703 39.7067 65.3924 42.2467H65.3881Z" fill="#FAF5EB"/>
<path d="M53.2374 25.1997C52.9008 25.2594 52.5129 25.285 52.155 25.1188C51.8055 24.9483 51.5796 24.6628 51.3495 24.4369C50.9105 23.9724 50.2841 23.8104 49.6704 23.951C47.5523 24.39 46.7809 26.7723 44.6671 27.3604C43.8744 27.5948 43.0945 27.4798 42.468 27.4585C41.2619 27.3818 40.205 27.8378 39.3058 28.5623C37.3752 30.1263 36.6038 32.4447 35.956 34.827C35.2997 37.4097 34.4516 40.265 33.0112 42.5877C31.5707 45.0126 29.7467 47.1307 27.782 49.0357C26.7975 49.9861 25.7832 50.9024 24.7476 51.7718C23.7291 52.6326 22.8256 53.4935 22.4633 54.6698C21.1806 58.5906 24.8201 62.0937 28.7366 61.301C29.8276 61.1348 31.5579 60.7939 32.683 60.5893C36.3012 60.4189 40.1283 59.0594 42.2933 56.0761C43.4269 54.4524 43.9937 52.33 45.4384 50.8299C46.8533 49.2318 48.8521 48.0726 50.5184 46.9943C52.5385 45.7073 54.5075 44.0495 55.8755 42.1402C56.6298 41.0918 56.8599 40.1755 57.3458 38.9013C58.3515 36.2547 60.2395 34.2474 61.5393 31.9504C62.4684 30.3224 62.8605 28.4429 63.2739 26.6189C63.8705 24.7608 62.5579 23.4013 60.7637 23.1925C58.1427 22.8984 55.7945 24.7523 53.2374 25.1997ZM53.182 24.8886C56.3997 24.2579 59.5193 21.1298 62.9585 22.8387C65.4772 24.0874 65.0638 26.5081 64.8678 28.8691C64.7399 30.2755 64.4885 31.7415 63.9344 33.0669C63.3847 34.4264 62.6559 35.624 61.9996 36.7533C60.8447 38.5731 60.3844 39.9624 59.7366 41.9484C58.3302 45.3834 55.3513 47.9106 52.2615 49.7858C50.1093 51.1112 47.987 52.0871 46.6743 54.2308C45.9925 55.3474 45.4171 56.7026 44.5136 57.7851C41.7265 61.284 37.0854 62.5881 32.7981 62.3409C32.0992 62.3537 27.8672 62.8992 26.708 62.5455C24.5601 62.1406 22.6082 60.6831 21.7516 58.6502C20.9035 56.6344 21.1465 54.1669 22.4932 52.4195C23.776 50.8171 25.2931 49.5045 26.5248 47.885C28.9753 44.8251 30.94 41.5095 32.1588 37.8358C32.9941 35.2788 33.5013 32.5001 34.9886 30.0794C36.3737 27.8463 38.7645 25.937 41.5091 25.9541C42.4552 25.937 43.6101 26.4143 44.4369 26.3121C45.6601 26.1331 46.6147 25.0548 47.6503 24.3389C48.7583 23.5504 50.5568 23.0135 51.5882 24.1982C52.0271 24.7309 52.4831 25.0548 53.1863 24.8886H53.182Z" fill="#FAF5EB"/>
<path d="M33.3056 50.5017C34.4776 49.6835 35.7902 48.8738 36.6383 47.7188C37.1412 46.7855 37.1327 45.7414 37.1071 44.6759C36.8727 41.1941 37.7719 37.4949 40.0903 34.7887C41.5905 32.9561 44.0239 32.6066 46.2358 32.6748C48.4178 32.6663 50.8981 33.7104 51.4948 36.0331C52.2917 39.6684 48.5925 42.6005 46.5213 45.1021C44.3137 47.5569 42.0891 49.9861 39.6556 52.215C37.8913 53.9921 35.5473 55.569 32.9348 55.6073C32.1038 55.6372 30.902 55.6627 30.4162 54.7678C30.169 54.2904 30.2627 53.8259 30.4119 53.3955C30.8722 52.0189 32.1592 51.2092 33.3099 50.5017H33.3056ZM33.4889 50.7702C32.449 51.4479 31.3452 52.2959 31.26 53.6C31.2259 53.8728 31.3069 54.1413 31.3878 54.1455C33.2332 53.8898 34.7504 52.5943 35.999 51.2561C38.5604 48.3794 41.4541 45.5368 44.3478 42.9457C45.3195 42.055 46.2827 41.1515 47.297 40.3034C48.6948 39.0803 50.1566 38.0958 50.1395 36.2718C49.7304 33.0115 44.8081 33.2672 42.9073 34.8696C42.1104 35.5558 41.6885 36.617 41.2751 37.7506C40.6529 39.4979 40.1287 41.2537 39.6556 43.0479C39.2295 44.6674 38.8672 46.5511 37.7506 47.9234C37.0986 48.7629 36.0204 49.1977 35.1637 49.7304C34.5927 50.0628 34.0344 50.4122 33.4846 50.7788L33.4889 50.7702Z" fill="#FAF5EB"/>
<path d="M45.6475 38.9737C45.8904 38.5645 45.4643 38.0872 45.1063 37.9892C45.0594 37.9636 45.0637 37.9381 45.0807 37.8784C45.2213 37.4352 44.5522 37.2903 44.2624 37.5289C44.1602 37.6014 44.1175 37.7292 44.1389 37.8315C44.1687 38.002 44.2965 38.002 44.3733 38.1085C44.45 38.296 44.5821 38.3259 44.6886 38.4409C44.8548 38.752 45.2767 39.5703 45.6475 38.9737ZM45.8095 39.0632C45.6262 39.7152 44.9699 40.3843 44.2241 40.2948C42.4384 40.103 42.0932 37.1241 44.0494 36.9451C44.7312 36.9025 45.2725 36.2802 46.0055 36.6425C46.5766 36.9067 46.7854 37.5843 46.5467 38.0659C46.3635 38.4793 45.9799 38.6924 45.8095 39.0589V39.0632Z" fill="#FAF5EB"/>
</g>
<defs>
<clipPath id="clip0_11_667">
<rect width="215.96" height="81.6935" fill="white"/>
</clipPath>
</defs>
</svg>
