<svg width="130" height="30" viewBox="0 0 130 30" fill="none" xmlns="http://www.w3.org/2000/svg">
<path d="M40.9951 19.8153V8.97479H40.2184C38.9818 8.97479 38.0564 9.10424 37.2632 9.34936V8.13477H46.498V9.34936C45.7048 9.10699 44.7793 8.97479 43.5427 8.97479H42.7853V19.8153H40.9951Z" fill="#FAF5EB"/>
<path d="M48.4946 19.8153V8.13477H55.5123V9.34936C54.7191 9.10699 53.9617 8.97479 52.2238 8.97479H50.2656V13.4614H54.014V14.3014H50.2656V18.9725H52.2238C53.9589 18.9725 54.7163 18.8237 55.5123 18.5979V19.8125H48.4946V19.8153Z" fill="#FAF5EB"/>
<path d="M64.2484 19.8154L61.2738 14.789L59.6681 14.734V19.8182H57.8779V8.15421L61.4804 8.07985C64.3998 8.02477 65.6365 9.29445 65.6365 11.0131C65.6365 12.5829 64.6395 13.7975 62.9594 14.3401L66.303 19.8154H64.2539H64.2484ZM59.6681 8.95568V13.8141C59.9821 13.8691 60.4614 13.9077 60.8304 13.9077C62.5105 13.9077 63.7498 13.0291 63.7498 11.4041C63.7498 9.77918 62.7886 8.95568 60.9791 8.95568H59.6681Z" fill="#FAF5EB"/>
<path d="M78.1379 19.8153L77.7689 9.70465H77.5651L74.0755 19.347H73.0978L69.6247 9.70465H69.4044L69.0546 19.8153H68.0576L68.4818 8.13477H70.9027L73.913 16.6397H74.0617L77.0913 8.13477H79.5123L79.9364 19.8153H78.1462H78.1379Z" fill="#FAF5EB"/>
<path d="M82.7017 19.8153V8.13477H84.4919V19.8153H82.7017Z" fill="#FAF5EB"/>
<path d="M94.4481 19.909L88.5376 10.2281H88.4274V19.8154H87.4497V8.20927L89.3336 8.06055L95.189 17.7029H95.3184V8.13491H96.2961V19.7603L94.4481 19.909Z" fill="#FAF5EB"/>
<path d="M105.641 19.8152L104.421 15.9842H100.339L99.1193 19.8152H98.1416L101.615 9.12625V8.52859L103.609 7.74365L107.525 19.8152H105.641ZM102.446 9.77899H102.317L100.598 15.1414H104.146L102.446 9.77899Z" fill="#FAF5EB"/>
<path d="M109.374 19.8153V8.13477H111.128V18.9752H113.103C114.838 18.9752 115.595 18.8265 116.391 18.6392V19.818H109.374V19.8153Z" fill="#FAF5EB"/>
<path d="M122.913 17.7768C123.56 18.8042 124.205 19.2724 125.35 19.2724C126.865 19.2724 127.881 18.1872 127.881 16.9561C127.881 15.1631 126.755 14.0036 122.894 13.5932L124.15 8.13721H129.523V9.74565H124.648L124.15 11.9518C128.102 12.6072 129.451 14.1771 129.451 16.3061C129.451 18.4351 127.972 20.0986 125.444 20.0986C124.207 20.0986 123.023 19.7626 122.175 19.0328L122.913 17.7796V17.7768Z" fill="#FAF5EB"/>
<path d="M13.5333 29.5619C14.1145 29.3581 14.668 29.0826 15.1831 28.7411C14.6102 28.317 14.0869 27.824 13.627 27.2594C12.5749 25.9704 12.1865 24.6622 12.0213 24.1058C11.5558 22.5387 11.6495 21.4233 11.7376 20.3464C11.823 19.3301 11.9001 18.3716 11.4594 17.0799C11.2666 16.5181 10.826 15.4852 9.96114 14.5103C9.95013 14.5103 9.93911 14.5158 9.92809 14.5185C8.9118 14.7581 7.95059 14.984 6.74426 15.8157C6.3091 16.1159 5.29005 16.8155 4.48583 18.0659C3.46678 19.6468 2.73141 22.2798 3.71741 24.9321C4.86315 28.0168 7.7275 29.515 9.82894 29.8593C11.6715 30.1623 13.2386 29.6638 13.5361 29.5591L13.5333 29.5619Z" fill="#FAF5EB"/>
<path d="M28.174 7.32149C26.863 5.99398 25.2987 5.47619 24.9985 5.3853C24.4091 5.20628 23.8004 5.10713 23.1835 5.07959C23.3955 5.75987 23.5305 6.4677 23.5718 7.19205C23.6654 8.85282 23.211 10.139 23.0182 10.6871C22.4729 12.2294 21.743 13.075 21.0379 13.8957C20.3742 14.6669 19.7462 15.3968 19.3441 16.7022C19.1706 17.2696 18.92 18.3658 19.0467 19.663C19.0577 19.6685 19.0687 19.6712 19.077 19.6768C20.0409 20.0816 20.9498 20.4617 22.415 20.5003C22.9438 20.514 24.1805 20.5443 25.5631 20.0073C27.3175 19.327 29.4602 17.6276 30.2204 14.9038C31.1045 11.7337 29.6696 8.83905 28.1713 7.32425L28.174 7.32149Z" fill="#FAF5EB"/>
<path d="M20.614 29.5484C23.9025 29.4107 26.2105 27.1495 27.1883 25.2574C28.0448 23.5994 28.0558 21.9524 28.0476 21.6384C28.0338 21.0215 27.9429 20.4128 27.7749 19.8179C27.1938 20.231 26.5631 20.578 25.8855 20.8397C24.6186 21.3299 23.4811 21.3988 22.7871 21.3988C22.6301 21.3988 22.4979 21.396 22.3905 21.3933C20.7572 21.352 19.7244 20.9195 18.7274 20.5009C17.7882 20.1071 16.9014 19.7352 15.5353 19.7573C14.9432 19.7655 13.8222 19.8674 12.6296 20.3907C12.6296 20.4018 12.6296 20.4128 12.6269 20.4238C12.5415 21.4649 12.4589 22.4481 12.8775 23.8528C13.029 24.3595 13.3788 25.5438 14.318 26.6951C15.5078 28.152 17.7855 29.6668 20.6113 29.5484H20.614Z" fill="#FAF5EB"/>
<path d="M11.4207 0.844357C9.75438 1.68163 8.77665 3.00914 8.59762 3.26528C8.24509 3.77205 7.96141 4.32014 7.74658 4.89851C8.45992 4.90678 9.17325 4.99766 9.87557 5.18219C11.484 5.60634 12.5664 6.43535 13.0291 6.79064C14.3263 7.7849 14.9075 8.7406 15.4666 9.66325C15.9954 10.5336 16.4939 11.3571 17.6121 12.142C18.0968 12.4835 19.0608 13.0592 20.336 13.3401C20.3442 13.3318 20.3497 13.3236 20.358 13.3153C21.0383 12.5248 21.6827 11.7757 22.173 10.3931C22.3493 9.8946 22.7624 8.72958 22.677 7.24508C22.5723 5.36672 21.6194 2.80258 19.2618 1.23821C16.5214 -0.582309 13.3238 -0.111344 11.4207 0.844357Z" fill="#FAF5EB"/>
<path d="M2.80283 19.5204C3.02868 18.8456 3.33714 18.1929 3.73099 17.5842C4.63161 16.1851 5.75532 15.4112 6.23454 15.0834C7.58134 14.158 8.66924 13.8991 9.72134 13.6512C10.7128 13.4171 11.6493 13.1968 12.7399 12.3761C13.2136 12.0208 14.0592 11.2771 14.7174 10.1534C14.7119 10.1452 14.7064 10.1369 14.7009 10.1259C14.1583 9.23353 13.646 8.39075 12.4838 7.4984C12.0651 7.17616 11.0819 6.42427 9.64698 6.04694C7.82922 5.56772 5.09707 5.68064 2.87995 7.43781C0.302035 9.48141 -0.237785 12.668 0.0817 14.7749C0.362627 16.6203 1.32384 17.9588 1.51112 18.2067C1.88294 18.6969 2.3181 19.1376 2.80283 19.5204Z" fill="#FAF5EB"/>
<path d="M24.0317 29.5592C24.0317 29.5592 24.0372 29.5565 24.04 29.5537C24.0372 29.5537 24.0345 29.5565 24.0317 29.5592Z" fill="#FAF5EB"/>
</svg>
