<svg width="278" height="65" viewBox="0 0 278 65" fill="none" xmlns="http://www.w3.org/2000/svg">
<g clip-path="url(#clip0_11_409)">
<path d="M88.1508 50.1562L90.9782 57.7671H89.9198L89.2017 55.7699H85.8993L85.1813 57.7671H84.1079L86.969 50.1562H88.1508ZM88.8539 54.8312L87.5524 51.2259L86.2359 54.8312H88.8539Z" fill="#FAF5EB"/>
<path d="M100.668 50.1562L97.8183 57.7671H96.6253L93.8128 50.1562H94.8712L97.2349 56.66L99.5985 50.1562H100.672H100.668Z" fill="#FAF5EB"/>
<path d="M106.454 57.7671H101.629V50.1562H106.454V51.1174H102.665V53.4698H105.818V54.431H102.665V56.8059H106.454V57.7671Z" fill="#FAF5EB"/>
<path d="M109.038 54.8312V57.7671H108.003V50.1562H110.28C111.181 50.1562 111.873 50.3545 112.356 50.7546C112.838 51.1511 113.081 51.6971 113.081 52.3853C113.081 53.4736 112.509 54.2029 111.365 54.5769L113.422 57.7671H112.191L110.34 54.7452L109.035 54.8312H109.038ZM109.038 53.9186L110.291 53.8812C110.811 53.8663 111.234 53.7316 111.559 53.4848C111.885 53.238 112.045 52.8864 112.045 52.4301C112.045 51.9739 111.881 51.6597 111.548 51.4391C111.215 51.2147 110.751 51.1025 110.16 51.1025H109.038V53.9149V53.9186Z" fill="#FAF5EB"/>
<path d="M116.747 57.0265C117.225 57.0265 117.622 56.9068 117.932 56.6675C118.246 56.4281 118.4 56.1214 118.4 55.7474C118.4 55.3734 118.261 55.0929 117.984 54.9022C117.708 54.7115 117.236 54.5282 116.571 54.3487C116.245 54.2589 115.969 54.1692 115.744 54.0757C115.516 53.9822 115.28 53.8513 115.037 53.6867C114.794 53.5222 114.607 53.3052 114.484 53.0397C114.357 52.7742 114.297 52.4712 114.297 52.1197C114.297 51.4801 114.532 50.9603 115.004 50.5676C115.475 50.1749 116.088 49.9767 116.844 49.9767C117.719 49.9767 118.519 50.2011 119.245 50.6461L118.878 51.5475C118.246 51.1248 117.569 50.9154 116.855 50.9154C116.335 50.9154 115.946 51.0201 115.692 51.2258C115.438 51.4315 115.307 51.7083 115.307 52.0486C115.307 52.3889 115.445 52.6769 115.726 52.8602C116.006 53.0434 116.481 53.2267 117.158 53.4137C117.831 53.5932 118.373 53.8513 118.785 54.1916C119.196 54.5319 119.398 55.0294 119.398 55.6764C119.398 56.3234 119.151 56.8881 118.654 57.3145C118.157 57.7408 117.513 57.954 116.717 57.954C115.774 57.954 114.925 57.7146 114.17 57.2359L114.51 56.2972C115.251 56.7834 115.991 57.0265 116.739 57.0265H116.747Z" fill="#FAF5EB"/>
<path d="M124.043 50.1562L126.871 57.7671H125.812L125.094 55.7699H121.792L121.074 57.7671H120L122.861 50.1562H124.043ZM124.75 54.8312L123.448 51.2259L122.132 54.8312H124.75Z" fill="#FAF5EB"/>
<path d="M133.52 51.1285H130.853V57.7669H129.828V51.1285H127.162V50.1523H133.52V51.1285Z" fill="#FAF5EB"/>
<path d="M135.76 57.7671H134.735V50.1562H135.76V57.7671Z" fill="#FAF5EB"/>
<path d="M142.436 57.7671H137.723V50.1562H138.759V56.7947H142.439V57.7708L142.436 57.7671Z" fill="#FAF5EB"/>
<path d="M148.562 57.7671H143.737V50.1562H148.562V51.1174H144.773V53.4698H147.926V54.431H144.773V56.8059H148.562V57.7671Z" fill="#FAF5EB"/>
<path d="M159.12 57.7671H158.095V54.4048H153.918V57.7671H152.882V50.1562H153.918V53.4698H158.095V50.1562H159.12V57.7671Z" fill="#FAF5EB"/>
<path d="M164.188 50.1562L167.015 57.7671H165.957L165.239 55.7699H161.936L161.218 57.7671H160.145L163.006 50.1562H164.188ZM164.895 54.8312L163.593 51.2259L162.277 54.8312H164.895Z" fill="#FAF5EB"/>
<path d="M172.748 57.7671H168.036V50.1562H169.072V56.7947H172.748V57.7708V57.7671Z" fill="#FAF5EB"/>
<path d="M178.766 57.7671H174.054V50.1562H175.09V56.7947H178.766V57.7708V57.7671Z" fill="#FAF5EB"/>
<path d="M186.721 53.8476C187.214 53.9785 187.596 54.1954 187.865 54.5058C188.134 54.8162 188.265 55.1827 188.265 55.6128C188.265 56.286 188.033 56.8134 187.566 57.1948C187.098 57.5763 186.391 57.7671 185.441 57.7671H182.846V50.1562H185.367C186.253 50.1562 186.915 50.3358 187.36 50.6985C187.801 51.0613 188.022 51.555 188.022 52.1796C188.022 52.9687 187.588 53.5222 186.721 53.8476ZM186.99 52.2618C186.99 51.8953 186.859 51.6111 186.593 51.4091C186.328 51.2072 185.95 51.1062 185.456 51.1062H183.886V53.4923H185.299C185.834 53.4923 186.253 53.3838 186.548 53.1632C186.844 52.9425 186.994 52.6433 186.994 52.2618H186.99ZM187.233 55.6241C187.233 54.8274 186.616 54.431 185.382 54.431H183.882V56.8171H185.539C186.668 56.8171 187.233 56.4207 187.233 55.6241Z" fill="#FAF5EB"/>
<path d="M195.113 50.1562L192.469 54.7489V57.7708H191.433V54.7377L188.777 50.1562H189.948L191.971 53.7129L193.968 50.1562H195.113Z" fill="#FAF5EB"/>
<path d="M203.798 57.7671H198.973V50.1563H203.798V51.1175H200.009V53.4699H203.162V54.4311H200.009V56.8059H203.798V57.7671ZM203.274 47.198L201.498 49.4008H200.768L202.059 47.198H203.278H203.274Z" fill="#FAF5EB"/>
<path d="M211.666 53.9075C211.666 55.1005 211.307 56.043 210.593 56.7349C209.879 57.4268 208.876 57.7708 207.586 57.7708H205.346V50.16H207.635C208.884 50.16 209.871 50.5004 210.589 51.1773C211.307 51.8542 211.666 52.7668 211.666 53.9112V53.9075ZM210.63 53.9785C210.63 53.051 210.365 52.3442 209.837 51.8542C209.31 51.3643 208.558 51.1175 207.586 51.1175H206.382V56.8059H207.635C208.562 56.8059 209.291 56.5628 209.826 56.0804C210.361 55.5979 210.63 54.8986 210.63 53.9785Z" fill="#FAF5EB"/>
<path d="M218.009 57.7671H213.185V50.1562H218.009V51.1174H214.221V53.4698H217.374V54.431H214.221V56.8059H218.009V57.7671Z" fill="#FAF5EB"/>
<path d="M224.76 56.2935V50.1562H225.769V57.8418H224.647L220.567 51.6298V57.7671H219.557V50.1562H220.702L224.756 56.2935H224.76Z" fill="#FAF5EB"/>
<path d="M88.4952 36.9843V13.5198H86.4307C83.7305 13.5198 81.8231 13.7592 80.1177 14.2043V11.8743H100.134V14.2043C98.4248 13.7629 96.5211 13.5198 93.8209 13.5198H91.7564V36.9843H88.4989H88.4952Z" fill="#FAF5EB"/>
<path d="M92.0967 37.3283H88.151V13.8639H86.4306C83.9174 13.8639 81.9988 14.0696 80.2036 14.5371L79.7735 14.6493V11.5302H100.478V14.6493L100.048 14.5371C98.2526 14.0733 96.3303 13.8639 93.8208 13.8639H92.1004V37.3283H92.0967ZM88.8392 36.6402H91.4085V13.1757H93.817C96.1919 13.1757 98.0544 13.359 99.786 13.7629V12.2146H80.4579V13.7629C82.1895 13.359 84.0558 13.1757 86.4269 13.1757H88.8354V36.6402H88.8392Z" fill="#FAF5EB"/>
<path d="M104.42 36.9841V11.8704H119.432V14.2004C117.723 13.759 116.055 13.5159 112.681 13.5159H107.636V23.4006H116.216V25.0499H107.636V35.3348H112.681C116.058 35.3348 117.727 35.0955 119.432 34.6504V36.9804H104.42V36.9841Z" fill="#FAF5EB"/>
<path d="M119.776 37.3283H104.076V11.5264H119.776V14.6455L119.346 14.5333C117.7 14.1069 116.085 13.8601 112.681 13.8601H107.984V23.0566H116.563V25.3941H107.984V34.9908H112.681C116.085 34.9908 117.7 34.744 119.346 34.3176L119.776 34.2054V37.3245V37.3283ZM104.764 36.6401H119.088V35.0955C117.528 35.4695 115.864 35.6827 112.681 35.6827H107.292V24.7097H115.871V23.7523H107.292V13.1794H112.681C115.864 13.1794 117.528 13.3926 119.088 13.7666V12.222H104.764V36.6476V36.6401Z" fill="#FAF5EB"/>
<path d="M138.334 36.9843L131.703 26.217L127.85 26.0562V36.9843H124.593V11.9117L131.703 11.7509C137.937 11.5901 140.678 14.6045 140.678 18.1799C140.678 21.7553 138.416 24.2872 134.799 25.3718L142.107 36.9843H138.334ZM127.847 13.4788V24.2461C128.602 24.4069 129.791 24.448 130.786 24.448C134.56 24.448 137.26 22.4808 137.26 18.9428C137.26 15.4048 135.076 13.4788 131.224 13.4788H127.847Z" fill="#FAF5EB"/>
<path d="M142.728 37.3283H138.139L131.501 26.5535L128.191 26.4151V37.3283H124.245V11.575L131.692 11.4067C134.975 11.3207 137.567 12.1136 139.19 13.6956C140.387 14.8624 141.019 16.4108 141.019 18.1798C141.019 21.6579 138.951 24.3282 135.323 25.5662L142.724 37.3321L142.728 37.3283ZM138.524 36.6402H141.483L134.268 25.1735L134.702 25.0426C138.281 23.9692 140.335 21.4672 140.335 18.1798C140.335 16.6015 139.774 15.2215 138.715 14.1892C137.23 12.7419 134.807 12.0163 131.714 12.0949L124.941 12.2482V36.6402H127.51V25.6971L131.905 25.8803L138.532 36.6402H138.524ZM130.787 24.792C129.44 24.792 128.427 24.7209 127.776 24.5826L127.503 24.5227V13.1308H131.224C135.218 13.1308 137.604 15.3037 137.604 18.939C137.604 22.5742 134.927 24.7883 130.787 24.7883V24.792ZM128.191 23.9617C128.797 24.0552 129.683 24.1038 130.787 24.1038C134.568 24.1038 136.916 22.1254 136.916 18.9427C136.916 15.76 134.893 13.8227 131.224 13.8227H128.195V23.9617H128.191Z" fill="#FAF5EB"/>
<path d="M167.958 36.9841L167.165 14.8436H166.769L158.825 36.0604H157.079L149.176 14.8436H148.78L147.946 36.9841H146.038L146.951 11.8704H151.398L158.466 31.075H158.784L165.853 11.8704H170.299L171.212 36.9841H167.954H167.958Z" fill="#FAF5EB"/>
<path d="M171.571 37.3282H167.625L166.847 15.6103L159.064 36.4007H156.839L149.094 15.6066L148.275 37.3245H145.679L146.618 11.5226H151.637L158.623 30.5103L165.609 11.5226H170.628L171.567 37.3245L171.571 37.3282ZM168.291 36.6401H170.86L169.97 12.2145H166.096L159.027 31.4191H158.23L151.162 12.2145H147.287L146.397 36.6401H147.617L148.451 14.4996H149.419L157.322 35.7163H158.59L166.533 14.4996H167.502L168.295 36.6401H168.291Z" fill="#FAF5EB"/>
<path d="M177.248 36.9841V11.8704H180.506V36.9841H177.248Z" fill="#FAF5EB"/>
<path d="M180.85 37.3283H176.904V11.5264H180.85V37.3283ZM177.592 36.6401H180.162V12.2145H177.592V36.6401Z" fill="#FAF5EB"/>
<path d="M202.347 37.1863L188.924 15.6479H188.767V36.9843H186.86V12.0314L190.394 11.7097L203.738 33.2069H203.936V11.8705H205.844V36.8646L202.35 37.1863H202.347Z" fill="#FAF5EB"/>
<path d="M202.167 37.5489L189.111 16.5977V37.3282H186.516V11.7171L190.573 11.3468L203.592 32.3204V11.5263H206.188V37.1786L202.167 37.5489ZM188.419 15.3037H189.115L202.526 36.8233L205.496 36.5503V12.2145H204.277V33.5509H203.544L190.211 12.0724L187.2 12.3454V36.6401H188.419V15.3037Z" fill="#FAF5EB"/>
<path d="M226.409 36.9841L223.668 28.4271H214.453L211.674 36.9841H209.808L217.512 13.6393V12.5136L221.323 11.1859L229.861 36.9804H226.406L226.409 36.9841ZM219.221 14.765H218.944L215.014 26.7778H223.114L219.221 14.765Z" fill="#FAF5EB"/>
<path d="M230.344 37.3284H226.163L223.421 28.7714H214.707L211.928 37.3284H209.336L217.172 13.5834V12.2707L221.544 10.7485L230.34 37.3284H230.344ZM226.66 36.6402H229.386L221.106 11.6274L217.856 12.7569L217.837 13.7442L210.283 36.6365H211.423L214.202 28.0795H223.919L226.66 36.6365V36.6402ZM223.589 27.122H214.539L218.694 14.4212H219.472L223.586 27.122H223.589ZM215.489 26.4339H222.643L219.083 15.4497L215.489 26.4339Z" fill="#FAF5EB"/>
<path d="M233.837 36.9841V11.8704H237.053V35.3348H242.016C245.352 35.3348 247.061 35.0955 248.767 34.6915V36.9804H233.833L233.837 36.9841Z" fill="#FAF5EB"/>
<path d="M249.111 37.3283H233.489V11.5264H237.394V34.9908H242.012C245.326 34.9908 247.024 34.7477 248.684 34.3588L249.107 34.2578V37.3283H249.111ZM234.181 36.6401H248.423V35.1255C246.837 35.4695 245.12 35.6827 242.016 35.6827H236.709V12.2183H234.181V36.6439V36.6401Z" fill="#FAF5EB"/>
<path d="M262.904 32.8854C264.373 34.9761 266.198 35.941 268.345 35.941C271.722 35.941 274.022 33.5698 274.022 30.8397C274.022 26.9015 271.36 24.3322 263.102 23.3673L265.761 11.8744H276.958V14.8888H266.711L265.439 20.5137C273.858 21.7591 276.756 25.2559 276.756 29.5531C276.756 33.8503 273.619 37.5903 268.457 37.5903C266.034 37.5903 263.334 36.8685 261.509 35.3014L262.9 32.8892L262.904 32.8854Z" fill="#FAF5EB"/>
<path d="M268.465 37.9304C265.705 37.9304 263.023 37.044 261.292 35.5555L261.075 35.3685L262.878 32.2419L263.188 32.6832C264.564 34.6392 266.251 35.5892 268.349 35.5892C271.39 35.5892 273.682 33.5434 273.682 30.8319C273.682 26.703 270.507 24.5675 263.065 23.6999L262.683 23.655L265.492 11.5226H277.31V15.2251H266.995L265.866 20.2217C273.327 21.4073 277.112 24.5414 277.112 29.5454C277.112 34.5495 273.559 37.9266 268.469 37.9266L268.465 37.9304ZM261.958 35.2152C263.573 36.4868 265.978 37.2422 268.465 37.2422C273.148 37.2422 276.42 34.0782 276.42 29.5491C276.42 25.0201 272.71 21.9309 265.395 20.85L265.028 20.7939L266.442 14.537H276.618V12.2107H266.038L263.525 23.0641C271.019 24.0028 274.367 26.4076 274.367 30.8319C274.367 33.8875 271.723 36.2773 268.345 36.2773C266.202 36.2773 264.385 35.3461 262.941 33.506L261.958 35.2114V35.2152Z" fill="#FAF5EB"/>
<path d="M29.101 63.5602C30.3538 63.1227 31.5394 62.5317 32.6464 61.795C31.416 60.8824 30.2865 59.8203 29.3029 58.6123C27.0402 55.841 26.2062 53.0323 25.8509 51.8318C24.8524 48.4621 25.0506 46.0685 25.2413 43.7497C25.4208 41.5656 25.5929 39.5049 24.6429 36.7298C24.2278 35.5256 23.2816 33.3003 21.4191 31.2059C21.3967 31.2097 21.3705 31.2172 21.348 31.2209C19.1639 31.737 17.0995 32.2232 14.5002 34.0109C13.5652 34.6542 11.3736 36.1614 9.64574 38.8467C7.45787 42.2463 5.87213 47.9085 7.99268 53.6082C10.4573 60.2392 16.6133 63.4593 21.1349 64.1998C25.0917 64.8505 28.4689 63.7772 29.1047 63.5565L29.101 63.5602Z" fill="#FAF5EB"/>
<path d="M60.5761 15.7452C57.7562 12.8916 54.394 11.7771 53.7507 11.5826C52.4828 11.2011 51.1739 10.9805 49.8462 10.9281C50.3062 12.3904 50.5942 13.9126 50.6802 15.4684C50.8821 19.0401 49.906 21.8039 49.4872 22.982C48.3165 26.2956 46.7458 28.1169 45.2311 29.8784C43.8024 31.539 42.4523 33.106 41.5884 35.911C41.2144 37.1302 40.6758 39.4864 40.9488 42.2726C40.9713 42.2838 40.9937 42.2913 41.0162 42.2988C43.0881 43.1665 45.0441 43.9855 48.1931 44.0678C49.3263 44.0977 51.9854 44.165 54.9624 43.0094C58.7323 41.5471 63.3437 37.8969 64.978 32.0364C66.8817 25.2222 63.7925 18.9989 60.5724 15.7414L60.5761 15.7452Z" fill="#FAF5EB"/>
<path d="M44.3185 63.5304C51.387 63.2349 56.3499 58.3767 58.4555 54.3039C60.2956 50.7398 60.318 47.198 60.3068 46.5248C60.2806 45.2009 60.0824 43.8882 59.7233 42.6091C58.4742 43.4955 57.1166 44.2435 55.6618 44.8045C52.9391 45.8591 50.4894 46.005 49.0009 46.005C48.6643 46.005 48.3763 45.9975 48.1444 45.99C44.6326 45.9003 42.4148 44.9728 40.2719 44.0714C38.2523 43.2262 36.3449 42.4296 33.4091 42.4745C32.1337 42.4932 29.7252 42.7101 27.1596 43.8321C27.1596 43.8545 27.1559 43.8807 27.1521 43.9031C26.9651 46.1396 26.7931 48.2527 27.6869 51.2783C28.0086 52.3666 28.7678 54.9173 30.7836 57.3894C33.338 60.5235 38.2373 63.7772 44.3147 63.5229L44.3185 63.5304Z" fill="#FAF5EB"/>
<path d="M24.5569 1.81747C20.974 3.61639 18.8722 6.46997 18.4869 7.02348C17.7315 8.11181 17.1181 9.28989 16.6581 10.5353C18.1878 10.5503 19.7286 10.7485 21.2358 11.1449C24.6953 12.0575 27.0215 13.8414 28.0126 14.6006C30.8026 16.7399 32.048 18.7931 33.256 20.779C34.393 22.6527 35.4663 24.418 37.8674 26.1047C38.9108 26.8377 40.9865 28.0794 43.7204 28.6778C43.7353 28.6591 43.7503 28.6404 43.769 28.6217C45.2351 26.92 46.6188 25.3118 47.6698 22.3423C48.0475 21.2727 48.9339 18.7632 48.7544 15.5767C48.5262 11.5413 46.4805 6.02865 41.4128 2.6627C35.5224 -1.25303 28.6484 -0.239503 24.5531 1.81747H24.5569Z" fill="#FAF5EB"/>
<path d="M6.02898 41.9695C6.51517 40.5184 7.17714 39.1159 8.02237 37.807C9.95966 34.7963 12.3757 33.1358 13.4042 32.4289C16.2989 30.4355 18.6401 29.8858 20.899 29.3509C23.0308 28.8498 25.0429 28.3748 27.3916 26.6096C28.4088 25.8429 30.2264 24.2496 31.6439 21.8336C31.6327 21.8149 31.6214 21.7962 31.6102 21.7775C30.4434 19.8589 29.3438 18.0451 26.8418 16.1265C25.9405 15.4346 23.8311 13.8189 20.7419 13.0036C16.8337 11.9714 10.9582 12.2145 6.18979 15.9918C0.650928 20.3863 -0.512196 27.2379 0.179695 31.7669C0.785567 35.7313 2.84628 38.6111 3.25393 39.1459C4.05428 40.2005 4.98553 41.1467 6.02898 41.9695Z" fill="#FAF5EB"/>
<path d="M51.6677 63.5579C51.6677 63.5579 51.6841 63.5496 51.6882 63.5455C51.68 63.5455 51.6718 63.5538 51.6677 63.5579Z" fill="#FAF5EB"/>
</g>
<defs>
<clipPath id="clip0_11_409">
<rect width="277.306" height="64.4132" fill="white"/>
</clipPath>
</defs>
</svg>
