<svg width="95" height="41" viewBox="0 0 95 41" fill="none" xmlns="http://www.w3.org/2000/svg">
<path d="M41.9694 12.459C41.6059 12.5028 41.2595 12.5256 40.9341 12.5256H33.0244C32.7122 12.5256 32.3697 12.5028 31.9985 12.459C31.6274 12.4152 31.2886 12.3619 30.9841 12.3029C30.6796 12.2439 30.4531 12.1849 30.3047 12.124V15.289L30.5274 15.2662V14.9312C30.5274 14.4554 30.6796 14.0653 30.9841 13.7608C31.2886 13.4563 31.6788 13.2964 32.1546 13.2812H35.942V26.516C35.9267 26.9024 35.7821 27.2335 35.508 27.5076C35.2321 27.7816 34.9028 27.9187 34.5165 27.9187H34.2272V28.1413H39.7312V27.9187H39.4419C39.0556 27.9187 38.7244 27.7816 38.4504 27.5076C38.1763 27.2335 38.0298 26.9024 38.0164 26.516V13.2812H41.8038C42.2796 13.2964 42.6698 13.4563 42.9743 13.7608C43.2788 14.0653 43.431 14.4554 43.431 14.9312V15.2662L43.6537 15.289V12.124C43.5205 12.183 43.2978 12.2439 42.9857 12.3029C42.6736 12.3619 42.3348 12.4152 41.9713 12.459H41.9694Z" fill="white"/>
<path d="M56.3844 27.7206C57.3131 27.2296 58.0249 26.5464 58.5236 25.6709C59.0203 24.7954 59.2696 23.7696 59.2696 22.5953V13.8844C59.2696 13.557 59.3838 13.2906 59.6141 13.0831C59.8444 12.8757 60.1223 12.771 60.4496 12.771H60.8055V12.5483H56.5062V12.771H56.8621C57.1894 12.771 57.4673 12.8757 57.6976 13.0831C57.9279 13.2906 58.0421 13.5589 58.0421 13.8844V22.641C58.0421 23.6516 57.846 24.5347 57.4521 25.2922C57.0581 26.0496 56.5005 26.6358 55.7811 27.0526C55.0598 27.4694 54.2185 27.6769 53.2517 27.6769C52.2849 27.6769 51.5255 27.458 50.8347 27.0203C50.1438 26.5825 49.609 25.9621 49.2303 25.1608C48.8515 24.3596 48.6631 23.4232 48.6631 22.3536V13.8863C48.6631 13.5589 48.7773 13.2925 49.0076 13.085C49.2379 12.8776 49.5157 12.7729 49.8431 12.7729H50.199V12.5502H45.0527V12.7729H45.4086C45.736 12.7729 46.0138 12.8776 46.2441 13.085C46.4744 13.2925 46.5886 13.5608 46.5886 13.8863V22.6201C46.5886 23.7943 46.8494 24.8183 47.3689 25.6956C47.8885 26.573 48.6384 27.2525 49.6185 27.734C50.5987 28.2174 51.7653 28.4591 53.1166 28.4591C54.3651 28.4591 55.4518 28.2136 56.3806 27.7244L56.3844 27.7206Z" fill="white"/>
<path d="M64.484 28.1445H72.7058L73.9086 24.2239H73.6859C73.448 24.8482 73.1588 25.3982 72.8162 25.8721C72.4736 26.3479 72.0435 26.7152 71.5239 26.974C71.0043 27.2348 70.3573 27.3642 69.5865 27.3642H66.4899V14.1731C66.5052 13.7868 66.6498 13.4575 66.9239 13.1816C67.1979 12.9075 67.5291 12.7686 67.9154 12.7686H68.2047V12.5459H62.7007V12.7686H62.99C63.3763 12.7686 63.7075 12.9056 63.9815 13.1816C64.2556 13.4575 64.4002 13.7868 64.4155 14.1731V26.5173C64.4002 26.9036 64.2556 27.2348 63.9815 27.5088C63.7075 27.7829 63.3763 27.9199 62.99 27.9199H62.7007V28.1426H64.484V28.1445Z" fill="white"/>
<path d="M79.0782 12.5483H75.3574V12.771H75.6467C76.0331 12.771 76.3642 12.908 76.6383 13.184C76.9123 13.46 77.057 13.7892 77.0722 14.1756V26.5197C77.057 26.9061 76.9123 27.2372 76.6383 27.5113C76.3642 27.7853 76.0331 27.9224 75.6467 27.9224H75.3574V28.1451H80.8615V27.9224H80.5722C80.1858 27.9224 79.8547 27.7853 79.5806 27.5113C79.3066 27.2372 79.16 26.9061 79.1467 26.5197V14.1756C79.1619 13.7892 79.3066 13.46 79.5806 13.184C79.8547 12.9099 80.1858 12.771 80.5722 12.771H80.8615V12.5483H79.0782Z" fill="white"/>
<path d="M91.4546 21.048C92.0407 20.8615 92.5641 20.576 93.0247 20.1897C93.4853 19.8033 93.8526 19.3256 94.1266 18.7528C94.4007 18.1818 94.532 17.5461 94.5168 16.8477C94.5168 15.9722 94.3265 15.2109 93.9477 14.5638C93.569 13.9186 93.019 13.42 92.2996 13.0717C91.5783 12.7234 90.6838 12.5483 89.6142 12.5483H83.2632L83.286 12.771H83.5525C83.9388 12.771 84.2719 12.908 84.5555 13.184C84.8371 13.46 84.978 13.7892 84.978 14.1756V26.5197C84.9627 26.9061 84.8181 27.2372 84.544 27.5113C84.2681 27.7853 83.9388 27.9224 83.5525 27.9224H83.2632V28.1451H88.7672V27.9224H88.478C88.0916 27.9224 87.7604 27.7853 87.4864 27.5113C87.2123 27.2372 87.0658 26.9061 87.0525 26.5197V13.3077H89.2583C90.1946 13.3077 90.9178 13.6122 91.4298 14.2213C91.9418 14.8303 92.2063 15.6334 92.2215 16.6269C92.2368 16.8496 92.2292 17.0837 92.1987 17.3292C92.1683 17.5747 92.1321 17.7859 92.0883 17.9648C91.9094 18.5739 91.6468 19.0573 91.2966 19.4132C90.9464 19.7691 90.5753 20.0222 90.1832 20.1707C89.7893 20.3191 89.4105 20.4085 89.047 20.4371C88.6835 20.4675 88.2705 20.4599 87.8099 20.4143V20.6369C88.4037 20.9795 89.0128 21.1793 89.637 21.2383C90.2612 21.2973 90.8665 21.2345 91.4526 21.0499L91.4546 21.048Z" fill="white"/>
<path d="M11.4744 0H11.3944C5.11199 0 0 5.11199 0 11.3964V29.1836C0 35.468 5.11199 40.58 11.3964 40.58H11.4763C17.7606 40.58 22.8726 35.468 22.8726 29.1836V11.3964C22.8707 5.11199 17.7587 0 11.4744 0ZM11.4744 39.7769H11.3944C8.12095 39.7769 5.19193 38.2847 3.24686 35.9457H19.622C17.6769 38.2847 14.746 39.7769 11.4744 39.7769ZM2.89857 26.7609C3.69601 26.6505 4.49535 26.679 5.26615 26.8351C5.42221 27.6154 5.44695 28.4071 5.33657 29.197C4.54674 29.3074 3.75311 29.2826 2.9728 29.1246C2.81673 28.3539 2.78819 27.5564 2.89857 26.7609ZM12.4698 26.9607C13.3662 25.815 14.5138 24.9281 15.8023 24.3419C15.7566 25.3849 15.8784 26.4202 16.1658 27.4308L11.6971 33.1214C11.6152 32.0955 11.3335 31.0983 10.8692 30.1847C11.1775 29.0105 11.7142 27.9256 12.4698 26.9607ZM11.6913 34.427L16.7938 27.9275C16.9099 27.9313 17.0241 27.9371 17.1402 27.9371C18.0728 27.9371 18.9901 27.8019 19.8827 27.5393C19.6239 28.9286 19.0377 30.2571 18.1451 31.399C16.554 33.4335 14.2093 34.6572 11.6495 34.8076C11.6666 34.6801 11.6799 34.5526 11.6913 34.4251V34.427ZM20.0045 26.6619C19.0053 27.0007 17.9662 27.1605 16.9118 27.1339C16.6321 26.1138 16.5369 25.067 16.6263 24.0146C17.6103 23.6796 18.6571 23.514 19.7209 23.5388C20.0026 24.5665 20.094 25.6228 20.0064 26.66L20.0045 26.6619ZM10.9072 34.2024L6.11498 29.4101C6.23488 28.6279 6.23678 27.8419 6.11878 27.0635C7.13699 27.4061 8.07908 27.9808 8.85939 28.7611C10.302 30.2038 11.0366 32.1907 10.9072 34.2043V34.2024ZM4.36023 30.0667C4.75419 30.0667 5.15005 30.0344 5.54592 29.9754L10.3401 34.7695C8.3284 34.899 6.33955 34.1624 4.89693 32.7217C4.11472 31.9395 3.53995 30.9974 3.19928 29.9773C3.58563 30.0344 3.97198 30.0686 4.36213 30.0686L4.36023 30.0667ZM22.0695 29.1836C22.0695 31.4408 21.3577 33.5325 20.1511 35.2529V35.1445H14.1465C15.9564 34.5545 17.5684 33.4411 18.777 31.8957C20.7277 29.4006 21.3406 26.0986 20.4118 23.0515L20.3224 22.7661L20.0445 22.7508C16.8642 22.5738 13.7963 23.9613 11.836 26.4678C11.836 26.4678 11.836 26.4678 11.836 26.4697V21.824C14.9439 21.3672 17.3381 18.6818 17.3381 15.4483V7.82786H16.9366C16.4132 7.83166 15.9088 7.92302 15.4406 8.08859C15.1323 6.87055 14.0247 5.97414 12.7267 5.97414C11.7332 5.97414 10.833 6.49752 10.3325 7.32351C8.86891 6.04456 6.95429 5.27186 4.86838 5.27186H4.46681V15.4749C4.46681 16.6987 4.81509 17.8901 5.46979 18.9178C6.65739 20.7829 8.68429 21.8944 10.892 21.8944C10.9396 21.8944 10.9853 21.8925 11.0328 21.8906V27.6687C10.7455 28.1769 10.5057 28.7078 10.3134 29.2579C10.0508 28.881 9.75389 28.5232 9.42274 28.1921C7.61279 26.3821 5.02635 25.5676 2.50271 26.011L2.202 26.0643L2.15252 26.3403C1.69765 28.8734 2.51222 31.4694 4.32787 33.2869C5.17289 34.132 6.1854 34.7581 7.28354 35.1426H2.69683V35.2187C1.50353 33.5039 0.801247 31.4237 0.801247 29.1817V11.3964C0.801247 5.55353 5.55353 0.801247 11.3964 0.801247H11.4763C17.3172 0.801247 22.0695 5.55353 22.0695 11.3945V29.1817V29.1836ZM5.26996 15.4749V6.08453C9.06684 6.28436 12.1424 9.31425 12.3575 13.1473V20.899C11.8912 21.0246 11.4002 21.0932 10.8939 21.0932C8.96216 21.0932 7.18648 20.1187 6.14733 18.4858C5.57447 17.5856 5.27186 16.5445 5.26996 15.473V15.4749ZM13.1587 13.134V12.4241C13.1587 10.4752 14.6413 8.86129 16.5369 8.65575V15.4502C16.5369 17.7568 15.1457 19.7419 13.1587 20.6174V13.134ZM12.6772 10.7436C12.2909 9.67586 11.6894 8.71284 10.9301 7.90208C11.2612 7.22074 11.954 6.77729 12.7267 6.77729C13.703 6.77729 14.529 7.48718 14.6946 8.42927C13.7849 8.94503 13.0655 9.76151 12.6772 10.7436Z" fill="white"/>
</svg>
