<svg width="188" height="81" viewBox="0 0 188 81" fill="none" xmlns="http://www.w3.org/2000/svg">
<g clip-path="url(#clip0_11_571)">
<path d="M64.8876 58.1547L67.0503 63.9582H66.4451L65.8334 62.2949H63.2044L62.5926 63.9582H61.9875L64.1866 58.1547H64.8843H64.8876ZM65.6317 61.7558L64.5272 58.74L63.4127 61.7558H65.6317Z" fill="#FAF5EB"/>
<path d="M71.8983 63.1315V58.1547H72.4737V64.0144H71.8322L68.5088 58.9913V63.9582H67.9334V58.1547H68.6014L71.8983 63.1315Z" fill="#FAF5EB"/>
<path d="M79.5969 63.9581H76.0883V58.1546H79.5969V58.7035H76.6803V60.7835H79.1141V61.3226H76.6803V63.4125H79.5969V63.9614V63.9581ZM79.2133 55.9357L77.8013 57.599H77.3747L78.4693 55.9357H79.2133Z" fill="#FAF5EB"/>
<path d="M85.4428 61.0151C85.4428 61.9311 85.1683 62.652 84.6227 63.1745C84.0737 63.697 83.3099 63.9582 82.3244 63.9582H80.7933V58.1547H82.3707C83.3132 58.1547 84.0605 58.4159 84.6128 58.9384C85.165 59.4609 85.4428 60.152 85.4428 61.0118V61.0151ZM84.8509 61.0614C84.8509 60.324 84.6293 59.7486 84.1862 59.3286C83.7431 58.9119 83.1247 58.7003 82.3343 58.7003H81.3886V63.4093H82.3542C83.1214 63.4093 83.7298 63.2109 84.1796 62.814C84.6293 62.4172 84.8542 61.8319 84.8542 61.0581L84.8509 61.0614Z" fill="#FAF5EB"/>
<path d="M90.1323 63.9582H86.6237V58.1547H90.1323V58.7036H87.2156V60.7836H89.6495V61.3226H87.2156V63.4126H90.1323V63.9615V63.9582Z" fill="#FAF5EB"/>
<path d="M95.2945 63.1315V58.1547H95.8699V64.0144H95.2283L91.9049 58.9913V63.9582H91.3295V58.1547H91.9975L95.2945 63.1315Z" fill="#FAF5EB"/>
<path d="M103.959 63.5019C103.39 63.8855 102.732 64.0773 101.981 64.0773C101.138 64.0773 100.46 63.8061 99.9473 63.2605C99.4348 62.7149 99.1768 61.9841 99.1768 61.0681C99.1768 60.152 99.4381 59.4179 99.9605 58.8624C100.483 58.3101 101.158 58.0323 101.981 58.0323C102.679 58.0323 103.294 58.1944 103.82 58.5151L103.625 59.0542C103.122 58.7334 102.573 58.5714 101.971 58.5714C101.32 58.5714 100.794 58.7896 100.387 59.2294C99.9804 59.6692 99.7787 60.2744 99.7787 61.0482C99.7787 61.822 99.9804 62.414 100.384 62.8637C100.787 63.3134 101.323 63.5383 101.991 63.5383C102.494 63.5383 102.957 63.4192 103.383 63.1845V61.6071H101.703V61.0681H103.959V63.5019Z" fill="#FAF5EB"/>
<path d="M109.877 58.869C110.42 59.4245 110.691 60.1487 110.691 61.0317C110.691 61.9146 110.423 62.6454 109.884 63.2175C109.345 63.7896 108.661 64.0773 107.831 64.0773C107 64.0773 106.332 63.7962 105.793 63.2374C105.254 62.6785 104.98 61.9543 104.98 61.0681C104.98 60.1818 105.248 59.4543 105.787 58.8855C106.326 58.3167 107.01 58.0323 107.84 58.0323C108.67 58.0323 109.335 58.3101 109.877 58.869ZM110.086 61.0714C110.086 60.3273 109.874 59.7255 109.451 59.2592C109.028 58.7962 108.482 58.5614 107.821 58.5614C107.159 58.5614 106.627 58.7896 106.21 59.2493C105.793 59.7056 105.582 60.3009 105.582 61.0317C105.582 61.7625 105.797 62.3809 106.223 62.8471C106.65 63.3134 107.196 63.5482 107.857 63.5482C108.518 63.5482 109.041 63.3167 109.457 62.8571C109.874 62.3974 110.086 61.7989 110.086 61.0714Z" fill="#FAF5EB"/>
<path d="M116.177 61.7392C116.177 62.47 115.989 63.0421 115.612 63.4555C115.235 63.8688 114.689 64.0772 113.978 64.0772C113.267 64.0772 112.758 63.8754 112.378 63.472C111.997 63.0686 111.806 62.5229 111.806 61.8285V58.1513H112.381V61.7524C112.381 62.3146 112.52 62.7511 112.794 63.062C113.069 63.3728 113.472 63.5249 114.005 63.5249C114.537 63.5249 114.911 63.3728 115.185 63.0686C115.456 62.7643 115.595 62.3212 115.595 61.7425V58.1479H116.181V61.7326L116.177 61.7392Z" fill="#FAF5EB"/>
<path d="M118.181 61.6368V63.9582H117.586V58.1547H119.147C119.845 58.1547 120.374 58.3035 120.724 58.6011C121.078 58.8987 121.254 59.3055 121.254 59.8279C121.254 60.2413 121.131 60.5885 120.883 60.863C120.635 61.1375 120.311 61.3392 119.908 61.4615L121.515 63.9582H120.827L119.342 61.564L118.181 61.6368ZM118.181 61.1077L119.22 61.0713C119.63 61.0581 119.97 60.9457 120.245 60.7274C120.519 60.5092 120.658 60.2215 120.658 59.8544C120.658 59.4873 120.523 59.1897 120.248 58.9913C119.977 58.7929 119.587 58.6937 119.078 58.6937H118.178V61.1077H118.181Z" fill="#FAF5EB"/>
<path d="M127.616 63.9582L127.523 58.8888L125.618 63.9218H124.967L123.046 58.8789L122.943 63.9582H122.358L122.553 58.1547H123.353L125.311 63.2803L127.242 58.1547H128.032L128.218 63.9582H127.616Z" fill="#FAF5EB"/>
<path d="M133.075 63.9582H129.566V58.1547H133.075V58.7036H130.158V60.7836H132.592V61.3226H130.158V63.4126H133.075V63.9615V63.9582Z" fill="#FAF5EB"/>
<path d="M138.423 58.7102H136.379V63.9549H135.784V58.7102H133.74V58.1514H138.419V58.7102H138.423Z" fill="#FAF5EB"/>
<path d="M144.887 63.952H141.379V58.1484H144.887V58.6974H141.971V60.7774H144.404V61.3164H141.971V63.4064H144.887V63.9553V63.952Z" fill="#FAF5EB"/>
<path d="M147.933 61.3822L146.16 63.9549H145.462L147.589 61.0019L145.575 58.1514H146.279L147.949 60.5753L149.629 58.1514H150.327L148.293 60.9754L150.429 63.9549H149.705L147.933 61.3822Z" fill="#FAF5EB"/>
<path d="M155.026 59.9605C155.026 60.5855 154.821 61.0617 154.408 61.389C153.994 61.7164 153.422 61.8884 152.685 61.8983L151.895 61.9082V63.9519H151.299V58.1483H152.758C153.502 58.1483 154.064 58.3137 154.448 58.641C154.831 58.9684 155.023 59.4082 155.023 59.9605H155.026ZM154.414 59.9902C154.414 59.5769 154.272 59.2561 153.981 59.0346C153.69 58.813 153.28 58.7006 152.741 58.7006H151.898V61.3659L152.725 61.3461C153.852 61.3262 154.414 60.8765 154.414 59.9902Z" fill="#FAF5EB"/>
<path d="M159.632 63.9519H156.124V58.1483H159.632V58.6973H156.716V60.7773H159.15V61.3163H156.716V63.4062H159.632V63.9552V63.9519Z" fill="#FAF5EB"/>
<path d="M161.425 61.6335V63.9549H160.83V58.1514H162.391C163.088 58.1514 163.618 58.3002 163.968 58.5978C164.322 58.8954 164.497 59.3022 164.497 59.8246C164.497 60.238 164.375 60.5852 164.127 60.8597C163.879 61.1342 163.555 61.3359 163.151 61.4582L164.758 63.9549H164.071L162.586 61.5607L161.425 61.6335ZM161.425 61.1044L162.463 61.068C162.873 61.0548 163.214 60.9424 163.489 60.7241C163.763 60.5059 163.902 60.2182 163.902 59.8511C163.902 59.484 163.766 59.1864 163.492 58.988C163.221 58.7896 162.83 58.6904 162.321 58.6904H161.422V61.1044H161.425Z" fill="#FAF5EB"/>
<path d="M166.346 63.9519H165.76V58.1483H166.346V63.9519Z" fill="#FAF5EB"/>
<path d="M171.369 63.9519H167.86V58.1483H171.369V58.6973H168.452V60.7773H170.886V61.3163H168.452V63.4062H171.369V63.9552V63.9519Z" fill="#FAF5EB"/>
<path d="M176.531 63.1282V58.1514H177.106V64.0111H176.465L173.141 58.988V63.9549H172.566V58.1514H173.234L176.531 63.1282Z" fill="#FAF5EB"/>
<path d="M182.89 58.5019L182.705 59.031C182.222 58.7202 181.683 58.5681 181.088 58.5681C180.436 58.5681 179.911 58.7863 179.504 59.2261C179.097 59.666 178.895 60.2711 178.895 61.0449C178.895 61.8187 179.097 62.4107 179.5 62.8604C179.904 63.3101 180.44 63.535 181.108 63.535C181.726 63.535 182.268 63.363 182.731 63.0158L182.844 63.6011C182.361 63.9153 181.779 64.074 181.098 64.074C180.254 64.074 179.577 63.8028 179.064 63.2572C178.551 62.7116 178.293 61.9808 178.293 61.0648C178.293 60.1488 178.555 59.4146 179.077 58.8591C179.6 58.3068 180.274 58.0291 181.098 58.0291C181.772 58.0291 182.371 58.1878 182.89 58.5019Z" fill="#FAF5EB"/>
<path d="M187.549 63.9519H184.04V58.1483H187.549V58.6973H184.632V60.7773H187.066V61.3163H184.632V63.4062H187.549V63.9552V63.9519Z" fill="#FAF5EB"/>
<path d="M60.1355 15.7572C60.4298 15.8762 60.8795 15.9953 61.4847 16.111C62.0865 16.2301 62.7578 16.3326 63.4953 16.4219C64.2327 16.5112 64.9106 16.5542 65.529 16.5542L60.1355 17.0403V15.7572ZM86.6202 16.5542V18.0588H60.1355V16.5542H86.6202ZM63.8061 17.9265V18.0588C62.8637 18.0885 62.0899 18.406 61.4847 19.0079C60.8795 19.6097 60.5786 20.3868 60.5786 21.3293V21.994L60.1355 22.0369V17.9232H63.8061V17.9265ZM71.4549 44.3219V47.5494H67.9166V47.1063H68.492C69.2591 47.1063 69.9139 46.8352 70.4595 46.2895C71.0052 45.7439 71.2929 45.0891 71.3226 44.3219H71.4549ZM75.4331 16.7327V47.5494H71.3226V16.7327H75.4331ZM75.3008 44.3219H75.4331C75.4628 45.0891 75.7505 45.7439 76.2962 46.2895C76.8418 46.8352 77.4966 47.1063 78.2638 47.1063H78.8392V47.5494H75.3008V44.3219ZM86.6202 15.7572V17.0403L81.2267 16.5542C81.8749 16.5542 82.5594 16.5112 83.2836 16.4219C84.0045 16.3326 84.6758 16.2301 85.2942 16.111C85.9125 15.992 86.3557 15.8762 86.6202 15.7572ZM86.6202 17.9265V22.0403L86.1771 21.9973V21.3326C86.1771 20.3901 85.8762 19.6163 85.271 19.0112C84.6658 18.4093 83.892 18.0919 82.9496 18.0621V17.9298H86.6202V17.9265Z" fill="#FAF5EB"/>
<path d="M92.5892 16.6005V19.2526H92.4569C92.4569 18.6044 92.2287 18.0753 91.7724 17.662C91.316 17.2486 90.7638 17.0436 90.1156 17.0436H89.408V16.6005H92.5925H92.5892ZM96.5673 16.6005V36.0548C96.5673 38.1778 96.9443 40.0329 97.695 41.6269C98.4456 43.2175 99.5071 44.4476 100.879 45.3173C102.249 46.187 103.849 46.6202 105.678 46.6202C107.506 46.6202 109.266 46.2069 110.694 45.3835C112.123 44.56 113.231 43.3927 114.011 41.8914C114.791 40.3868 115.182 38.6341 115.182 36.6302V16.6005H117.612V36.5409C117.612 38.8689 117.12 40.9026 116.131 42.6421C115.142 44.3815 113.727 45.7373 111.888 46.7095C110.046 47.6817 107.887 48.1678 105.41 48.1678C102.728 48.1678 100.413 47.6883 98.4688 46.7294C96.5243 45.7704 95.0362 44.4245 94.0045 42.6851C92.9728 40.9456 92.4569 38.9119 92.4569 36.5839V16.6005H96.5706H96.5673ZM99.6163 16.6005V17.0436H98.9086C98.2605 17.0436 97.7082 17.2519 97.2519 17.662C96.7955 18.0753 96.5673 18.6044 96.5673 19.2526H96.478V16.6005H99.6163ZM115.314 16.6005V19.2526H115.182C115.182 18.6044 114.954 18.0753 114.497 17.662C114.041 17.2486 113.489 17.0436 112.84 17.0436H112.133V16.6005H115.317H115.314ZM120.664 16.6005V17.0436H119.957C119.309 17.0436 118.756 17.2519 118.3 17.662C117.844 18.0753 117.616 18.6044 117.616 19.2526H117.526V16.6005H120.664Z" fill="#FAF5EB"/>
<path d="M127.96 19.8247H127.827C127.798 19.0575 127.51 18.4027 126.964 17.8571C126.419 17.3115 125.764 17.0403 124.997 17.0403H124.421V16.5972H127.96V19.8247ZM127.96 44.322V47.5495H124.421V47.1063H124.997C125.764 47.1063 126.419 46.8352 126.964 46.2895C127.51 45.7439 127.798 45.0892 127.827 44.322H127.96ZM131.938 16.6005V47.5495H127.824V16.6005H131.938ZM131.806 19.8247V16.5972H135.344V17.0403H134.769C134.001 17.0403 133.347 17.3148 132.801 17.8571C132.255 18.4027 131.968 19.0575 131.938 19.8247H131.806ZM143.786 46.0019L144.14 47.5495H131.806V46.0019H143.786ZM146.66 39.7651L144.272 47.5462H136.491L138.082 45.9985C139.613 45.9985 140.896 45.7406 141.928 45.2247C142.96 44.7089 143.813 43.9814 144.491 43.0356C145.169 42.0931 145.744 41.0019 146.214 39.7651H146.657H146.66Z" fill="#FAF5EB"/>
<path d="M153.072 19.8247H152.94C152.91 19.0575 152.622 18.4027 152.077 17.8571C151.531 17.3115 150.876 17.0403 150.109 17.0403H149.534V16.5972H153.072V19.8247ZM153.072 44.322V47.5495H149.534V47.1063H150.109C150.876 47.1063 151.531 46.8352 152.077 46.2895C152.622 45.7439 152.91 45.0892 152.94 44.322H153.072ZM157.05 16.6005V47.5495H152.936V16.6005H157.05ZM156.918 19.8247V16.5972H160.456V17.0403H159.881C159.114 17.0403 158.459 17.3148 157.913 17.8571C157.368 18.4027 157.08 19.0575 157.05 19.8247H156.918ZM156.918 44.322H157.05C157.08 45.0892 157.368 45.7439 157.913 46.2895C158.459 46.8352 159.114 47.1063 159.881 47.1063H160.456V47.5495H156.918V44.322Z" fill="#FAF5EB"/>
<path d="M168.767 19.8247H168.634C168.634 19.0575 168.353 18.4027 167.794 17.8571C167.236 17.3115 166.571 17.0403 165.804 17.0403H165.275L165.232 16.5972H168.77V19.8247H168.767ZM168.767 44.322V47.5495H165.228V47.1063H165.804C166.571 47.1063 167.226 46.8352 167.771 46.2895C168.317 45.7439 168.605 45.0892 168.634 44.322H168.767ZM172.745 16.6005V47.5495H168.634V16.6005H172.745ZM177.831 16.6005C179.954 16.6005 181.73 16.9477 183.158 17.6388C184.587 18.33 185.678 19.3187 186.429 20.6018C187.179 21.8849 187.556 23.3961 187.556 25.1322C187.586 26.5178 187.328 27.7777 186.782 28.912C186.237 30.0462 185.506 30.9986 184.593 31.7625C183.681 32.5297 182.639 33.0951 181.475 33.4655C180.311 33.8359 179.111 33.9582 177.87 33.8425C176.634 33.7234 175.423 33.3266 174.246 32.6487V32.2056C175.159 32.2949 175.976 32.3081 176.7 32.2486C177.421 32.1891 178.175 32.0138 178.955 31.7195C179.736 31.4252 180.473 30.9225 181.167 30.2149C181.859 29.5072 182.384 28.5515 182.738 27.3412C182.827 26.9874 182.9 26.5674 182.96 26.0813C183.019 25.5952 183.032 25.1322 183.003 24.6891C182.973 22.7149 182.45 21.1243 181.432 19.914C180.413 18.707 178.978 18.1018 177.12 18.1018H172.609C172.46 17.6025 172.315 17.0998 172.166 16.5972H177.824L177.831 16.6005ZM172.613 44.322H172.745C172.775 45.0892 173.062 45.7439 173.608 46.2895C174.154 46.8352 174.808 47.1063 175.575 47.1063H176.151V47.5495H172.613V44.322Z" fill="#FAF5EB"/>
<path d="M22.7712 80.5223H22.6158C10.1456 80.5223 0.00012207 70.3801 0.00012207 57.9099V22.6124C0.00012207 10.1455 10.1456 0 22.6125 0H22.7679C35.2381 0 45.3803 10.1455 45.3803 22.6124V57.9099C45.3803 70.3801 35.2348 80.5223 22.7679 80.5223H22.7712ZM22.6125 1.5906C11.0219 1.5906 1.59073 11.0218 1.59073 22.6124V57.9099C1.59073 69.5005 11.0219 78.9317 22.6125 78.9317H22.7679C34.3585 78.9317 43.7897 69.5005 43.7897 57.9099V22.6124C43.7897 11.0218 34.3585 1.5906 22.7679 1.5906H22.6125Z" fill="#FAF5EB"/>
<path d="M39.9833 69.7385H5.35376V71.3291H39.9833V69.7385Z" fill="#FAF5EB"/>
<path d="M23.4857 42.9728H21.8951V55.3074H23.4857V42.9728Z" fill="#FAF5EB"/>
<path d="M22.1134 70.6942V69.1036C27.5763 69.0871 32.6424 66.6103 36.0055 62.308C39.4546 57.8967 40.6087 52.0997 39.1305 46.7095C33.5419 46.5772 28.198 49.0838 24.7423 53.4985C23.2046 55.4628 22.12 57.6751 21.5181 60.0726L19.9738 59.6857C20.6319 57.0699 21.8124 54.6592 23.489 52.5197C27.3779 47.5462 33.4658 44.7915 39.7753 45.1454L40.3276 45.1751L40.5029 45.7406C42.3448 51.7889 41.1312 58.3365 37.2588 63.2902C33.5915 67.9793 28.0723 70.6777 22.1134 70.6942Z" fill="#FAF5EB"/>
<path d="M34.0149 55.4395C33.6478 55.4395 33.2807 55.4296 32.9104 55.4098L32.3581 55.38L32.1961 54.8509C31.4024 52.2782 31.1544 49.6195 31.4587 46.9475L33.0393 47.1261C32.7814 49.3913 32.9567 51.6499 33.5585 53.8423C35.827 53.8986 38.0559 53.5282 40.1888 52.7345L40.7444 54.2259C38.575 55.0328 36.3165 55.4395 34.0182 55.4395H34.0149Z" fill="#FAF5EB"/>
<path d="M32.3924 54.0356L21.7358 67.6069L22.9869 68.5893L33.6434 55.0179L32.3924 54.0356Z" fill="#FAF5EB"/>
<path d="M19.6198 70.6181C15.5193 70.6181 11.5378 69.0011 8.59138 66.0546C4.98359 62.4502 3.36983 57.2947 4.27261 52.2683L4.37182 51.7194L4.96705 51.6135C9.97365 50.7339 15.1092 52.351 18.7005 55.9422C22.3083 59.55 23.922 64.7021 23.0193 69.7286L22.92 70.2742L22.3744 70.3734C21.4551 70.5388 20.5325 70.6181 19.6165 70.6181H19.6198ZM5.75078 53.1049C5.14893 57.4402 6.61057 61.8252 9.71572 64.9303C12.8209 68.0355 17.2058 69.4971 21.5411 68.8952C22.1429 64.5599 20.6813 60.175 17.5761 57.0699C14.471 53.9647 10.0861 52.5031 5.75078 53.1049Z" fill="#FAF5EB"/>
<path d="M8.6544 59.6658C7.43417 59.6658 6.22055 59.5203 5.01685 59.2326L5.38722 57.685C7.10348 58.095 8.84951 58.181 10.5922 57.9396C10.8336 56.2035 10.751 54.4608 10.3442 52.7478L11.8918 52.3774C12.3945 54.4872 12.454 56.64 12.0704 58.7729L11.9712 59.3186L11.4256 59.4178C10.5029 59.5831 9.57702 59.6658 8.6544 59.6658Z" fill="#FAF5EB"/>
<path d="M11.7852 58.0103L10.6605 59.135L21.6763 70.1508L22.801 69.0261L11.7852 58.0103Z" fill="#FAF5EB"/>
<path d="M21.6173 43.4456C17.2357 43.4456 13.2145 41.2366 10.8567 37.5362C9.5571 35.4959 8.86927 33.1348 8.86597 30.7042V10.4629H9.66292C16.7595 10.4629 22.854 14.9635 25.1556 21.3193C26.4883 17.9496 29.7753 15.5522 33.608 15.5422H34.4049V30.6613C34.4049 37.7115 28.6675 43.4489 21.6173 43.4489V43.4456ZM12.1993 36.6831C14.2628 39.9205 17.7846 41.855 21.6173 41.855C27.7912 41.855 32.8143 36.8319 32.8143 30.6579V17.1758C29.0511 17.5859 26.1113 20.7902 26.1113 24.656V26.0647L24.5207 26.1077C24.1007 18.492 17.9929 12.4735 10.4566 12.0766V30.7109C10.4566 32.8372 11.0584 34.904 12.196 36.6864L12.1993 36.6831Z" fill="#FAF5EB"/>
<path d="M26.1144 26.0614H24.5238V41.8484H26.1144V26.0614Z" fill="#FAF5EB"/>
<path d="M29.2094 17.1495C29.0738 15.0761 27.3344 13.4491 25.2544 13.4491C23.5514 13.4491 22.0434 14.5338 21.4978 16.1442L19.9899 15.635C20.7538 13.3764 22.8702 11.8585 25.2544 11.8585C28.1711 11.8585 30.6082 14.137 30.7967 17.0437L29.2094 17.1495Z" fill="#FAF5EB"/>
</g>
<defs>
<clipPath id="clip0_11_571">
<rect width="187.559" height="80.5223" fill="white"/>
</clipPath>
</defs>
</svg>
