<svg width="136" height="64" viewBox="0 0 136 64" fill="none" xmlns="http://www.w3.org/2000/svg">
<path d="M38.4928 1.36455H38.4378C38.4287 1.04402 38.3004 0.76012 38.0715 0.531168C37.8425 0.302216 37.5678 0.18316 37.2381 0.18316H37V0H38.4928V1.36455ZM38.4928 11.6949V13.0594H37V12.8762H37.2381C37.5586 12.8762 37.8425 12.7572 38.0715 12.5282C38.3004 12.2993 38.4195 12.0246 38.4378 11.6949H38.4928ZM40.709 0V13.0594H38.4287V0H40.709ZM47.4494 6.20917V6.91434H40.5258V6.20917H47.4494ZM40.6541 1.36455V0H42.1468V0.18316H41.9087C41.5882 0.18316 41.3043 0.302216 41.0753 0.531168C40.8464 0.76012 40.7273 1.03486 40.709 1.36455H40.6541ZM40.6541 11.6949H40.709C40.7182 12.0154 40.8464 12.2993 41.0753 12.5282C41.3043 12.7572 41.579 12.8762 41.9087 12.8762H42.1468V13.0594H40.6541V11.6949ZM47.3303 1.36455H47.2754C47.2754 1.04402 47.1563 0.76012 46.9182 0.531168C46.6801 0.302216 46.4053 0.18316 46.0757 0.18316H45.8375V0H47.3303V1.36455ZM47.3303 11.6949V13.0594H45.8375V12.8762H46.0757C46.3962 12.8762 46.6801 12.7572 46.9182 12.5282C47.1563 12.2993 47.2754 12.0246 47.2754 11.6949H47.3303ZM49.5557 0V13.0594H47.2754V0H49.5557ZM49.5008 1.36455V0H50.9935V0.18316H50.7554C50.4349 0.18316 50.151 0.302216 49.922 0.531168C49.6931 0.76012 49.574 1.03486 49.5557 1.36455H49.5008ZM49.5008 11.6949H49.5557C49.5649 12.0154 49.6931 12.2993 49.922 12.5282C50.151 12.7572 50.4257 12.8762 50.7554 12.8762H50.9935V13.0594H49.5008V11.6949Z" fill="#FAF5EB"/>
<path d="M58.7685 1.62109C59.7118 1.62109 60.5818 1.75847 61.3785 2.03321C62.1753 2.30795 62.8621 2.70175 63.4483 3.20544C64.0344 3.71829 64.4831 4.33188 64.8036 5.04621C65.1242 5.76054 65.2799 6.56645 65.2799 7.46394C65.2799 8.36143 65.1242 9.16735 64.8036 9.88168C64.4831 10.596 64.0344 11.2096 63.4483 11.7224C62.8621 12.2353 62.1753 12.6199 61.3785 12.8947C60.5818 13.1694 59.7118 13.3068 58.7685 13.3068C57.8252 13.3068 56.9552 13.1694 56.1584 12.8947C55.3617 12.6199 54.6748 12.2261 54.0979 11.7224C53.5209 11.2096 53.0721 10.596 52.7516 9.88168C52.4311 9.16735 52.2754 8.36143 52.2754 7.46394C52.2754 6.56645 52.4311 5.76054 52.7516 5.04621C53.0721 4.33188 53.5209 3.71829 54.0979 3.20544C54.6748 2.69259 55.3617 2.30795 56.1584 2.03321C56.9552 1.75847 57.8252 1.62109 58.7685 1.62109ZM58.7685 12.6291C59.5744 12.6291 60.2887 12.4185 60.9115 11.9972C61.5342 11.5759 62.0196 10.9715 62.3767 10.193C62.7339 9.41461 62.9079 8.50796 62.9079 7.46394C62.9079 6.41992 62.7339 5.49496 62.3767 4.72568C62.0196 3.9564 61.5342 3.36113 60.9115 2.9307C60.2887 2.50943 59.5744 2.29879 58.7685 2.29879C57.9626 2.29879 57.2482 2.50943 56.6255 2.9307C56.0027 3.35197 55.5174 3.94725 55.1693 4.72568C54.8213 5.49496 54.6473 6.41077 54.6473 7.46394C54.6473 8.51712 54.8213 9.42377 55.1693 10.193C55.5174 10.9715 56.0027 11.5668 56.6255 11.9972C57.2482 12.4185 57.9626 12.6291 58.7685 12.6291Z" fill="#FAF5EB"/>
<path d="M65.9395 1.54773C66.0402 1.58436 66.2051 1.63016 66.4248 1.67595C66.6446 1.72174 66.9011 1.76753 67.1666 1.795C67.4414 1.82248 67.6978 1.84079 67.9359 1.84079L65.9395 2.02395V1.53857V1.54773ZM76.5537 1.84995V2.5368H65.9395V1.84995H76.5537ZM67.5788 2.48186V2.5368C67.1209 2.54596 66.7637 2.69249 66.5073 2.95808C66.2508 3.22366 66.1226 3.58082 66.1226 4.01125V4.23105H65.9395V2.48186H67.5788ZM70.1705 11.8872V13.0594H68.8792V12.8763H69.0807C69.3646 12.8763 69.6118 12.7755 69.8042 12.5832C70.0056 12.3909 70.1064 12.1528 70.1247 11.8872H70.1613H70.1705ZM72.3501 1.92321V13.0594H70.1339V1.92321H72.3501ZM72.2769 11.8872H72.3501C72.3501 12.1619 72.4509 12.3909 72.6615 12.5832C72.863 12.7755 73.1102 12.8763 73.3941 12.8763H73.5773V13.0594H72.2677V11.8872H72.2769ZM76.5537 1.54773V2.03311L74.5389 1.84995C74.7862 1.84995 75.0517 1.83163 75.3265 1.80416C75.6012 1.77668 75.8485 1.73089 76.0866 1.6851C76.3156 1.63931 76.4712 1.59352 76.5628 1.55689L76.5537 1.54773ZM76.5537 2.48186V4.23105H76.3522V4.01125C76.3614 3.57167 76.2423 3.22366 75.9859 2.95808C75.7294 2.69249 75.3723 2.55512 74.9144 2.5368V2.48186H76.5537Z" fill="#FAF5EB"/>
<path d="M78.9617 3.04037H78.9251C78.9159 2.75647 78.806 2.51836 78.6045 2.3352C78.4031 2.15203 78.165 2.0513 77.8811 2.0513H77.643V1.86813H79.0991L78.9709 3.04037H78.9617ZM78.9617 11.8871L79.0899 13.0593H77.6338V12.8761H77.8719C78.1558 12.8761 78.4031 12.7754 78.5954 12.5831C78.7969 12.3908 78.8976 12.1526 78.9159 11.8871H78.9526H78.9617ZM81.1047 1.86813V13.0593H78.9251V1.86813H81.1047ZM85.8211 1.86813V2.55499H81.0681V1.86813H85.8211ZM84.9694 7.14318V7.83004H81.0681V7.14318H84.9694ZM85.6929 12.3724L85.9768 13.0593H81.0681V12.3724H85.6929ZM86.8285 9.89061L86.0043 13.0593H82.9088L83.5041 12.3724C84.0719 12.3724 84.5665 12.2717 84.9694 12.0611C85.3724 11.8596 85.7112 11.5665 85.9859 11.1911C86.2607 10.8156 86.4805 10.3851 86.6545 9.88145H86.8193L86.8285 9.89061ZM84.9694 5.742V7.17982H83.5682V7.14318C83.9529 7.14318 84.2551 7.02413 84.4657 6.78602C84.6764 6.54791 84.7862 6.25485 84.7862 5.90685V5.742H84.9694ZM84.9694 7.79341V9.24954H84.7862V9.08469C84.7862 8.73669 84.6764 8.44363 84.4657 8.20552C84.2551 7.96741 83.9529 7.84836 83.5682 7.83004V7.79341H84.9694ZM85.8211 1.56592V2.0513L83.8063 1.86813C84.1635 1.86813 84.5481 1.8315 84.9602 1.76739C85.3724 1.70329 85.6563 1.63002 85.8211 1.57508V1.56592ZM85.8211 2.50004V4.24923H85.6196V4.04775C85.6196 3.59901 85.4914 3.24184 85.2441 2.9671C84.9969 2.69236 84.6397 2.55499 84.1818 2.55499V2.50004H85.8211Z" fill="#FAF5EB"/>
<path d="M89.2557 3.0404H89.219C89.2099 2.7565 89.1 2.51839 88.8893 2.33523C88.6787 2.15206 88.4406 2.05133 88.1567 2.05133H87.9369V1.86816H89.2648V3.0404H89.2557ZM89.2557 11.8871L89.3839 13.0593H87.9277V12.8762H88.1658C88.4497 12.8762 88.697 12.7754 88.8893 12.5831C89.0908 12.3908 89.1915 12.1527 89.2099 11.8871H89.2465H89.2557ZM91.3986 1.86816V13.0593H89.219V1.86816H91.3986ZM91.3437 3.0404V1.86816H92.6716V2.05133H92.4701C92.1679 2.05133 91.9206 2.14291 91.71 2.33523C91.5085 2.51839 91.3986 2.7565 91.3986 3.0404H91.3437ZM95.9685 12.3725L96.2707 13.0593H91.362V12.3725H95.9685ZM97.1499 9.89064L96.3074 13.0593H93.2119L93.8072 12.3725C94.375 12.3725 94.8696 12.2717 95.2725 12.0611C95.6755 11.8596 96.0143 11.5666 96.289 11.1911C96.5638 10.8156 96.7836 10.3852 96.9576 9.88148H97.1408L97.1499 9.89064Z" fill="#FAF5EB"/>
<path d="M4.33176 28.6737H4.16693C4.13029 27.7304 3.78229 26.9337 3.11375 26.2652C2.44521 25.5966 1.6393 25.2578 0.705176 25.2578H0V24.7174H4.33176V28.6737ZM4.33176 58.703V62.6593H0V62.119H0.705176C1.64846 62.119 2.44521 61.7893 3.11375 61.1208C3.78229 60.4522 4.13029 59.6463 4.16693 58.7122H4.33176V58.703ZM10.7791 24.7174V62.6593H4.16693V24.7174H10.7791ZM25.6335 24.7174V26.833H10.6234V24.7174H25.6335ZM23.0875 42.9237V44.9843H10.6234V42.9237H23.0875ZM25.1481 60.5438L26.073 62.6593H10.6234V60.5438H25.1481ZM13.7096 20.9168C14.3599 19.9369 15.12 18.9479 15.99 17.9313C16.86 16.9239 17.7483 15.9623 18.6733 15.0557C19.5983 14.149 20.4317 13.3431 21.1918 12.6196C21.9885 13.1233 22.6479 13.6911 23.1699 14.323C23.6919 14.9549 24.1041 15.6876 24.388 16.521C23.3439 17.1346 22.2266 17.7481 21.0544 18.3617C19.8822 18.9753 18.7008 19.5248 17.5286 20.0194C16.3563 20.5047 15.2024 20.9352 14.0851 21.2923L13.7096 20.9168ZM28.9395 52.3565L26.2287 62.6502H16.0907L18.0414 60.5347C19.8822 60.5347 21.4757 60.205 22.8128 59.5364C24.1498 58.8679 25.2671 57.9063 26.1738 56.6608C27.0804 55.4153 27.8222 53.9775 28.3992 52.3473H28.9395V52.3565ZM23.0875 38.3721V43.0336H18.5909V42.9237C19.7082 42.8871 20.6515 42.4933 21.4116 41.7331C22.1717 40.973 22.5472 40.0389 22.5472 38.9125V38.3721H23.0875ZM23.0875 44.8744V49.5358H22.5472V48.9405C22.5472 47.8233 22.1717 46.88 21.4116 46.1199C20.6515 45.3597 19.7173 44.9843 18.5909 44.9843V44.8744H23.0875ZM25.6335 23.7375V25.3127L19.0213 24.7174C19.8181 24.7174 20.6515 24.6625 21.5398 24.5526C22.4281 24.4427 23.2432 24.3145 24.0033 24.1771C24.7634 24.0306 25.3038 23.8841 25.6335 23.7467V23.7375ZM25.6335 26.6681V32.3095H25.0931V31.5494C25.0931 30.1757 24.6627 29.0492 23.7927 28.1609C22.9227 27.2725 21.7687 26.8146 20.3218 26.778V26.6681H25.6335Z" fill="#FAF5EB"/>
<path d="M36.5306 33.6008H36.4207C36.3841 32.7308 36.0727 32.0256 35.4683 31.4853C34.8638 30.945 34.1404 30.6702 33.2703 30.6702H32.6201V30.1299H36.5215V33.6008H36.5306ZM36.5306 59.1335V62.6594H32.6293V62.119H33.3345C34.2045 62.119 34.928 61.8168 35.5049 61.2215C36.0819 60.6263 36.3932 59.9303 36.4299 59.1335H36.5398H36.5306ZM42.8131 30.139V62.6594H36.4207V30.139H42.8131ZM50.8905 30.139C54.6819 30.139 57.933 30.7893 60.6438 32.0897C63.3546 33.3902 65.4426 35.2492 66.9079 37.6761C68.3732 40.0939 69.1059 43.0061 69.1059 46.4038C69.1059 49.8014 68.3732 52.7137 66.9079 55.1314C65.4426 57.5492 63.3546 59.4174 60.6438 60.7178C57.933 62.0183 54.6819 62.6685 50.8905 62.6685H39.0216L38.9117 60.7178H50.4601C54.105 60.7178 56.9898 59.4449 59.1053 56.8989C61.2208 54.353 62.274 50.8546 62.274 46.4129C62.274 41.9713 61.2299 38.4729 59.1327 35.9269C57.0355 33.381 54.1508 32.108 50.4601 32.108H38.3714V30.1574H50.8905V30.139Z" fill="#FAF5EB"/>
<path d="M76.5802 33.5459H76.4703C76.4336 32.7125 76.1223 32.0256 75.5453 31.4853C74.9683 30.945 74.2632 30.6702 73.4298 30.6702H72.7246V30.1299H76.9556L76.5802 33.5459ZM76.5802 59.2434L76.9556 62.6594H72.7246V62.1191H73.4298C74.2632 62.1191 74.9683 61.8351 75.5453 61.2765C76.1223 60.7179 76.4336 60.0402 76.4703 59.2434H76.5802ZM82.8168 30.1391V62.6594H76.4794V30.1391H82.8168ZM96.5264 30.1391V32.1447H82.7069V30.1391H96.5264ZM94.0354 45.4697V47.4753H82.7069V45.4697H94.0354ZM96.151 60.6538L96.966 62.6594H82.7069V60.6538H96.151ZM99.457 53.4372L97.0759 62.6502H88.0827L89.8136 60.6446C91.4712 60.6446 92.8907 60.3424 94.0721 59.7471C95.2443 59.1518 96.2334 58.3093 97.0301 57.2286C97.8269 56.148 98.4771 54.8842 98.9808 53.4372H99.4662H99.457ZM94.0354 41.4126V45.5887H89.9693V45.4788C91.0865 45.4788 91.9566 45.14 92.5702 44.4531C93.1837 43.7663 93.4951 42.9146 93.4951 41.9072V41.4218H94.0354V41.4126ZM94.0354 47.3745V51.6056H93.4951V51.1202C93.4951 50.1128 93.1837 49.2611 92.5702 48.5743C91.9566 47.8874 91.0865 47.5302 89.9693 47.4936V47.3837H94.0354V47.3745ZM96.5264 29.269V30.6794L90.6744 30.1391C91.7185 30.1391 92.8449 30.0383 94.0354 29.8368C95.226 29.6354 96.0594 29.4522 96.5264 29.269ZM96.5264 31.9798V37.0717H95.9312V36.4764C95.9312 35.176 95.574 34.132 94.8505 33.3352C94.127 32.5385 93.1013 32.1447 91.7642 32.1447V31.9798H96.5356H96.5264Z" fill="#FAF5EB"/>
<path d="M107.231 33.9579C107.231 34.9011 107.259 35.4048 107.259 35.9268V59.344C107.259 60.0584 107.085 60.7544 106.783 61.2398C106.416 61.8167 105.986 62.1098 105.482 62.1098H104.933V62.6501H113.01V62.1098H112.461C111.984 62.1098 111.582 61.8442 111.234 61.3222C110.885 60.8002 110.702 60.1408 110.684 59.344V37.8683L132.902 63.1629V63.0714L133.048 63.2728C133.121 63.4194 133.268 63.3278 133.259 63.1355C133.24 61.7434 133.204 60.1225 133.204 59.1426L133.176 33.39C133.176 32.6757 133.341 31.9797 133.652 31.4943C134.019 30.9174 134.449 30.6243 134.944 30.6243H135.493V30.084H127.452V30.6243H128.002C128.469 30.6243 128.881 30.8899 129.22 31.4119C129.559 31.9339 129.742 32.5933 129.769 33.39L129.788 50.7721L114.173 32.7673C113.486 31.9431 112.79 31.1097 112.104 30.2855C112.003 30.1664 111.847 30.0931 111.691 30.0931H101.828C101.755 30.377 101.764 30.3404 101.682 30.6243C103.202 30.9357 106.929 31.8515 107.231 33.7838C107.241 33.848 107.25 33.9121 107.25 33.9762L107.231 33.9579Z" fill="#FAF5EB"/>
</svg>
