<svg width="267" height="119" viewBox="0 0 267 119" fill="none" xmlns="http://www.w3.org/2000/svg">
<g clip-path="url(#clip0_11_348)">
<path d="M170.175 27.7307H170.12C170.111 27.4102 169.983 27.1263 169.754 26.8973C169.525 26.6684 169.25 26.5493 168.92 26.5493H168.682V26.3661H170.175V27.7307ZM170.175 38.061V39.4256H168.682V39.2424H168.92C169.241 39.2424 169.525 39.1233 169.754 38.8944C169.983 38.6654 170.102 38.3907 170.12 38.061H170.175ZM172.391 26.3661V39.4256H170.111V26.3661H172.391ZM179.131 32.5753V33.2805H172.208V32.5753H179.131ZM172.336 27.7307V26.3661H173.829V26.5493H173.591C173.27 26.5493 172.986 26.6684 172.757 26.8973C172.528 27.1263 172.409 27.401 172.391 27.7307H172.336ZM172.336 38.061H172.391C172.4 38.3815 172.528 38.6654 172.757 38.8944C172.986 39.1233 173.261 39.2424 173.591 39.2424H173.829V39.4256H172.336V38.061ZM179.012 27.7307H178.957C178.957 27.4102 178.838 27.1263 178.6 26.8973C178.362 26.6684 178.087 26.5493 177.758 26.5493H177.52V26.3661H179.012V27.7307ZM179.012 38.061V39.4256H177.52V39.2424H177.758C178.078 39.2424 178.362 39.1233 178.6 38.8944C178.838 38.6654 178.957 38.3907 178.957 38.061H179.012ZM181.238 26.3661V39.4256H178.957V26.3661H181.238ZM181.183 27.7307V26.3661H182.676V26.5493H182.437C182.117 26.5493 181.833 26.6684 181.604 26.8973C181.375 27.1263 181.256 27.401 181.238 27.7307H181.183ZM181.183 38.061H181.238C181.247 38.3815 181.375 38.6654 181.604 38.8944C181.833 39.1233 182.108 39.2424 182.437 39.2424H182.676V39.4256H181.183V38.061Z" fill="#FAF5EB"/>
<path d="M190.451 27.9871C191.394 27.9871 192.264 28.1245 193.061 28.3992C193.857 28.674 194.544 29.0678 195.13 29.5715C195.716 30.0843 196.165 30.6979 196.486 31.4122C196.806 32.1266 196.962 32.9325 196.962 33.83C196.962 34.7275 196.806 35.5334 196.486 36.2477C196.165 36.962 195.716 37.5756 195.13 38.0885C194.544 38.6013 193.857 38.986 193.061 39.2607C192.264 39.5355 191.394 39.6728 190.451 39.6728C189.507 39.6728 188.637 39.5355 187.84 39.2607C187.044 38.986 186.357 38.5922 185.78 38.0885C185.203 37.5756 184.754 36.962 184.434 36.2477C184.113 35.5334 183.957 34.7275 183.957 33.83C183.957 32.9325 184.113 32.1266 184.434 31.4122C184.754 30.6979 185.203 30.0843 185.78 29.5715C186.357 29.0586 187.044 28.674 187.84 28.3992C188.637 28.1245 189.507 27.9871 190.451 27.9871ZM190.451 38.9951C191.256 38.9951 191.971 38.7845 192.594 38.3632C193.216 37.9419 193.702 37.3375 194.059 36.5591C194.416 35.7806 194.59 34.874 194.59 33.83C194.59 32.786 194.416 31.861 194.059 31.0917C193.702 30.3224 193.216 29.7272 192.594 29.2967C191.971 28.8755 191.256 28.6648 190.451 28.6648C189.645 28.6648 188.93 28.8755 188.308 29.2967C187.685 29.718 187.199 30.3133 186.851 31.0917C186.503 31.861 186.329 32.7768 186.329 33.83C186.329 34.8831 186.503 35.7898 186.851 36.5591C187.199 37.3375 187.685 37.9328 188.308 38.3632C188.93 38.7845 189.645 38.9951 190.451 38.9951Z" fill="#FAF5EB"/>
<path d="M197.621 27.914C197.722 27.9506 197.887 27.9964 198.107 28.0422C198.326 28.088 198.583 28.1338 198.848 28.1613C199.123 28.1887 199.38 28.2071 199.618 28.2071L197.621 28.3902V27.9048V27.914ZM208.235 28.2162V28.9031H197.621V28.2162H208.235ZM199.261 28.8481V28.9031C198.803 28.9122 198.445 29.0588 198.189 29.3243C197.933 29.5899 197.804 29.9471 197.804 30.3775V30.5973H197.621V28.8481H199.261ZM201.852 38.2535V39.4257H200.561V39.2425H200.762C201.046 39.2425 201.294 39.1418 201.486 38.9495C201.687 38.7572 201.788 38.5191 201.806 38.2535H201.843H201.852ZM204.032 28.2895V39.4257H201.816V28.2895H204.032ZM203.959 38.2535H204.032C204.032 38.5282 204.133 38.7572 204.343 38.9495C204.545 39.1418 204.792 39.2425 205.076 39.2425H205.259V39.4257H203.949V38.2535H203.959ZM208.235 27.914V28.3994L206.221 28.2162C206.468 28.2162 206.733 28.1979 207.008 28.1704C207.283 28.143 207.53 28.0972 207.768 28.0514C207.997 28.0056 208.153 27.9598 208.245 27.9232L208.235 27.914ZM208.235 28.8481V30.5973H208.034V30.3775C208.043 29.9379 207.924 29.5899 207.668 29.3243C207.411 29.0588 207.054 28.9214 206.596 28.9031V28.8481H208.235Z" fill="#FAF5EB"/>
<path d="M210.644 29.4065H210.607C210.598 29.1226 210.488 28.8845 210.286 28.7013C210.085 28.5182 209.847 28.4174 209.563 28.4174H209.325V28.2343H210.781L210.653 29.4065H210.644ZM210.644 38.2532L210.772 39.4254H209.316V39.2423H209.554C209.838 39.2423 210.085 39.1415 210.277 38.9492C210.479 38.7569 210.579 38.5188 210.598 38.2532H210.634H210.644ZM212.787 28.2343V39.4254H210.607V28.2343H212.787ZM217.503 28.2343V28.9211H212.75V28.2343H217.503ZM216.651 33.5093V34.1962H212.75V33.5093H216.651ZM217.375 38.7386L217.659 39.4254H212.75V38.7386H217.375ZM218.51 36.2568L217.686 39.4254H214.591L215.186 38.7386C215.754 38.7386 216.248 38.6379 216.651 38.4272C217.054 38.2257 217.393 37.9327 217.668 37.5572C217.943 37.1817 218.162 36.7513 218.336 36.2476H218.501L218.51 36.2568ZM216.651 32.1082V33.546H215.25V33.5093C215.635 33.5093 215.937 33.3903 216.148 33.1522C216.358 32.9141 216.468 32.621 216.468 32.273V32.1082H216.651ZM216.651 34.1596V35.6157H216.468V35.4508C216.468 35.1028 216.358 34.8098 216.148 34.5717C215.937 34.3336 215.635 34.2145 215.25 34.1962V34.1596H216.651ZM217.503 27.9321V28.4174L215.488 28.2343C215.845 28.2343 216.23 28.1977 216.642 28.1335C217.054 28.0694 217.338 27.9962 217.503 27.9412V27.9321ZM217.503 28.8662V30.6154H217.302V30.4139C217.302 29.9652 217.173 29.608 216.926 29.3333C216.679 29.0585 216.322 28.9211 215.864 28.9211V28.8662H217.503Z" fill="#FAF5EB"/>
<path d="M220.937 29.4066H220.901C220.892 29.1227 220.782 28.8846 220.571 28.7014C220.361 28.5183 220.122 28.4175 219.839 28.4175H219.619V28.2344H220.947V29.4066H220.937ZM220.937 38.2533L221.066 39.4255H219.61V39.2424H219.848C220.132 39.2424 220.379 39.1416 220.571 38.9493C220.773 38.757 220.873 38.5189 220.892 38.2533H220.928H220.937ZM223.08 28.2344V39.4255H220.901V28.2344H223.08ZM223.026 29.4066V28.2344H224.353V28.4175H224.152C223.85 28.4175 223.602 28.5091 223.392 28.7014C223.19 28.8846 223.08 29.1227 223.08 29.4066H223.026ZM227.65 38.7387L227.953 39.4255H223.044V38.7387H227.65ZM228.832 36.2568L227.989 39.4255H224.894L225.489 38.7387C226.057 38.7387 226.551 38.6379 226.954 38.4273C227.357 38.2258 227.696 37.9328 227.971 37.5573C228.246 37.1818 228.465 36.7514 228.639 36.2477H228.823L228.832 36.2568Z" fill="#FAF5EB"/>
<path d="M135.348 55.0398H135.183C135.146 54.0965 134.798 53.2998 134.13 52.6312C133.461 51.9627 132.655 51.6239 131.721 51.6239H131.016V51.0835H135.348V55.0398ZM135.348 85.0691V89.0254H131.016V88.4851H131.721C132.664 88.4851 133.461 88.1554 134.13 87.4869C134.798 86.8183 135.146 86.0124 135.183 85.0783H135.348V85.0691ZM141.795 51.0835V89.0254H135.183V51.0835H141.795ZM156.649 51.0835V53.199H141.639V51.0835H156.649ZM154.103 69.2898V71.3503H141.639V69.2898H154.103ZM156.164 86.9099L157.089 89.0254H141.639V86.9099H156.164ZM144.726 47.2829C145.376 46.303 146.136 45.3139 147.006 44.2974C147.876 43.29 148.764 42.3284 149.689 41.4218C150.614 40.5151 151.448 39.7092 152.208 38.9857C153.004 39.4894 153.664 40.0572 154.186 40.6891C154.708 41.321 155.12 42.0537 155.404 42.8871C154.36 43.5006 153.243 44.1142 152.07 44.7278C150.898 45.3414 149.717 45.8909 148.544 46.3854C147.372 46.8708 146.218 47.3012 145.101 47.6584L144.726 47.2829ZM159.955 78.7226L157.245 89.0163H147.107L149.057 86.9008C150.898 86.9008 152.492 86.5711 153.829 85.9025C155.166 85.234 156.283 84.2724 157.19 83.0269C158.096 81.7814 158.838 80.3436 159.415 78.7134H159.955V78.7226ZM154.103 64.7382V69.3997H149.607V69.2898C150.724 69.2532 151.667 68.8594 152.427 68.0992C153.188 67.3391 153.563 66.405 153.563 65.2785V64.7382H154.103ZM154.103 71.2405V75.9019H153.563V75.3066C153.563 74.1894 153.188 73.2461 152.427 72.4859C151.667 71.7258 150.733 71.3503 149.607 71.3503V71.2405H154.103ZM156.649 50.1036V51.6788L150.037 51.0835C150.834 51.0835 151.667 51.0286 152.556 50.9187C153.444 50.8088 154.259 50.6806 155.019 50.5432C155.779 50.3967 156.32 50.2501 156.649 50.1128V50.1036ZM156.649 53.0342V58.6756H156.109V57.9155C156.109 56.5417 155.679 55.4153 154.809 54.527C153.939 53.6386 152.785 53.1807 151.338 53.1441V53.0342H156.649Z" fill="#FAF5EB"/>
<path d="M167.547 59.967H167.437C167.4 59.097 167.089 58.3918 166.484 57.8515C165.88 57.3112 165.156 57.0364 164.286 57.0364H163.636V56.4961H167.537V59.967H167.547ZM167.547 85.4997V89.0256H163.645V88.4852H164.35C165.22 88.4852 165.944 88.183 166.521 87.5878C167.098 86.9925 167.409 86.2965 167.446 85.4997H167.556H167.547ZM173.829 56.5053V89.0256H167.437V56.5053H173.829ZM181.906 56.5053C185.698 56.5053 188.949 57.1555 191.66 58.4559C194.371 59.7564 196.459 61.6155 197.924 64.0423C199.389 66.4601 200.122 69.3723 200.122 72.77C200.122 76.1676 199.389 79.0799 197.924 81.4976C196.459 83.9154 194.371 85.7836 191.66 87.0841C188.949 88.3845 185.698 89.0347 181.906 89.0347H170.038L169.928 87.0841H181.476C185.121 87.0841 188.006 85.8111 190.121 83.2651C192.237 80.7192 193.29 77.2208 193.29 72.7792C193.29 68.3375 192.246 64.8391 190.149 62.2932C188.052 59.7472 185.167 58.4742 181.476 58.4742H169.387V56.5236H181.906V56.5053Z" fill="#FAF5EB"/>
<path d="M207.596 59.9121H207.486C207.449 59.0787 207.138 58.3918 206.561 57.8515C205.984 57.3112 205.279 57.0364 204.445 57.0364H203.74V56.4961H207.971L207.596 59.9121ZM207.596 85.6096L207.971 89.0256H203.74V88.4853H204.445C205.279 88.4853 205.984 88.2014 206.561 87.6427C207.138 87.0841 207.449 86.4064 207.486 85.6096H207.596ZM213.832 56.5053V89.0256H207.495V56.5053H213.832ZM227.542 56.5053V58.5109H213.723V56.5053H227.542ZM225.051 71.8359V73.8415H213.723V71.8359H225.051ZM227.167 87.02L227.982 89.0256H213.723V87.02H227.167ZM230.473 79.8034L228.092 89.0164H219.098L220.829 87.0108C222.487 87.0108 223.906 86.7086 225.088 86.1133C226.26 85.518 227.249 84.6755 228.046 83.5948C228.843 82.5142 229.493 81.2504 229.996 79.8034H230.482H230.473ZM225.051 67.7789V71.9549H220.985V71.845C222.102 71.845 222.972 71.5062 223.586 70.8193C224.199 70.1325 224.511 69.2808 224.511 68.2734V67.788H225.051V67.7789ZM225.051 73.7408V77.9718H224.511V77.4864C224.511 76.479 224.199 75.6273 223.586 74.9405C222.972 74.2536 222.102 73.8965 220.985 73.8598V73.7499H225.051V73.7408ZM227.542 55.6353V57.0456L221.69 56.5053C222.734 56.5053 223.861 56.4045 225.051 56.2031C226.242 56.0016 227.075 55.8184 227.542 55.6353ZM227.542 58.346V63.4379H226.947V62.8427C226.947 61.5422 226.59 60.4982 225.866 59.7014C225.143 58.9047 224.117 58.5109 222.78 58.5109V58.346H227.551H227.542Z" fill="#FAF5EB"/>
<path d="M238.247 60.3238C238.247 61.2671 238.275 61.7708 238.275 62.2928V85.71C238.275 86.4243 238.101 87.1203 237.798 87.6057C237.432 88.1827 237.002 88.4757 236.498 88.4757H235.948V89.0161H244.026V88.4757H243.476C243 88.4757 242.597 88.2101 242.249 87.6881C241.901 87.1661 241.718 86.5067 241.7 85.71V64.2343L263.917 89.5289V89.4373L264.064 89.6388C264.137 89.7853 264.283 89.6938 264.274 89.5014C264.256 88.1094 264.219 86.4884 264.219 85.5085L264.192 59.756C264.192 59.0417 264.357 58.3457 264.668 57.8603C265.034 57.2833 265.465 56.9903 265.959 56.9903H266.509V56.45H258.468V56.9903H259.018C259.485 56.9903 259.897 57.2559 260.236 57.7779C260.574 58.2999 260.758 58.9593 260.785 59.756L260.803 77.138L245.189 59.1333C244.502 58.309 243.806 57.4757 243.119 56.6514C243.018 56.5324 242.863 56.4591 242.707 56.4591H232.844C232.771 56.743 232.78 56.7064 232.697 56.9903C234.218 57.3017 237.945 58.2175 238.247 60.1498C238.256 60.2139 238.265 60.278 238.265 60.3421L238.247 60.3238Z" fill="#FAF5EB"/>
<path d="M59.3265 117.626C59.3265 117.626 59.3906 117.672 59.4272 117.69C68.4571 111.408 74.3732 100.949 74.3732 89.108C74.3732 77.2666 68.4571 66.8172 59.4272 60.5256C50.3882 66.8081 44.4813 77.2666 44.4813 89.108C44.4813 100.904 50.3516 111.325 59.3265 117.617V117.626Z" stroke="#E2BA86" stroke-width="2.13383" stroke-miterlimit="10"/>
<path d="M69.2536 107.397C66.7259 103.285 63.3741 99.7313 59.4269 96.9839C55.4798 99.7313 52.128 103.266 49.6095 107.369" stroke="#E2BA86" stroke-width="2.13383" stroke-miterlimit="10"/>
<path d="M59.4276 60.5345V97.1852" stroke="#E2BA86" stroke-width="2.13383" stroke-miterlimit="10"/>
<path d="M59.4274 98.8706C60.3074 98.8706 61.0209 98.1572 61.0209 97.2771C61.0209 96.397 60.3074 95.6836 59.4274 95.6836C58.5473 95.6836 57.8339 96.397 57.8339 97.2771C57.8339 98.1572 58.5473 98.8706 59.4274 98.8706Z" fill="#E2BA86" stroke="#E2BA86" stroke-width="2.13383" stroke-miterlimit="10"/>
<path d="M9.24092 30.2857C9.24092 30.2857 9.16766 30.3223 9.13103 30.3406C10.056 41.3028 16.1553 51.6606 26.4123 57.5767C36.6602 63.4929 48.6756 63.6027 58.6396 58.923C57.7146 47.9608 51.6153 37.603 41.3674 31.6869C31.147 25.7891 19.1866 25.6609 9.25008 30.2948L9.24092 30.2857Z" stroke="#E2BA86" stroke-width="2.13383" stroke-miterlimit="10"/>
<path d="M13.1431 43.9954C17.9694 43.8672 22.7132 42.7316 27.0725 40.6894C26.6695 35.8997 25.2775 31.2291 22.988 26.998" stroke="#E2BA86" stroke-width="2.13383" stroke-miterlimit="10"/>
<path d="M58.6399 58.9232L26.898 40.5979" stroke="#E2BA86" stroke-width="2.13383" stroke-miterlimit="10"/>
<path d="M26.8245 42.1455C27.7046 42.1455 28.418 41.4321 28.418 40.552C28.418 39.6719 27.7046 38.9585 26.8245 38.9585C25.9444 38.9585 25.231 39.6719 25.231 40.552C25.231 41.4321 25.9444 42.1455 26.8245 42.1455Z" fill="#E2BA86" stroke="#E2BA86" stroke-width="2.13383" stroke-miterlimit="10"/>
<path d="M109.925 30.5788C109.925 30.5788 109.925 30.4964 109.934 30.4598C99.9789 25.78 87.9635 25.8899 77.7065 31.806C67.4586 37.7221 61.3502 48.0707 60.4252 59.0421C70.38 63.7219 82.3954 63.6211 92.6525 57.6959C102.873 51.7981 108.963 41.5044 109.925 30.5788Z" stroke="#E2BA86" stroke-width="2.13383" stroke-miterlimit="10"/>
<path d="M96.1055 27.108C93.8068 31.3482 92.4056 36.028 92.0027 40.8268C96.3528 42.8691 101.087 44.0047 105.905 44.1329" stroke="#E2BA86" stroke-width="2.13383" stroke-miterlimit="10"/>
<path d="M60.4342 59.0421L92.176 40.7168" stroke="#E2BA86" stroke-width="2.13383" stroke-miterlimit="10"/>
<path d="M92.2493 42.2644C93.1294 42.2644 93.8428 41.551 93.8428 40.6709C93.8428 39.7908 93.1294 39.0774 92.2493 39.0774C91.3693 39.0774 90.6558 39.7908 90.6558 40.6709C90.6558 41.551 91.3693 42.2644 92.2493 42.2644Z" fill="#E2BA86" stroke="#E2BA86" stroke-width="2.13383" stroke-miterlimit="10"/>
<path d="M28.3628 59.0602C27.6668 59.3716 26.9799 59.7104 26.2931 60.0676C15.862 65.5807 9.38725 75.6455 8.0227 86.5252C8.0227 86.5619 8.01354 86.6077 8.00438 86.6443C17.7852 91.6904 29.7914 92.0384 40.2591 86.4978C41.7977 85.6827 43.2538 84.7761 44.6184 83.7687" stroke="#E2BA86" stroke-width="2.13383" stroke-miterlimit="10"/>
<path d="M58.5483 59.921L26.147 77.0466" stroke="#E2BA86" stroke-width="2.13383" stroke-miterlimit="10"/>
<path d="M26.0735 78.6862C26.9535 78.6862 27.667 77.9727 27.667 77.0926C27.667 76.2126 26.9535 75.4991 26.0735 75.4991C25.1934 75.4991 24.4799 76.2126 24.4799 77.0926C24.4799 77.9727 25.1934 78.6862 26.0735 78.6862Z" fill="#E2BA86" stroke="#E2BA86" stroke-width="2.13383" stroke-miterlimit="10"/>
<path d="M75.4537 32.7584C75.5361 31.9983 75.5819 31.2382 75.6185 30.4598C76.0581 18.6733 70.5816 8.03165 61.8448 1.41036C61.8173 1.38289 61.7807 1.36457 61.7532 1.3371C52.4944 7.28069 46.1936 17.5103 45.754 29.3425C45.6899 31.0825 45.754 32.7951 45.9372 34.4802" stroke="#E2BA86" stroke-width="2.13383" stroke-miterlimit="10"/>
<path d="M59.61 58.4652L60.9746 21.8421" stroke="#E2BA86" stroke-width="2.13383" stroke-miterlimit="10"/>
<path d="M60.9746 23.3437C61.8547 23.3437 62.5681 22.6303 62.5681 21.7502C62.5681 20.8702 61.8547 20.1567 60.9746 20.1567C60.0945 20.1567 59.3811 20.8702 59.3811 21.7502C59.3811 22.6303 60.0945 23.3437 60.9746 23.3437Z" fill="#E2BA86" stroke="#E2BA86" stroke-width="2.13383" stroke-miterlimit="10"/>
<path d="M74.6845 86.6814C75.2981 87.1302 75.9392 87.5606 76.5894 87.9636C86.5809 94.2368 98.5322 94.8138 108.634 90.5553C108.67 90.537 108.707 90.5278 108.743 90.5095C108.231 79.5198 102.516 68.9422 92.497 62.6506C91.0225 61.7257 89.5023 60.9198 87.9546 60.2421" stroke="#E2BA86" stroke-width="2.13383" stroke-miterlimit="10"/>
<path d="M60.3429 60.1138L91.3796 79.6113" stroke="#E2BA86" stroke-width="2.13383" stroke-miterlimit="10"/>
<path d="M91.4532 81.2506C92.3333 81.2506 93.0467 80.5372 93.0467 79.6571C93.0467 78.777 92.3333 78.0636 91.4532 78.0636C90.5732 78.0636 89.8597 78.777 89.8597 79.6571C89.8597 80.5372 90.5732 81.2506 91.4532 81.2506Z" fill="#E2BA86" stroke="#E2BA86" stroke-width="2.13383" stroke-miterlimit="10"/>
<path d="M84.8578 91.1685C84.8578 95.6742 81.2038 99.3283 76.698 99.3283C75.1777 99.3283 73.7582 98.9162 72.5402 98.1927" stroke="#E2BA86" stroke-width="2.26204" stroke-miterlimit="10"/>
<path d="M44.7561 97.2955C40.8548 99.5484 35.8636 98.2113 33.6107 94.31C32.8506 92.9912 32.5026 91.5534 32.5209 90.1431" stroke="#E2BA86" stroke-width="2.26204" stroke-miterlimit="10"/>
<path d="M19.3964 65.627C15.4951 63.3741 14.158 58.383 16.4109 54.4816C17.171 53.1629 18.2425 52.1463 19.4697 51.4503" stroke="#E2BA86" stroke-width="2.26204" stroke-miterlimit="10"/>
<path d="M34.1406 27.8314C34.1406 23.3256 37.7946 19.6715 42.3004 19.6715C43.8206 19.6715 45.2401 20.0836 46.4582 20.8071" stroke="#E2BA86" stroke-width="2.26204" stroke-miterlimit="10"/>
<path d="M74.2449 21.7046C78.1463 19.4517 83.1374 20.7887 85.3903 24.6901C86.1504 26.0088 86.4984 27.4467 86.4801 28.857" stroke="#E2BA86" stroke-width="2.26204" stroke-miterlimit="10"/>
<path d="M99.6029 53.373C103.504 55.6259 104.841 60.6171 102.588 64.5184C101.828 65.8372 100.757 66.8537 99.5296 67.5497" stroke="#E2BA86" stroke-width="2.26204" stroke-miterlimit="10"/>
</g>
<defs>
<clipPath id="clip0_11_348">
<rect width="266.5" height="119" fill="white"/>
</clipPath>
</defs>
</svg>
