<svg width="108" height="76" viewBox="0 0 108 76" fill="none" xmlns="http://www.w3.org/2000/svg">
<path d="M19.2543 27.1764H0.0694893C0.0231631 27.1764 0 27.1532 0 27.1069L0.0173723 27.0722C0.694893 25.8966 1.04234 23.8004 1.0655 20.795C1.08867 20.0016 1.10025 18.1254 1.10025 15.1663C1.10025 11.5297 1.08867 9.13236 1.0655 7.97999C1.04234 4.96879 0.694893 2.87253 0.0173723 1.69701L0 1.66226C0 1.66226 0 1.62173 0.0173723 1.61015C0.0347446 1.59856 3.23704 1.59277 9.63584 1.59277C16.0346 1.59277 19.2427 1.59856 19.2543 1.61015C19.2659 1.62173 19.2717 1.6391 19.2717 1.66226C19.2717 4.29706 19.2601 5.62315 19.2427 5.63473C19.2254 5.64631 19.2022 5.6521 19.179 5.6521C19.0053 5.54787 18.8374 5.43205 18.6694 5.30466C18.3683 5.07303 17.9977 4.8414 17.5576 4.60397C17.1175 4.37234 16.5384 4.17546 15.8088 4.01911C15.0792 3.86276 14.1005 3.78169 12.8613 3.78169L7.80596 3.76431C7.80596 3.76431 7.77701 3.7701 7.75963 3.78169C7.74226 3.79327 7.73068 5.10198 7.73068 7.69625C7.73068 10.2905 7.73068 11.5876 7.74805 11.605C7.75963 11.6224 7.95652 11.634 8.3445 11.634C11.819 11.634 14.1469 11.2807 15.3224 10.5685C15.3455 10.5685 15.3687 10.5743 15.3861 10.5858C15.4035 10.5974 15.415 10.6148 15.415 10.638C15.415 13.4465 15.4035 14.8594 15.3861 14.871C15.3687 14.8826 15.3455 14.8884 15.3224 14.8884C14.1353 14.1761 11.8074 13.8229 8.3445 13.8229C7.96231 13.8229 7.75963 13.8287 7.74805 13.8403C7.73647 13.8518 7.73068 15.7107 7.73068 19.4168C7.73068 23.1229 7.74226 24.9701 7.75963 24.9875C7.77701 25.0049 7.79438 25.0164 7.80596 25.0164L13.6488 24.9991C14.9402 24.9991 15.9767 24.9064 16.7469 24.7269C17.5171 24.5474 18.1193 24.3331 18.5594 24.0783C18.9937 23.8293 19.3528 23.5861 19.6365 23.3545L19.9318 23.1287H19.9666C20.0129 23.1287 20.0361 23.1518 20.0361 23.1981L19.318 27.1301C19.3064 27.1648 19.2833 27.1822 19.2485 27.1822L19.2543 27.1764Z" fill="#F9F9F9"/>
<path d="M45.2871 27.1766C42.3628 27.1766 40.8919 27.165 40.8803 27.1476C40.8687 27.1303 40.863 27.1071 40.863 27.0839C41.222 26.4991 41.4826 25.6768 41.6389 24.6113C41.7953 23.5458 41.8937 22.266 41.9285 20.772C41.94 20.1061 41.9458 19.0232 41.9574 17.5176C41.9574 16.012 41.969 15.016 41.9864 14.5295C41.9864 13.852 41.9516 13.1977 41.8821 12.5723C41.8126 11.9469 41.6563 11.4257 41.4189 11.0146C41.1815 10.6092 40.8051 10.4007 40.2897 10.4007C39.6237 10.4007 39.1721 11.0667 38.9231 12.3928C38.7609 13.3019 38.6798 14.4948 38.6798 15.9772V17.008H38.6972V20.0655C38.7204 21.8607 38.8246 23.3778 39.0099 24.6113C39.1605 25.671 39.4153 26.4933 39.7801 27.0781C39.7801 27.1013 39.7743 27.1245 39.7627 27.1418C39.7511 27.1592 38.2861 27.1708 35.3733 27.1708C32.4606 27.1708 30.9781 27.1708 30.9665 27.1534C30.9549 27.1419 30.9492 27.1245 30.9492 27.1013L30.9665 27.0666C31.6441 25.891 31.9915 23.789 32.0147 20.772C32.0262 20.2914 32.032 18.7742 32.032 16.2089L32.0494 14.5295C32.0494 13.852 32.0147 13.1977 31.9452 12.5723C31.8757 11.9469 31.7193 11.4257 31.4819 11.0146C31.2445 10.6092 30.8681 10.4007 30.3527 10.4007C30.0748 10.4007 29.791 10.4876 29.5073 10.6613C29.2235 10.835 28.9861 11.1419 28.8008 11.582C28.6155 12.0221 28.5055 12.6244 28.4707 13.3946C28.4707 16.6606 28.4823 19.1216 28.5055 20.772C28.5402 22.266 28.6386 23.5458 28.795 24.6113C28.9513 25.6768 29.2119 26.5049 29.571 27.0839C29.571 27.1071 29.5652 27.1303 29.5536 27.1476C29.542 27.165 28.0769 27.1766 25.1642 27.1766C22.2514 27.1766 20.769 27.1766 20.7574 27.1592C20.7458 27.1476 20.74 27.1303 20.74 27.1071L20.7574 27.0724C21.4349 25.8968 21.7824 23.7948 21.8055 20.7778C21.8287 19.6949 21.8403 18.7279 21.8403 17.8766C21.8403 15.8383 21.7534 14.3269 21.5797 13.354C21.406 12.3812 21.1222 11.6342 20.74 11.1072L20.7227 11.0725C20.7227 11.0261 20.7458 11.003 20.7921 11.003C21.9561 10.7366 23.3459 10.2096 24.9615 9.42209C26.5771 8.63454 27.7063 7.93386 28.3433 7.31425L28.3954 7.29688C28.3954 7.29688 28.4244 7.30267 28.4418 7.31425C28.4591 7.32583 28.4707 7.60379 28.4707 8.15391C28.4707 8.70403 28.4823 8.98199 28.4997 8.99357C28.517 9.00515 28.5344 9.01094 28.546 9.01094L28.5807 8.99357C29.7678 8.24656 30.9955 7.87595 32.2521 7.87595C33.1612 7.87595 34.0356 8.07863 34.8637 8.48977C35.6976 8.89513 36.4272 9.52053 37.0584 10.3602C37.07 10.3718 37.0874 10.3776 37.1105 10.3776L37.1627 10.3602C38.5409 8.69245 40.2144 7.85858 42.2006 7.85858C43.2951 7.85858 44.3316 8.1597 45.3161 8.76773C46.2947 9.37576 47.0938 10.3023 47.7019 11.5473C48.3157 12.7923 48.6226 14.3906 48.6226 16.3363C48.6226 18.8089 48.6226 20.2856 48.64 20.7778C48.6631 23.7948 49.0106 25.8968 49.6881 27.0724L49.7055 27.1071C49.7055 27.1071 49.6997 27.1476 49.6881 27.1592C49.6765 27.1708 48.2115 27.1766 45.2987 27.1766H45.2871Z" fill="#F9F9F9"/>
<path d="M62.1188 27.5757C61.5223 27.5757 60.9374 27.5062 60.3526 27.3672C59.6171 27.1703 59.0439 26.9503 58.6211 26.7013C58.0247 26.377 57.4572 26.209 56.9071 26.209C56.5133 26.209 56.1311 26.2554 55.7721 26.348C55.413 26.4407 55.0424 26.5507 54.6602 26.6723C54.2838 26.7939 53.8843 26.9097 53.4731 27.014C53.062 27.1182 52.6219 27.1703 52.1528 27.1703H50.8383C50.792 27.1703 50.7631 27.1471 50.7515 27.1008L50.7688 27.0661C51.0931 26.5507 51.3363 25.8442 51.4869 24.9351C51.6375 24.1649 51.7301 23.2905 51.7649 22.3118C51.7996 21.3332 51.817 19.7639 51.817 17.6097V13.3246C51.817 11.1125 51.7475 9.15521 51.6143 7.4643C51.4811 5.7734 51.1858 4.55155 50.7283 3.79296L50.7109 3.75821C50.7109 3.72347 50.7341 3.7003 50.7804 3.68872C51.9444 3.42235 53.3342 2.89539 54.9498 2.10784C56.5654 1.3203 57.6946 0.625403 58.3316 0.0173723L58.3837 0C58.3837 0 58.4242 0.00579077 58.4358 0.0173723C58.4474 0.0289539 58.4532 1.5693 58.4532 4.6442C58.4532 7.7191 58.4648 9.25944 58.4822 9.27103C58.4995 9.28261 58.5169 9.2884 58.5285 9.2884L58.5806 9.27103C59.8488 8.41978 61.1807 7.99706 62.5704 7.99706C63.9602 7.99706 65.1763 8.37925 66.4097 9.14363C67.6374 9.90801 68.645 11.0372 69.4151 12.5254C70.1911 14.0195 70.5964 15.8783 70.6312 18.102C70.6312 19.677 70.388 21.0495 69.8958 22.2192C69.4035 23.3889 68.755 24.3734 67.9385 25.1725C67.122 25.9716 66.207 26.5739 65.1937 26.9734C64.1803 27.373 63.1553 27.5757 62.1188 27.5757ZM60.3526 24.6745C61.1691 24.6745 61.8755 24.3618 62.4778 23.7364C63.08 23.111 63.5607 22.3118 63.9313 21.339C64.2961 20.3661 64.5335 19.3238 64.6377 18.2178C64.6609 17.9514 64.6725 17.6792 64.6725 17.4129C64.6725 16.3879 64.5161 15.3803 64.2092 14.3959C63.9023 13.4114 63.4506 12.6007 62.86 11.9637C62.2693 11.3267 61.5628 11.0083 60.7348 11.0083C60.0572 11.0083 59.3102 11.2688 58.4937 11.7958C58.4706 11.8074 58.459 11.8248 58.459 11.8479L58.4764 21.4316C58.4764 23.192 58.4764 24.078 58.4879 24.0896C58.4879 24.1012 58.5053 24.107 58.5169 24.107C59.1713 24.4776 59.7793 24.6687 60.3526 24.6687V24.6745Z" fill="#F9F9F9"/>
<path d="M81.4551 27.367C81.1192 27.367 80.7833 27.3497 80.459 27.3149C78.5249 27.0949 76.9093 26.5042 75.6122 25.5371C74.3208 24.5759 73.348 23.3888 72.6994 21.97C72.0508 20.5513 71.7266 19.0746 71.7266 17.5343C71.7266 16.2777 71.9466 15.0443 72.3809 13.8456C72.821 12.6469 73.4812 11.5582 74.3672 10.5912C75.369 9.53146 76.4982 8.73812 77.749 8.22274C78.9998 7.70157 80.2622 7.44678 81.5361 7.44678C81.9299 7.44678 82.3295 7.46994 82.7232 7.51627C84.889 7.82897 86.5915 8.72075 87.8307 10.1916C89.0989 11.6856 89.7417 13.4981 89.7532 15.6291C89.7532 16.353 89.62 16.8915 89.3595 17.2448C89.0989 17.598 88.7283 17.8354 88.2476 17.9512C87.767 18.0671 87.2169 18.125 86.5857 18.125H78.2643C78.218 18.125 78.1949 18.1481 78.1949 18.1945C78.357 19.3468 78.826 20.3949 79.5962 21.333C80.3664 22.2712 81.4145 22.9603 82.7464 23.4061C83.1749 23.5451 83.6266 23.6146 84.0957 23.6146C85.8908 23.6146 87.6222 22.5839 89.29 20.5165L89.3421 20.4818C89.3421 20.4818 89.6606 20.8814 90.2339 21.6863L90.2165 21.7384C89.4695 23.0587 88.624 24.13 87.6743 24.9581C86.7247 25.7861 85.7171 26.3942 84.6574 26.7764C83.5976 27.1586 82.5321 27.3555 81.4551 27.3555V27.367ZM80.8818 16.2082C81.6635 16.2082 82.3758 16.1735 83.0244 16.104C83.6729 16.0345 84.2231 15.8839 84.6863 15.6581C85.1496 15.4323 85.497 15.0848 85.746 14.6158C85.9429 14.2104 86.0414 13.7819 86.0414 13.3418C86.0414 12.838 85.9197 12.3574 85.6765 11.8999C85.4333 11.4424 85.0685 11.066 84.5937 10.7707C84.113 10.4811 83.5397 10.3306 82.8622 10.3306C82.0457 10.3306 81.3045 10.6027 80.6386 11.1413C79.9726 11.6856 79.4283 12.3863 79.0056 13.2549C78.577 14.1235 78.3107 15.0732 78.1949 16.0982C78.1949 16.1214 78.1949 16.1445 78.2122 16.1619C78.2238 16.1793 79.1156 16.1966 80.8876 16.2082H80.8818Z" fill="#F9F9F9"/>
<path d="M94.9241 27.1757C91.9998 27.1757 90.529 27.1757 90.5174 27.1583C90.5058 27.1467 90.5 27.1294 90.5 27.1062L90.5174 27.0715C91.1949 25.8959 91.5423 23.7939 91.5655 20.7769C91.6002 19.6477 91.6176 18.6459 91.6176 17.7715C91.6176 15.8026 91.5308 14.3375 91.357 13.3763C91.1833 12.415 90.8938 11.6622 90.5 11.1121V11.0773C90.5 11.0426 90.5174 11.0194 90.5521 11.0079C91.7161 10.7299 93.1059 10.1971 94.7215 9.41539C96.3371 8.63364 97.4721 7.93295 98.1207 7.31913L98.1728 7.30176C98.1728 7.30176 98.2017 7.30755 98.2191 7.31913C98.2365 7.33071 98.2481 7.75344 98.2481 8.58731C98.2481 9.42118 98.2596 9.84391 98.277 9.85549C98.2944 9.86707 98.3117 9.87286 98.3233 9.87286L98.3581 9.85549C99.9216 8.51782 101.491 7.84609 103.06 7.84609C104.004 7.84609 104.844 8.06614 105.585 8.50045C106.326 8.94055 106.911 9.49067 107.34 10.1508C107.757 10.8631 107.971 11.5927 107.971 12.3339C107.971 13.1968 107.722 13.9669 107.218 14.6445C106.679 15.3683 105.938 15.7331 104.977 15.7447C104.207 15.7447 103.558 15.5304 103.037 15.0961C102.51 14.6676 102.249 14.0712 102.249 13.3126C102.249 13.0809 102.278 12.8377 102.336 12.5945C102.348 12.5598 102.371 12.5424 102.406 12.5424L102.458 12.5598C102.562 12.664 102.713 12.7567 102.915 12.8319C103.112 12.9072 103.321 12.9478 103.547 12.9478C103.871 12.9478 104.126 12.8204 104.305 12.5714C104.485 12.3224 104.577 12.0386 104.577 11.7259C104.577 11.1526 104.299 10.7067 103.738 10.3767C103.332 10.145 102.858 10.0292 102.319 10.0292C101.734 10.0292 101.143 10.2145 100.535 10.5909C99.9274 10.9615 99.412 11.6043 98.9893 12.5135C98.5608 13.4226 98.3175 14.6618 98.2481 16.2369L98.2133 17.7599L98.2654 20.7827C98.3002 22.2767 98.3986 23.5565 98.555 24.622C98.7113 25.6875 98.9719 26.5155 99.3309 27.0946C99.3309 27.1178 99.3251 27.1409 99.3136 27.1583C99.302 27.1757 97.8369 27.1873 94.9241 27.1873V27.1757Z" fill="#F9F9F9"/>
<path d="M15.4345 60.7629C14.0273 60.7629 12.6028 60.6239 11.1551 60.3517C9.71318 60.0796 8.33498 59.6279 7.02047 59.0025C5.71176 58.3771 4.54202 57.549 3.51706 56.5183C2.49209 55.4875 1.67559 54.2251 1.07914 52.7311C0.482692 51.2371 0.175781 49.4709 0.175781 47.4325C0.175781 45.2378 0.476901 43.3327 1.07914 41.7228C1.68138 40.113 2.49209 38.758 3.51706 37.6519C4.54202 36.5459 5.71176 35.6599 7.02047 34.994C8.32919 34.328 9.70739 33.8474 11.1551 33.5578C12.597 33.2683 14.0273 33.1235 15.4345 33.1235C16.8416 33.1235 18.5383 33.4594 20.3682 34.1253C22.1981 34.7913 23.5531 35.6367 24.4275 36.6559C24.4391 36.6675 24.4449 37.484 24.4449 39.0938C24.4449 40.7037 24.4333 41.5375 24.416 41.5491C24.3986 41.5607 24.3754 41.5665 24.3523 41.5665C24.3291 41.5665 24.3117 41.5549 24.3001 41.5317C23.2346 39.5513 21.897 38.0457 20.3045 37.0149C18.7062 35.9842 17.0733 35.4688 15.3997 35.4688C14.3053 35.4688 13.2629 35.7004 12.2669 36.1579C11.2709 36.6212 10.3849 37.3218 9.60895 38.2599C8.83299 39.1981 8.21337 40.3967 7.76169 41.8444C7.30422 43.2921 7.07838 45.0062 7.07838 46.9693C7.07838 48.9323 7.29264 50.7738 7.72695 52.2215C8.15546 53.6692 8.74612 54.8505 9.48155 55.7655C10.2228 56.6746 11.0682 57.3463 12.0121 57.7748C12.956 58.2034 13.952 58.4234 15.0002 58.4234L15.4345 58.406C17.1833 58.296 18.8568 57.7054 20.4493 56.6399C22.0475 55.5744 23.3273 54.144 24.3001 52.3605C24.3117 52.3373 24.3291 52.3257 24.3523 52.3257C24.3754 52.3257 24.3986 52.3315 24.416 52.3431C24.4333 52.3547 24.4449 53.1712 24.4449 54.781C24.4449 56.3909 24.4391 57.2247 24.4275 57.2363C23.5531 58.2555 22.1923 59.0951 20.3508 59.7553C18.5036 60.4154 16.8648 60.7455 15.4345 60.7455V60.7629Z" fill="#F9F9F9"/>
<path d="M34.4255 60.6932C33.3832 60.6932 32.3466 60.5774 31.3217 60.3458C30.2967 60.1141 29.376 59.7725 28.5537 59.3266C27.7314 58.8749 27.077 58.319 26.579 57.653C26.081 56.9871 25.832 56.2111 25.832 55.3252C25.8668 54.0164 26.3764 52.893 27.3608 51.9549C28.3452 51.0226 29.5845 50.2988 31.0843 49.795C32.5841 49.2912 34.0839 49.0422 35.5895 49.0422C36.1338 49.0422 36.6781 49.0769 37.2109 49.1522C37.2572 49.1522 37.2862 49.129 37.2862 49.0769V48.9321C37.2862 46.0947 36.626 44.1837 35.2999 43.2167C34.6224 42.7302 33.9217 42.487 33.2037 42.487C32.5609 42.487 32.0861 42.6723 31.7849 43.0429C31.4838 43.4135 31.3275 43.7957 31.3275 44.2011C31.3275 44.5427 31.4201 44.8381 31.6112 45.0929C31.7965 45.3477 32.0629 45.4751 32.4046 45.4751C32.6362 45.4751 32.8562 45.4403 33.0589 45.365C33.2674 45.2898 33.4237 45.2029 33.5338 45.0929L33.5859 45.0581C33.6206 45.0581 33.6438 45.0813 33.6612 45.1334C33.7191 45.3998 33.7538 45.6488 33.7538 45.8804C33.7538 46.668 33.4874 47.2876 32.9547 47.7393C32.4219 48.1909 31.8023 48.411 31.0958 48.411L30.7658 48.3936C29.8914 48.2952 29.2023 47.9361 28.6985 47.3107C28.1947 46.6853 27.9457 45.9615 27.9457 45.1334C27.9457 44.4906 28.1194 43.8421 28.4726 43.1877C28.8259 42.5333 29.3818 41.9485 30.1404 41.4389C30.899 40.9293 31.8892 40.5471 33.1168 40.2923C33.8812 40.1475 34.6224 40.0723 35.3405 40.0723C36.9677 40.0723 38.427 40.3792 39.7183 40.9988C41.0096 41.6184 42.0462 42.4117 42.8337 43.3846C43.6155 44.3574 44.0614 45.3882 44.1714 46.4826C44.2062 46.859 44.2235 47.3976 44.2235 48.1041L44.2061 49.7776C44.1946 50.7389 44.1888 52.0244 44.1888 53.64C44.2235 55.1804 44.3278 56.5065 44.4899 57.6183C44.652 58.7301 44.9242 59.5814 45.3006 60.1778C45.3006 60.2126 45.2948 60.2415 45.2832 60.2589C45.2717 60.2763 44.7968 60.2879 43.8645 60.2879C43.4128 60.2879 43.0133 60.2473 42.6542 60.1605C42.2952 60.0736 41.9477 59.9752 41.6061 59.8593C41.2644 59.7435 40.917 59.6451 40.558 59.5582C40.1989 59.4714 39.8052 59.4308 39.3651 59.4308C39.0466 59.4308 38.7628 59.4771 38.5022 59.5756C38.2417 59.674 37.9753 59.7898 37.7089 59.923C37.3441 60.1199 36.9156 60.2936 36.4176 60.4616C35.9196 60.6237 35.2594 60.7048 34.4313 60.7048L34.4255 60.6932ZM35.7748 58.7649C36.2091 58.7649 36.6839 58.707 37.1935 58.5854C37.2283 58.5854 37.2456 58.5622 37.2456 58.5101L37.2804 50.5536C37.2804 50.5536 37.2688 50.5072 37.2514 50.4783C37.2341 50.4551 37.0256 50.4435 36.626 50.4435C35.6763 50.4435 34.8772 50.6752 34.2229 51.1326C33.5685 51.5959 33.0705 52.1808 32.7404 52.8988C32.4046 53.6169 32.2424 54.3407 32.2424 55.0819C32.2424 55.7131 32.3698 56.3096 32.6246 56.8655C32.8794 57.4214 33.2674 57.8789 33.7886 58.2321C34.3097 58.5854 34.9699 58.7591 35.7748 58.7591V58.7649Z" fill="#F9F9F9"/>
<path d="M54.3807 60.7628C52.7187 60.7628 51.1378 60.4617 49.6496 59.8595C48.1556 59.2572 47.1306 58.3539 46.5747 57.1378C46.3778 56.6398 46.2852 56.1476 46.2852 55.6612C46.2852 54.8736 46.5168 54.1787 46.9858 53.5881C47.4549 52.9916 48.0629 52.6963 48.8157 52.6963C49.5801 52.7426 50.1997 52.9627 50.6746 53.3506C51.1089 53.7039 51.3289 54.1845 51.3289 54.7867C51.3289 55.0415 51.2826 55.3137 51.1841 55.609C51.1726 55.6322 51.1494 55.6438 51.1089 55.6438L51.0568 55.6264C50.8367 55.3832 50.5182 55.25 50.0897 55.2268C49.8233 55.2268 49.5917 55.3369 49.389 55.5627C49.1863 55.7885 49.0879 56.0433 49.0879 56.3387C49.0879 56.4719 49.1111 56.5993 49.1632 56.7209C49.418 57.3057 49.8349 57.7458 50.4082 58.0412C50.9873 58.3365 51.6069 58.487 52.2728 58.487C52.8924 58.487 53.4831 58.3654 54.0506 58.1164C54.6123 57.8674 55.0698 57.4968 55.4056 56.9988C55.672 56.5645 55.8052 56.1592 55.8052 55.7943C55.8052 55.2847 55.6373 54.8447 55.2956 54.4856C54.7513 53.9123 54.0506 53.4549 53.1993 53.1016L53.0198 53.009C51.1262 52.0014 49.6091 50.9648 48.4683 49.8935C47.009 48.5211 46.2852 47.0792 46.2852 45.562C46.2852 44.7977 46.4936 43.987 46.9048 43.1241C47.5475 41.9197 48.6073 41.0047 50.0839 40.3735C51.5605 39.7423 53.1009 39.4238 54.7165 39.4238C56.1758 39.4238 57.525 39.6902 58.7759 40.223C60.0267 40.7557 60.9242 41.5838 61.4686 42.7014C61.6365 43.0894 61.7234 43.4774 61.7234 43.8653C61.7234 44.5834 61.4859 45.2262 61.0053 45.7937C60.5247 46.367 59.9224 46.7028 59.1928 46.8128L58.7353 46.8476C57.9478 46.8476 57.2876 46.6102 56.7491 46.1353C56.2163 45.6605 55.95 45.0467 55.95 44.2939C55.95 44.0507 55.9789 43.7959 56.0426 43.5295C56.0542 43.4947 56.0774 43.4774 56.1179 43.4774L56.17 43.4947C56.2916 43.6048 56.4653 43.6974 56.697 43.7785C56.9286 43.8596 57.166 43.8943 57.4092 43.8943C57.6756 43.8943 57.8957 43.8017 58.0636 43.6221C58.2315 43.4426 58.3184 43.2342 58.3184 43.0025C58.3184 42.6898 58.1447 42.3829 57.7914 42.0934C57.4382 41.8038 56.8417 41.6591 56.0079 41.6591C55.0003 41.6591 54.2648 41.8965 53.7958 42.3713C53.3267 42.8462 53.0951 43.3905 53.0951 44.0101C53.0951 44.5429 53.2572 45.064 53.5757 45.5678C53.9 46.0716 54.3633 46.4828 54.9713 46.7955C55.423 47.0039 55.921 47.195 56.4653 47.3803C57.1429 47.612 57.8551 47.9073 58.5963 48.2605C59.3376 48.6196 60.0614 49.1234 60.7621 49.7835C61.4396 50.461 61.9492 51.1907 62.2851 51.9666C62.6209 52.7426 62.7831 53.5244 62.7831 54.3177C62.7831 55.36 62.5051 56.356 61.955 57.2942C61.4049 58.2323 60.5942 59.0082 59.5229 59.6162C58.8338 59.9926 58.0404 60.2764 57.1544 60.4733C56.2684 60.6702 55.3477 60.7628 54.3864 60.7628H54.3807Z" fill="#F9F9F9"/>
<path d="M71.8065 60.4383C70.6194 60.4383 69.4902 60.0735 68.4189 59.3381C67.3534 58.6027 66.4848 57.5951 65.813 56.3037C65.1471 55.0182 64.8112 53.5357 64.8112 51.8622V47.108C64.8112 44.838 64.7997 43.6914 64.7823 43.6683C64.7649 43.6451 64.4291 43.6335 63.7689 43.6335C63.1088 43.6335 62.7787 43.6219 62.7555 43.6046C62.7324 43.5872 62.7266 43.3092 62.7266 42.7765C62.7266 42.2437 62.7381 41.9716 62.7555 41.96C62.7729 41.9484 62.7903 41.9426 62.8018 41.9426C65.0834 41.8094 66.9307 41.1261 68.3378 39.8869C69.745 38.6477 70.8336 36.8641 71.598 34.5362C71.6096 34.513 71.627 34.5015 71.6501 34.5015C71.6617 34.5015 71.6791 34.513 71.6965 34.5304C71.7138 34.5478 71.7254 35.7812 71.7254 38.2249C71.7254 40.6686 71.7312 41.9021 71.7428 41.9194C71.7544 41.9368 72.3103 41.9484 73.4163 41.9484C74.5224 41.9484 75.0783 41.9542 75.0899 41.9658C75.1014 41.9774 75.1072 42.2495 75.1072 42.7823C75.1072 43.315 75.1014 43.593 75.0899 43.6103C75.0783 43.6277 74.5224 43.6393 73.4221 43.6393C72.3219 43.6393 71.766 43.6451 71.7486 43.6567C71.7312 43.6683 71.7196 46.6158 71.7196 52.505C71.7196 53.2925 71.7544 54.0337 71.8181 54.717C71.8876 55.4004 72.0497 55.9563 72.3161 56.3848C72.5825 56.8075 73.0283 57.0218 73.648 57.0218C74.0591 57.0218 74.4645 56.8886 74.8698 56.6222C75.2694 56.3558 75.6516 56.0258 76.0106 55.6378C76.3696 55.2498 76.6997 54.8618 77.0008 54.4738L77.0529 54.4391C77.0529 54.4391 77.3888 54.856 77.9795 55.6957L77.9621 55.7304C77.632 56.3269 77.2961 56.877 76.9429 57.3866C76.2017 58.4405 75.3852 59.2165 74.4934 59.7087C73.6016 60.2009 72.6983 60.4441 71.7891 60.4441L71.8065 60.4383Z" fill="#F9F9F9"/>
<path d="M87.5733 60.2703H78.5223C78.476 60.2703 78.4413 60.2471 78.4297 60.195L78.4471 60.1602C78.8119 59.5638 79.0783 58.7126 79.2462 57.6007C79.4141 56.4889 79.5184 55.157 79.5531 53.6051C79.5647 53.0202 79.5705 52.1458 79.5705 50.9819V41.6066C79.5705 41.1318 79.5473 40.5816 79.5068 39.9504C79.4662 39.3193 79.362 38.6823 79.1999 38.0453C79.0377 37.4083 78.7829 36.8292 78.4471 36.3081L78.4297 36.2559C78.4413 36.2212 78.4586 36.2038 78.4818 36.2038C79.7094 35.9143 81.1629 35.3584 82.8423 34.5477C84.5216 33.737 85.6971 33.0073 86.363 32.3645L86.4152 32.3472C86.4152 32.3472 86.4441 32.353 86.4615 32.3645C86.4789 32.3761 86.4904 35.1615 86.4904 40.7206C86.4904 48.017 86.4962 52.0358 86.5078 52.7712L86.5252 53.6109C86.5483 56.7553 86.9132 58.9384 87.6196 60.166L87.637 60.2008C87.637 60.2471 87.6139 60.2761 87.5617 60.2761L87.5733 60.2703Z" fill="#F9F9F9"/>
<path d="M98.6437 60.4727C98.2905 60.4727 97.943 60.4553 97.6071 60.4205C95.5919 60.1889 93.9126 59.5751 92.5634 58.5733C91.2141 57.5715 90.2065 56.3323 89.529 54.8614C88.8573 53.3848 88.5156 51.8502 88.5156 50.2462C88.5156 48.9374 88.7415 47.6519 89.1989 46.4069C89.6564 45.1561 90.3455 44.0269 91.2662 43.0193C92.3086 41.9132 93.4841 41.0909 94.787 40.5524C96.09 40.0139 97.4045 39.7417 98.7305 39.7417C99.1417 39.7417 99.5586 39.7649 99.9698 39.817C102.228 40.1471 104 41.0736 105.286 42.6023C106.606 44.1543 107.278 46.0421 107.289 48.2657C107.289 49.0185 107.15 49.5802 106.878 49.9508C106.606 50.3214 106.218 50.5647 105.72 50.6863C105.222 50.8079 104.649 50.8658 103.989 50.8658H95.3198C95.2735 50.8658 95.2445 50.8889 95.2445 50.9411C95.4124 52.1455 95.8989 53.2342 96.7038 54.207C97.5029 55.1857 98.5974 55.9037 99.9814 56.367C100.433 56.5118 100.896 56.5871 101.383 56.5871C103.253 56.5871 105.054 55.51 106.791 53.3616L106.843 53.3268C106.843 53.3268 107.179 53.7438 107.77 54.5835L107.753 54.6356C106.977 56.008 106.091 57.1256 105.106 57.9884C104.116 58.8512 103.068 59.4824 101.968 59.882C100.862 60.2816 99.7497 60.4842 98.6379 60.4842L98.6437 60.4727ZM98.0414 48.8564C98.8522 48.8564 99.5992 48.8216 100.271 48.7464C100.943 48.6711 101.522 48.5205 102.002 48.2831C102.483 48.0457 102.848 47.6866 103.103 47.2002C103.311 46.7775 103.409 46.3316 103.409 45.8683C103.409 45.3472 103.282 44.8434 103.027 44.3685C102.773 43.8879 102.396 43.4999 101.898 43.193C101.4 42.8919 100.798 42.7355 100.097 42.7355C99.2459 42.7355 98.4757 43.0193 97.7866 43.581C97.0975 44.1427 96.53 44.8781 96.0842 45.7815C95.6383 46.6848 95.3603 47.6751 95.2387 48.7406C95.2387 48.7637 95.2445 48.7869 95.2561 48.8043C95.2677 48.8216 96.1942 48.839 98.0414 48.8506V48.8564Z" fill="#F9F9F9"/>
<path d="M22.9224 72.0546C23.3393 72.1646 23.6578 72.3499 23.8837 72.6047C24.1095 72.8653 24.2195 73.1722 24.2195 73.537C24.2195 74.1045 24.0226 74.5446 23.6289 74.8689C23.2351 75.1874 22.6444 75.3496 21.8453 75.3496H19.668V68.9565H21.7874C22.5286 68.9565 23.0903 69.1071 23.4609 69.414C23.8315 69.7151 24.0168 70.1321 24.0168 70.659C24.0168 71.3192 23.652 71.7882 22.9224 72.0604V72.0546ZM23.1424 70.7227C23.1424 70.4158 23.0324 70.1784 22.8124 70.0047C22.5923 69.8367 22.2738 69.7499 21.8569 69.7499H20.5366V71.7535H21.7237C22.1754 71.7535 22.5228 71.6608 22.7718 71.4755C23.0208 71.2902 23.1424 71.0412 23.1424 70.7169V70.7227ZM23.3509 73.5486C23.3509 72.8827 22.8297 72.5468 21.7932 72.5468H20.5366V74.5504H21.9264C22.8761 74.5504 23.3509 74.2146 23.3509 73.5486Z" fill="#F9F9F9"/>
<path d="M29.9683 68.9507L27.7504 72.8073V75.3437H26.8818V72.7958L24.6523 68.9507H25.6368L27.3335 71.9387L29.0128 68.9507H29.9741H29.9683Z" fill="#F9F9F9"/>
<path d="M38.4497 75.3496H37.5927V72.5237H34.0835V75.3496H33.2148V68.9565H34.0835V71.7419H37.5927V68.9565H38.4497V75.3496Z" fill="#F9F9F9"/>
<path d="M46.1524 72.1242C46.1524 73.0855 45.8513 73.8904 45.2491 74.5332C44.6468 75.1759 43.8767 75.5002 42.9443 75.5002C42.012 75.5002 41.2245 75.1933 40.628 74.5853C40.0316 73.9772 39.7305 73.1665 39.7305 72.1647C39.7305 71.1629 40.0316 70.4043 40.6338 69.7616C41.2361 69.1188 42.0062 68.8003 42.9386 68.8003C43.8709 68.8003 44.6584 69.1014 45.2549 69.7094C45.8513 70.3175 46.1524 71.1224 46.1524 72.1242ZM45.2838 72.1647C45.2838 71.383 45.0638 70.7518 44.6295 70.2827C44.1952 69.8137 43.6219 69.5763 42.9212 69.5763C42.2205 69.5763 41.682 69.8079 41.2534 70.2769C40.8249 70.746 40.6107 71.3598 40.6107 72.1242C40.6107 72.8886 40.8249 73.5371 41.2592 74.012C41.6935 74.4868 42.261 74.7243 42.9617 74.7243C43.6624 74.7243 44.2009 74.4868 44.6353 74.0178C45.0696 73.5487 45.2838 72.9291 45.2838 72.1647Z" fill="#F9F9F9"/>
<path d="M52.0539 69.773H49.8129V75.3496H48.9559V69.773H46.7148V68.9565H52.0539V69.773Z" fill="#F9F9F9"/>
<path d="M57.1082 75.3496H53.0547V68.9565H57.1082V69.7673H53.9291V71.7419H56.5813V72.5526H53.9291V74.5504H57.1082V75.3611V75.3496Z" fill="#F9F9F9"/>
<path d="M62.3671 75.3496H58.4062V68.9565H59.2749V74.5331H62.3671V75.3496Z" fill="#F9F9F9"/>
<path d="M69.8504 75.3494H65.7969V68.9563H69.8504V69.7671H66.6713V71.7417H69.3235V72.5524H66.6713V74.5502H69.8504V75.3609V75.3494ZM69.4103 66.4663L67.9163 68.3194H67.3025L68.3853 66.4663H69.4103Z" fill="#F9F9F9"/>
<path d="M76.4567 72.1009C76.4567 73.1027 76.1556 73.896 75.5591 74.4751C74.9569 75.0542 74.1172 75.3437 73.0343 75.3437H71.1523V68.9507H73.0749C74.123 68.9507 74.9511 69.2344 75.5533 69.8077C76.1556 70.3752 76.4567 71.1454 76.4567 72.1067V72.1009ZM75.5881 72.1646C75.5881 71.3886 75.368 70.7921 74.9221 70.381C74.4762 69.9699 73.8451 69.7614 73.0286 69.7614H72.0152V74.5388H73.0691C73.8451 74.5388 74.4589 74.3361 74.9106 73.9307C75.3622 73.5254 75.5881 72.9347 75.5881 72.1646Z" fill="#F9F9F9"/>
<path d="M81.784 75.3496H77.7305V68.9565H81.784V69.7673H78.6049V71.7419H81.2571V72.5526H78.6049V74.5504H81.784V75.3611V75.3496Z" fill="#F9F9F9"/>
<path d="M87.4502 74.1103V68.9565H88.3014V75.4132H87.3575L83.9294 70.1958V75.3496H83.0781V68.9565H84.0394L87.4444 74.1103H87.4502Z" fill="#F9F9F9"/>
</svg>
