<svg width="123" height="88" viewBox="0 0 123 88" fill="none" xmlns="http://www.w3.org/2000/svg">
<path d="M21.775 30.7306C-1.73378e-06 30.7306 0 30.7886 0 30.6511C1.04989 28.6195 1.18851 25.8129 1.20669 23.512C1.23283 22.6155 1.23283 10.3202 1.20669 9.01466C1.18851 6.69217 1.05216 3.94586 0 1.87449C0 1.84835 0.00681665 1.82904 0.0204516 1.8154C0.0340866 1.80177 21.7614 1.80177 21.775 1.8154C21.8114 1.85176 21.7921 6.34676 21.7648 6.3638C21.4842 6.56037 20.816 5.16733 17.8879 4.53444C16.2563 4.18107 14.7087 4.2572 8.84 4.2572C8.70933 4.2572 8.76955 13.1006 8.78092 13.1177C8.81159 13.1665 15.003 13.3551 17.3448 11.9405C17.3914 11.9405 17.4437 11.9644 17.4437 12.02C17.4437 15.1981 17.4334 16.7934 17.413 16.8059C17.1471 16.9832 16.6426 15.6197 9.45244 15.6197C9.01726 15.6197 8.79342 15.6265 8.78092 15.639C8.76842 15.6515 8.71047 28.2672 8.84 28.2672C15.5859 28.2672 17.2107 28.3581 18.9469 27.9514C21.6682 27.3116 22.3148 26.1413 22.5852 26.1413C22.7215 26.1413 22.7329 25.8482 21.8534 30.6704C21.8398 30.7102 21.8137 30.7295 21.7739 30.7295L21.775 30.7306Z" fill="#F9F9F9"/>
<path d="M51.2244 30.7307C47.9145 30.7307 46.2533 30.7205 46.2408 30.7012C46.0556 30.4148 47.2657 30.3535 47.4271 23.4917C47.5657 15.522 47.5771 13.7108 46.8431 12.4564C46.5726 11.9951 46.1477 11.7645 45.5671 11.7645C43.7797 11.7645 43.7479 16.1833 43.7479 18.0729C43.7479 21.0158 43.6832 24.9324 44.124 27.8424C44.4728 30.2921 45.0932 30.5148 44.9739 30.7C44.9455 30.7432 35.0511 30.7341 35.0261 30.7102C35.0125 30.6966 35.0068 30.6773 35.0068 30.6512C36.5021 27.6606 36.2248 23.353 36.2532 16.431C36.2532 15.2493 36.2066 13.4768 35.6101 12.4564C35.1488 11.669 34.1694 11.5747 33.3751 12.061C32.4559 12.6212 32.2446 14.1085 32.198 15.1459C32.198 21.3601 32.1355 24.929 32.5638 27.8333C32.9286 30.3148 33.5467 30.5114 33.424 30.7012C33.3956 30.7443 23.5011 30.7352 23.4761 30.7114C23.4625 30.6977 23.4568 30.6784 23.4568 30.6523C24.7874 27.9901 24.7033 24.1882 24.7033 20.2102C24.7033 17.8945 24.7271 14.2903 23.4568 12.5576L23.4375 12.5178C23.4375 12.4655 23.4636 12.4383 23.517 12.4383C25.8588 11.8997 30.4447 9.82375 32.0605 8.26482C32.1127 8.24777 32.1173 8.233 32.1696 8.26482C32.2207 8.30004 32.1775 10.1317 32.2286 10.1635C32.273 10.1942 32.2786 10.1839 32.3173 10.1635C35.6885 8.04893 39.5722 8.58978 41.9095 11.7065C42.1299 11.9269 43.665 8.87839 47.7248 8.87839C50.2086 8.87839 52.5618 10.2339 53.9446 13.0507C56.2296 17.7093 53.7412 25.7164 56.2091 30.6523C56.2091 30.7489 56.2091 30.7318 51.2256 30.7318L51.2244 30.7307Z" fill="#F9F9F9"/>
<path d="M70.251 31.1861C68.6569 31.1861 67.132 30.685 66.2957 30.1975C64.1925 29.0431 62.8915 29.9373 60.4713 30.5543C59.6044 30.7736 59.0056 30.7316 57.4944 30.7316C57.441 30.7316 57.408 30.7054 57.3955 30.6532L57.4148 30.6134C58.2409 29.3158 58.4874 26.7536 58.5431 25.2344C58.6033 23.5425 58.7374 13.0243 58.375 8.44409C58.0659 4.55017 57.0808 4.26043 57.4353 4.1718C59.7907 3.62981 64.3641 1.54593 65.9787 0.0188175C66.0174 0.00631879 66.0617 -0.0164061 66.0969 0.0188175C66.1367 0.0585862 66.0958 10.4462 66.1469 10.4814C66.1923 10.5121 66.198 10.5007 66.256 10.4814C69.1716 8.52931 72.3644 8.63044 75.1062 10.3337C77.7139 11.9517 79.7989 15.1866 79.8818 20.469C79.8818 27.2467 75.2312 31.1883 70.2499 31.1883L70.251 31.1861ZM71.0918 13.5356C69.9817 12.338 68.3273 11.9517 66.1571 13.3481C66.1071 13.3731 66.0969 27.2717 66.1764 27.2717C72.2542 30.7441 75.4675 18.2624 71.0918 13.5367V13.5356Z" fill="#F9F9F9"/>
<path d="M81.1289 19.8342C81.1289 13.4314 86.0534 8.42285 92.2244 8.42285C97.5465 8.42285 101.489 12.1997 101.519 17.6776C101.519 19.9978 100.31 20.5057 97.9397 20.5057C88.4463 20.5057 88.4463 20.4478 88.4463 20.5852C88.8077 23.1452 90.5359 25.4609 93.5878 26.479C97.6886 27.805 100.793 23.3429 101.044 23.1759C101.07 23.1759 101.406 23.6304 102.053 24.5405C101.91 24.9746 100.616 26.9675 99.1555 28.239C92.2516 34.2554 81.1289 29.8138 81.1289 19.8342ZM91.4722 18.3309C94.4253 18.34 97.3068 18.0525 97.3068 15.0869C97.3068 12.1213 93.6481 10.6056 91.1949 12.6054C89.5485 13.9496 88.6645 16.1198 88.427 18.2128C88.427 18.2389 88.4327 18.2616 88.4463 18.2821C88.46 18.3025 89.4678 18.3252 91.4722 18.3321V18.3309Z" fill="#F9F9F9"/>
<path d="M107.354 30.7306C102.362 30.7306 102.352 30.7477 102.352 30.6511C103.383 28.5888 103.538 25.9948 103.558 23.4916C103.626 21.2896 103.715 17.2854 103.321 15.1163C102.959 13.1245 102.353 12.6802 102.353 12.5155C102.353 12.2791 103.206 12.5336 107.128 10.6361C110.564 8.97491 110.735 8.34202 111.034 8.24316C111.109 8.24316 111.113 8.24203 111.113 9.69756C111.113 11.1531 111.119 11.1508 111.192 11.1508C111.406 11.0451 113.566 8.85674 116.551 8.85674C120.876 8.85674 123.604 13.3835 121.259 16.5503C119.485 18.9375 114.895 17.7797 115.74 14.2357C115.754 14.196 115.78 14.1766 115.819 14.1766L115.879 14.196C116.094 14.4119 116.564 14.6311 117.105 14.6311C118.743 14.6311 118.969 11.3281 115.721 11.3281C115.062 11.3281 114.389 11.5394 113.704 11.961C113.019 12.3825 112.435 13.1074 111.953 14.1357C111.104 15.9503 111.114 18.2649 111.072 20.0692C111.121 22.8985 111.105 25.4459 111.457 27.8321C111.824 30.3136 112.44 30.5102 112.318 30.6999C112.304 30.7193 110.65 30.7295 107.353 30.7295L107.354 30.7306Z" fill="#F9F9F9"/>
<path d="M17.4627 68.7186C10.493 68.7186 3.84366 66.1382 1.22688 59.6377C-0.227515 56.0267 -0.0457155 50.5955 1.22688 47.1901C3.77207 40.3806 10.251 37.4604 17.4627 37.4604C20.5215 37.4604 25.5232 38.9921 27.6344 41.4555C27.6605 41.4828 27.6685 46.9652 27.6242 46.9947C27.5821 47.022 27.5174 47.0288 27.4901 46.9742C21.8634 36.5503 8.01028 37.54 8.01028 53.1304C8.01028 66.0507 16.5469 68.4743 23.1349 64.0645C26.3618 61.9057 27.3878 59.1844 27.5526 59.1844C27.5799 59.1844 27.6037 59.1912 27.6242 59.2048C27.6685 59.2355 27.6605 64.7179 27.6344 64.744C25.563 67.1597 20.5533 68.7175 17.4627 68.7175V68.7186Z" fill="#F9F9F9"/>
<path d="M38.941 68.637C34.6778 68.637 29.2227 66.8054 29.2227 62.5627C29.3658 57.3439 36.9457 54.885 42.0918 55.5816C42.1906 55.5816 42.1747 55.5191 42.1747 55.335C42.1747 52.1228 41.426 49.9685 39.9295 48.8686C39.1603 48.3198 38.3717 48.046 37.5616 48.046C36.8344 48.046 36.2992 48.255 35.9561 48.6743C34.9459 49.9071 35.5481 51.4229 36.656 51.4229C37.7638 51.4229 37.9968 50.7275 38.0774 51.032C39.1466 55.7736 31.611 56.119 31.611 51.032C31.611 49.5697 32.3837 47.9983 34.0926 46.8518C35.6675 45.7928 38.0286 45.3076 39.9716 45.3076C43.6405 45.3076 46.6663 46.8495 48.4457 49.055C49.9944 50.9775 50.0205 52.4955 50.0205 54.3885C49.9864 58.0643 49.8308 61.8355 50.3194 65.1476C50.7 67.728 51.3499 67.9246 51.2147 68.1337C51.2045 68.1496 49.249 68.2598 48.2389 68.0212C46.9254 67.7087 45.0369 66.8088 43.5439 67.3622C42.0838 67.9076 41.5009 68.6393 38.9421 68.6393L38.941 68.637ZM42.0702 66.2475C42.1111 66.2475 42.1531 66.2202 42.1531 66.1657C42.1531 57.0848 42.1611 57.1098 42.1418 57.0848C42.1179 57.053 40.1772 56.7951 38.7137 57.8256C34.9664 60.464 35.7981 67.7439 42.0702 66.2475Z" fill="#F9F9F9"/>
<path d="M61.5084 68.7187C58.3235 68.7187 54.0728 67.662 52.6741 64.6214C51.7344 62.2114 52.9604 59.5969 55.2068 59.5969C57.2043 59.7242 58.5349 60.9423 57.8838 62.8921C57.8701 62.9193 57.8429 62.933 57.8008 62.933C57.6486 62.8807 57.4747 62.5069 56.6487 62.4591C55.8897 62.4591 55.2875 63.3738 55.5988 64.1476C56.7169 66.7053 61.0573 66.8076 62.6617 64.4555C63.356 63.3193 63.1901 62.3137 62.5379 61.6138C61.5891 60.623 60.6221 60.2753 59.9643 59.9469C55.0114 57.312 50.6436 53.785 53.0456 48.7662C55.1909 44.7564 62.0163 43.5895 66.4715 45.4916C68.1509 46.2097 69.8064 47.7891 69.8064 49.6105C69.8064 51.1944 68.6406 52.692 66.9442 52.9453L66.4295 52.9863C64.4479 52.9863 62.8583 51.5341 63.3821 49.2389C63.3957 49.198 63.423 49.1764 63.465 49.1764L63.5264 49.1969C63.8468 49.4843 64.4638 49.6502 64.9262 49.6502C65.7977 49.6502 66.5056 48.5617 65.3592 47.6118C64.5729 46.9607 61.9243 46.8221 60.8392 47.9197C59.2973 49.4832 60.137 51.8682 62.1674 52.9238C64.2502 53.8793 68.669 54.6611 70.4348 58.7709C72.4016 63.3454 69.2542 68.7165 61.5084 68.7165V68.7187Z" fill="#F9F9F9"/>
<path d="M74.4374 63.6737C73.0443 60.9887 73.3045 58.8185 73.3045 53.2747C73.3045 50.7079 73.2943 49.4104 73.2738 49.3831C73.2216 49.3115 71.0457 49.3683 70.9877 49.3115C70.9673 49.291 70.957 48.9786 70.957 48.3741C70.957 47.4606 70.9627 47.4276 71.04 47.4276C75.7293 47.1526 79.0892 44.8233 80.9855 39.0466C81.0071 39.0035 81.0492 38.9864 81.0992 39.0364C81.1526 39.0921 81.1105 47.339 81.1514 47.3969C81.1867 47.4515 84.8976 47.4083 84.9397 47.4481C84.9681 47.4765 84.967 49.2706 84.9397 49.3115C84.9045 49.3626 81.2196 49.3251 81.1605 49.3626C81.1492 49.3706 81.0435 59.8229 81.2435 61.8727C81.3185 62.6476 81.5071 63.276 81.8105 63.7566C82.1127 64.2372 82.6138 64.4781 83.3137 64.4781C85.1567 64.4781 86.8599 61.7568 87.1645 61.5546C87.1917 61.5546 87.5417 62.0284 88.2144 62.976L88.1939 63.0169C87.219 64.7849 86.0396 66.5416 84.2716 67.5165C80.4572 69.6185 76.4292 67.5108 74.4385 63.6759L74.4374 63.6737Z" fill="#F9F9F9"/>
<path d="M99.0474 68.1628C88.7121 68.1628 88.7462 68.2231 88.7109 68.0799C88.8643 67.7674 89.3325 67.1402 89.6381 65.1461C89.8301 63.8905 89.9472 62.3839 89.9881 60.6261C90.0017 59.9671 89.9847 45.8969 89.937 45.1834C89.7165 41.9405 88.4689 40.9406 88.7734 40.9406C91.2107 40.3623 95.9954 38.2284 97.6896 36.5956C97.7486 36.5763 97.7509 36.5638 97.8032 36.5956C97.8236 36.6093 97.868 59.4899 97.8748 60.6261C97.927 67.3913 99.4962 68.1628 99.0485 68.1628H99.0474Z" fill="#F9F9F9"/>
<path d="M100.117 56.8163C100.117 50.1306 105.264 44.9346 111.669 44.9346C117.2 44.9346 121.316 48.8546 121.348 54.5711C121.348 55.955 120.941 56.9777 119.577 57.3094C118.43 57.589 118.412 57.5162 107.819 57.5162C107.764 57.5162 107.736 57.5435 107.736 57.598C108.114 60.266 109.913 62.6759 113.09 63.7349C117.349 65.1177 120.598 60.4671 120.853 60.2955C120.88 60.2955 121.23 60.7693 121.904 61.7169C121.743 62.1873 120.401 64.2474 118.887 65.5665C111.727 71.8079 100.118 67.23 100.118 56.8163H100.117ZM110.887 55.2517C112.258 55.2562 114.141 55.2062 115.366 54.6029C116.419 54.0825 116.962 53.0201 116.962 51.8736C116.962 48.6637 113.135 47.2218 110.599 49.2898C108.897 50.6783 107.965 52.9326 107.716 55.1278C107.716 55.1562 107.723 55.1801 107.737 55.1994C107.75 55.2199 108.802 55.2437 110.888 55.2517H110.887Z" fill="#F9F9F9"/>
<path d="M37.4361 82.0058C38.6587 82.3262 39.5132 83.1284 39.5132 84.3772C39.5132 86.4951 37.8452 87.2735 35.7181 87.2735H32.2344V77.0495C35.6874 77.0495 37.193 76.8791 38.2951 77.7778C38.8882 78.263 39.1859 78.9255 39.1859 79.7651C39.1859 80.823 38.603 81.5706 37.4361 82.007V82.0058ZM37.7963 79.8799C37.7963 78.7527 36.8578 78.3255 35.7352 78.3255H33.6251V81.532C35.4999 81.532 36.4555 81.6399 37.1986 81.09C37.5963 80.7957 37.7963 80.3924 37.7963 79.8799ZM38.1235 84.3942C38.1235 83.3261 37.2952 82.7921 35.6374 82.7921H33.6251V85.9986H35.8488C37.3645 85.9986 38.1224 85.4634 38.1224 84.3953L38.1235 84.3942Z" fill="#F9F9F9"/>
<path d="M48.704 77.0498L45.1555 83.2174V87.2726H43.7648V83.2003L40.1992 77.0498H41.7695L44.4851 81.8266L47.1667 77.0498H48.704Z" fill="#F9F9F9"/>
<path d="M60.3684 87.2726H53.8906V77.0498H60.3684V78.3417H55.2814V81.4982H59.5173V82.7901H55.2814V85.9807H60.3684V87.2726ZM59.6639 73.0752L57.2766 76.0363H56.2949L58.0277 73.0752H59.6639Z" fill="#F9F9F9"/>
<path d="M70.9354 82.0878C70.9354 85.1795 69.0503 87.2736 65.4552 87.2736H62.4453V77.0508H65.5211C69.0162 77.0508 70.9354 79.1256 70.9354 82.0878ZM69.5446 82.1855C69.5446 79.6323 68.0084 78.3416 65.4552 78.3416H63.8361V85.9805C65.6098 85.9805 67.2039 86.1453 68.4652 85.0079C69.1844 84.3591 69.5446 83.4183 69.5446 82.1866V82.1855Z" fill="#F9F9F9"/>
<path d="M79.4571 87.2726H72.9805V77.0498H79.4571V78.3429H74.3701V81.4994H78.6072V82.7913H74.3701V85.9807H79.4571V87.2726Z" fill="#F9F9F9"/>
<path d="M88.5158 85.2943V77.0508H89.8747V87.3713H88.3692L82.8902 79.029V87.2736H81.5312V77.0508H83.0697L88.5158 85.2943Z" fill="#F9F9F9"/>
</svg>
